<svg width="75" height="75" viewBox="0 0 75 75" fill="none" xmlns="http://www.w3.org/2000/svg">
<path d="M74.34 63.0422L41.4352 8.47246C40.6036 7.09331 39.1105 6.25 37.4999 6.25C35.8893 6.25 34.3962 7.09316 33.5646 8.47246L0.660052 63.0422C-0.195711 64.4615 -0.221052 66.2318 0.593988 67.6748C1.40903 69.1179 2.93789 70.0103 4.59521 70.0103H70.4047C72.062 70.0103 73.5909 69.1178 74.4059 67.6748C75.221 66.2316 75.1958 64.4615 74.34 63.0422ZM37.5245 25.1263C39.4143 25.1263 41.0133 26.1924 41.0133 28.0821C41.0133 33.8481 40.335 42.1342 40.335 47.9002C40.335 49.4024 38.6874 50.0322 37.5245 50.0322C35.9741 50.0322 34.6657 49.4023 34.6657 47.9002C34.6657 42.1342 33.9875 33.8481 33.9875 28.0821C33.9875 26.1924 35.5379 25.1263 37.5245 25.1263ZM37.573 60.8379C35.441 60.8379 33.8419 59.0936 33.8419 57.1069C33.8419 55.0718 35.4409 53.376 37.573 53.376C39.5596 53.376 41.2556 55.0718 41.2556 57.1069C41.2556 59.0936 39.5596 60.8379 37.573 60.8379Z" fill="url(#paint0_linear_3756_9616)"/>
<defs>
<linearGradient id="paint0_linear_3756_9616" x1="45" y1="6" x2="-1.00244e-05" y2="70.9427" gradientUnits="userSpaceOnUse">
<stop stop-color="#FFF9DB"/>
<stop offset="0.5638" stop-color="#FFEA79"/>
<stop offset="1" stop-color="#F1890F"/>
</linearGradient>
</defs>
</svg>
