<svg width="7" height="10" viewBox="0 0 7 10" fill="none" xmlns="http://www.w3.org/2000/svg">
<path d="M3.56436 9.62607C2.92232 9.62607 2.37544 9.45135 1.92374 9.10192C1.47203 8.74964 1.12686 8.2397 0.888228 7.57209C0.649592 6.90163 0.530273 6.09197 0.530273 5.14311C0.530273 4.19993 0.649592 3.39453 0.888228 2.72692C1.12971 2.05646 1.4763 1.5451 1.928 1.19283C2.38255 0.837713 2.928 0.660156 3.56436 0.660156C4.20073 0.660156 4.74476 0.837713 5.19647 1.19283C5.65101 1.5451 5.9976 2.05646 6.23624 2.72692C6.47772 3.39453 6.59846 4.19993 6.59846 5.14311C6.59846 6.09197 6.47914 6.90163 6.2405 7.57209C6.00186 8.2397 5.65669 8.74964 5.20499 9.10192C4.75328 9.45135 4.20641 9.62607 3.56436 9.62607ZM3.56436 8.68857C4.20073 8.68857 4.69505 8.38175 5.04732 7.76811C5.39959 7.15447 5.57573 6.27947 5.57573 5.14311C5.57573 4.38743 5.49476 3.74396 5.33283 3.21271C5.17374 2.68146 4.94363 2.27663 4.64249 1.99822C4.34419 1.71982 3.98482 1.58061 3.56436 1.58061C2.93368 1.58061 2.44078 1.89169 2.08567 2.51385C1.73056 3.13317 1.553 4.00959 1.553 5.14311C1.553 5.89879 1.63255 6.54084 1.79164 7.06925C1.95073 7.59766 2.17942 7.99965 2.47772 8.27521C2.77885 8.55078 3.14107 8.68857 3.56436 8.68857Z" fill="#818798"/>
</svg>
