<svg width="7" height="10" viewBox="0 0 7 10" fill="none" xmlns="http://www.w3.org/2000/svg">
<path d="M3.24991 9.83017C2.60787 9.83017 2.06099 9.65545 1.60929 9.30602C1.15758 8.95375 0.812411 8.4438 0.573775 7.77619C0.335138 7.10574 0.21582 6.29608 0.21582 5.34721C0.21582 4.40403 0.335138 3.59863 0.573775 2.93102C0.815252 2.26056 1.16184 1.7492 1.61355 1.39693C2.06809 1.04181 2.61355 0.864258 3.24991 0.864258C3.88628 0.864258 4.43031 1.04181 4.88201 1.39693C5.33656 1.7492 5.68315 2.26056 5.92179 2.93102C6.16326 3.59863 6.284 4.40403 6.284 5.34721C6.284 6.29608 6.16468 7.10574 5.92605 7.77619C5.68741 8.4438 5.34224 8.95375 4.89054 9.30602C4.43883 9.65545 3.89196 9.83017 3.24991 9.83017ZM3.24991 8.89267C3.88628 8.89267 4.38059 8.58585 4.73287 7.97221C5.08514 7.35858 5.26128 6.48358 5.26128 5.34721C5.26128 4.59153 5.18031 3.94806 5.01838 3.41681C4.85929 2.88556 4.62917 2.48074 4.32804 2.20233C4.02974 1.92392 3.67037 1.78471 3.24991 1.78471C2.61923 1.78471 2.12633 2.09579 1.77122 2.71795C1.4161 3.33727 1.23855 4.21369 1.23855 5.34721C1.23855 6.10289 1.31809 6.74494 1.47718 7.27335C1.63628 7.80176 1.86497 8.20375 2.16326 8.47931C2.4644 8.75488 2.82662 8.89267 3.24991 8.89267Z" fill="#818798"/>
</svg>
