<svg width="63" height="10" viewBox="0 0 63 10" fill="none" xmlns="http://www.w3.org/2000/svg">
<path d="M57.0273 8.84641V0.119141H62.2944V1.05664H58.0842V4.0055H62.0217V4.943H58.0842V7.90891H62.3626V8.84641H57.0273Z" fill="#818798"/>
<path d="M54.9126 0.119141V8.84641H53.8899L49.1342 1.99414H49.049V8.84641H47.9922V0.119141H49.0149L53.7876 6.98846H53.8729V0.119141H54.9126Z" fill="#818798"/>
<path d="M45.8732 0.119141V8.84641H44.8164V0.119141H45.8732Z" fill="#818798"/>
<path d="M38.0664 8.84641V0.119141H39.1232V7.90891H43.18V8.84641H38.0664Z" fill="#818798"/>
<path d="M35.9517 0.119141V8.84641H34.929L30.1733 1.99414H30.0881V8.84641H29.0312V0.119141H30.054L34.8267 6.98846H34.9119V0.119141H35.9517Z" fill="#818798"/>
<path d="M27.2543 4.48295C27.2543 5.40341 27.0882 6.19886 26.7558 6.86932C26.4234 7.53977 25.9674 8.05682 25.3879 8.42045C24.8083 8.78409 24.1464 8.96591 23.4021 8.96591C22.6578 8.96591 21.9958 8.78409 21.4163 8.42045C20.8367 8.05682 20.3808 7.53977 20.0484 6.86932C19.716 6.19886 19.5498 5.40341 19.5498 4.48295C19.5498 3.5625 19.716 2.76705 20.0484 2.09659C20.3808 1.42614 20.8367 0.909091 21.4163 0.545455C21.9958 0.181818 22.6578 0 23.4021 0C24.1464 0 24.8083 0.181818 25.3879 0.545455C25.9674 0.909091 26.4234 1.42614 26.7558 2.09659C27.0882 2.76705 27.2543 3.5625 27.2543 4.48295ZM26.2316 4.48295C26.2316 3.72727 26.1052 3.08949 25.8524 2.5696C25.6024 2.04972 25.2629 1.65625 24.8339 1.3892C24.4078 1.12216 23.9305 0.988636 23.4021 0.988636C22.8737 0.988636 22.395 1.12216 21.966 1.3892C21.5399 1.65625 21.2004 2.04972 20.9475 2.5696C20.6975 3.08949 20.5725 3.72727 20.5725 4.48295C20.5725 5.23864 20.6975 5.87642 20.9475 6.39631C21.2004 6.91619 21.5399 7.30966 21.966 7.5767C22.395 7.84375 22.8737 7.97727 23.4021 7.97727C23.9305 7.97727 24.4078 7.84375 24.8339 7.5767C25.2629 7.30966 25.6024 6.91619 25.8524 6.39631C26.1052 5.87642 26.2316 5.23864 26.2316 4.48295Z" fill="#818798"/>
<path d="M11.6739 8.96573C11.1057 8.96573 10.5972 8.8592 10.1483 8.64613C9.69949 8.43022 9.34295 8.13477 9.07875 7.75977C8.81738 7.38477 8.67818 6.95579 8.66113 6.47283H10.1952C10.2236 6.83079 10.3785 7.1234 10.6597 7.35067C10.941 7.57511 11.279 7.68732 11.6739 7.68732C11.9836 7.68732 12.2591 7.6163 12.5006 7.47425C12.7421 7.33221 12.9324 7.13477 13.0716 6.88192C13.2108 6.62908 13.279 6.34073 13.2762 6.01687C13.279 5.68732 13.2094 5.39471 13.0674 5.13903C12.9253 4.88335 12.7307 4.68306 12.4836 4.53817C12.2364 4.39045 11.9523 4.31658 11.6313 4.31658C11.3699 4.31374 11.1128 4.36204 10.86 4.46147C10.6072 4.5609 10.4069 4.69158 10.2591 4.85352L8.83159 4.61914L9.28755 0.119141H14.3501V1.44016H10.5958L10.3444 3.75408H10.3955C10.5574 3.56374 10.7861 3.40607 11.0816 3.28107C11.377 3.15323 11.7009 3.08931 12.0532 3.08931C12.5816 3.08931 13.0532 3.21431 13.468 3.46431C13.8827 3.71147 14.2094 4.05238 14.4481 4.48704C14.6867 4.9217 14.806 5.41886 14.806 5.97852C14.806 6.55522 14.6725 7.06943 14.4055 7.52113C14.1412 7.96999 13.7733 8.32369 13.3018 8.58221C12.833 8.83789 12.2904 8.96573 11.6739 8.96573Z" fill="#19CAFF"/>
<path d="M3.86222 9.01278C3.16051 9.01278 2.55824 8.83523 2.0554 8.48011C1.5554 8.12216 1.17045 7.60653 0.900568 6.93324C0.633523 6.2571 0.5 5.44318 0.5 4.49148C0.502841 3.53977 0.637784 2.73011 0.90483 2.0625C1.17472 1.39205 1.55966 0.880682 2.05966 0.528409C2.5625 0.176136 3.16335 0 3.86222 0C4.56108 0 5.16193 0.176136 5.66477 0.528409C6.16761 0.880682 6.55256 1.39205 6.8196 2.0625C7.08949 2.73295 7.22443 3.54261 7.22443 4.49148C7.22443 5.44602 7.08949 6.26136 6.8196 6.9375C6.55256 7.6108 6.16761 8.125 5.66477 8.48011C5.16477 8.83523 4.56392 9.01278 3.86222 9.01278ZM3.86222 7.67898C4.40767 7.67898 4.83807 7.41051 5.15341 6.87358C5.47159 6.33381 5.63068 5.53977 5.63068 4.49148C5.63068 3.7983 5.55824 3.21591 5.41335 2.74432C5.26847 2.27273 5.06392 1.91761 4.79972 1.67898C4.53551 1.4375 4.22301 1.31676 3.86222 1.31676C3.3196 1.31676 2.89062 1.58665 2.57528 2.12642C2.25994 2.66335 2.10085 3.4517 2.09801 4.49148C2.09517 5.1875 2.16477 5.77273 2.30682 6.24716C2.4517 6.72159 2.65625 7.07955 2.92045 7.32102C3.18466 7.55966 3.49858 7.67898 3.86222 7.67898Z" fill="#19CAFF"/>
</svg>
