<svg width="41" height="25" viewBox="0 0 41 25" fill="none" xmlns="http://www.w3.org/2000/svg">
<path d="M30.9856 23.9091C29.2356 23.9091 27.6788 23.625 26.3152 23.0568C24.9591 22.4811 23.8947 21.697 23.122 20.7045C22.3493 19.7121 21.9629 18.5871 21.9629 17.3295C21.9629 16.3598 22.1826 15.4697 22.622 14.6591C23.069 13.8409 23.675 13.1629 24.4402 12.625C25.2053 12.0795 26.0614 11.7311 27.0083 11.5795V11.4205C25.7659 11.1705 24.7583 10.5682 23.9856 9.61364C23.2129 8.65152 22.8265 7.53409 22.8265 6.26136C22.8265 5.05682 23.1788 3.98485 23.8833 3.04545C24.5879 2.09848 25.5538 1.35606 26.7811 0.818182C28.0159 0.272727 29.4174 0 30.9856 0C32.5538 0 33.9515 0.272727 35.1788 0.818182C36.4136 1.36364 37.3833 2.10985 38.0879 3.05682C38.7924 3.99621 39.1485 5.06439 39.1561 6.26136C39.1485 7.54167 38.7546 8.65909 37.9743 9.61364C37.1939 10.5682 36.194 11.1705 34.9743 11.4205V11.5795C35.9061 11.7311 36.7508 12.0795 37.5083 12.625C38.2735 13.1629 38.8796 13.8409 39.3265 14.6591C39.7811 15.4697 40.0121 16.3598 40.0197 17.3295C40.0121 18.5871 39.622 19.7121 38.8493 20.7045C38.0765 21.697 37.0083 22.4811 35.6447 23.0568C34.2886 23.625 32.7356 23.9091 30.9856 23.9091ZM30.9856 20.2955C31.7659 20.2955 32.4477 20.1553 33.0311 19.875C33.6144 19.5871 34.069 19.1932 34.3947 18.6932C34.728 18.1856 34.8947 17.6023 34.8947 16.9432C34.8947 16.2689 34.7243 15.6742 34.3833 15.1591C34.0424 14.6364 33.5803 14.2273 32.997 13.9318C32.4136 13.6288 31.7432 13.4773 30.9856 13.4773C30.2356 13.4773 29.5652 13.6288 28.9743 13.9318C28.3833 14.2273 27.9174 14.6364 27.5765 15.1591C27.2432 15.6742 27.0765 16.2689 27.0765 16.9432C27.0765 17.6023 27.2394 18.1856 27.5652 18.6932C27.8909 19.1932 28.3493 19.5871 28.9402 19.875C29.5311 20.1553 30.2129 20.2955 30.9856 20.2955ZM30.9856 9.89773C31.6371 9.89773 32.2167 9.76515 32.7243 9.5C33.2318 9.23485 33.6296 8.86742 33.9174 8.39773C34.2053 7.92803 34.3493 7.38636 34.3493 6.77273C34.3493 6.16667 34.2053 5.63636 33.9174 5.18182C33.6296 4.7197 33.2356 4.35985 32.7356 4.10227C32.2356 3.83712 31.6523 3.70455 30.9856 3.70455C30.3265 3.70455 29.7432 3.83712 29.2356 4.10227C28.728 4.35985 28.3303 4.7197 28.0424 5.18182C27.7621 5.63636 27.622 6.16667 27.622 6.77273C27.622 7.38636 27.7659 7.92803 28.0538 8.39773C28.3417 8.86742 28.7394 9.23485 29.247 9.5C29.7546 9.76515 30.3341 9.89773 30.9856 9.89773Z" fill="white"/>
<path d="M9.39784 24.1023C7.4433 24.0947 5.76148 23.6136 4.35239 22.6591C2.95087 21.7045 1.87133 20.322 1.11375 18.5114C0.36375 16.7008 -0.00746211 14.5227 0.000113636 11.9773C0.000113636 9.43939 0.375114 7.27652 1.12511 5.48864C1.88269 3.70076 2.96223 2.34091 4.36375 1.40909C5.77284 0.469697 7.45087 0 9.39784 0C11.3448 0 13.0191 0.469697 14.4206 1.40909C15.8297 2.34849 16.913 3.71212 17.6706 5.5C18.4281 7.2803 18.8031 9.43939 18.7956 11.9773C18.7956 14.5303 18.4168 16.7121 17.6592 18.5227C16.9092 20.3333 15.8334 21.7159 14.4319 22.6705C13.0304 23.625 11.3524 24.1023 9.39784 24.1023ZM9.39784 20.0227C10.7312 20.0227 11.7956 19.3523 12.591 18.0114C13.3865 16.6705 13.7804 14.6591 13.7728 11.9773C13.7728 10.2121 13.591 8.74242 13.2274 7.56818C12.8713 6.39394 12.3638 5.51136 11.7047 4.92045C11.0531 4.32955 10.2842 4.03409 9.39784 4.03409C8.07208 4.03409 7.01148 4.69697 6.21602 6.02273C5.42057 7.34849 5.01905 9.33333 5.01148 11.9773C5.01148 13.7652 5.18951 15.2576 5.54557 16.4545C5.9092 17.6439 6.42057 18.5379 7.07966 19.1364C7.73875 19.7273 8.51148 20.0227 9.39784 20.0227Z" fill="white"/>
</svg>
