<svg width="18" height="12" viewBox="0 0 18 12" fill="none" xmlns="http://www.w3.org/2000/svg">
<path d="M12.7057 9.18209V8.64515C12.7057 8.25074 12.7886 7.88781 12.9543 7.55637C13.1233 7.22494 13.3686 6.95813 13.6901 6.75595C14.0116 6.55377 14.401 6.45268 14.8584 6.45268C15.329 6.45268 15.7235 6.55377 16.0416 6.75595C16.3598 6.95481 16.6001 7.21996 16.7625 7.5514C16.9282 7.88284 17.0111 8.24743 17.0111 8.64515V9.18209C17.0111 9.5765 16.9282 9.93942 16.7625 10.2709C16.5968 10.6023 16.3532 10.8691 16.0317 11.0713C15.7135 11.2735 15.3224 11.3746 14.8584 11.3746C14.3944 11.3746 14.0016 11.2735 13.6801 11.0713C13.3586 10.8691 13.115 10.6023 12.9493 10.2709C12.7869 9.93942 12.7057 9.5765 12.7057 9.18209ZM14.0033 8.64515V9.18209C14.0033 9.44392 14.0663 9.68422 14.1922 9.90297C14.3182 10.1217 14.5402 10.2311 14.8584 10.2311C15.1799 10.2311 15.4003 10.1234 15.5196 9.90794C15.6423 9.68919 15.7036 9.44724 15.7036 9.18209V8.64515C15.7036 8.38 15.6456 8.13805 15.5296 7.9193C15.4136 7.69724 15.1898 7.5862 14.8584 7.5862C14.5468 7.5862 14.3264 7.69724 14.1972 7.9193C14.0679 8.13805 14.0033 8.38 14.0033 8.64515ZM7.53027 3.35538V2.81845C7.53027 2.42072 7.61479 2.05614 7.78382 1.7247C7.95286 1.39326 8.19812 1.12811 8.51962 0.929244C8.84112 0.727065 9.23056 0.625977 9.68794 0.625977C10.1553 0.625977 10.548 0.727065 10.8662 0.929244C11.1877 1.12811 11.4297 1.39326 11.5921 1.7247C11.7545 2.05614 11.8357 2.42072 11.8357 2.81845V3.35538C11.8357 3.75311 11.7528 4.11769 11.5871 4.44913C11.4247 4.77726 11.1827 5.04075 10.8612 5.23961C10.5397 5.43848 10.1486 5.53791 9.68794 5.53791C9.22061 5.53791 8.8262 5.43848 8.50471 5.23961C8.18652 5.04075 7.94457 4.7756 7.77885 4.44416C7.61313 4.11272 7.53027 3.74979 7.53027 3.35538ZM8.8378 2.81845V3.35538C8.8378 3.62053 8.89912 3.86248 9.02175 4.08123C9.1477 4.29667 9.36976 4.40439 9.68794 4.40439C10.0061 4.40439 10.2249 4.29667 10.3442 4.08123C10.4668 3.86248 10.5281 3.62053 10.5281 3.35538V2.81845C10.5281 2.5533 10.4701 2.31135 10.3541 2.0926C10.2381 1.87053 10.0161 1.7595 9.68794 1.7595C9.37308 1.7595 9.15267 1.87053 9.02672 2.0926C8.90078 2.31466 8.8378 2.55661 8.8378 2.81845ZM8.09704 11.0912L15.097 0.909358H16.3399L9.33993 11.0912H8.09704Z" fill="white"/>
<path d="M4.67614 0.90918V11.091H2.83168V2.70392H2.77202L0.390625 4.22523V2.53489L2.92116 0.90918H4.67614Z" fill="white"/>
</svg>
