<svg width="13" height="10" viewBox="0 0 13 10" fill="none" xmlns="http://www.w3.org/2000/svg">
<path d="M9.34561 9.65927C8.70357 9.65927 8.15669 9.48455 7.70499 9.13512C7.25328 8.78285 6.90811 8.2729 6.66948 7.60529C6.43084 6.93484 6.31152 6.12518 6.31152 5.17631C6.31152 4.23313 6.43084 3.42773 6.66948 2.76012C6.91096 2.08967 7.25755 1.5783 7.70925 1.22603C8.1638 0.870916 8.70925 0.693359 9.34561 0.693359C9.98198 0.693359 10.526 0.870916 10.9777 1.22603C11.4323 1.5783 11.7789 2.08967 12.0175 2.76012C12.259 3.42773 12.3797 4.23313 12.3797 5.17631C12.3797 6.12518 12.2604 6.93484 12.0218 7.60529C11.7831 8.2729 11.4379 8.78285 10.9862 9.13512C10.5345 9.48455 9.98766 9.65927 9.34561 9.65927ZM9.34561 8.72177C9.98198 8.72177 10.4763 8.41495 10.8286 7.80131C11.1808 7.18768 11.357 6.31268 11.357 5.17631C11.357 4.42063 11.276 3.77717 11.1141 3.24592C10.955 2.71467 10.7249 2.30984 10.4237 2.03143C10.1254 1.75302 9.76607 1.61381 9.34561 1.61381C8.71493 1.61381 8.22204 1.92489 7.86692 2.54705C7.51181 3.16637 7.33425 4.04279 7.33425 5.17631C7.33425 5.932 7.4138 6.57404 7.57289 7.10245C7.73198 7.63086 7.96067 8.03285 8.25897 8.30842C8.5601 8.58398 8.92232 8.72177 9.34561 8.72177Z" fill="#818798"/>
<path d="M3.98864 0.8125V9.53977H2.93182V1.92045H2.88068L0.75 3.33523V2.26136L2.93182 0.8125H3.98864Z" fill="#818798"/>
</svg>
