<svg width="20" height="9" viewBox="0 0 20 9" fill="none" xmlns="http://www.w3.org/2000/svg">
<path d="M16.0956 8.96591C15.4536 8.96591 14.9067 8.79119 14.455 8.44176C14.0033 8.08949 13.6581 7.57955 13.4195 6.91193C13.1808 6.24148 13.0615 5.43182 13.0615 4.48295C13.0615 3.53977 13.1808 2.73437 13.4195 2.06676C13.661 1.39631 14.0075 0.884943 14.4593 0.53267C14.9138 0.177557 15.4593 0 16.0956 0C16.732 0 17.276 0.177557 17.7277 0.53267C18.1823 0.884943 18.5289 1.39631 18.7675 2.06676C19.009 2.73437 19.1297 3.53977 19.1297 4.48295C19.1297 5.43182 19.0104 6.24148 18.7718 6.91193C18.5331 7.57955 18.1879 8.08949 17.7362 8.44176C17.2845 8.79119 16.7377 8.96591 16.0956 8.96591ZM16.0956 8.02841C16.732 8.02841 17.2263 7.72159 17.5786 7.10795C17.9308 6.49432 18.107 5.61932 18.107 4.48295C18.107 3.72727 18.026 3.08381 17.8641 2.55256C17.705 2.02131 17.4749 1.61648 17.1737 1.33807C16.8754 1.05966 16.5161 0.920455 16.0956 0.920455C15.4649 0.920455 14.972 1.23153 14.6169 1.85369C14.2618 2.47301 14.0843 3.34943 14.0843 4.48295C14.0843 5.23864 14.1638 5.88068 14.3229 6.40909C14.482 6.9375 14.7107 7.33949 15.009 7.61506C15.3101 7.89062 15.6723 8.02841 16.0956 8.02841Z" fill="#818798"/>
<path d="M8.59561 8.96591C7.95357 8.96591 7.40669 8.79119 6.95499 8.44176C6.50328 8.08949 6.15811 7.57955 5.91948 6.91193C5.68084 6.24148 5.56152 5.43182 5.56152 4.48295C5.56152 3.53977 5.68084 2.73437 5.91948 2.06676C6.16096 1.39631 6.50755 0.884943 6.95925 0.53267C7.4138 0.177557 7.95925 0 8.59561 0C9.23198 0 9.77601 0.177557 10.2277 0.53267C10.6823 0.884943 11.0289 1.39631 11.2675 2.06676C11.509 2.73437 11.6297 3.53977 11.6297 4.48295C11.6297 5.43182 11.5104 6.24148 11.2718 6.91193C11.0331 7.57955 10.6879 8.08949 10.2362 8.44176C9.78453 8.79119 9.23766 8.96591 8.59561 8.96591ZM8.59561 8.02841C9.23198 8.02841 9.7263 7.72159 10.0786 7.10795C10.4308 6.49432 10.607 5.61932 10.607 4.48295C10.607 3.72727 10.526 3.08381 10.3641 2.55256C10.205 2.02131 9.97488 1.61648 9.67374 1.33807C9.37544 1.05966 9.01607 0.920455 8.59561 0.920455C7.96493 0.920455 7.47204 1.23153 7.11692 1.85369C6.76181 2.47301 6.58425 3.34943 6.58425 4.48295C6.58425 5.23864 6.6638 5.88068 6.82289 6.40909C6.98198 6.9375 7.21067 7.33949 7.50897 7.61506C7.8101 7.89062 8.17232 8.02841 8.59561 8.02841Z" fill="#818798"/>
<path d="M3.23864 0.119141V8.84641H2.18182V1.2271H2.13068L0 2.64187V1.568L2.18182 0.119141H3.23864Z" fill="#818798"/>
</svg>
