<svg width="65" height="9" viewBox="0 0 65 9" fill="none" xmlns="http://www.w3.org/2000/svg">
<path d="M59.291 8.86985V0.142578H64.5581V1.08008H60.3478V4.02894H64.2853V4.96644H60.3478V7.93235H64.6262V8.86985H59.291Z" fill="#818798"/>
<path d="M57.1763 0.142578V8.86985H56.1536L51.3979 2.01758H51.3127V8.86985H50.2559V0.142578H51.2786L56.0513 7.0119H56.1365V0.142578H57.1763Z" fill="#818798"/>
<path d="M48.1369 0.142578V8.86985H47.0801V0.142578H48.1369Z" fill="#818798"/>
<path d="M40.3301 8.86985V0.142578H41.3869V7.93235H45.4437V8.86985H40.3301Z" fill="#818798"/>
<path d="M33.2871 8.86985V0.142578H38.5201V1.08008H34.3439V4.02894H38.128V4.96644H34.3439V8.86985H33.2871Z" fill="#818798"/>
<path d="M26.2441 8.86985V0.142578H31.4771V1.08008H27.301V4.02894H31.0851V4.96644H27.301V8.86985H26.2441Z" fill="#818798"/>
<path d="M24.4663 4.50639C24.4663 5.42685 24.3001 6.2223 23.9677 6.89276C23.6353 7.56321 23.1793 8.08026 22.5998 8.44389C22.0202 8.80753 21.3583 8.98935 20.614 8.98935C19.8697 8.98935 19.2077 8.80753 18.6282 8.44389C18.0486 8.08026 17.5927 7.56321 17.2603 6.89276C16.9279 6.2223 16.7617 5.42685 16.7617 4.50639C16.7617 3.58594 16.9279 2.79048 17.2603 2.12003C17.5927 1.44957 18.0486 0.932529 18.6282 0.568892C19.2077 0.205256 19.8697 0.0234375 20.614 0.0234375C21.3583 0.0234375 22.0202 0.205256 22.5998 0.568892C23.1793 0.932529 23.6353 1.44957 23.9677 2.12003C24.3001 2.79048 24.4663 3.58594 24.4663 4.50639ZM23.4435 4.50639C23.4435 3.75071 23.3171 3.11293 23.0643 2.59304C22.8143 2.07315 22.4748 1.67969 22.0458 1.41264C21.6197 1.1456 21.1424 1.01207 20.614 1.01207C20.0856 1.01207 19.6069 1.1456 19.1779 1.41264C18.7518 1.67969 18.4123 2.07315 18.1594 2.59304C17.9094 3.11293 17.7844 3.75071 17.7844 4.50639C17.7844 5.26207 17.9094 5.89986 18.1594 6.41974C18.4123 6.93963 18.7518 7.3331 19.1779 7.60014C19.6069 7.86719 20.0856 8.00071 20.614 8.00071C21.1424 8.00071 21.6197 7.86719 22.0458 7.60014C22.4748 7.3331 22.8143 6.93963 23.0643 6.41974C23.3171 5.89986 23.4435 5.26207 23.4435 4.50639Z" fill="#818798"/>
<path d="M9.28524 8.98917C8.71706 8.98917 8.20854 8.88264 7.75968 8.66957C7.31081 8.45366 6.95428 8.1582 6.69007 7.7832C6.42871 7.4082 6.28951 6.97923 6.27246 6.49627H7.80655C7.83496 6.85423 7.98979 7.14684 8.27104 7.37411C8.55229 7.59854 8.89036 7.71076 9.28524 7.71076C9.5949 7.71076 9.87047 7.63974 10.1119 7.49769C10.3534 7.35565 10.5438 7.1582 10.683 6.90536C10.8222 6.65252 10.8904 6.36417 10.8875 6.04031C10.8904 5.71076 10.8208 5.41815 10.6787 5.16247C10.5367 4.90678 10.3421 4.7065 10.0949 4.56161C9.84774 4.41389 9.56365 4.34002 9.24263 4.34002C8.98127 4.33718 8.72417 4.38548 8.47132 4.48491C8.21848 4.58434 8.0182 4.71502 7.87047 4.87695L6.44292 4.64258L6.89888 0.142578H11.9614V1.4636H8.20712L7.9557 3.77752H8.00684C8.16877 3.58718 8.39746 3.42951 8.69292 3.30451C8.98837 3.17667 9.31223 3.11275 9.66451 3.11275C10.1929 3.11275 10.6645 3.23775 11.0793 3.48775C11.4941 3.73491 11.8208 4.07582 12.0594 4.51048C12.298 4.94514 12.4173 5.44229 12.4173 6.00195C12.4173 6.57866 12.2838 7.09286 12.0168 7.54457C11.7526 7.99343 11.3847 8.34712 10.9131 8.60565C10.4443 8.86133 9.90172 8.98917 9.28524 8.98917Z" fill="white"/>
<path d="M4.0356 0.142578V8.86985H2.45463V1.68093H2.4035L0.362305 2.98491V1.53604L2.53134 0.142578H4.0356Z" fill="white"/>
</svg>
