<svg width="27" height="12" viewBox="0 0 27 12" fill="none" xmlns="http://www.w3.org/2000/svg">
<path d="M21.9772 9.18209V8.64515C21.9772 8.25074 22.06 7.88781 22.2258 7.55637C22.3948 7.22494 22.6401 6.95813 22.9616 6.75595C23.2831 6.55377 23.6725 6.45268 24.1299 6.45268C24.6005 6.45268 24.9949 6.55377 25.3131 6.75595C25.6313 6.95481 25.8716 7.21996 26.034 7.5514C26.1997 7.88284 26.2826 8.24743 26.2826 8.64515V9.18209C26.2826 9.5765 26.1997 9.93942 26.034 10.2709C25.8683 10.6023 25.6247 10.8691 25.3032 11.0713C24.985 11.2735 24.5939 11.3746 24.1299 11.3746C23.6659 11.3746 23.2731 11.2735 22.9516 11.0713C22.6301 10.8691 22.3865 10.6023 22.2208 10.2709C22.0584 9.93942 21.9772 9.5765 21.9772 9.18209ZM23.2748 8.64515V9.18209C23.2748 9.44392 23.3377 9.68422 23.4637 9.90297C23.5896 10.1217 23.8117 10.2311 24.1299 10.2311C24.4514 10.2311 24.6718 10.1234 24.7911 9.90794C24.9137 9.68919 24.9751 9.44724 24.9751 9.18209V8.64515C24.9751 8.38 24.9171 8.13805 24.801 7.9193C24.685 7.69724 24.4613 7.5862 24.1299 7.5862C23.8183 7.5862 23.5979 7.69724 23.4687 7.9193C23.3394 8.13805 23.2748 8.38 23.2748 8.64515ZM16.8018 3.35538V2.81845C16.8018 2.42072 16.8863 2.05614 17.0553 1.7247C17.2243 1.39326 17.4696 1.12811 17.7911 0.929244C18.1126 0.727065 18.502 0.625977 18.9594 0.625977C19.4268 0.625977 19.8195 0.727065 20.1377 0.929244C20.4592 1.12811 20.7011 1.39326 20.8635 1.7247C21.026 2.05614 21.1072 2.42072 21.1072 2.81845V3.35538C21.1072 3.75311 21.0243 4.11769 20.8586 4.44913C20.6962 4.77726 20.4542 5.04075 20.1327 5.23961C19.8112 5.43848 19.4201 5.53791 18.9594 5.53791C18.4921 5.53791 18.0977 5.43848 17.7762 5.23961C17.458 5.04075 17.2161 4.7756 17.0503 4.44416C16.8846 4.11272 16.8018 3.74979 16.8018 3.35538ZM18.1093 2.81845V3.35538C18.1093 3.62053 18.1706 3.86248 18.2932 4.08123C18.4192 4.29667 18.6412 4.40439 18.9594 4.40439C19.2776 4.40439 19.4964 4.29667 19.6157 4.08123C19.7383 3.86248 19.7996 3.62053 19.7996 3.35538V2.81845C19.7996 2.5533 19.7416 2.31135 19.6256 2.0926C19.5096 1.87053 19.2876 1.7595 18.9594 1.7595C18.6446 1.7595 18.4242 1.87053 18.2982 2.0926C18.1723 2.31466 18.1093 2.55661 18.1093 2.81845ZM17.3685 11.0912L24.3685 0.909358H25.6114L18.6114 11.0912H17.3685Z" fill="white"/>
<path d="M11.2132 11.2302C10.5503 11.2302 9.957 11.1059 9.43333 10.8573C8.90965 10.6054 8.4937 10.2607 8.18546 9.82324C7.88053 9.38574 7.71813 8.88527 7.69824 8.32182H9.48802C9.52116 8.73944 9.70179 9.08082 10.0299 9.34597C10.358 9.60781 10.7525 9.73873 11.2132 9.73873C11.5744 9.73873 11.8959 9.65587 12.1776 9.49015C12.4594 9.32443 12.6814 9.09408 12.8438 8.79909C13.0062 8.50411 13.0858 8.1677 13.0825 7.78986C13.0858 7.40539 13.0046 7.06401 12.8389 6.76571C12.6731 6.46742 12.4461 6.23375 12.1578 6.06472C11.8694 5.89237 11.538 5.8062 11.1634 5.8062C10.8585 5.80288 10.5586 5.85923 10.2636 5.97523C9.9686 6.09123 9.73494 6.2437 9.56259 6.43262L7.89711 6.15918L8.42907 0.90918H14.3353V2.45037H9.95534L9.66202 5.14995H9.72168C9.9106 4.92788 10.1774 4.74393 10.5221 4.5981C10.8668 4.44895 11.2446 4.37438 11.6556 4.37438C12.2721 4.37438 12.8223 4.52021 13.3062 4.81188C13.7901 5.10023 14.1713 5.49796 14.4497 6.00506C14.7281 6.51216 14.8673 7.09218 14.8673 7.74512C14.8673 8.41794 14.7115 9.01785 14.3999 9.54483C14.0917 10.0685 13.6625 10.4811 13.1123 10.7828C12.5654 11.0811 11.9324 11.2302 11.2132 11.2302Z" fill="white"/>
<path d="M5.08825 0.90918V11.091H3.24379V2.70392H3.18413L0.802734 4.22523V2.53489L3.33327 0.90918H5.08825Z" fill="white"/>
</svg>
