<svg width="27" height="12" viewBox="0 0 27 12" fill="none" xmlns="http://www.w3.org/2000/svg">
<path d="M21.7731 9.18209V8.64515C21.7731 8.25074 21.8559 7.88781 22.0217 7.55637C22.1907 7.22494 22.436 6.95813 22.7575 6.75595C23.079 6.55377 23.4684 6.45268 23.9258 6.45268C24.3964 6.45268 24.7908 6.55377 25.109 6.75595C25.4272 6.95481 25.6675 7.21996 25.8299 7.5514C25.9956 7.88284 26.0785 8.24743 26.0785 8.64515V9.18209C26.0785 9.5765 25.9956 9.93942 25.8299 10.2709C25.6642 10.6023 25.4206 10.8691 25.0991 11.0713C24.7809 11.2735 24.3898 11.3746 23.9258 11.3746C23.4618 11.3746 23.069 11.2735 22.7475 11.0713C22.426 10.8691 22.1824 10.6023 22.0167 10.2709C21.8543 9.93942 21.7731 9.5765 21.7731 9.18209ZM23.0707 8.64515V9.18209C23.0707 9.44392 23.1336 9.68422 23.2596 9.90297C23.3855 10.1217 23.6076 10.2311 23.9258 10.2311C24.2473 10.2311 24.4677 10.1234 24.587 9.90794C24.7096 9.68919 24.771 9.44724 24.771 9.18209V8.64515C24.771 8.38 24.713 8.13805 24.5969 7.9193C24.4809 7.69724 24.2572 7.5862 23.9258 7.5862C23.6142 7.5862 23.3938 7.69724 23.2646 7.9193C23.1353 8.13805 23.0707 8.38 23.0707 8.64515ZM16.5977 3.35538V2.81845C16.5977 2.42072 16.6822 2.05614 16.8512 1.7247C17.0202 1.39326 17.2655 1.12811 17.587 0.929244C17.9085 0.727065 18.2979 0.625977 18.7553 0.625977C19.2227 0.625977 19.6154 0.727065 19.9336 0.929244C20.2551 1.12811 20.497 1.39326 20.6594 1.7247C20.8219 2.05614 20.9031 2.42072 20.9031 2.81845V3.35538C20.9031 3.75311 20.8202 4.11769 20.6545 4.44913C20.4921 4.77726 20.2501 5.04075 19.9286 5.23961C19.6071 5.43848 19.216 5.53791 18.7553 5.53791C18.288 5.53791 17.8936 5.43848 17.5721 5.23961C17.2539 5.04075 17.012 4.7756 16.8462 4.44416C16.6805 4.11272 16.5977 3.74979 16.5977 3.35538ZM17.9052 2.81845V3.35538C17.9052 3.62053 17.9665 3.86248 18.0891 4.08123C18.2151 4.29667 18.4371 4.40439 18.7553 4.40439C19.0735 4.40439 19.2923 4.29667 19.4116 4.08123C19.5342 3.86248 19.5955 3.62053 19.5955 3.35538V2.81845C19.5955 2.5533 19.5375 2.31135 19.4215 2.0926C19.3055 1.87053 19.0835 1.7595 18.7553 1.7595C18.4405 1.7595 18.2201 1.87053 18.0941 2.0926C17.9682 2.31466 17.9052 2.55661 17.9052 2.81845ZM17.1644 11.0912L24.1644 0.909358H25.4073L18.4073 11.0912H17.1644Z" fill="white"/>
<path d="M10.7853 0.769741C11.2725 0.773055 11.7465 0.859229 12.2072 1.02826C12.6712 1.19398 13.0888 1.46576 13.46 1.8436C13.8313 2.21813 14.1262 2.72026 14.345 3.35C14.5637 3.97973 14.6731 4.75861 14.6731 5.68664C14.6764 6.56164 14.5836 7.34384 14.3947 8.03324C14.2091 8.71931 13.9423 9.29933 13.5943 9.77329C13.2463 10.2473 12.827 10.6085 12.3365 10.8571C11.8459 11.1057 11.2941 11.23 10.6809 11.23C10.0379 11.23 9.46786 11.104 8.9707 10.8521C8.47686 10.6002 8.07747 10.2555 7.77255 9.81804C7.46763 9.38054 7.28036 8.88006 7.21076 8.31662H9.02539C9.11819 8.72097 9.30711 9.04247 9.59215 9.28111C9.8805 9.51643 10.2434 9.63409 10.6809 9.63409C11.3869 9.63409 11.9305 9.32751 12.3116 8.71434C12.6928 8.10118 12.8833 7.24938 12.8833 6.15895H12.8137C12.6513 6.45061 12.4409 6.70251 12.1824 6.91463C11.9238 7.12343 11.6305 7.28418 11.3024 7.39687C10.9776 7.50956 10.6329 7.56591 10.2683 7.56591C9.6717 7.56591 9.13477 7.42339 8.65749 7.13835C8.18353 6.85331 7.80735 6.46221 7.52894 5.96505C7.25385 5.46789 7.11464 4.89948 7.11133 4.2598C7.11133 3.59692 7.26379 3.00199 7.56871 2.475C7.87695 1.94469 8.30617 1.52708 8.85636 1.22216C9.40655 0.913916 10.0495 0.763112 10.7853 0.769741ZM10.7903 2.26122C10.4324 2.26122 10.1092 2.34905 9.82085 2.52471C9.53581 2.69706 9.31043 2.93238 9.14471 3.23068C8.9823 3.52566 8.9011 3.85544 8.9011 4.22002C8.90442 4.58129 8.98562 4.90942 9.14471 5.2044C9.30711 5.49938 9.52752 5.73305 9.80593 5.90539C10.0877 6.07774 10.4092 6.16392 10.7704 6.16392C11.0389 6.16392 11.2891 6.11254 11.5211 6.0098C11.7531 5.90705 11.9553 5.76453 12.1277 5.58224C12.3033 5.39663 12.4392 5.18617 12.5353 4.95085C12.6348 4.71553 12.6828 4.46695 12.6795 4.20511C12.6795 3.8571 12.5967 3.5356 12.4309 3.24062C12.2685 2.94564 12.0448 2.70866 11.7598 2.52968C11.478 2.35071 11.1549 2.26122 10.7903 2.26122Z" fill="white"/>
<path d="M4.66539 0.90918V11.091H2.82093V2.70392H2.76127L0.379883 4.22523V2.53489L2.91042 0.90918H4.66539Z" fill="white"/>
</svg>
