<svg width="57" height="37" viewBox="0 0 57 37" fill="none" xmlns="http://www.w3.org/2000/svg">
<path d="M42.8223 36.588C39.8905 36.5766 37.3678 35.855 35.2542 34.4232C33.1519 32.9914 31.5326 30.9175 30.3962 28.2016C29.2712 25.4857 28.7144 22.2187 28.7258 18.4005C28.7258 14.5937 29.2883 11.3493 30.4133 8.66752C31.5496 5.9857 33.1689 3.94593 35.2712 2.54821C37.3848 1.13911 39.9019 0.43457 42.8223 0.43457C45.7428 0.43457 48.2542 1.13911 50.3564 2.54821C52.4701 3.9573 54.0951 6.00275 55.2314 8.68457C56.3678 11.355 56.9303 14.5937 56.9189 18.4005C56.9189 22.23 56.3508 25.5028 55.2144 28.2187C54.0894 30.9346 52.4758 33.0084 50.3735 34.4403C48.2712 35.8721 45.7542 36.588 42.8223 36.588ZM42.8223 30.4687C44.8223 30.4687 46.4189 29.463 47.6121 27.4516C48.8053 25.4403 49.3962 22.4232 49.3848 18.4005C49.3848 15.7528 49.1121 13.5482 48.5667 11.7868C48.0326 10.0255 47.2712 8.70161 46.2826 7.81525C45.3053 6.92889 44.1519 6.48571 42.8223 6.48571C40.8337 6.48571 39.2428 7.48003 38.0496 9.46866C36.8564 11.4573 36.2542 14.4346 36.2428 18.4005C36.2428 21.0823 36.5098 23.3209 37.0439 25.1164C37.5894 26.9005 38.3564 28.2414 39.3451 29.1391C40.3337 30.0255 41.4928 30.4687 42.8223 30.4687Z" fill="white"/>
<path d="M0.340909 35.8209V30.5028L12.767 18.9971C13.8239 17.9743 14.7102 17.0539 15.4261 16.2357C16.1534 15.4175 16.7045 14.6164 17.0795 13.8323C17.4545 13.0368 17.642 12.1789 17.642 11.2584C17.642 10.2357 17.4091 9.35502 16.9432 8.61639C16.4773 7.86639 15.8409 7.29252 15.0341 6.8948C14.2273 6.48571 13.3125 6.28116 12.2898 6.28116C11.2216 6.28116 10.2898 6.49707 9.49432 6.92889C8.69886 7.36071 8.08523 7.98002 7.65341 8.78684C7.22159 9.59366 7.00568 10.5539 7.00568 11.6675H0C0 9.38343 0.517045 7.40048 1.55114 5.71866C2.58523 4.03684 4.03409 2.73571 5.89773 1.81525C7.76136 0.894796 9.90909 0.43457 12.3409 0.43457C14.8409 0.43457 17.017 0.87775 18.8693 1.76411C20.733 2.63911 22.1818 3.85502 23.2159 5.41184C24.25 6.96866 24.767 8.75275 24.767 10.7641C24.767 12.0823 24.5057 13.3834 23.983 14.6675C23.4716 15.9516 22.5568 17.3778 21.2386 18.9459C19.9205 20.5028 18.0625 22.3721 15.6648 24.5539L10.5682 29.5482V29.7868H25.2273V35.8209H0.340909Z" fill="white"/>
</svg>
