<svg width="22" height="10" viewBox="0 0 22 10" fill="none" xmlns="http://www.w3.org/2000/svg">
<path d="M18.2499 9.86337C17.6079 9.86337 17.061 9.68865 16.6093 9.33922C16.1576 8.98695 15.8124 8.47701 15.5738 7.80939C15.3351 7.13894 15.2158 6.32928 15.2158 5.38042C15.2158 4.43723 15.3351 3.63184 15.5738 2.96422C15.8153 2.29377 16.1618 1.7824 16.6135 1.43013C17.0681 1.07502 17.6135 0.897461 18.2499 0.897461C18.8863 0.897461 19.4303 1.07502 19.882 1.43013C20.3366 1.7824 20.6831 2.29377 20.9218 2.96422C21.1633 3.63184 21.284 4.43723 21.284 5.38042C21.284 6.32928 21.1647 7.13894 20.926 7.80939C20.6874 8.47701 20.3422 8.98695 19.8905 9.33922C19.4388 9.68865 18.892 9.86337 18.2499 9.86337ZM18.2499 8.92587C18.8863 8.92587 19.3806 8.61905 19.7329 8.00542C20.0851 7.39178 20.2613 6.51678 20.2613 5.38042C20.2613 4.62473 20.1803 3.98127 20.0184 3.45002C19.8593 2.91877 19.6292 2.51394 19.328 2.23553C19.0297 1.95712 18.6704 1.81792 18.2499 1.81792C17.6192 1.81792 17.1263 2.129 16.7712 2.75115C16.4161 3.37047 16.2385 4.24689 16.2385 5.38042C16.2385 6.1361 16.3181 6.77814 16.4772 7.30655C16.6363 7.83496 16.865 8.23695 17.1633 8.51252C17.4644 8.78809 17.8266 8.92587 18.2499 8.92587Z" fill="#818798"/>
<path d="M10.7499 9.86337C10.1079 9.86337 9.56099 9.68865 9.10929 9.33922C8.65758 8.98695 8.31241 8.47701 8.07378 7.80939C7.83514 7.13894 7.71582 6.32928 7.71582 5.38042C7.71582 4.43723 7.83514 3.63184 8.07378 2.96422C8.31525 2.29377 8.66184 1.7824 9.11355 1.43013C9.56809 1.07502 10.1135 0.897461 10.7499 0.897461C11.3863 0.897461 11.9303 1.07502 12.382 1.43013C12.8366 1.7824 13.1832 2.29377 13.4218 2.96422C13.6633 3.63184 13.784 4.43723 13.784 5.38042C13.784 6.32928 13.6647 7.13894 13.426 7.80939C13.1874 8.47701 12.8422 8.98695 12.3905 9.33922C11.9388 9.68865 11.392 9.86337 10.7499 9.86337ZM10.7499 8.92587C11.3863 8.92587 11.8806 8.61905 12.2329 8.00542C12.5851 7.39178 12.7613 6.51678 12.7613 5.38042C12.7613 4.62473 12.6803 3.98127 12.5184 3.45002C12.3593 2.91877 12.1292 2.51394 11.828 2.23553C11.5297 1.95712 11.1704 1.81792 10.7499 1.81792C10.1192 1.81792 9.62633 2.129 9.27122 2.75115C8.9161 3.37047 8.73855 4.24689 8.73855 5.38042C8.73855 6.1361 8.81809 6.77814 8.97718 7.30655C9.13628 7.83496 9.36497 8.23695 9.66326 8.51252C9.9644 8.78809 10.3266 8.92587 10.7499 8.92587Z" fill="#818798"/>
<path d="M0.637695 9.74405V8.97701L3.51838 5.8236C3.85645 5.45428 4.13485 5.13326 4.3536 4.86053C4.57235 4.58496 4.73429 4.32644 4.8394 4.08496C4.94735 3.84064 5.00133 3.58496 5.00133 3.31792C5.00133 3.0111 4.92747 2.74547 4.77974 2.52104C4.63485 2.29661 4.43599 2.12331 4.18315 2.00115C3.93031 1.879 3.64622 1.81792 3.33088 1.81792C2.99565 1.81792 2.70304 1.88752 2.45304 2.02672C2.20588 2.16309 2.01412 2.35485 1.87775 2.60201C1.74423 2.84917 1.67747 3.13894 1.67747 3.47132H0.671786C0.671786 2.95996 0.789684 2.5111 1.02548 2.12473C1.26127 1.73837 1.5823 1.43723 1.98855 1.22132C2.39764 1.00542 2.85645 0.897461 3.36497 0.897461C3.87633 0.897461 4.32946 1.00542 4.72434 1.22132C5.11923 1.43723 5.42889 1.72843 5.65332 2.0949C5.87775 2.46138 5.98997 2.86905 5.98997 3.31792C5.98997 3.63894 5.93173 3.95286 5.81525 4.25968C5.70162 4.56365 5.50275 4.90314 5.21866 5.27814C4.93741 5.6503 4.54679 6.10485 4.04679 6.64178L2.08656 8.73837V8.80655H6.14338V9.74405H0.637695Z" fill="#818798"/>
</svg>
