<svg width="14" height="10" viewBox="0 0 14 10" fill="none" xmlns="http://www.w3.org/2000/svg">
<path d="M10.1034 9.69345C9.46138 9.69345 8.91451 9.51873 8.4628 9.1693C8.0111 8.81703 7.66593 8.30708 7.42729 7.63947C7.18865 6.96902 7.06934 6.15936 7.06934 5.21049C7.06934 4.26731 7.18865 3.46191 7.42729 2.7943C7.66877 2.12385 8.01536 1.61248 8.46706 1.26021C8.92161 0.905096 9.46706 0.727539 10.1034 0.727539C10.7398 0.727539 11.2838 0.905096 11.7355 1.26021C12.1901 1.61248 12.5367 2.12385 12.7753 2.7943C13.0168 3.46191 13.1375 4.26731 13.1375 5.21049C13.1375 6.15936 13.0182 6.96902 12.7796 7.63947C12.5409 8.30708 12.1958 8.81703 11.7441 9.1693C11.2923 9.51873 10.7455 9.69345 10.1034 9.69345ZM10.1034 8.75595C10.7398 8.75595 11.2341 8.44913 11.5864 7.83549C11.9387 7.22186 12.1148 6.34686 12.1148 5.21049C12.1148 4.45481 12.0338 3.81135 11.8719 3.2801C11.7128 2.74885 11.4827 2.34402 11.1816 2.06561C10.8833 1.7872 10.5239 1.64799 10.1034 1.64799C9.47275 1.64799 8.97985 1.95907 8.62473 2.58123C8.26962 3.20055 8.09206 4.07697 8.09206 5.21049C8.09206 5.96618 8.17161 6.60822 8.3307 7.13663C8.48979 7.66504 8.71848 8.06703 9.01678 8.3426C9.31792 8.61816 9.68013 8.75595 10.1034 8.75595Z" fill="#818798"/>
<path d="M-0.00878906 9.57413V8.80709L2.87189 5.65368C3.20996 5.28436 3.48837 4.96333 3.70712 4.69061C3.92587 4.41504 4.0878 4.15652 4.19292 3.91504C4.30087 3.67072 4.35485 3.41504 4.35485 3.14799C4.35485 2.84118 4.28098 2.57555 4.13326 2.35112C3.98837 2.12669 3.78951 1.95339 3.53667 1.83123C3.28382 1.70907 2.99973 1.64799 2.68439 1.64799C2.34917 1.64799 2.05655 1.7176 1.80655 1.8568C1.55939 1.99316 1.36763 2.18493 1.23127 2.43208C1.09775 2.67924 1.03098 2.96902 1.03098 3.3014H0.0253018C0.0253018 2.79004 0.1432 2.34118 0.378995 1.95481C0.614791 1.56845 0.935813 1.26731 1.34206 1.0514C1.75115 0.835493 2.20996 0.727539 2.71848 0.727539C3.22985 0.727539 3.68297 0.835493 4.07786 1.0514C4.47274 1.26731 4.7824 1.5585 5.00684 1.92498C5.23127 2.29146 5.34348 2.69913 5.34348 3.14799C5.34348 3.46902 5.28524 3.78294 5.16877 4.08976C5.05513 4.39373 4.85627 4.73322 4.57218 5.10822C4.29093 5.48038 3.9003 5.93493 3.4003 6.47186L1.44007 8.56845V8.63663H5.49689V9.57413H-0.00878906Z" fill="#818798"/>
</svg>
