<svg width="40" height="16" viewBox="0 0 40 16" fill="none" xmlns="http://www.w3.org/2000/svg">
<path d="M32.9403 12.2357V11.4687C32.9403 10.9052 33.0587 10.3867 33.2955 9.91326C33.5369 9.43978 33.8873 9.05862 34.3466 8.7698C34.8059 8.48097 35.3622 8.33656 36.0156 8.33656C36.688 8.33656 37.2514 8.48097 37.706 8.7698C38.1605 9.05389 38.5038 9.43268 38.7358 9.90616C38.9725 10.3796 39.0909 10.9005 39.0909 11.4687V12.2357C39.0909 12.7992 38.9725 13.3176 38.7358 13.7911C38.4991 14.2646 38.151 14.6457 37.6918 14.9346C37.2372 15.2234 36.6785 15.3678 36.0156 15.3678C35.3527 15.3678 34.7917 15.2234 34.3324 14.9346C33.8731 14.6457 33.5251 14.2646 33.2884 13.7911C33.0563 13.3176 32.9403 12.7992 32.9403 12.2357ZM34.794 11.4687V12.2357C34.794 12.6098 34.884 12.953 35.0639 13.2655C35.2438 13.578 35.5611 13.7343 36.0156 13.7343C36.4749 13.7343 36.7898 13.5804 36.9602 13.2726C37.1354 12.9601 37.223 12.6145 37.223 12.2357V11.4687C37.223 11.0899 37.1402 10.7442 36.9744 10.4317C36.8087 10.1145 36.4891 9.95588 36.0156 9.95588C35.5705 9.95588 35.2557 10.1145 35.071 10.4317C34.8864 10.7442 34.794 11.0899 34.794 11.4687ZM25.5469 3.91184V3.1448C25.5469 2.57662 25.6676 2.05578 25.9091 1.5823C26.1506 1.10881 26.5009 0.730025 26.9602 0.445934C27.4195 0.157108 27.9759 0.0126953 28.6293 0.0126953C29.2969 0.0126953 29.858 0.157108 30.3125 0.445934C30.7718 0.730025 31.1174 1.10881 31.3494 1.5823C31.5814 2.05578 31.6974 2.57662 31.6974 3.1448V3.91184C31.6974 4.48003 31.5791 5.00086 31.3423 5.47434C31.1103 5.94309 30.7647 6.31951 30.3054 6.60361C29.8461 6.8877 29.2874 7.02974 28.6293 7.02974C27.9616 7.02974 27.3982 6.8877 26.9389 6.60361C26.4844 6.31951 26.1387 5.94073 25.902 5.46724C25.6652 4.99376 25.5469 4.47529 25.5469 3.91184ZM27.4148 3.1448V3.91184C27.4148 4.29063 27.5024 4.63628 27.6776 4.94878C27.8575 5.25654 28.1747 5.41042 28.6293 5.41042C29.0838 5.41042 29.3963 5.25654 29.5668 4.94878C29.742 4.63628 29.8295 4.29063 29.8295 3.91184V3.1448C29.8295 2.76601 29.7467 2.42037 29.581 2.10787C29.4152 1.79063 29.098 1.63201 28.6293 1.63201C28.1795 1.63201 27.8646 1.79063 27.6847 2.10787C27.5047 2.4251 27.4148 2.77075 27.4148 3.1448ZM26.3565 14.963L36.3565 0.417525H38.1321L28.1321 14.963H26.3565Z" fill="white"/>
<path d="M17.5643 15.1623C16.6173 15.1623 15.7698 14.9847 15.0217 14.6296C14.2736 14.2698 13.6793 13.7773 13.239 13.1523C12.8034 12.5273 12.5714 11.8124 12.543 11.0075H15.0998C15.1471 11.604 15.4052 12.0917 15.8739 12.4705C16.3427 12.8446 16.9061 13.0316 17.5643 13.0316C18.0804 13.0316 18.5397 12.9132 18.9421 12.6765C19.3446 12.4397 19.6618 12.1107 19.8938 11.6893C20.1258 11.2679 20.2395 10.7873 20.2347 10.2475C20.2395 9.69827 20.1235 9.21058 19.8867 8.78445C19.65 8.35831 19.3256 8.0245 18.9137 7.78303C18.5018 7.53681 18.0283 7.41371 17.4933 7.41371C17.0576 7.40897 16.6291 7.48947 16.2077 7.65518C15.7863 7.8209 15.4525 8.03871 15.2063 8.30859L12.8271 7.91797L13.587 0.417969H22.0245V2.61967H15.7674L15.3484 6.47621H15.4336C15.7035 6.15897 16.0846 5.89619 16.5771 5.68785C17.0695 5.47479 17.6093 5.36825 18.1964 5.36825C19.0771 5.36825 19.863 5.57659 20.5543 5.99325C21.2456 6.40518 21.7901 6.97337 22.1879 7.6978C22.5856 8.42223 22.7844 9.25083 22.7844 10.1836C22.7844 11.1448 22.5619 12.0018 22.1168 12.7546C21.6765 13.5027 21.0633 14.0922 20.2773 14.5231C19.4961 14.9492 18.5917 15.1623 17.5643 15.1623Z" fill="white"/>
<path d="M0.0852274 14.9631V13.0597L5.13494 8.10938C5.6179 7.62169 6.02036 7.18845 6.34233 6.80966C6.6643 6.43087 6.90578 6.06392 7.06676 5.70881C7.22775 5.35369 7.30824 4.97491 7.30824 4.57244C7.30824 4.11316 7.20407 3.72017 6.99574 3.39347C6.78741 3.06203 6.50095 2.80635 6.13636 2.62642C5.77178 2.4465 5.35748 2.35653 4.89347 2.35653C4.41525 2.35653 3.99621 2.45597 3.63636 2.65483C3.27652 2.84896 2.99716 3.12595 2.7983 3.4858C2.60417 3.84565 2.5071 4.27415 2.5071 4.77131H0C0 3.84801 0.210701 3.04546 0.632102 2.36364C1.0535 1.68182 1.63352 1.15388 2.37216 0.77983C3.11553 0.405777 3.9678 0.21875 4.92898 0.21875C5.90436 0.21875 6.76136 0.401042 7.5 0.765625C8.23864 1.13021 8.81155 1.62973 9.21875 2.2642C9.63068 2.89867 9.83665 3.62311 9.83665 4.4375C9.83665 4.98201 9.73248 5.51705 9.52415 6.04261C9.31582 6.56818 8.94886 7.15057 8.4233 7.78977C7.90246 8.42898 7.17093 9.20312 6.22869 10.1122L3.72159 12.6619V12.7614H10.0568V14.9631H0.0852274Z" fill="white"/>
</svg>
