<svg width="15" height="10" viewBox="0 0 15 10" fill="none" xmlns="http://www.w3.org/2000/svg">
<path d="M11.2997 9.72763C10.6577 9.72763 10.1108 9.55291 9.65909 9.20348C9.20739 8.85121 8.86222 8.34126 8.62358 7.67365C8.38494 7.0032 8.26562 6.19354 8.26562 5.24467C8.26562 4.30149 8.38494 3.49609 8.62358 2.82848C8.86506 2.15803 9.21165 1.64666 9.66335 1.29439C10.1179 0.939275 10.6634 0.761719 11.2997 0.761719C11.9361 0.761719 12.4801 0.939275 12.9318 1.29439C13.3864 1.64666 13.733 2.15803 13.9716 2.82848C14.2131 3.49609 14.3338 4.30149 14.3338 5.24467C14.3338 6.19354 14.2145 7.0032 13.9759 7.67365C13.7372 8.34126 13.392 8.85121 12.9403 9.20348C12.4886 9.55291 11.9418 9.72763 11.2997 9.72763ZM11.2997 8.79013C11.9361 8.79013 12.4304 8.48331 12.7827 7.86967C13.1349 7.25604 13.3111 6.38104 13.3111 5.24467C13.3111 4.48899 13.2301 3.84553 13.0682 3.31428C12.9091 2.78303 12.679 2.3782 12.3778 2.09979C12.0795 1.82138 11.7202 1.68217 11.2997 1.68217C10.669 1.68217 10.1761 1.99325 9.82102 2.61541C9.46591 3.23473 9.28835 4.11115 9.28835 5.24467C9.28835 6.00036 9.3679 6.6424 9.52699 7.17081C9.68608 7.69922 9.91477 8.10121 10.2131 8.37678C10.5142 8.65234 10.8764 8.79013 11.2997 8.79013Z" fill="#818798"/>
<path d="M3.76181 9.72763C3.19931 9.72763 2.69789 9.63104 2.25755 9.43785C1.82005 9.24467 1.47203 8.97621 1.21351 8.63246C0.95783 8.28587 0.818626 7.88388 0.795898 7.42649H1.86976C1.89249 7.70774 1.98908 7.95064 2.15953 8.15518C2.32999 8.35689 2.553 8.51314 2.82857 8.62393C3.10414 8.73473 3.40953 8.79013 3.74476 8.79013C4.11976 8.79013 4.45215 8.72479 4.74192 8.5941C5.03169 8.46342 5.25897 8.28161 5.42374 8.04865C5.58851 7.8157 5.6709 7.54581 5.6709 7.23899C5.6709 6.91797 5.59135 6.6353 5.43226 6.39098C5.27317 6.14382 5.04022 5.95064 4.7334 5.81143C4.42658 5.67223 4.05158 5.60263 3.6084 5.60263H2.90953V4.66513H3.6084C3.95499 4.66513 4.25897 4.60263 4.52033 4.47763C4.78453 4.35263 4.9905 4.17649 5.13823 3.94922C5.2888 3.72195 5.36408 3.4549 5.36408 3.14808C5.36408 2.85263 5.29874 2.59553 5.16806 2.37678C5.03738 2.15803 4.85272 1.98757 4.61408 1.86541C4.37828 1.74325 4.09988 1.68217 3.77885 1.68217C3.47772 1.68217 3.19363 1.73757 2.92658 1.84837C2.66238 1.95632 2.44647 2.11399 2.27885 2.32138C2.11124 2.52592 2.02033 2.77308 2.00613 3.06285H0.983398C1.00044 2.60547 1.13823 2.2049 1.39675 1.86115C1.65527 1.51456 1.99334 1.24467 2.41096 1.05149C2.83141 0.85831 3.29306 0.761719 3.7959 0.761719C4.33567 0.761719 4.79874 0.871094 5.1851 1.08984C5.57147 1.30575 5.86834 1.59126 6.07573 1.94638C6.28311 2.30149 6.38681 2.68501 6.38681 3.09695C6.38681 3.58842 6.25755 4.00746 5.99902 4.35405C5.74334 4.70064 5.39533 4.9407 4.95499 5.07422V5.1424C5.50613 5.23331 5.93652 5.46768 6.24618 5.84553C6.55584 6.22053 6.71067 6.68501 6.71067 7.23899C6.71067 7.71342 6.58141 8.13956 6.32289 8.5174C6.06721 8.8924 5.71777 9.18786 5.27459 9.40376C4.83141 9.61967 4.32715 9.72763 3.76181 9.72763Z" fill="#818798"/>
</svg>
