<svg width="15" height="10" viewBox="0 0 15 10" fill="none" xmlns="http://www.w3.org/2000/svg">
<path d="M11.4228 9.76181C10.7807 9.76181 10.2338 9.58709 9.78214 9.23766C9.33043 8.88539 8.98526 8.37544 8.74663 7.70783C8.50799 7.03738 8.38867 6.22772 8.38867 5.27885C8.38867 4.33567 8.50799 3.53027 8.74663 2.86266C8.9881 2.1922 9.33469 1.68084 9.7864 1.32857C10.2409 0.973455 10.7864 0.795898 11.4228 0.795898C12.0591 0.795898 12.6032 0.973455 13.0549 1.32857C13.5094 1.68084 13.856 2.1922 14.0946 2.86266C14.3361 3.53027 14.4569 4.33567 14.4569 5.27885C14.4569 6.22772 14.3375 7.03738 14.0989 7.70783C13.8603 8.37544 13.5151 8.88539 13.0634 9.23766C12.6117 9.58709 12.0648 9.76181 11.4228 9.76181ZM11.4228 8.82431C12.0591 8.82431 12.5534 8.51749 12.9057 7.90385C13.258 7.29022 13.4341 6.41522 13.4341 5.27885C13.4341 4.52317 13.3532 3.87971 13.1912 3.34845C13.0321 2.8172 12.802 2.41238 12.5009 2.13397C12.2026 1.85556 11.8432 1.71635 11.4228 1.71635C10.7921 1.71635 10.2992 2.02743 9.94407 2.64959C9.58896 3.26891 9.4114 4.14533 9.4114 5.27885C9.4114 6.03454 9.49094 6.67658 9.65004 7.20499C9.80913 7.7334 10.0378 8.13539 10.3361 8.41096C10.6373 8.68652 10.9995 8.82431 11.4228 8.82431Z" fill="#818798"/>
<path d="M0.672852 7.85254V6.98322L4.50808 0.915039H5.13876V2.26163H4.71262L1.8149 6.84686V6.91504H6.97967V7.85254H0.672852ZM4.78081 9.64231V7.58834V7.18351V0.915039H5.78649V9.64231H4.78081Z" fill="#818798"/>
</svg>
