<svg width="22" height="10" viewBox="0 0 22 10" fill="none" xmlns="http://www.w3.org/2000/svg">
<path d="M18.2499 9.89755C17.6079 9.89755 17.061 9.72283 16.6093 9.3734C16.1576 9.02113 15.8124 8.51119 15.5738 7.84357C15.3351 7.17312 15.2158 6.36346 15.2158 5.4146C15.2158 4.47141 15.3351 3.66602 15.5738 2.9984C15.8153 2.32795 16.1618 1.81658 16.6135 1.46431C17.0681 1.1092 17.6135 0.931641 18.2499 0.931641C18.8863 0.931641 19.4303 1.1092 19.882 1.46431C20.3366 1.81658 20.6831 2.32795 20.9218 2.9984C21.1633 3.66602 21.284 4.47141 21.284 5.4146C21.284 6.36346 21.1647 7.17312 20.926 7.84357C20.6874 8.51119 20.3422 9.02113 19.8905 9.3734C19.4388 9.72283 18.892 9.89755 18.2499 9.89755ZM18.2499 8.96005C18.8863 8.96005 19.3806 8.65323 19.7329 8.0396C20.0851 7.42596 20.2613 6.55096 20.2613 5.4146C20.2613 4.65891 20.1803 4.01545 20.0184 3.4842C19.8593 2.95295 19.6292 2.54812 19.328 2.26971C19.0297 1.9913 18.6704 1.8521 18.2499 1.8521C17.6192 1.8521 17.1263 2.16317 16.7712 2.78533C16.4161 3.40465 16.2385 4.28107 16.2385 5.4146C16.2385 6.17028 16.3181 6.81232 16.4772 7.34073C16.6363 7.86914 16.865 8.27113 17.1633 8.5467C17.4644 8.82227 17.8266 8.96005 18.2499 8.96005Z" fill="#818798"/>
<path d="M10.7499 9.89755C10.1079 9.89755 9.56099 9.72283 9.10929 9.3734C8.65758 9.02113 8.31241 8.51119 8.07378 7.84357C7.83514 7.17312 7.71582 6.36346 7.71582 5.4146C7.71582 4.47141 7.83514 3.66602 8.07378 2.9984C8.31525 2.32795 8.66184 1.81658 9.11355 1.46431C9.56809 1.1092 10.1135 0.931641 10.7499 0.931641C11.3863 0.931641 11.9303 1.1092 12.382 1.46431C12.8366 1.81658 13.1832 2.32795 13.4218 2.9984C13.6633 3.66602 13.784 4.47141 13.784 5.4146C13.784 6.36346 13.6647 7.17312 13.426 7.84357C13.1874 8.51119 12.8422 9.02113 12.3905 9.3734C11.9388 9.72283 11.392 9.89755 10.7499 9.89755ZM10.7499 8.96005C11.3863 8.96005 11.8806 8.65323 12.2329 8.0396C12.5851 7.42596 12.7613 6.55096 12.7613 5.4146C12.7613 4.65891 12.6803 4.01545 12.5184 3.4842C12.3593 2.95295 12.1292 2.54812 11.828 2.26971C11.5297 1.9913 11.1704 1.8521 10.7499 1.8521C10.1192 1.8521 9.62633 2.16317 9.27122 2.78533C8.9161 3.40465 8.73855 4.28107 8.73855 5.4146C8.73855 6.17028 8.81809 6.81232 8.97718 7.34073C9.13628 7.86914 9.36497 8.27113 9.66326 8.5467C9.9644 8.82227 10.3266 8.96005 10.7499 8.96005Z" fill="#818798"/>
<path d="M0 7.98828V7.11896L3.83523 1.05078H4.46591V2.39737H4.03977L1.14205 6.9826V7.05078H6.30682V7.98828H0ZM4.10795 9.77805V7.72408V7.31925V1.05078H5.11364V9.77805H4.10795Z" fill="#818798"/>
</svg>
