<svg width="40" height="25" viewBox="0 0 40 25" fill="none" xmlns="http://www.w3.org/2000/svg">
<path d="M29.6703 24.1023C27.7158 24.0947 26.0339 23.6136 24.6248 22.6591C23.2233 21.7045 22.1438 20.322 21.3862 18.5114C20.6362 16.7008 20.265 14.5227 20.2726 11.9773C20.2726 9.43939 20.6476 7.27652 21.3976 5.48864C22.1552 3.70076 23.2347 2.34091 24.6362 1.40909C26.0453 0.469697 27.7233 0 29.6703 0C31.6173 0 33.2915 0.469697 34.693 1.40909C36.1021 2.34849 37.1855 3.71212 37.943 5.5C38.7006 7.2803 39.0756 9.43939 39.068 11.9773C39.068 14.5303 38.6892 16.7121 37.9317 18.5227C37.1817 20.3333 36.1059 21.7159 34.7044 22.6705C33.3029 23.625 31.6248 24.1023 29.6703 24.1023ZM29.6703 20.0227C31.0036 20.0227 32.068 19.3523 32.8635 18.0114C33.6589 16.6705 34.0529 14.6591 34.0453 11.9773C34.0453 10.2121 33.8635 8.74242 33.4999 7.56818C33.1438 6.39394 32.6362 5.51136 31.9771 4.92045C31.3256 4.32955 30.5567 4.03409 29.6703 4.03409C28.3445 4.03409 27.2839 4.69697 26.4885 6.02273C25.693 7.34849 25.2915 9.33333 25.2839 11.9773C25.2839 13.7652 25.462 15.2576 25.818 16.4545C26.1817 17.6439 26.693 18.5379 27.3521 19.1364C28.0112 19.7273 28.7839 20.0227 29.6703 20.0227Z" fill="white"/>
<path d="M8.42045 23.9093C6.81439 23.9093 5.38258 23.6138 4.125 23.0229C2.875 22.432 1.88258 21.6176 1.14773 20.5797C0.412879 19.5418 0.0303031 18.3525 0 17.0115H4.77273C4.82576 17.9131 5.20455 18.6441 5.90909 19.2047C6.61364 19.7653 7.45076 20.0456 8.42045 20.0456C9.19318 20.0456 9.875 19.8752 10.4659 19.5343C11.0644 19.1858 11.5303 18.7047 11.8636 18.0911C12.2045 17.4699 12.375 16.7578 12.375 15.9547C12.375 15.1365 12.2008 14.4168 11.8523 13.7956C11.5114 13.1744 11.0379 12.6896 10.4318 12.3411C9.82576 11.9926 9.13258 11.8146 8.35227 11.807C7.67045 11.807 7.00758 11.9471 6.36364 12.2275C5.72727 12.5078 5.23106 12.8903 4.875 13.3752L0.5 12.5911L1.60227 0.318359H15.8295V4.34109H5.65909L5.05682 10.1706H5.19318C5.60227 9.59487 6.2197 9.1176 7.04545 8.73882C7.87121 8.36003 8.79545 8.17063 9.81818 8.17063C11.2197 8.17063 12.4697 8.50018 13.5682 9.15927C14.6667 9.81836 15.5341 10.7237 16.1705 11.8752C16.8068 13.0191 17.1212 14.3373 17.1136 15.8297C17.1212 17.3979 16.7576 18.7918 16.0227 20.0115C15.2955 21.2237 14.2765 22.1782 12.9659 22.8752C11.6629 23.5646 10.1477 23.9093 8.42045 23.9093Z" fill="white"/>
</svg>
