<svg width="15" height="10" viewBox="0 0 15 10" fill="none" xmlns="http://www.w3.org/2000/svg">
<path d="M11.1132 9.79599C10.4711 9.79599 9.92427 9.62127 9.47257 9.27184C9.02086 8.91957 8.67569 8.40962 8.43706 7.74201C8.19842 7.07156 8.0791 6.2619 8.0791 5.31303C8.0791 4.36985 8.19842 3.56445 8.43706 2.89684C8.67853 2.22638 9.02512 1.71502 9.47683 1.36275C9.93137 1.00763 10.4768 0.830078 11.1132 0.830078C11.7496 0.830078 12.2936 1.00763 12.7453 1.36275C13.1998 1.71502 13.5464 2.22638 13.7851 2.89684C14.0265 3.56445 14.1473 4.36985 14.1473 5.31303C14.1473 6.2619 14.028 7.07156 13.7893 7.74201C13.5507 8.40962 13.2055 8.91957 12.7538 9.27184C12.3021 9.62127 11.7552 9.79599 11.1132 9.79599ZM11.1132 8.85849C11.7496 8.85849 12.2439 8.55167 12.5961 7.93803C12.9484 7.3244 13.1246 6.4494 13.1246 5.31303C13.1246 4.55735 13.0436 3.91388 12.8817 3.38263C12.7226 2.85138 12.4925 2.44656 12.1913 2.16815C11.893 1.88974 11.5336 1.75053 11.1132 1.75053C10.4825 1.75053 9.98961 2.06161 9.6345 2.68377C9.27939 3.30309 9.10183 4.17951 9.10183 5.31303C9.10183 6.06872 9.18137 6.71076 9.34047 7.23917C9.49956 7.76758 9.72825 8.16957 10.0265 8.44514C10.3277 8.7207 10.6899 8.85849 11.1132 8.85849Z" fill="#818798"/>
<path d="M3.69265 9.79581C3.19265 9.79581 2.74237 9.69638 2.3418 9.49751C1.94123 9.29865 1.62021 9.02592 1.37873 8.67933C1.13725 8.33274 1.00515 7.93786 0.982422 7.49467H2.00515C2.04492 7.88956 2.2239 8.21626 2.54208 8.47479C2.8631 8.73047 3.24663 8.85831 3.69265 8.85831C4.0506 8.85831 4.36879 8.7745 4.64719 8.60689C4.92844 8.43928 5.14862 8.20916 5.30771 7.91655C5.46964 7.62109 5.5506 7.28729 5.5506 6.91513C5.5506 6.53445 5.4668 6.19496 5.29918 5.89666C5.13441 5.59553 4.90714 5.35831 4.61737 5.18501C4.32759 5.01172 3.99663 4.92365 3.62447 4.92081C3.35742 4.91797 3.08327 4.95916 2.80202 5.04439C2.52077 5.12678 2.28924 5.23331 2.10742 5.36399L1.11879 5.24467L1.64719 0.949219H6.18129V1.88672H2.53356L2.22674 4.46058H2.27788C2.45685 4.31854 2.68129 4.20064 2.95117 4.10689C3.22106 4.01314 3.50231 3.96626 3.79492 3.96626C4.32901 3.96626 4.80487 4.09411 5.22248 4.34979C5.64293 4.60263 5.97248 4.94922 6.21112 5.38956C6.45259 5.8299 6.57333 6.33274 6.57333 6.89808C6.57333 7.4549 6.44833 7.95206 6.19833 8.38956C5.95117 8.82422 5.61026 9.16797 5.1756 9.42081C4.74094 9.67081 4.24663 9.79581 3.69265 9.79581Z" fill="#818798"/>
</svg>
