<svg width="15" height="10" viewBox="0 0 15 10" fill="none" xmlns="http://www.w3.org/2000/svg">
<path d="M11.2831 9.83017C10.6411 9.83017 10.0942 9.65545 9.64249 9.30602C9.19078 8.95375 8.84561 8.4438 8.60698 7.77619C8.36834 7.10574 8.24902 6.29608 8.24902 5.34721C8.24902 4.40403 8.36834 3.59863 8.60698 2.93102C8.84846 2.26056 9.19505 1.7492 9.64675 1.39693C10.1013 1.04181 10.6468 0.864258 11.2831 0.864258C11.9195 0.864258 12.4635 1.04181 12.9152 1.39693C13.3698 1.7492 13.7164 2.26056 13.955 2.93102C14.1965 3.59863 14.3172 4.40403 14.3172 5.34721C14.3172 6.29608 14.1979 7.10574 13.9593 7.77619C13.7206 8.4438 13.3754 8.95375 12.9237 9.30602C12.472 9.65545 11.9252 9.83017 11.2831 9.83017ZM11.2831 8.89267C11.9195 8.89267 12.4138 8.58585 12.7661 7.97221C13.1183 7.35858 13.2945 6.48358 13.2945 5.34721C13.2945 4.59153 13.2135 3.94806 13.0516 3.41681C12.8925 2.88556 12.6624 2.48073 12.3612 2.20233C12.0629 1.92392 11.7036 1.78471 11.2831 1.78471C10.6524 1.78471 10.1595 2.09579 9.80442 2.71795C9.44931 3.33727 9.27175 4.21369 9.27175 5.34721C9.27175 6.10289 9.3513 6.74494 9.51039 7.27335C9.66948 7.80176 9.89817 8.20375 10.1965 8.47931C10.4976 8.75488 10.8598 8.89267 11.2831 8.89267Z" fill="#818798"/>
<path d="M3.84561 9.83017C3.48766 9.82448 3.12971 9.7563 2.77175 9.62562C2.4138 9.49494 2.08709 9.27477 1.79164 8.96511C1.49618 8.65261 1.25897 8.23073 1.07999 7.69948C0.901012 7.16539 0.811523 6.49494 0.811523 5.68812C0.811523 4.91539 0.883967 4.23073 1.02885 3.63414C1.17374 3.03471 1.38397 2.53045 1.65953 2.12136C1.9351 1.70943 2.26749 1.39693 2.65669 1.18386C3.04874 0.970792 3.4905 0.864258 3.98198 0.864258C4.47061 0.864258 4.90527 0.962269 5.28596 1.15829C5.66948 1.35147 5.98198 1.62136 6.22346 1.96795C6.46493 2.31454 6.62118 2.71369 6.69221 3.16539H5.65243C5.55584 2.77335 5.36834 2.44806 5.08993 2.18954C4.81152 1.93102 4.44221 1.80176 3.98198 1.80176C3.30584 1.80176 2.77317 2.09579 2.38397 2.68386C1.9976 3.27193 1.803 4.09721 1.80016 5.15971H1.86834C2.02743 4.91824 2.21635 4.71227 2.4351 4.54181C2.65669 4.36852 2.90101 4.235 3.16806 4.14125C3.4351 4.0475 3.71777 4.00062 4.01607 4.00062C4.51607 4.00062 4.97346 4.12562 5.38823 4.37562C5.803 4.62278 6.13539 4.96511 6.38539 5.40261C6.63539 5.83727 6.76039 6.33585 6.76039 6.89835C6.76039 7.43812 6.63965 7.93244 6.39817 8.3813C6.15669 8.82733 5.81721 9.18244 5.37971 9.44664C4.94505 9.70801 4.43368 9.83585 3.84561 9.83017ZM3.84561 8.89267C4.20357 8.89267 4.52459 8.80318 4.80868 8.6242C5.09561 8.44522 5.32147 8.20517 5.48624 7.90403C5.65385 7.60289 5.73766 7.26767 5.73766 6.89835C5.73766 6.53755 5.65669 6.20943 5.49476 5.91397C5.33567 5.61568 5.1155 5.37846 4.83425 5.20233C4.55584 5.02619 4.23766 4.93812 3.87971 4.93812C3.60982 4.93812 3.3584 4.9921 3.12544 5.10005C2.89249 5.20517 2.68794 5.35005 2.51181 5.53471C2.33851 5.71937 2.20215 5.93102 2.10272 6.16966C2.00328 6.40545 1.95357 6.65403 1.95357 6.91539C1.95357 7.26198 2.03453 7.58585 2.19647 7.88698C2.36124 8.18812 2.58567 8.43102 2.86976 8.61568C3.15669 8.80034 3.48198 8.89267 3.84561 8.89267Z" fill="#818798"/>
</svg>
