<svg width="22" height="10" viewBox="0 0 22 10" fill="none" xmlns="http://www.w3.org/2000/svg">
<path d="M18.2509 9.93173C17.6088 9.93173 17.062 9.75701 16.6103 9.40758C16.1586 9.05531 15.8134 8.54537 15.5748 7.87775C15.3361 7.2073 15.2168 6.39764 15.2168 5.44878C15.2168 4.50559 15.3361 3.7002 15.5748 3.03258C15.8162 2.36213 16.1628 1.85076 16.6145 1.49849C17.0691 1.14338 17.6145 0.96582 18.2509 0.96582C18.8873 0.96582 19.4313 1.14338 19.883 1.49849C20.3375 1.85076 20.6841 2.36213 20.9228 3.03258C21.1642 3.7002 21.285 4.50559 21.285 5.44878C21.285 6.39764 21.1657 7.2073 20.927 7.87775C20.6884 8.54537 20.3432 9.05531 19.8915 9.40758C19.4398 9.75701 18.8929 9.93173 18.2509 9.93173ZM18.2509 8.99423C18.8873 8.99423 19.3816 8.68741 19.7338 8.07378C20.0861 7.46014 20.2623 6.58514 20.2623 5.44878C20.2623 4.69309 20.1813 4.04963 20.0194 3.51838C19.8603 2.98713 19.6301 2.5823 19.329 2.30389C19.0307 2.02548 18.6713 1.88628 18.2509 1.88628C17.6202 1.88628 17.1273 2.19735 16.7722 2.81951C16.4171 3.43883 16.2395 4.31525 16.2395 5.44878C16.2395 6.20446 16.3191 6.8465 16.4782 7.37491C16.6372 7.90332 16.8659 8.30531 17.1642 8.58088C17.4654 8.85645 17.8276 8.99423 18.2509 8.99423Z" fill="#818798"/>
<path d="M10.7509 9.93173C10.1088 9.93173 9.56197 9.75701 9.11026 9.40758C8.65856 9.05531 8.31339 8.54537 8.07475 7.87775C7.83612 7.2073 7.7168 6.39764 7.7168 5.44878C7.7168 4.50559 7.83612 3.7002 8.07475 3.03258C8.31623 2.36213 8.66282 1.85076 9.11452 1.49849C9.56907 1.14338 10.1145 0.96582 10.7509 0.96582C11.3873 0.96582 11.9313 1.14338 12.383 1.49849C12.8375 1.85076 13.1841 2.36213 13.4228 3.03258C13.6642 3.7002 13.785 4.50559 13.785 5.44878C13.785 6.39764 13.6657 7.2073 13.427 7.87775C13.1884 8.54537 12.8432 9.05531 12.3915 9.40758C11.9398 9.75701 11.3929 9.93173 10.7509 9.93173ZM10.7509 8.99423C11.3873 8.99423 11.8816 8.68741 12.2338 8.07378C12.5861 7.46014 12.7623 6.58514 12.7623 5.44878C12.7623 4.69309 12.6813 4.04963 12.5194 3.51838C12.3603 2.98713 12.1301 2.5823 11.829 2.30389C11.5307 2.02548 11.1713 1.88628 10.7509 1.88628C10.1202 1.88628 9.62731 2.19735 9.27219 2.81951C8.91708 3.43883 8.73952 4.31525 8.73952 5.44878C8.73952 6.20446 8.81907 6.8465 8.97816 7.37491C9.13725 7.90332 9.36595 8.30531 9.66424 8.58088C9.96538 8.85645 10.3276 8.99423 10.7509 8.99423Z" fill="#818798"/>
<path d="M3.31339 9.93173C2.95543 9.92605 2.59748 9.85787 2.23952 9.72718C1.88157 9.5965 1.55487 9.37633 1.25941 9.06667C0.963956 8.75417 0.72674 8.3323 0.547763 7.80105C0.368786 7.26696 0.279297 6.5965 0.279297 5.78968C0.279297 5.01696 0.35174 4.3323 0.496626 3.73571C0.641513 3.13627 0.85174 2.63201 1.12731 2.22292C1.40288 1.81099 1.73526 1.49849 2.12447 1.28542C2.51651 1.07235 2.95827 0.96582 3.44975 0.96582C3.93839 0.96582 4.37305 1.06383 4.75373 1.25985C5.13725 1.45304 5.44975 1.72292 5.69123 2.06951C5.93271 2.4161 6.08896 2.81525 6.15998 3.26696H5.12021C5.02362 2.87491 4.83612 2.54963 4.55771 2.2911C4.2793 2.03258 3.90998 1.90332 3.44975 1.90332C2.77362 1.90332 2.24094 2.19735 1.85174 2.78542C1.46538 3.37349 1.27077 4.19878 1.26793 5.26128H1.33612C1.49521 5.0198 1.68413 4.81383 1.90288 4.64338C2.12447 4.47008 2.36879 4.33656 2.63583 4.24281C2.90288 4.14906 3.18555 4.10218 3.48384 4.10218C3.98384 4.10218 4.44123 4.22718 4.856 4.47718C5.27077 4.72434 5.60316 5.06667 5.85316 5.50417C6.10316 5.93883 6.22816 6.43741 6.22816 6.99991C6.22816 7.53968 6.10742 8.034 5.86594 8.48287C5.62447 8.92889 5.28498 9.284 4.84748 9.54821C4.41282 9.80957 3.90146 9.93741 3.31339 9.93173ZM3.31339 8.99423C3.67134 8.99423 3.99237 8.90474 4.27646 8.72576C4.56339 8.54679 4.78924 8.30673 4.95401 8.00559C5.12163 7.70446 5.20543 7.36923 5.20543 6.99991C5.20543 6.63912 5.12447 6.31099 4.96254 6.01554C4.80344 5.71724 4.58327 5.48002 4.30202 5.30389C4.02362 5.12775 3.70543 5.03968 3.34748 5.03968C3.07759 5.03968 2.82617 5.09366 2.59322 5.20162C2.36026 5.30673 2.15572 5.45162 1.97958 5.63628C1.80629 5.82093 1.66992 6.03258 1.57049 6.27122C1.47106 6.50701 1.42134 6.75559 1.42134 7.01696C1.42134 7.36355 1.50231 7.68741 1.66424 7.98855C1.82901 8.28968 2.05344 8.53258 2.33754 8.71724C2.62447 8.9019 2.94975 8.99423 3.31339 8.99423Z" fill="#818798"/>
</svg>
