<svg width="28" height="12" viewBox="0 0 28 12" fill="none" xmlns="http://www.w3.org/2000/svg">
<path d="M23.567 9.18209V8.64515C23.567 8.25074 23.6499 7.88781 23.8156 7.55637C23.9846 7.22494 24.2299 6.95813 24.5514 6.75595C24.8729 6.55377 25.2623 6.45268 25.7197 6.45268C26.1904 6.45268 26.5848 6.55377 26.903 6.75595C27.2211 6.95481 27.4614 7.21996 27.6238 7.5514C27.7896 7.88284 27.8724 8.24743 27.8724 8.64515V9.18209C27.8724 9.5765 27.7896 9.93942 27.6238 10.2709C27.4581 10.6023 27.2145 10.8691 26.893 11.0713C26.5748 11.2735 26.1837 11.3746 25.7197 11.3746C25.2557 11.3746 24.863 11.2735 24.5415 11.0713C24.22 10.8691 23.9764 10.6023 23.8106 10.2709C23.6482 9.93942 23.567 9.5765 23.567 9.18209ZM24.8646 8.64515V9.18209C24.8646 9.44392 24.9276 9.68422 25.0535 9.90297C25.1795 10.1217 25.4015 10.2311 25.7197 10.2311C26.0412 10.2311 26.2616 10.1234 26.3809 9.90794C26.5036 9.68919 26.5649 9.44724 26.5649 9.18209V8.64515C26.5649 8.38 26.5069 8.13805 26.3909 7.9193C26.2749 7.69724 26.0512 7.5862 25.7197 7.5862C25.4082 7.5862 25.1878 7.69724 25.0585 7.9193C24.9292 8.13805 24.8646 8.38 24.8646 8.64515ZM18.3916 3.35538V2.81845C18.3916 2.42072 18.4761 2.05614 18.6452 1.7247C18.8142 1.39326 19.0595 1.12811 19.3809 0.929244C19.7024 0.727065 20.0919 0.625977 20.5493 0.625977C21.0166 0.625977 21.4094 0.727065 21.7275 0.929244C22.049 1.12811 22.291 1.39326 22.4534 1.7247C22.6158 2.05614 22.697 2.42072 22.697 2.81845V3.35538C22.697 3.75311 22.6141 4.11769 22.4484 4.44913C22.286 4.77726 22.0441 5.04075 21.7226 5.23961C21.4011 5.43848 21.01 5.53791 20.5493 5.53791C20.0819 5.53791 19.6875 5.43848 19.366 5.23961C19.0479 5.04075 18.8059 4.7756 18.6402 4.44416C18.4745 4.11272 18.3916 3.74979 18.3916 3.35538ZM19.6991 2.81845V3.35538C19.6991 3.62053 19.7604 3.86248 19.8831 4.08123C20.009 4.29667 20.2311 4.40439 20.5493 4.40439C20.8675 4.40439 21.0862 4.29667 21.2055 4.08123C21.3282 3.86248 21.3895 3.62053 21.3895 3.35538V2.81845C21.3895 2.5533 21.3315 2.31135 21.2155 2.0926C21.0995 1.87053 20.8774 1.7595 20.5493 1.7595C20.2344 1.7595 20.014 1.87053 19.8881 2.0926C19.7621 2.31466 19.6991 2.55661 19.6991 2.81845ZM18.9584 11.0912L25.9584 0.909358H27.2013L20.2013 11.0912H18.9584Z" fill="white"/>
<path d="M12.803 11.2302C12.1401 11.2302 11.5468 11.1059 11.0232 10.8573C10.4995 10.6054 10.0835 10.2607 9.7753 9.82324C9.47038 9.38574 9.30797 8.88527 9.28809 8.32182H11.0779C11.111 8.73944 11.2916 9.08082 11.6198 9.34597C11.9479 9.60781 12.3423 9.73873 12.803 9.73873C13.1643 9.73873 13.4858 9.65587 13.7675 9.49015C14.0492 9.32443 14.2713 9.09408 14.4337 8.79909C14.5961 8.50411 14.6756 8.1677 14.6723 7.78986C14.6756 7.40539 14.5944 7.06401 14.4287 6.76571C14.263 6.46742 14.036 6.23375 13.7476 6.06472C13.4593 5.89237 13.1278 5.8062 12.7533 5.8062C12.4484 5.80288 12.1484 5.85923 11.8534 5.97523C11.5584 6.09123 11.3248 6.2437 11.1524 6.43262L9.48695 6.15918L10.0189 0.90918H15.9252V2.45037H11.5452L11.2519 5.14995H11.3115C11.5004 4.92788 11.7673 4.74393 12.1119 4.5981C12.4566 4.44895 12.8345 4.37438 13.2455 4.37438C13.8619 4.37438 14.4121 4.52021 14.896 4.81188C15.3799 5.10023 15.7611 5.49796 16.0395 6.00506C16.3179 6.51216 16.4571 7.09218 16.4571 7.74512C16.4571 8.41794 16.3013 9.01785 15.9898 9.54483C15.6816 10.0685 15.2523 10.4811 14.7021 10.7828C14.1553 11.0811 13.5222 11.2302 12.803 11.2302Z" fill="white"/>
<path d="M3.91423 11.2307C3.42701 11.2274 2.95139 11.1429 2.48738 10.9772C2.02336 10.8082 1.60575 10.5347 1.23454 10.1569C0.863326 9.77572 0.568345 9.27027 0.349595 8.64054C0.130845 8.00749 0.023127 7.22363 0.0264414 6.28897C0.0264414 5.41729 0.119244 4.64006 0.304851 3.9573C0.490457 3.27453 0.757265 2.69783 1.10528 2.22718C1.45329 1.75323 1.87256 1.39196 2.36309 1.14338C2.85693 0.894797 3.40878 0.770508 4.01863 0.770508C4.65831 0.770508 5.22507 0.896454 5.71891 1.14835C6.21607 1.40024 6.61711 1.74494 6.92204 2.18244C7.22696 2.61663 7.41588 3.10716 7.4888 3.65403H5.67417C5.58137 3.26293 5.39079 2.95138 5.10244 2.71937C4.8174 2.48405 4.45613 2.36639 4.01863 2.36639C3.31266 2.36639 2.7691 2.67297 2.38795 3.28613C2.01011 3.8993 1.81953 4.74115 1.81621 5.8117H1.88582C2.04822 5.52003 2.25869 5.2698 2.51721 5.06099C2.77573 4.85218 3.0674 4.69144 3.39221 4.57875C3.72033 4.46274 4.06669 4.40474 4.43127 4.40474C5.02786 4.40474 5.56314 4.54726 6.03709 4.8323C6.51437 5.11734 6.89221 5.51009 7.17062 6.01056C7.44903 6.50772 7.58657 7.0778 7.58326 7.72079C7.58657 8.3903 7.43411 8.99186 7.12587 9.52548C6.81763 10.0558 6.38842 10.4734 5.83823 10.7783C5.28804 11.0832 4.64671 11.234 3.91423 11.2307ZM3.90428 9.73926C4.26555 9.73926 4.58871 9.65143 4.87374 9.47576C5.15878 9.3001 5.38416 9.06312 5.54988 8.76483C5.7156 8.46653 5.7968 8.13178 5.79349 7.76056C5.7968 7.39598 5.71726 7.0662 5.55485 6.77122C5.39576 6.47624 5.17535 6.24257 4.89363 6.07022C4.61191 5.89788 4.29041 5.8117 3.92914 5.8117C3.66067 5.8117 3.41044 5.86307 3.17843 5.96582C2.94642 6.06857 2.74424 6.21109 2.5719 6.39338C2.39955 6.57235 2.26366 6.78116 2.16423 7.0198C2.06811 7.25512 2.01839 7.50701 2.01508 7.77548C2.01839 8.13012 2.10125 8.45659 2.26366 8.75488C2.42606 9.05318 2.64978 9.29181 2.93482 9.47079C3.21986 9.64977 3.54301 9.73926 3.90428 9.73926Z" fill="white"/>
</svg>
