<svg width="13" height="10" viewBox="0 0 13 10" fill="none" xmlns="http://www.w3.org/2000/svg">
<path d="M9.96671 9.86435C9.32466 9.86435 8.77779 9.68963 8.32608 9.3402C7.87438 8.98793 7.52921 8.47798 7.29057 7.81037C7.05194 7.13991 6.93262 6.33026 6.93262 5.38139C6.93262 4.43821 7.05194 3.63281 7.29057 2.9652C7.53205 2.29474 7.87864 1.78338 8.33034 1.43111C8.78489 1.07599 9.33034 0.898438 9.96671 0.898438C10.6031 0.898438 11.1471 1.07599 11.5988 1.43111C12.0534 1.78338 12.3999 2.29474 12.6386 2.9652C12.8801 3.63281 13.0008 4.43821 13.0008 5.38139C13.0008 6.33026 12.8815 7.13991 12.6428 7.81037C12.4042 8.47798 12.059 8.98793 11.6073 9.3402C11.1556 9.68963 10.6088 9.86435 9.96671 9.86435ZM9.96671 8.92685C10.6031 8.92685 11.0974 8.62003 11.4497 8.00639C11.8019 7.39276 11.9781 6.51776 11.9781 5.38139C11.9781 4.62571 11.8971 3.98224 11.7352 3.45099C11.5761 2.91974 11.346 2.51491 11.0448 2.23651C10.7465 1.9581 10.3872 1.81889 9.96671 1.81889C9.33603 1.81889 8.84313 2.12997 8.48802 2.75213C8.1329 3.37145 7.95534 4.24787 7.95534 5.38139C7.95534 6.13707 8.03489 6.77912 8.19398 7.30753C8.35307 7.83594 8.58176 8.23793 8.88006 8.51349C9.1812 8.78906 9.54341 8.92685 9.96671 8.92685Z" fill="#818798"/>
<path d="M0.724521 9.74485L4.62793 2.02326V1.95508H0.12793V1.01758H5.71884V2.00621L1.83248 9.74485H0.724521Z" fill="#818798"/>
</svg>
