<svg width="39" height="16" viewBox="0 0 39 16" fill="none" xmlns="http://www.w3.org/2000/svg">
<path d="M32.5282 12.2357V11.4687C32.5282 10.9052 32.6466 10.3867 32.8833 9.91326C33.1248 9.43978 33.4752 9.05862 33.9345 8.7698C34.3938 8.48097 34.9501 8.33656 35.6035 8.33656C36.2759 8.33656 36.8393 8.48097 37.2939 8.7698C37.7484 9.05389 38.0917 9.43268 38.3237 9.90616C38.5604 10.3796 38.6788 10.9005 38.6788 11.4687V12.2357C38.6788 12.7992 38.5604 13.3176 38.3237 13.7911C38.0869 14.2646 37.7389 14.6457 37.2797 14.9346C36.8251 15.2234 36.2664 15.3678 35.6035 15.3678C34.9406 15.3678 34.3796 15.2234 33.9203 14.9346C33.461 14.6457 33.113 14.2646 32.8762 13.7911C32.6442 13.3176 32.5282 12.7992 32.5282 12.2357ZM34.3819 11.4687V12.2357C34.3819 12.6098 34.4719 12.953 34.6518 13.2655C34.8317 13.578 35.149 13.7343 35.6035 13.7343C36.0628 13.7343 36.3777 13.5804 36.5481 13.2726C36.7233 12.9601 36.8109 12.6145 36.8109 12.2357V11.4687C36.8109 11.0899 36.728 10.7442 36.5623 10.4317C36.3966 10.1145 36.077 9.95588 35.6035 9.95588C35.1584 9.95588 34.8436 10.1145 34.6589 10.4317C34.4743 10.7442 34.3819 11.0899 34.3819 11.4687ZM25.1348 3.91184V3.1448C25.1348 2.57662 25.2555 2.05578 25.497 1.5823C25.7385 1.10881 26.0888 0.730025 26.5481 0.445934C27.0074 0.157108 27.5637 0.0126953 28.2172 0.0126953C28.8848 0.0126953 29.4458 0.157108 29.9004 0.445934C30.3597 0.730025 30.7053 1.10881 30.9373 1.5823C31.1693 2.05578 31.2853 2.57662 31.2853 3.1448V3.91184C31.2853 4.48003 31.167 5.00086 30.9302 5.47434C30.6982 5.94309 30.3526 6.31951 29.8933 6.60361C29.434 6.8877 28.8753 7.02974 28.2172 7.02974C27.5495 7.02974 26.9861 6.8877 26.5268 6.60361C26.0723 6.31951 25.7266 5.94073 25.4899 5.46724C25.2531 4.99376 25.1348 4.47529 25.1348 3.91184ZM27.0027 3.1448V3.91184C27.0027 4.29063 27.0903 4.63628 27.2654 4.94878C27.4454 5.25654 27.7626 5.41042 28.2172 5.41042C28.6717 5.41042 28.9842 5.25654 29.1547 4.94878C29.3298 4.63628 29.4174 4.29063 29.4174 3.91184V3.1448C29.4174 2.76601 29.3346 2.42037 29.1689 2.10787C29.0031 1.79063 28.6859 1.63201 28.2172 1.63201C27.7673 1.63201 27.4525 1.79063 27.2726 2.10787C27.0926 2.4251 27.0027 2.77075 27.0027 3.1448ZM25.9444 14.963L35.9444 0.417525H37.72L27.72 14.963H25.9444Z" fill="#818798"/>
<path d="M17.1522 15.1623C16.2052 15.1623 15.3577 14.9847 14.6096 14.6296C13.8614 14.2698 13.2672 13.7773 12.8269 13.1523C12.3913 12.5273 12.1593 11.8124 12.1309 11.0075H14.6877C14.735 11.604 14.9931 12.0917 15.4618 12.4705C15.9306 12.8446 16.494 13.0316 17.1522 13.0316C17.6683 13.0316 18.1275 12.9132 18.53 12.6765C18.9325 12.4397 19.2497 12.1107 19.4817 11.6893C19.7137 11.2679 19.8274 10.7873 19.8226 10.2475C19.8274 9.69827 19.7114 9.21058 19.4746 8.78445C19.2379 8.35831 18.9135 8.0245 18.5016 7.78303C18.0897 7.53681 17.6162 7.41371 17.0811 7.41371C16.6455 7.40897 16.217 7.48947 15.7956 7.65518C15.3742 7.8209 15.0404 8.03871 14.7942 8.30859L12.415 7.91797L13.1749 0.417969H21.6124V2.61967H15.3553L14.9363 6.47621H15.0215C15.2914 6.15897 15.6725 5.89619 16.165 5.68785C16.6574 5.47479 17.1971 5.36825 17.7843 5.36825C18.665 5.36825 19.4509 5.57659 20.1422 5.99325C20.8335 6.40518 21.378 6.97337 21.7757 7.6978C22.1735 8.42223 22.3723 9.25083 22.3723 10.1836C22.3723 11.1448 22.1498 12.0018 21.7047 12.7546C21.2644 13.5027 20.6512 14.0922 19.8652 14.5231C19.084 14.9492 18.1796 15.1623 17.1522 15.1623Z" fill="#818798"/>
<path d="M1.08514 14.9634L7.27122 2.7191V2.61967H0.0908203V0.417969H9.99849V2.66939L3.81951 14.9634H1.08514Z" fill="#818798"/>
</svg>
