<svg width="15" height="10" viewBox="0 0 15 10" fill="none" xmlns="http://www.w3.org/2000/svg">
<path d="M11.2538 9.89853C10.6118 9.89853 10.0649 9.72381 9.61319 9.37438C9.16149 9.02211 8.81632 8.51216 8.57768 7.84455C8.33905 7.17409 8.21973 6.36444 8.21973 5.41557C8.21973 4.47239 8.33905 3.66699 8.57768 2.99938C8.81916 2.32892 9.16575 1.81756 9.61745 1.46529C10.072 1.11017 10.6175 0.932617 11.2538 0.932617C11.8902 0.932617 12.4342 1.11017 12.8859 1.46529C13.3405 1.81756 13.6871 2.32892 13.9257 2.99938C14.1672 3.66699 14.2879 4.47239 14.2879 5.41557C14.2879 6.36444 14.1686 7.17409 13.93 7.84455C13.6913 8.51216 13.3461 9.02211 12.8944 9.37438C12.4427 9.72381 11.8959 9.89853 11.2538 9.89853ZM11.2538 8.96103C11.8902 8.96103 12.3845 8.65421 12.7368 8.04057C13.089 7.42694 13.2652 6.55194 13.2652 5.41557C13.2652 4.65989 13.1842 4.01642 13.0223 3.48517C12.8632 2.95392 12.6331 2.54909 12.3319 2.27069C12.0336 1.99228 11.6743 1.85307 11.2538 1.85307C10.6231 1.85307 10.1302 2.16415 9.77512 2.78631C9.42001 3.40563 9.24245 4.28205 9.24245 5.41557C9.24245 6.17125 9.322 6.8133 9.48109 7.34171C9.64018 7.87012 9.86887 8.27211 10.1672 8.54767C10.4683 8.82324 10.8305 8.96103 11.2538 8.96103Z" fill="#818798"/>
<path d="M3.80779 9.89853C3.22256 9.89853 2.70551 9.79483 2.25665 9.58745C1.81063 9.37722 1.46262 9.08887 1.21262 8.72239C0.962616 8.35307 0.839036 7.93262 0.841877 7.46103C0.839036 7.09171 0.91148 6.7508 1.05921 6.4383C1.20693 6.12296 1.40864 5.86017 1.66432 5.64995C1.92284 5.43688 2.2112 5.30194 2.52938 5.24512V5.19398C2.11176 5.08603 1.77938 4.85165 1.53222 4.49086C1.28506 4.12722 1.1629 3.71387 1.16574 3.2508C1.1629 2.80762 1.27512 2.41131 1.50239 2.06188C1.72966 1.71245 2.04216 1.43688 2.43989 1.23517C2.84046 1.03347 3.29642 0.932617 3.80779 0.932617C4.31347 0.932617 4.76517 1.03347 5.1629 1.23517C5.56063 1.43688 5.87313 1.71245 6.1004 2.06188C6.33051 2.41131 6.44699 2.80762 6.44983 3.2508C6.44699 3.71387 6.32057 4.12722 6.07057 4.49086C5.82341 4.85165 5.49529 5.08603 5.0862 5.19398V5.24512C5.40154 5.30194 5.68563 5.43688 5.93847 5.64995C6.19131 5.86017 6.39301 6.12296 6.54358 6.4383C6.69415 6.7508 6.77085 7.09171 6.7737 7.46103C6.77085 7.93262 6.64301 8.35307 6.39017 8.72239C6.14017 9.08887 5.79216 9.37722 5.34614 9.58745C4.90296 9.79483 4.39017 9.89853 3.80779 9.89853ZM3.80779 8.96103C4.20267 8.96103 4.54358 8.89711 4.83051 8.76927C5.11745 8.64142 5.33904 8.46103 5.49529 8.22807C5.65154 7.99512 5.73108 7.72239 5.73392 7.40989C5.73108 7.08034 5.64585 6.78915 5.47824 6.53631C5.31063 6.28347 5.08193 6.08461 4.79216 5.93972C4.50523 5.79483 4.1771 5.72239 3.80779 5.72239C3.43563 5.72239 3.10324 5.79483 2.81063 5.93972C2.52085 6.08461 2.29216 6.28347 2.12455 6.53631C1.95977 6.78915 1.87881 7.08034 1.88165 7.40989C1.87881 7.72239 1.95409 7.99512 2.1075 8.22807C2.26375 8.46103 2.48676 8.64142 2.77654 8.76927C3.06631 8.89711 3.41006 8.96103 3.80779 8.96103ZM3.80779 4.81898C4.12029 4.81898 4.39728 4.75648 4.63875 4.63148C4.88307 4.50648 5.07483 4.33176 5.21404 4.10733C5.35324 3.8829 5.42426 3.62012 5.4271 3.31898C5.42426 3.02353 5.35466 2.76642 5.2183 2.54767C5.08193 2.32608 4.89301 2.15563 4.65154 2.03631C4.41006 1.91415 4.12881 1.85307 3.80779 1.85307C3.48108 1.85307 3.19557 1.91415 2.95125 2.03631C2.70693 2.15563 2.51801 2.32608 2.38449 2.54767C2.25097 2.76642 2.18563 3.02353 2.18847 3.31898C2.18563 3.62012 2.25239 3.8829 2.38875 4.10733C2.52796 4.33176 2.71972 4.50648 2.96404 4.63148C3.20835 4.75648 3.4896 4.81898 3.80779 4.81898Z" fill="#818798"/>
</svg>
