<svg width="22" height="9" viewBox="0 0 22 9" fill="none" xmlns="http://www.w3.org/2000/svg">
<path d="M18.2509 8.96591C17.6088 8.96591 17.062 8.79119 16.6103 8.44176C16.1586 8.08949 15.8134 7.57955 15.5748 6.91193C15.3361 6.24148 15.2168 5.43182 15.2168 4.48295C15.2168 3.53977 15.3361 2.73438 15.5748 2.06676C15.8162 1.39631 16.1628 0.884943 16.6145 0.53267C17.0691 0.177557 17.6145 0 18.2509 0C18.8873 0 19.4313 0.177557 19.883 0.53267C20.3375 0.884943 20.6841 1.39631 20.9228 2.06676C21.1642 2.73438 21.285 3.53977 21.285 4.48295C21.285 5.43182 21.1657 6.24148 20.927 6.91193C20.6884 7.57955 20.3432 8.08949 19.8915 8.44176C19.4398 8.79119 18.8929 8.96591 18.2509 8.96591ZM18.2509 8.02841C18.8873 8.02841 19.3816 7.72159 19.7338 7.10795C20.0861 6.49432 20.2623 5.61932 20.2623 4.48295C20.2623 3.72727 20.1813 3.08381 20.0194 2.55256C19.8603 2.02131 19.6301 1.61648 19.329 1.33807C19.0307 1.05966 18.6713 0.920455 18.2509 0.920455C17.6202 0.920455 17.1273 1.23153 16.7722 1.85369C16.4171 2.47301 16.2395 3.34943 16.2395 4.48295C16.2395 5.23864 16.3191 5.88068 16.4782 6.40909C16.6372 6.9375 16.8659 7.33949 17.1642 7.61506C17.4654 7.89062 17.8276 8.02841 18.2509 8.02841Z" fill="#818798"/>
<path d="M10.7509 8.96591C10.1088 8.96591 9.56197 8.79119 9.11026 8.44176C8.65856 8.08949 8.31339 7.57955 8.07475 6.91193C7.83612 6.24148 7.7168 5.43182 7.7168 4.48295C7.7168 3.53977 7.83612 2.73438 8.07475 2.06676C8.31623 1.39631 8.66282 0.884943 9.11452 0.53267C9.56907 0.177557 10.1145 0 10.7509 0C11.3873 0 11.9313 0.177557 12.383 0.53267C12.8375 0.884943 13.1841 1.39631 13.4228 2.06676C13.6642 2.73438 13.785 3.53977 13.785 4.48295C13.785 5.43182 13.6657 6.24148 13.427 6.91193C13.1884 7.57955 12.8432 8.08949 12.3915 8.44176C11.9398 8.79119 11.3929 8.96591 10.7509 8.96591ZM10.7509 8.02841C11.3873 8.02841 11.8816 7.72159 12.2338 7.10795C12.5861 6.49432 12.7623 5.61932 12.7623 4.48295C12.7623 3.72727 12.6813 3.08381 12.5194 2.55256C12.3603 2.02131 12.1301 1.61648 11.829 1.33807C11.5307 1.05966 11.1713 0.920455 10.7509 0.920455C10.1202 0.920455 9.62731 1.23153 9.27219 1.85369C8.91708 2.47301 8.73952 3.34943 8.73952 4.48295C8.73952 5.23864 8.81907 5.88068 8.97816 6.40909C9.13725 6.9375 9.36595 7.33949 9.66424 7.61506C9.96538 7.89062 10.3276 8.02841 10.7509 8.02841Z" fill="#818798"/>
<path d="M3.30486 8.96591C2.71963 8.96591 2.20258 8.86222 1.75372 8.65483C1.3077 8.4446 0.959686 8.15625 0.709686 7.78977C0.459686 7.42045 0.336107 7 0.338948 6.52841C0.336107 6.15909 0.40855 5.81818 0.556277 5.50568C0.704004 5.19034 0.905709 4.92756 1.16139 4.71733C1.41991 4.50426 1.70827 4.36932 2.02645 4.3125V4.26136C1.60883 4.15341 1.27645 3.91903 1.02929 3.55824C0.78213 3.1946 0.65997 2.78125 0.662811 2.31818C0.65997 1.875 0.772186 1.47869 0.999459 1.12926C1.22673 0.779829 1.53923 0.504261 1.93696 0.302557C2.33753 0.100852 2.79349 0 3.30486 0C3.81054 0 4.26224 0.100852 4.65997 0.302557C5.0577 0.504261 5.3702 0.779829 5.59747 1.12926C5.82758 1.47869 5.94406 1.875 5.9469 2.31818C5.94406 2.78125 5.81764 3.1946 5.56764 3.55824C5.32048 3.91903 4.99236 4.15341 4.58327 4.26136V4.3125C4.89861 4.36932 5.1827 4.50426 5.43554 4.71733C5.68838 4.92756 5.89008 5.19034 6.04065 5.50568C6.19122 5.81818 6.26793 6.15909 6.27077 6.52841C6.26793 7 6.14008 7.42045 5.88724 7.78977C5.63724 8.15625 5.28923 8.4446 4.84321 8.65483C4.40003 8.86222 3.88724 8.96591 3.30486 8.96591ZM3.30486 8.02841C3.69974 8.02841 4.04065 7.96449 4.32758 7.83665C4.61452 7.70881 4.83611 7.52841 4.99236 7.29545C5.14861 7.0625 5.22815 6.78977 5.23099 6.47727C5.22815 6.14773 5.14293 5.85653 4.97531 5.60369C4.8077 5.35085 4.579 5.15199 4.28923 5.0071C4.0023 4.86222 3.67418 4.78977 3.30486 4.78977C2.9327 4.78977 2.60031 4.86222 2.3077 5.0071C2.01793 5.15199 1.78923 5.35085 1.62162 5.60369C1.45685 5.85653 1.37588 6.14773 1.37872 6.47727C1.37588 6.78977 1.45116 7.0625 1.60457 7.29545C1.76082 7.52841 1.98383 7.70881 2.27361 7.83665C2.56338 7.96449 2.90713 8.02841 3.30486 8.02841ZM3.30486 3.88636C3.61736 3.88636 3.89435 3.82386 4.13582 3.69886C4.38014 3.57386 4.5719 3.39915 4.71111 3.17472C4.85031 2.95028 4.92133 2.6875 4.92418 2.38636C4.92133 2.09091 4.85173 1.83381 4.71537 1.61506C4.579 1.39347 4.39008 1.22301 4.14861 1.10369C3.90713 0.981534 3.62588 0.920455 3.30486 0.920455C2.97815 0.920455 2.69264 0.981534 2.44832 1.10369C2.204 1.22301 2.01508 1.39347 1.88156 1.61506C1.74804 1.83381 1.6827 2.09091 1.68554 2.38636C1.6827 2.6875 1.74946 2.95028 1.88582 3.17472C2.02503 3.39915 2.21679 3.57386 2.46111 3.69886C2.70543 3.82386 2.98668 3.88636 3.30486 3.88636Z" fill="#818798"/>
</svg>
