<svg width="15" height="10" viewBox="0 0 15 10" fill="none" xmlns="http://www.w3.org/2000/svg">
<path d="M11.2831 9.93173C10.6411 9.93173 10.0942 9.75701 9.64249 9.40758C9.19078 9.05531 8.84561 8.54537 8.60698 7.87775C8.36834 7.2073 8.24902 6.39764 8.24902 5.44878C8.24902 4.50559 8.36834 3.7002 8.60698 3.03258C8.84846 2.36213 9.19505 1.85076 9.64675 1.49849C10.1013 1.14338 10.6468 0.96582 11.2831 0.96582C11.9195 0.96582 12.4635 1.14338 12.9152 1.49849C13.3698 1.85076 13.7164 2.36213 13.955 3.03258C14.1965 3.7002 14.3172 4.50559 14.3172 5.44878C14.3172 6.39764 14.1979 7.2073 13.9593 7.87775C13.7206 8.54537 13.3754 9.05531 12.9237 9.40758C12.472 9.75701 11.9252 9.93173 11.2831 9.93173ZM11.2831 8.99423C11.9195 8.99423 12.4138 8.68741 12.7661 8.07378C13.1183 7.46014 13.2945 6.58514 13.2945 5.44878C13.2945 4.69309 13.2135 4.04963 13.0516 3.51838C12.8925 2.98713 12.6624 2.5823 12.3612 2.30389C12.0629 2.02548 11.7036 1.88627 11.2831 1.88627C10.6524 1.88627 10.1595 2.19735 9.80442 2.81951C9.44931 3.43883 9.27175 4.31525 9.27175 5.44878C9.27175 6.20446 9.3513 6.8465 9.51039 7.37491C9.66948 7.90332 9.89817 8.30531 10.1965 8.58088C10.4976 8.85645 10.8598 8.99423 11.2831 8.99423Z" fill="#818798"/>
<path d="M3.7263 0.96622C4.08425 0.969061 4.44221 1.03724 4.80016 1.17076C5.15811 1.30429 5.48482 1.52588 5.78027 1.83554C6.07573 2.14236 6.31294 2.56139 6.49192 3.09264C6.6709 3.62389 6.76039 4.29008 6.76039 5.09122C6.76039 5.86679 6.68652 6.55571 6.5388 7.15798C6.39391 7.75741 6.18368 8.26309 5.90811 8.67503C5.63539 9.08696 5.303 9.39946 4.91096 9.61253C4.52175 9.82559 4.08141 9.93213 3.58993 9.93213C3.1013 9.93213 2.66522 9.83554 2.28169 9.64236C1.90101 9.44633 1.58851 9.17503 1.34419 8.82844C1.10272 8.479 0.947887 8.07417 0.879705 7.61395H1.91948C2.01323 8.01451 2.19931 8.34548 2.47772 8.60684C2.75897 8.86537 3.12971 8.99463 3.58993 8.99463C4.26323 8.99463 4.79448 8.70059 5.18368 8.11253C5.57573 7.52446 5.77175 6.69349 5.77175 5.61963H5.70357C5.54448 5.85827 5.35556 6.06423 5.13681 6.23753C4.91806 6.41082 4.67516 6.54434 4.40811 6.63809C4.14107 6.73184 3.85698 6.77872 3.55584 6.77872C3.05584 6.77872 2.59703 6.65514 2.17942 6.40798C1.76465 6.15798 1.43226 5.81565 1.18226 5.38099C0.935103 4.94349 0.811523 4.44349 0.811523 3.88099C0.811523 3.3469 0.930842 2.85826 1.16948 2.41508C1.41096 1.96906 1.74902 1.61395 2.18368 1.34974C2.62118 1.08554 3.13539 0.957697 3.7263 0.96622ZM3.7263 1.90372C3.36834 1.90372 3.0459 1.99321 2.75897 2.17219C2.47488 2.34832 2.24902 2.58696 2.08141 2.88809C1.91664 3.18639 1.83425 3.51736 1.83425 3.88099C1.83425 4.24463 1.9138 4.57559 2.07289 4.87389C2.23482 5.16934 2.45499 5.40514 2.7334 5.58128C3.01465 5.75457 3.33425 5.84122 3.69221 5.84122C3.96209 5.84122 4.21351 5.78866 4.44647 5.68355C4.67942 5.5756 4.88255 5.42929 5.05584 5.24463C5.23198 5.05713 5.36976 4.84548 5.46919 4.60969C5.56863 4.37105 5.61834 4.12247 5.61834 3.86395C5.61834 3.52304 5.53596 3.20344 5.37118 2.90514C5.20925 2.60684 4.98482 2.36537 4.69789 2.18071C4.4138 1.99605 4.08993 1.90372 3.7263 1.90372Z" fill="#818798"/>
</svg>
