<svg width="45" height="12" viewBox="0 0 45 12" fill="none" xmlns="http://www.w3.org/2000/svg">
<path d="M44.3314 5.14276L42.7916 5.41548C42.7272 5.21851 42.625 5.03101 42.4848 4.85298C42.3485 4.67495 42.1628 4.52912 41.928 4.41548C41.6932 4.30185 41.3996 4.24503 41.0473 4.24503C40.5663 4.24503 40.1647 4.35298 39.8428 4.56889C39.5208 4.78101 39.3598 5.05563 39.3598 5.39276C39.3598 5.68442 39.4678 5.91927 39.6837 6.0973C39.8996 6.27533 40.2481 6.42116 40.7291 6.5348L42.1155 6.85298C42.9185 7.03859 43.517 7.32457 43.911 7.71094C44.3049 8.0973 44.5019 8.5992 44.5019 9.21662C44.5019 9.73935 44.3504 10.2053 44.0473 10.6143C43.7481 11.0196 43.3295 11.3378 42.7916 11.5689C42.2575 11.8 41.6382 11.9155 40.9337 11.9155C39.9564 11.9155 39.1591 11.7071 38.5416 11.2905C37.9242 10.87 37.5454 10.2734 37.4053 9.50071L39.0473 9.25071C39.1496 9.67874 39.3598 10.0026 39.678 10.2223C39.9962 10.4382 40.411 10.5462 40.9223 10.5462C41.4791 10.5462 41.9242 10.4306 42.2575 10.1996C42.5909 9.96473 42.7575 9.67874 42.7575 9.34162C42.7575 9.06889 42.6553 8.83973 42.4507 8.65412C42.25 8.46851 41.9413 8.32836 41.5246 8.23366L40.0473 7.9098C39.2329 7.72419 38.6307 7.42874 38.2405 7.02344C37.8541 6.61813 37.661 6.10488 37.661 5.48366C37.661 4.96851 37.8049 4.51776 38.0928 4.13139C38.3807 3.74503 38.7784 3.44389 39.286 3.22798C39.7935 3.00829 40.375 2.89844 41.0303 2.89844C41.9735 2.89844 42.7159 3.10298 43.2575 3.51207C43.7992 3.91738 44.1572 4.46094 44.3314 5.14276Z" fill="#818798"/>
<path d="M36.0522 3.01181V4.37544H31.2852V3.01181H36.0522ZM32.5636 0.920898H34.2624V9.17658C34.2624 9.50613 34.3117 9.75423 34.4102 9.9209C34.5086 10.0838 34.6355 10.1955 34.7908 10.2561C34.9499 10.3129 35.1223 10.3414 35.3079 10.3414C35.4442 10.3414 35.5636 10.3319 35.6658 10.3129C35.7681 10.294 35.8477 10.2789 35.9045 10.2675L36.2113 11.6709C36.1128 11.7088 35.9727 11.7467 35.7908 11.7845C35.609 11.8262 35.3817 11.8489 35.109 11.8527C34.6621 11.8603 34.2454 11.7807 33.859 11.6141C33.4727 11.4474 33.1602 11.1898 32.9215 10.8414C32.6829 10.4929 32.5636 10.0554 32.5636 9.52885V0.920898Z" fill="#818798"/>
<path d="M25.3223 11.7388V3.01154H26.9643V4.3979H27.0552C27.2143 3.92821 27.4946 3.55889 27.8961 3.28995C28.3014 3.01722 28.7598 2.88086 29.2711 2.88086C29.3772 2.88086 29.5022 2.88465 29.6461 2.89222C29.7939 2.8998 29.9094 2.90927 29.9927 2.92063V4.54563C29.9245 4.52669 29.8033 4.50586 29.6291 4.48313C29.4548 4.45662 29.2806 4.44336 29.1064 4.44336C28.7048 4.44336 28.3469 4.52859 28.0325 4.69904C27.7219 4.86571 27.4757 5.09866 27.2939 5.3979C27.112 5.69336 27.0211 6.03048 27.0211 6.40927V11.7388H25.3223Z" fill="#818798"/>
<path d="M19.6934 11.9155C18.8336 11.9155 18.0931 11.7318 17.4719 11.3643C16.8544 10.9931 16.3772 10.4723 16.04 9.80185C15.7067 9.1276 15.54 8.33783 15.54 7.43253C15.54 6.53859 15.7067 5.75071 16.04 5.06889C16.3772 4.38707 16.8469 3.85488 17.4491 3.4723C18.0552 3.08973 18.7635 2.89844 19.5741 2.89844C20.0666 2.89844 20.5438 2.97988 21.0059 3.14276C21.4681 3.30563 21.8828 3.56132 22.2503 3.9098C22.6177 4.25829 22.9075 4.71094 23.1196 5.26776C23.3317 5.82079 23.4378 6.49313 23.4378 7.2848V7.88707H16.5003V6.61435H21.773C21.773 6.16738 21.6821 5.77154 21.5003 5.42685C21.3184 5.07836 21.0628 4.80374 20.7332 4.60298C20.4075 4.40223 20.0249 4.30185 19.5855 4.30185C19.1082 4.30185 18.6916 4.41927 18.3355 4.65412C17.9832 4.88518 17.7105 5.18821 17.5173 5.56321C17.3279 5.93442 17.2332 6.33783 17.2332 6.77344V7.76776C17.2332 8.35109 17.3355 8.8473 17.54 9.25639C17.7484 9.66548 18.0381 9.97798 18.4094 10.1939C18.7806 10.406 19.2143 10.5121 19.7105 10.5121C20.0325 10.5121 20.326 10.4666 20.5912 10.3757C20.8563 10.281 21.0855 10.1409 21.2787 9.95525C21.4719 9.76965 21.6196 9.54048 21.7219 9.26776L23.3298 9.55753C23.201 10.031 22.97 10.4458 22.6366 10.8018C22.3071 11.1541 21.8923 11.4287 21.3923 11.6257C20.8961 11.8189 20.3298 11.9155 19.6934 11.9155Z" fill="#818798"/>
<path d="M13.6461 0.102539V11.7389H11.9473V0.102539H13.6461Z" fill="#818798"/>
<path d="M1.86364 11.7389H0L4.1875 0.102539H6.21591L10.4034 11.7389H8.53977L5.25 2.21618H5.15909L1.86364 11.7389ZM2.17614 7.18209H8.22159V8.65936H2.17614V7.18209Z" fill="#818798"/>
</svg>
