<svg width="105" height="24" viewBox="0 0 105 24" fill="none" xmlns="http://www.w3.org/2000/svg">
<path d="M104.429 9.10476L102.12 9.51385C102.023 9.21839 101.87 8.93714 101.659 8.6701C101.455 8.40305 101.176 8.1843 100.824 8.01385C100.472 7.84339 100.032 7.75817 99.5031 7.75817C98.7815 7.75817 98.1792 7.9201 97.6963 8.24396C97.2133 8.56215 96.9719 8.97408 96.9719 9.47976C96.9719 9.91726 97.1338 10.2695 97.4577 10.5366C97.7815 10.8036 98.3042 11.0224 99.0258 11.1928L101.105 11.6701C102.31 11.9485 103.208 12.3775 103.799 12.957C104.389 13.5366 104.685 14.2894 104.685 15.2156C104.685 15.9996 104.458 16.6985 104.003 17.3121C103.554 17.9201 102.926 18.3974 102.12 18.744C101.318 19.0906 100.389 19.2638 99.3327 19.2638C97.8667 19.2638 96.6707 18.9513 95.7446 18.3263C94.8184 17.6957 94.2503 16.8008 94.04 15.6417L96.5031 15.2667C96.6565 15.9087 96.9719 16.3945 97.4491 16.7241C97.9264 17.0479 98.5486 17.2099 99.3156 17.2099C100.151 17.2099 100.818 17.0366 101.318 16.69C101.818 16.3377 102.068 15.9087 102.068 15.4031C102.068 14.994 101.915 14.6502 101.608 14.3718C101.307 14.0934 100.844 13.8832 100.219 13.7411L98.0031 13.2553C96.7815 12.9769 95.8781 12.5337 95.2929 11.9258C94.7133 11.3178 94.4236 10.5479 94.4236 9.61612C94.4236 8.84339 94.6395 8.16726 95.0713 7.58771C95.5031 7.00817 96.0997 6.55646 96.8611 6.2326C97.6224 5.90305 98.4946 5.73828 99.4775 5.73828C100.892 5.73828 102.006 6.0451 102.818 6.65874C103.631 7.26669 104.168 8.08203 104.429 9.10476Z" fill="white"/>
<path d="M86.5163 19.2638C85.2493 19.2638 84.1584 18.9769 83.2436 18.4031C82.3345 17.8235 81.6357 17.0252 81.147 16.0082C80.6584 14.9911 80.4141 13.8263 80.4141 12.5138C80.4141 11.1843 80.6641 10.011 81.1641 8.99396C81.6641 7.97124 82.3686 7.17294 83.2777 6.59908C84.1868 6.02521 85.2578 5.73828 86.4908 5.73828C87.4851 5.73828 88.3714 5.92294 89.1499 6.29226C89.9283 6.6559 90.5561 7.16726 91.0334 7.82635C91.5163 8.48544 91.8033 9.25533 91.8942 10.136H89.4141C89.2777 9.52237 88.9652 8.99396 88.4766 8.55078C87.9936 8.1076 87.3459 7.88601 86.5334 7.88601C85.8232 7.88601 85.201 8.07351 84.6669 8.44851C84.1385 8.81783 83.7266 9.34624 83.4311 10.0337C83.1357 10.7156 82.9879 11.5224 82.9879 12.4542C82.9879 13.4087 83.1328 14.2326 83.4226 14.9258C83.7124 15.619 84.1214 16.1559 84.6499 16.5366C85.1839 16.9173 85.8118 17.1076 86.5334 17.1076C87.0163 17.1076 87.4538 17.0195 87.8459 16.8434C88.2436 16.6616 88.576 16.4031 88.843 16.0678C89.1158 15.7326 89.3061 15.3292 89.4141 14.8576H91.8942C91.8033 15.7042 91.5277 16.4599 91.0675 17.1246C90.6072 17.7894 89.9908 18.3121 89.218 18.6928C88.451 19.0735 87.5504 19.2638 86.5163 19.2638Z" fill="white"/>
<path d="M75.026 19.0001V5.90918H77.5743V19.0001H75.026ZM76.3129 3.88929C75.8698 3.88929 75.4891 3.74157 75.1709 3.44611C74.8584 3.14498 74.7021 2.78702 74.7021 2.37225C74.7021 1.95179 74.8584 1.59384 75.1709 1.29838C75.4891 0.997248 75.8698 0.84668 76.3129 0.84668C76.7561 0.84668 77.134 0.997248 77.4465 1.29838C77.7646 1.59384 77.9237 1.95179 77.9237 2.37225C77.9237 2.78702 77.7646 3.14498 77.4465 3.44611C77.134 3.74157 76.7561 3.88929 76.3129 3.88929Z" fill="white"/>
<path d="M72.2072 5.90882V7.95428H65.0566V5.90882H72.2072ZM66.9743 2.77246H69.5226V15.156C69.5226 15.6503 69.5964 16.0225 69.7441 16.2725C69.8919 16.5168 70.0822 16.6844 70.3152 16.7753C70.5538 16.8605 70.8123 16.9031 71.0907 16.9031C71.2953 16.9031 71.4743 16.8889 71.6277 16.8605C71.7811 16.8321 71.9004 16.8094 71.9856 16.7923L72.4458 18.8975C72.2981 18.9543 72.0879 19.0111 71.8152 19.0679C71.5424 19.1304 71.2015 19.1645 70.7924 19.1702C70.122 19.1816 69.497 19.0622 68.9174 18.8122C68.3379 18.5622 67.8691 18.1759 67.5112 17.6531C67.1532 17.1304 66.9743 16.4742 66.9743 15.6844V2.77246Z" fill="white"/>
<path d="M54.1127 23.9092C53.7321 23.9092 53.3855 23.8779 53.073 23.8154C52.7605 23.7586 52.5275 23.6961 52.3741 23.6279L52.9877 21.5399C53.4537 21.6649 53.8684 21.7188 54.2321 21.7018C54.5957 21.6847 54.9167 21.5484 55.1951 21.2927C55.4792 21.037 55.7292 20.6194 55.9451 20.0399L56.2605 19.1705L51.4707 5.90918H54.198L57.5133 16.0683H57.6497L60.965 5.90918H63.7008L58.3059 20.7472C58.0559 21.4291 57.7377 22.0058 57.3514 22.4774C56.965 22.9546 56.5048 23.3126 55.9707 23.5512C55.4366 23.7899 54.8173 23.9092 54.1127 23.9092Z" fill="white"/>
<path d="M49.0737 1.5459V19.0004H46.5254V1.5459H49.0737Z" fill="white"/>
<path d="M36.6713 19.2894C35.8418 19.2894 35.0918 19.136 34.4213 18.8292C33.7509 18.5167 33.2196 18.065 32.8276 17.4741C32.4412 16.8832 32.248 16.1587 32.248 15.3008C32.248 14.5621 32.3901 13.9542 32.6742 13.4769C32.9583 12.9996 33.3418 12.6218 33.8248 12.3434C34.3077 12.065 34.8475 11.8548 35.4441 11.7127C36.0407 11.5707 36.6486 11.4627 37.2679 11.3888C38.052 11.2979 38.6884 11.2241 39.177 11.1673C39.6657 11.1048 40.0208 11.0053 40.2424 10.869C40.464 10.7326 40.5748 10.511 40.5748 10.2042V10.1445C40.5748 9.40021 40.3645 8.82351 39.9441 8.41442C39.5293 8.00533 38.91 7.80078 38.0861 7.80078C37.2282 7.80078 36.552 7.99112 36.0577 8.3718C35.5691 8.7468 35.231 9.16442 35.0435 9.62465L32.6486 9.07919C32.9327 8.28374 33.3475 7.64169 33.8929 7.15305C34.4441 6.65874 35.0776 6.30078 35.7935 6.07919C36.5094 5.85192 37.2623 5.73828 38.052 5.73828C38.5748 5.73828 39.1287 5.80078 39.714 5.92578C40.3049 6.0451 40.856 6.26669 41.3674 6.59055C41.8844 6.91442 42.3077 7.37749 42.6373 7.97976C42.9668 8.57635 43.1316 9.35192 43.1316 10.3065V18.9996H40.6429V17.2099H40.5407C40.3759 17.5394 40.1287 17.8633 39.7992 18.1815C39.4696 18.4996 39.0463 18.7639 38.5293 18.9741C38.0123 19.1843 37.3929 19.2894 36.6713 19.2894ZM37.2253 17.244C37.9299 17.244 38.5321 17.1048 39.0321 16.8263C39.5378 16.5479 39.9213 16.1843 40.1827 15.7354C40.4498 15.2809 40.5833 14.7951 40.5833 14.2781V12.5906C40.4924 12.6815 40.3162 12.7667 40.0549 12.8462C39.7992 12.9201 39.5066 12.9854 39.177 13.0423C38.8475 13.0934 38.5265 13.1417 38.214 13.1871C37.9015 13.2269 37.6401 13.261 37.4299 13.2894C36.9355 13.3519 36.4838 13.457 36.0748 13.6048C35.6713 13.7525 35.3475 13.9656 35.1032 14.244C34.8645 14.5167 34.7452 14.8803 34.7452 15.3349C34.7452 15.9656 34.9782 16.4428 35.4441 16.7667C35.91 17.0849 36.5037 17.244 37.2253 17.244Z" fill="white"/>
<path d="M21.0659 11.2269V18.9996H18.5176V5.90874H20.9636V8.03942H21.1255C21.4267 7.34624 21.8983 6.78942 22.5403 6.36896C23.188 5.94851 24.0034 5.73828 24.9863 5.73828C25.8784 5.73828 26.6596 5.92578 27.3301 6.30078C28.0005 6.6701 28.5204 7.22124 28.8897 7.95419C29.2591 8.68714 29.4437 9.5934 29.4437 10.6729V18.9996H26.8954V10.9798C26.8954 10.0309 26.6483 9.28942 26.1539 8.75533C25.6596 8.21555 24.9806 7.94567 24.117 7.94567C23.5261 7.94567 23.0005 8.07351 22.5403 8.32919C22.0858 8.58487 21.725 8.95987 21.4579 9.45419C21.1966 9.94283 21.0659 10.5337 21.0659 11.2269Z" fill="white"/>
<path d="M3.39213 19.0004H0.59668L6.87793 1.5459H9.92054L16.2018 19.0004H13.4063L8.47168 4.71635H8.33532L3.39213 19.0004ZM3.86088 12.1652H12.9291V14.3811H3.86088V12.1652Z" fill="white"/>
</svg>
