<svg width="515" height="12" viewBox="0 0 515 12" fill="none" xmlns="http://www.w3.org/2000/svg">
<path d="M341.625 11.0002V0.818359H347.73V1.91211H342.858V5.35245H347.273V6.4462H342.858V11.0002H341.625Z" fill="#818798"/>
<path d="M257.686 1.91211V0.818359H265.322V1.91211H262.12V11.0002H260.887V1.91211H257.686Z" fill="#818798"/>
<path d="M172.438 11.0002L169.654 0.818359H170.907L173.035 9.11097H173.134L175.302 0.818359H176.694L178.862 9.11097H178.961L181.089 0.818359H182.342L179.558 11.0002H178.285L176.038 2.88654H175.958L173.711 11.0002H172.438Z" fill="#818798"/>
<path d="M86.6855 1.91211V0.818359H94.3219V1.91211H91.1202V11.0002H89.8873V1.91211H86.6855Z" fill="#818798"/>
<path d="M429.838 3.36337C429.778 2.85958 429.536 2.46848 429.112 2.19007C428.688 1.91167 428.167 1.77246 427.551 1.77246C427.1 1.77246 426.706 1.84538 426.368 1.99121C426.033 2.13704 425.771 2.33757 425.582 2.59277C425.396 2.84798 425.304 3.13799 425.304 3.4628C425.304 3.73458 425.368 3.96825 425.498 4.1638C425.63 4.35603 425.799 4.51678 426.005 4.64604C426.21 4.77199 426.426 4.87639 426.651 4.95925C426.876 5.0388 427.083 5.10343 427.272 5.15314L428.306 5.43155C428.572 5.50115 428.867 5.59727 429.191 5.7199C429.52 5.84254 429.833 6.00991 430.131 6.22203C430.433 6.43084 430.681 6.69931 430.877 7.02743C431.072 7.35556 431.17 7.75826 431.17 8.23553C431.17 8.78572 431.026 9.28288 430.738 9.72701C430.453 10.1711 430.035 10.5241 429.485 10.786C428.938 11.0478 428.273 11.1787 427.491 11.1787C426.762 11.1787 426.131 11.0611 425.597 10.8257C425.067 10.5904 424.649 10.2623 424.344 9.84135C424.042 9.42043 423.872 8.93155 423.832 8.37473H425.105C425.138 8.7592 425.267 9.07738 425.493 9.32928C425.721 9.57786 426.01 9.76346 426.358 9.8861C426.709 10.0054 427.087 10.0651 427.491 10.0651C427.962 10.0651 428.384 9.98884 428.759 9.83638C429.133 9.6806 429.43 9.46517 429.649 9.19007C429.868 8.91167 429.977 8.58685 429.977 8.21564C429.977 7.87757 429.882 7.60248 429.694 7.39036C429.505 7.17824 429.256 7.00589 428.948 6.87331C428.64 6.74074 428.306 6.62473 427.949 6.5253L426.696 6.16735C425.9 5.93865 425.27 5.61219 424.806 5.18794C424.342 4.7637 424.11 4.20854 424.11 3.52246C424.11 2.95238 424.265 2.45523 424.573 2.03098C424.884 1.60343 425.302 1.27199 425.826 1.03667C426.353 0.798029 426.941 0.678711 427.591 0.678711C428.247 0.678711 428.83 0.796372 429.341 1.03169C429.851 1.2637 430.255 1.58188 430.554 1.98624C430.855 2.3906 431.014 2.84964 431.031 3.36337H429.838Z" fill="#818798"/>
<path d="M512.838 3.36337C512.778 2.85958 512.536 2.46848 512.112 2.19007C511.688 1.91167 511.167 1.77246 510.551 1.77246C510.1 1.77246 509.706 1.84538 509.368 1.99121C509.033 2.13704 508.771 2.33757 508.582 2.59277C508.396 2.84798 508.304 3.13799 508.304 3.4628C508.304 3.73458 508.368 3.96825 508.498 4.1638C508.63 4.35603 508.799 4.51678 509.005 4.64604C509.21 4.77199 509.426 4.87639 509.651 4.95925C509.876 5.0388 510.083 5.10343 510.272 5.15314L511.306 5.43155C511.572 5.50115 511.867 5.59727 512.191 5.7199C512.52 5.84254 512.833 6.00991 513.131 6.22203C513.433 6.43084 513.681 6.69931 513.877 7.02743C514.072 7.35556 514.17 7.75826 514.17 8.23553C514.17 8.78572 514.026 9.28288 513.738 9.72701C513.453 10.1711 513.035 10.5241 512.485 10.786C511.938 11.0478 511.273 11.1787 510.491 11.1787C509.762 11.1787 509.131 11.0611 508.597 10.8257C508.067 10.5904 507.649 10.2623 507.344 9.84135C507.042 9.42043 506.872 8.93155 506.832 8.37473H508.105C508.138 8.7592 508.267 9.07738 508.493 9.32928C508.721 9.57786 509.01 9.76346 509.358 9.8861C509.709 10.0054 510.087 10.0651 510.491 10.0651C510.962 10.0651 511.384 9.98884 511.759 9.83638C512.133 9.6806 512.43 9.46517 512.649 9.19007C512.868 8.91167 512.977 8.58685 512.977 8.21564C512.977 7.87757 512.882 7.60248 512.694 7.39036C512.505 7.17824 512.256 7.00589 511.948 6.87331C511.64 6.74074 511.306 6.62473 510.949 6.5253L509.696 6.16735C508.9 5.93865 508.27 5.61219 507.806 5.18794C507.342 4.7637 507.11 4.20854 507.11 3.52246C507.11 2.95238 507.265 2.45523 507.573 2.03098C507.884 1.60343 508.302 1.27199 508.826 1.03667C509.353 0.798029 509.941 0.678711 510.591 0.678711C511.247 0.678711 511.83 0.796372 512.341 1.03169C512.851 1.2637 513.255 1.58188 513.554 1.98624C513.855 2.3906 514.014 2.84964 514.031 3.36337H512.838Z" fill="#818798"/>
<path d="M0.505859 0.818359H1.97745L5.43768 9.27006H5.557L9.01722 0.818359H10.4888V11.0002H9.3354V3.26438H9.23597L6.05415 11.0002H4.94052L1.7587 3.26438H1.65927V11.0002H0.505859V0.818359Z" fill="#818798"/>
</svg>
