<svg width="172" height="172" viewBox="0 0 172 172" fill="none" xmlns="http://www.w3.org/2000/svg">
<g clip-path="url(#clip0_3388_11492)">
<path fill-rule="evenodd" clip-rule="evenodd" d="M86 166C130.183 166 166 130.183 166 86C166 41.8172 130.183 6 86 6C41.8172 6 6 41.8172 6 86C6 130.183 41.8172 166 86 166ZM86 54C103.673 54 118 68.3269 118 86C118 103.673 103.673 118 86 118C68.3269 118 54 103.673 54 86C54 68.3269 68.3269 54 86 54Z" fill="#19CAFF"/>
<path fill-rule="evenodd" clip-rule="evenodd" d="M172 86C172 133.496 133.496 172 86 172C38.5035 172 0 133.496 0 86C0 38.5035 38.5035 0 86 0C133.496 0 172 38.5035 172 86ZM112 86C112 71.6406 100.359 60 86 60C71.6406 60 60 71.6406 60 86C60 100.359 71.6406 112 86 112C100.359 112 112 100.359 112 86ZM166 86C166 130.183 130.183 166 86 166C41.8172 166 6 130.183 6 86C6 41.8172 41.8172 6 86 6C130.183 6 166 41.8172 166 86ZM118 86C118 68.3269 103.673 54 86 54C68.3269 54 54 68.3269 54 86C54 103.673 68.3269 118 86 118C103.673 118 118 103.673 118 86Z" fill="black" fill-opacity="0.34"/>
<path d="M6.00754 84.8901C6.00252 85.2594 6 85.6293 6 85.9999C6 130.183 41.8172 166 86 166C130.183 166 166 130.183 166 85.9999C166 73.3284 163.054 61.345 157.809 50.6973L114.728 71.8877C116.823 76.1445 118 80.9348 118 85.9999C118 103.673 103.673 118 86 118C68.3269 118 54 103.673 54 85.9999C54 83.6307 54.2575 81.3218 54.7459 79.0994L6.00754 84.8901Z" fill="#2693F5"/>
<path d="M86 6C86.3338 6 86.6672 6.00204 87 6.00612V54.0153C86.6679 54.0051 86.3346 54 86 54C70.696 54 57.9012 64.7433 54.7459 79.0995C54.7129 79.2496 54.681 79.4 54.6501 79.5509C54.2239 81.634 54 83.7909 54 86C54 86.069 54.0002 86.138 54.0007 86.207C54.112 103.785 68.3959 118 86 118C86.3346 118 86.6679 117.995 87 117.985C98.1776 117.642 107.912 111.566 113.363 102.599L155.789 125.138C142.236 149.253 116.546 165.632 87 165.994C86.6672 165.998 86.3338 166 86 166C42.3508 166 6.86639 131.043 6.01563 87.5972C6.00912 87.2652 6.00465 86.9327 6.0022 86.5998C6.00073 86.4 6 86.2001 6 86C6 85.8243 6.00057 85.6488 6.0017 85.4734C6.00295 85.2789 6.0049 85.0845 6.00754 84.8902C6.60132 41.219 42.1877 6 86 6Z" fill="#B1EDFF"/>
<path fill-rule="evenodd" clip-rule="evenodd" d="M88.5 4.52438V55.5621L86.954 55.5146C86.6372 55.5049 86.3192 55.5 86 55.5C71.4152 55.5 59.2183 65.7385 56.2109 79.4215C56.1795 79.5645 56.1491 79.7079 56.1197 79.8516C55.7135 81.8363 55.5 83.8924 55.5 86C55.5 86.0658 55.5002 86.1317 55.5006 86.1975C55.6067 102.951 69.2212 116.5 86 116.5C86.3192 116.5 86.6372 116.495 86.954 116.485C97.6047 116.158 106.884 110.371 112.082 101.82L112.817 100.611L157.849 124.534L157.097 125.873C143.292 150.436 117.121 167.125 87.0184 167.494C86.6794 167.498 86.3399 167.5 86 167.5C41.5322 167.5 5.38264 131.887 4.51591 87.6265C4.50929 87.2885 4.50473 86.9499 4.50224 86.6108C4.50075 86.4074 4.5 86.2038 4.5 86C4.5 85.8211 4.50058 85.6424 4.50173 85.4638C4.503 85.2656 4.50499 85.0676 4.50768 84.8698C5.1126 40.3793 41.3661 4.5 86 4.5C86.3399 4.5 86.6794 4.50208 87.0184 4.50623L88.5 4.52438ZM87 6.00612C86.6672 6.00204 86.3338 6 86 6C42.1877 6 6.60132 41.219 6.00754 84.8902C6.0049 85.0845 6.00295 85.2789 6.0017 85.4734C6.00057 85.6488 6 85.8243 6 86C6 86.2001 6.00073 86.4 6.0022 86.5998C6.00465 86.9327 6.00912 87.2652 6.01563 87.5972C6.86639 131.043 42.3508 166 86 166C86.3338 166 86.6672 165.998 87 165.994C116.011 165.639 141.305 149.84 155.041 126.439C155.295 126.008 155.544 125.574 155.789 125.138L113.363 102.599C107.912 111.566 98.1776 117.642 87 117.985C86.6679 117.995 86.3346 118 86 118C68.3959 118 54.112 103.785 54.0007 86.207C54.0004 86.1687 54.0002 86.1303 54.0001 86.092C54 86.0614 54 86.0307 54 86C54 83.7909 54.2239 81.634 54.6501 79.5509C54.681 79.4 54.7129 79.2496 54.7459 79.0995C57.8668 64.8999 70.418 54.2348 85.5 54.0038C85.6664 54.0013 85.833 54 86 54C86.3346 54 86.6679 54.0051 87 54.0153V6.00612Z" fill="black"/>
<path d="M87 6.00586C118.087 6.38666 144.906 24.499 157.809 50.6971L114.728 71.8875C109.651 61.5725 99.1828 54.389 87 54.0151V6.00586Z" fill="#19CAFF"/>
<path fill-rule="evenodd" clip-rule="evenodd" d="M159.818 51.3806L114.045 73.8953L113.382 72.5498C108.542 62.7148 98.5623 55.8706 86.954 55.5143L85.5 55.4697V4.4873L87.0184 4.5059C118.691 4.89388 146.011 23.3485 159.155 50.0343L159.818 51.3806ZM87 6.00579V54.015C99.1828 54.389 109.651 61.5724 114.728 71.8875L157.809 50.6971C157.588 50.2482 157.363 49.8017 157.134 49.3577C144.201 24.3013 118.418 6.95636 88.5 6.03799C88.0011 6.02268 87.5011 6.01193 87 6.00579Z" fill="black"/>
<path d="M91.3995 6.17322C89.9433 6.07617 88.4765 6.01809 87 6V54.0092C87.4156 54.022 87.8292 54.0426 88.2407 54.0711L91.3995 6.17322Z" fill="#0B5970"/>
<path fill-rule="evenodd" clip-rule="evenodd" d="M92.9949 4.77615L89.6384 55.6713L88.1371 55.5675C87.7448 55.5403 87.3504 55.5206 86.954 55.5084L85.5 55.4638V4.48145L87.0184 4.50004C88.522 4.51846 90.016 4.57762 91.4993 4.67647L92.9949 4.77615ZM87 5.99993V54.0091C87.3462 54.0198 87.6909 54.0359 88.0342 54.0574C88.1031 54.0617 88.1719 54.0663 88.2407 54.071L91.3995 6.17315C91.3624 6.17067 91.3252 6.16822 91.288 6.1658C90.827 6.13572 90.365 6.10954 89.9019 6.0873C89.4357 6.06491 88.9683 6.04651 88.5 6.03213C88.0011 6.01682 87.5011 6.00607 87 5.99993Z" fill="black"/>
</g>
<defs>
<clipPath id="clip0_3388_11492">
<rect width="172" height="172" fill="white"/>
</clipPath>
</defs>
</svg>
