<svg width="314" height="23" viewBox="0 0 314 23" fill="none" xmlns="http://www.w3.org/2000/svg">
<path d="M1 11.0127C1 5.48985 5.47715 1.0127 11 1.0127H302C307.523 1.0127 312 5.48985 312 11.0127C312 16.5355 307.523 21.0127 302 21.0127H11C5.47715 21.0127 1 16.5355 1 11.0127Z" fill="#121416"/>
<path d="M5 11.0127C5 7.69899 7.68629 5.0127 11 5.0127H302C305.314 5.0127 308 7.69899 308 11.0127C308 14.3264 305.314 17.0127 302 17.0127H11C7.68629 17.0127 5 14.3264 5 11.0127Z" fill="#2B2B32"/>
<path d="M5 11.0127C5 7.69899 7.68629 5.0127 11 5.0127H112C115.314 5.0127 118 7.69899 118 11.0127C118 14.3264 115.314 17.0127 112 17.0127H11C7.68629 17.0127 5 14.3264 5 11.0127Z" fill="url(#paint0_linear_3388_11481)"/>
<defs>
<linearGradient id="paint0_linear_3388_11481" x1="-7.02723" y1="27.1377" x2="116.267" y2="-3.30718" gradientUnits="userSpaceOnUse">
<stop stop-color="#2693F5"/>
<stop offset="1" stop-color="#19CAFF"/>
</linearGradient>
</defs>
</svg>
