<svg width="167" height="25" viewBox="0 0 167 25" fill="none" xmlns="http://www.w3.org/2000/svg">
<path d="M156.957 24.2844C155.632 24.2844 154.431 23.9434 153.355 23.2616C152.287 22.5722 151.439 21.5609 150.81 20.2275C150.189 18.8866 149.878 17.2427 149.878 15.2957C149.878 13.2957 150.2 11.6328 150.844 10.3071C151.488 8.97375 152.344 7.97754 153.412 7.31845C154.488 6.65178 155.666 6.31845 156.946 6.31845C157.923 6.31845 158.738 6.48512 159.389 6.81845C160.048 7.14421 160.579 7.5533 160.98 8.04572C161.389 8.53057 161.7 9.00784 161.912 9.47754H162.06V0.727539H166.889V24.0003H162.117V21.2048H161.912C161.685 21.6897 161.363 22.1707 160.946 22.648C160.537 23.1177 160.003 23.5078 159.344 23.8184C158.692 24.1291 157.897 24.2844 156.957 24.2844ZM158.492 20.4321C159.272 20.4321 159.931 20.22 160.469 19.7957C161.014 19.3639 161.431 18.7616 161.719 17.9889C162.014 17.2162 162.162 16.3109 162.162 15.273C162.162 14.2351 162.018 13.3336 161.73 12.5684C161.442 11.8033 161.026 11.2124 160.48 10.7957C159.935 10.3791 159.272 10.1707 158.492 10.1707C157.696 10.1707 157.026 10.3866 156.48 10.8184C155.935 11.2503 155.522 11.8488 155.242 12.6139C154.961 13.3791 154.821 14.2654 154.821 15.273C154.821 16.2881 154.961 17.1859 155.242 17.9662C155.529 18.7389 155.942 19.345 156.48 19.7844C157.026 20.2162 157.696 20.4321 158.492 20.4321Z" fill="white"/>
<path d="M138.244 24.0004V6.5459H142.937V9.59135H143.119C143.437 8.50802 143.971 7.68984 144.721 7.13681C145.471 6.5762 146.335 6.2959 147.312 6.2959C147.555 6.2959 147.816 6.31105 148.096 6.34135C148.377 6.37166 148.623 6.41332 148.835 6.46635V10.7618C148.608 10.6936 148.293 10.633 147.892 10.58C147.49 10.527 147.123 10.5004 146.79 10.5004C146.077 10.5004 145.441 10.6557 144.88 10.9664C144.327 11.2694 143.888 11.6936 143.562 12.2391C143.244 12.7845 143.085 13.4133 143.085 14.1254V24.0004H138.244Z" fill="white"/>
<path d="M124.659 24.3297C123.545 24.3297 122.553 24.1365 121.681 23.7502C120.81 23.3562 120.121 22.7767 119.613 22.0115C119.113 21.2388 118.863 20.2767 118.863 19.1252C118.863 18.1555 119.041 17.3411 119.397 16.682C119.753 16.0229 120.238 15.4926 120.852 15.0911C121.466 14.6896 122.163 14.3865 122.943 14.182C123.731 13.9774 124.556 13.8335 125.42 13.7502C126.435 13.6441 127.253 13.5456 127.875 13.4547C128.496 13.3562 128.947 13.2123 129.227 13.0229C129.507 12.8335 129.647 12.5532 129.647 12.182V12.1138C129.647 11.3941 129.42 10.8373 128.966 10.4434C128.519 10.0494 127.882 9.85245 127.056 9.85245C126.185 9.85245 125.492 10.0456 124.977 10.432C124.462 10.8108 124.121 11.2881 123.954 11.8638L119.477 11.5002C119.704 10.4396 120.151 9.5229 120.818 8.75018C121.484 7.96987 122.344 7.37139 123.397 6.95472C124.458 6.53048 125.685 6.31836 127.079 6.31836C128.049 6.31836 128.977 6.432 129.863 6.65927C130.757 6.88654 131.549 7.23881 132.238 7.71609C132.935 8.19336 133.484 8.807 133.886 9.557C134.288 10.2994 134.488 11.1896 134.488 12.2274V24.0002H129.897V21.5797H129.761C129.481 22.1252 129.106 22.6062 128.636 23.0229C128.166 23.432 127.602 23.754 126.943 23.9888C126.284 24.2161 125.522 24.3297 124.659 24.3297ZM126.045 20.9888C126.757 20.9888 127.386 20.8487 127.931 20.5684C128.477 20.2805 128.905 19.8941 129.216 19.4093C129.526 18.9244 129.681 18.3752 129.681 17.7615V15.9093C129.53 16.0078 129.322 16.0987 129.056 16.182C128.799 16.2578 128.507 16.3297 128.181 16.3979C127.856 16.4585 127.53 16.5153 127.204 16.5684C126.878 16.6138 126.583 16.6555 126.318 16.6934C125.75 16.7767 125.253 16.9093 124.829 17.0911C124.405 17.2729 124.075 17.5191 123.841 17.8297C123.606 18.1328 123.488 18.5115 123.488 18.9661C123.488 19.6252 123.727 20.129 124.204 20.4774C124.689 20.8184 125.303 20.9888 126.045 20.9888Z" fill="white"/>
<path d="M107.942 24.3411C106.177 24.3411 104.651 23.9661 103.363 23.2161C102.083 22.4585 101.094 21.4055 100.397 20.057C99.7 18.7009 99.3516 17.129 99.3516 15.3411C99.3516 13.5381 99.7 11.9623 100.397 10.6138C101.094 9.25775 102.083 8.20472 103.363 7.45472C104.651 6.69715 106.177 6.31836 107.942 6.31836C109.708 6.31836 111.23 6.69715 112.511 7.45472C113.799 8.20472 114.791 9.25775 115.488 10.6138C116.185 11.9623 116.533 13.5381 116.533 15.3411C116.533 17.129 116.185 18.7009 115.488 20.057C114.791 21.4055 113.799 22.4585 112.511 23.2161C111.23 23.9661 109.708 24.3411 107.942 24.3411ZM107.965 20.5911C108.768 20.5911 109.439 20.3638 109.977 19.9093C110.514 19.4471 110.92 18.8184 111.192 18.0229C111.473 17.2275 111.613 16.3221 111.613 15.307C111.613 14.2918 111.473 13.3865 111.192 12.5911C110.92 11.7956 110.514 11.1668 109.977 10.7047C109.439 10.2426 108.768 10.0115 107.965 10.0115C107.155 10.0115 106.473 10.2426 105.92 10.7047C105.374 11.1668 104.961 11.7956 104.681 12.5911C104.408 13.3865 104.272 14.2918 104.272 15.307C104.272 16.3221 104.408 17.2275 104.681 18.0229C104.961 18.8184 105.374 19.4471 105.92 19.9093C106.473 20.3638 107.155 20.5911 107.965 20.5911Z" fill="white"/>
<path d="M79.8037 24.0003V0.727539H84.6446V9.47754H84.7924C85.0045 9.00784 85.3113 8.53057 85.7128 8.04572C86.1219 7.5533 86.6522 7.14421 87.3037 6.81845C87.9628 6.48512 88.781 6.31845 89.7583 6.31845C91.031 6.31845 92.2052 6.65178 93.281 7.31845C94.3567 7.97754 95.2166 8.97375 95.8605 10.3071C96.5045 11.6328 96.8264 13.2957 96.8264 15.2957C96.8264 17.2427 96.512 18.8866 95.8833 20.2275C95.262 21.5609 94.4136 22.5722 93.3378 23.2616C92.2696 23.9434 91.0727 24.2844 89.7469 24.2844C88.8075 24.2844 88.0083 24.1291 87.3492 23.8184C86.6977 23.5078 86.1636 23.1177 85.7469 22.648C85.3302 22.1707 85.012 21.6897 84.7924 21.2048H84.5764V24.0003H79.8037ZM84.5424 15.273C84.5424 16.3109 84.6863 17.2162 84.9742 17.9889C85.262 18.7616 85.6787 19.3639 86.2242 19.7957C86.7696 20.22 87.4325 20.4321 88.2128 20.4321C89.0007 20.4321 89.6673 20.2162 90.2128 19.7844C90.7583 19.345 91.1711 18.7389 91.4514 17.9662C91.7393 17.1859 91.8833 16.2881 91.8833 15.273C91.8833 14.2654 91.7431 13.3791 91.4628 12.6139C91.1825 11.8488 90.7696 11.2503 90.2242 10.8184C89.6787 10.3866 89.0083 10.1707 88.2128 10.1707C87.4249 10.1707 86.7583 10.3791 86.2128 10.7957C85.6749 11.2124 85.262 11.8033 84.9742 12.5684C84.6863 13.3336 84.5424 14.2351 84.5424 15.273Z" fill="white"/>
<path d="M64.585 13.9094V24.0003H59.7441V0.727539H64.4487V9.62527H64.6532C65.0472 8.59496 65.6835 7.78815 66.5623 7.20481C67.4411 6.6139 68.5434 6.31845 69.8691 6.31845C71.0813 6.31845 72.1381 6.5836 73.0396 7.1139C73.9487 7.63663 74.6532 8.39042 75.1532 9.37527C75.6608 10.3525 75.9108 11.523 75.9032 12.8866V24.0003H71.0623V13.7503C71.0699 12.6745 70.7972 11.8374 70.2441 11.2389C69.6987 10.6404 68.9335 10.3412 67.9487 10.3412C67.2896 10.3412 66.7063 10.4813 66.1987 10.7616C65.6987 11.0419 65.3047 11.451 65.0169 11.9889C64.7366 12.5192 64.5926 13.1594 64.585 13.9094Z" fill="white"/>
<path d="M56.2984 11.5229L51.8666 11.7956C51.7908 11.4168 51.6279 11.0759 51.3779 10.7729C51.1279 10.4623 50.7984 10.2161 50.3893 10.0343C49.9878 9.84487 49.5067 9.75018 48.9461 9.75018C48.1961 9.75018 47.5635 9.90927 47.0484 10.2274C46.5332 10.5381 46.2757 10.9547 46.2757 11.4774C46.2757 11.8941 46.4423 12.2464 46.7757 12.5343C47.109 12.8221 47.681 13.0532 48.4916 13.2274L51.6507 13.8638C53.3476 14.2123 54.6128 14.7729 55.4461 15.5456C56.2794 16.3184 56.6961 17.3335 56.6961 18.5911C56.6961 19.735 56.359 20.7388 55.6847 21.6024C55.0181 22.4661 54.1014 23.1403 52.9347 23.6252C51.7757 24.1024 50.4385 24.3411 48.9234 24.3411C46.6128 24.3411 44.7719 23.86 43.4007 22.8979C42.037 21.9282 41.2378 20.61 41.0029 18.9434L45.7643 18.6934C45.9082 19.3979 46.2567 19.9358 46.8097 20.307C47.3628 20.6706 48.0711 20.8524 48.9347 20.8524C49.7832 20.8524 50.4651 20.6896 50.9802 20.3638C51.5029 20.0305 51.7681 19.6025 51.7757 19.0797C51.7681 18.6403 51.5825 18.2805 51.2188 18.0002C50.8552 17.7123 50.2946 17.4926 49.537 17.3411L46.5143 16.7388C44.8097 16.3979 43.5408 15.807 42.7075 14.9661C41.8817 14.1252 41.4688 13.0532 41.4688 11.7502C41.4688 10.629 41.7719 9.66306 42.3779 8.85245C42.9916 8.04184 43.8514 7.41684 44.9575 6.97745C46.0711 6.53806 47.3741 6.31836 48.8666 6.31836C51.0711 6.31836 52.806 6.78427 54.0711 7.71609C55.3438 8.6479 56.0863 9.91684 56.2984 11.5229Z" fill="white"/>
<path d="M28.19 24.3297C27.0764 24.3297 26.0839 24.1365 25.2127 23.7502C24.3415 23.3562 23.6521 22.7767 23.1445 22.0115C22.6445 21.2388 22.3945 20.2767 22.3945 19.1252C22.3945 18.1555 22.5726 17.3411 22.9286 16.682C23.2847 16.0229 23.7695 15.4926 24.3832 15.0911C24.9968 14.6896 25.6938 14.3865 26.4741 14.182C27.262 13.9774 28.0877 13.8335 28.9514 13.7502C29.9665 13.6441 30.7847 13.5456 31.4059 13.4547C32.0271 13.3562 32.4779 13.2123 32.7582 13.0229C33.0385 12.8335 33.1786 12.5532 33.1786 12.182V12.1138C33.1786 11.3941 32.9513 10.8373 32.4968 10.4434C32.0498 10.0494 31.4135 9.85245 30.5877 9.85245C29.7165 9.85245 29.0233 10.0456 28.5082 10.432C27.993 10.8108 27.6521 11.2881 27.4854 11.8638L23.0082 11.5002C23.2354 10.4396 23.6824 9.5229 24.3491 8.75018C25.0157 7.96987 25.8756 7.37139 26.9286 6.95472C27.9892 6.53048 29.2165 6.31836 30.6104 6.31836C31.5801 6.31836 32.5082 6.432 33.3945 6.65927C34.2885 6.88654 35.0801 7.23881 35.7695 7.71609C36.4665 8.19336 37.0157 8.807 37.4173 9.557C37.8188 10.2994 38.0195 11.1896 38.0195 12.2274V24.0002H33.4286V21.5797H33.2923C33.012 22.1252 32.637 22.6062 32.1673 23.0229C31.6976 23.432 31.1332 23.754 30.4741 23.9888C29.815 24.2161 29.0536 24.3297 28.19 24.3297ZM29.5764 20.9888C30.2885 20.9888 30.9173 20.8487 31.4627 20.5684C32.0082 20.2805 32.4362 19.8941 32.7468 19.4093C33.0574 18.9244 33.2127 18.3752 33.2127 17.7615V15.9093C33.0612 16.0078 32.8529 16.0987 32.5877 16.182C32.3301 16.2578 32.0385 16.3297 31.7127 16.3979C31.387 16.4585 31.0612 16.5153 30.7354 16.5684C30.4097 16.6138 30.1142 16.6555 29.8491 16.6934C29.2809 16.7767 28.7847 16.9093 28.3604 17.0911C27.9362 17.2729 27.6067 17.5191 27.3718 17.8297C27.137 18.1328 27.0195 18.5115 27.0195 18.9661C27.0195 19.6252 27.2582 20.129 27.7354 20.4774C28.2203 20.8184 28.8339 20.9888 29.5764 20.9888Z" fill="white"/>
<path d="M8.27246 24.0003H0.0224609V0.727539H8.34064C10.6816 0.727539 12.6967 1.19345 14.3861 2.12527C16.0755 3.04951 17.3747 4.37905 18.2838 6.1139C19.2005 7.84875 19.6588 9.92451 19.6588 12.3412C19.6588 14.7654 19.2005 16.8488 18.2838 18.5912C17.3747 20.3336 16.0679 21.6707 14.3634 22.6025C12.6664 23.5344 10.6361 24.0003 8.27246 24.0003ZM4.94292 19.7844H8.06792C9.52246 19.7844 10.7459 19.5268 11.7384 19.0116C12.7384 18.4889 13.4884 17.6821 13.9884 16.5912C14.4959 15.4927 14.7497 14.076 14.7497 12.3412C14.7497 10.6215 14.4959 9.21618 13.9884 8.12527C13.4884 7.03436 12.7422 6.23133 11.7497 5.71618C10.7573 5.20102 9.53382 4.94345 8.07928 4.94345H4.94292V19.7844Z" fill="white"/>
</svg>
