<svg width="50" height="12" viewBox="0 0 50 12" fill="none" xmlns="http://www.w3.org/2000/svg">
<path d="M49.5756 5.14276L48.0358 5.41548C47.9714 5.21851 47.8691 5.03101 47.729 4.85298C47.5926 4.67495 47.407 4.52912 47.1721 4.41548C46.9373 4.30185 46.6437 4.24503 46.2915 4.24503C45.8104 4.24503 45.4089 4.35298 45.0869 4.56889C44.7649 4.78101 44.604 5.05563 44.604 5.39276C44.604 5.68442 44.7119 5.91927 44.9278 6.0973C45.1437 6.27533 45.4922 6.42116 45.9733 6.5348L47.3596 6.85298C48.1627 7.03859 48.7612 7.32457 49.1551 7.71094C49.549 8.0973 49.746 8.5992 49.746 9.21662C49.746 9.73935 49.5945 10.2053 49.2915 10.6143C48.9922 11.0196 48.5737 11.3378 48.0358 11.5689C47.5017 11.8 46.8824 11.9155 46.1778 11.9155C45.2006 11.9155 44.4032 11.7071 43.7858 11.2905C43.1684 10.87 42.7896 10.2734 42.6494 9.50071L44.2915 9.25071C44.3937 9.67874 44.604 10.0026 44.9221 10.2223C45.2403 10.4382 45.6551 10.5462 46.1665 10.5462C46.7233 10.5462 47.1684 10.4306 47.5017 10.1996C47.835 9.96473 48.0017 9.67874 48.0017 9.34162C48.0017 9.06889 47.8994 8.83973 47.6949 8.65412C47.4941 8.46851 47.1854 8.32836 46.7687 8.23366L45.2915 7.9098C44.4771 7.72419 43.8748 7.42874 43.4846 7.02344C43.0983 6.61813 42.9051 6.10488 42.9051 5.48366C42.9051 4.96851 43.049 4.51776 43.3369 4.13139C43.6248 3.74503 44.0225 3.44389 44.5301 3.22798C45.0377 3.00829 45.6191 2.89844 46.2744 2.89844C47.2176 2.89844 47.96 3.10298 48.5017 3.51207C49.0434 3.91738 49.4013 4.46094 49.5756 5.14276Z" fill="#818798"/>
<path d="M41.2973 3.01181V4.37544H36.5303V3.01181H41.2973ZM37.8087 0.920898H39.5075V9.17658C39.5075 9.50613 39.5568 9.75423 39.6553 9.9209C39.7538 10.0838 39.8807 10.1955 40.036 10.2561C40.195 10.3129 40.3674 10.3414 40.553 10.3414C40.6894 10.3414 40.8087 10.3319 40.911 10.3129C41.0132 10.294 41.0928 10.2789 41.1496 10.2675L41.4564 11.6709C41.3579 11.7088 41.2178 11.7467 41.036 11.7845C40.8541 11.8262 40.6269 11.8489 40.3541 11.8527C39.9072 11.8603 39.4905 11.7807 39.1041 11.6141C38.7178 11.4474 38.4053 11.1898 38.1666 10.8414C37.928 10.4929 37.8087 10.0554 37.8087 9.52885V0.920898Z" fill="#818798"/>
<path d="M29.359 6.55753V11.7393H27.6602V3.01207H29.2908V4.43253H29.3988C29.5995 3.97041 29.9139 3.59919 30.342 3.31889C30.7738 3.03859 31.3174 2.89844 31.9727 2.89844C32.5674 2.89844 33.0882 3.02344 33.5352 3.27344C33.9821 3.51965 34.3287 3.88707 34.5749 4.37571C34.8211 4.86435 34.9442 5.46851 34.9442 6.18821V11.7393H33.2454V6.39276C33.2454 5.76018 33.0806 5.26586 32.7511 4.9098C32.4215 4.54995 31.9689 4.37003 31.3931 4.37003C30.9992 4.37003 30.6488 4.45526 30.342 4.62571C30.0389 4.79616 29.7984 5.04616 29.6204 5.37571C29.4461 5.70147 29.359 6.09541 29.359 6.55753Z" fill="#818798"/>
<path d="M22.0313 11.9155C21.1715 11.9155 20.431 11.7318 19.8097 11.3643C19.1923 10.9931 18.7151 10.4723 18.3779 9.80185C18.0446 9.1276 17.8779 8.33783 17.8779 7.43253C17.8779 6.53859 18.0446 5.75071 18.3779 5.06889C18.7151 4.38707 19.1847 3.85488 19.787 3.4723C20.3931 3.08973 21.1014 2.89844 21.912 2.89844C22.4044 2.89844 22.8817 2.97988 23.3438 3.14276C23.806 3.30563 24.2207 3.56132 24.5882 3.9098C24.9556 4.25829 25.2454 4.71094 25.4575 5.26776C25.6696 5.82079 25.7757 6.49313 25.7757 7.2848V7.88707H18.8382V6.61435H24.1109C24.1109 6.16738 24.02 5.77154 23.8382 5.42685C23.6563 5.07836 23.4007 4.80374 23.0711 4.60298C22.7454 4.40223 22.3628 4.30185 21.9234 4.30185C21.4461 4.30185 21.0294 4.41927 20.6734 4.65412C20.3211 4.88518 20.0484 5.18821 19.8552 5.56321C19.6658 5.93442 19.5711 6.33783 19.5711 6.77344V7.76776C19.5711 8.35109 19.6734 8.8473 19.8779 9.25639C20.0863 9.66548 20.376 9.97798 20.7472 10.1939C21.1185 10.406 21.5522 10.5121 22.0484 10.5121C22.3704 10.5121 22.6639 10.4666 22.9291 10.3757C23.1942 10.281 23.4234 10.1409 23.6166 9.95525C23.8097 9.76965 23.9575 9.54048 24.0597 9.26776L25.6677 9.55753C25.5389 10.031 25.3079 10.4458 24.9745 10.8018C24.645 11.1541 24.2302 11.4287 23.7302 11.6257C23.234 11.8189 22.6677 11.9155 22.0313 11.9155Z" fill="#818798"/>
<path d="M16.9698 3.01172L13.805 11.739H11.9869L8.81641 3.01172H10.6403L12.8505 9.72763H12.9414L15.146 3.01172H16.9698Z" fill="#818798"/>
<path d="M0 11.7389V0.102539H7.29545V1.6139H1.75568V5.15936H6.91477V6.66504H1.75568V10.2275H7.36364V11.7389H0Z" fill="#818798"/>
</svg>
