<svg width="14" height="14" viewBox="0 0 14 14" fill="none" xmlns="http://www.w3.org/2000/svg">
<g clip-path="url(#clip0_3529_228)">
<path d="M11.0833 0.583008H2.91667C2.1434 0.583934 1.40208 0.891522 0.855295 1.4383C0.308514 1.98508 0.00092625 2.72641 0 3.49967L0 8.16634C0.00092625 8.93961 0.308514 9.68093 0.855295 10.2277C1.40208 10.7745 2.1434 11.0821 2.91667 11.083H6.41667V12.2497H4.08333C3.92862 12.2497 3.78025 12.3111 3.67085 12.4205C3.56146 12.5299 3.5 12.6783 3.5 12.833C3.5 12.9877 3.56146 13.1361 3.67085 13.2455C3.78025 13.3549 3.92862 13.4163 4.08333 13.4163H9.91667C10.0714 13.4163 10.2197 13.3549 10.3291 13.2455C10.4385 13.1361 10.5 12.9877 10.5 12.833C10.5 12.6783 10.4385 12.5299 10.3291 12.4205C10.2197 12.3111 10.0714 12.2497 9.91667 12.2497H7.58333V11.083H11.0833C11.8566 11.0821 12.5979 10.7745 13.1447 10.2277C13.6915 9.68093 13.9991 8.93961 14 8.16634V3.49967C13.9991 2.72641 13.6915 1.98508 13.1447 1.4383C12.5979 0.891522 11.8566 0.583934 11.0833 0.583008ZM2.91667 1.74967H11.0833C11.5475 1.74967 11.9926 1.93405 12.3208 2.26224C12.649 2.59043 12.8333 3.03555 12.8333 3.49967V7.58301H1.16667V3.49967C1.16667 3.03555 1.35104 2.59043 1.67923 2.26224C2.00742 1.93405 2.45254 1.74967 2.91667 1.74967ZM11.0833 9.91634H2.91667C2.55601 9.91485 2.20463 9.80196 1.91059 9.59312C1.61655 9.38429 1.39422 9.0897 1.274 8.74967H12.726C12.6058 9.0897 12.3834 9.38429 12.0894 9.59312C11.7954 9.80196 11.444 9.91485 11.0833 9.91634Z" fill="white"/>
</g>
<defs>
<clipPath id="clip0_3529_228">
<rect width="14" height="14" fill="white"/>
</clipPath>
</defs>
</svg>
