<svg width="14" height="14" viewBox="0 0 14 14" fill="none" xmlns="http://www.w3.org/2000/svg">
<g clip-path="url(#clip0_3529_252)">
<path d="M14.0005 6.70836C13.9991 6.31507 13.9089 5.92718 13.7366 5.57365C13.5642 5.22012 13.3143 4.91008 13.0054 4.66669C13.4328 4.32977 13.7443 3.86784 13.8966 3.34535C14.0489 2.82285 14.0343 2.26586 13.8549 1.75206C13.6754 1.23826 13.3401 0.793282 12.8956 0.479204C12.4512 0.165126 11.9197 -0.00238988 11.3755 2.57629e-05H2.62552C2.08129 -0.00238988 1.54988 0.165126 1.10542 0.479204C0.66096 0.793282 0.325618 1.23826 0.146173 1.75206C-0.0332712 2.26586 -0.0478675 2.82285 0.10442 3.34535C0.256708 3.86784 0.568285 4.32977 0.995686 4.66669C0.68567 4.90911 0.434931 5.21894 0.262487 5.57269C0.090042 5.92644 0.000420927 6.31482 0.000420927 6.70836C0.000420927 7.1019 0.090042 7.49028 0.262487 7.84403C0.434931 8.19778 0.68567 8.50761 0.995686 8.75003C0.568285 9.08695 0.256708 9.54888 0.10442 10.0714C-0.0478675 10.5939 -0.0332712 11.1509 0.146173 11.6647C0.325618 12.1785 0.66096 12.6234 1.10542 12.9375C1.54988 13.2516 2.08129 13.4191 2.62552 13.4167H11.3755C11.9197 13.4191 12.4512 13.2516 12.8956 12.9375C13.3401 12.6234 13.6754 12.1785 13.8549 11.6647C14.0343 11.1509 14.0489 10.5939 13.8966 10.0714C13.7443 9.54888 13.4328 9.08695 13.0054 8.75003C13.3143 8.50664 13.5642 8.1966 13.7366 7.84307C13.9089 7.48954 13.9991 7.10165 14.0005 6.70836ZM1.16719 2.62503C1.16719 2.23825 1.32083 1.86732 1.59432 1.59383C1.86781 1.32034 2.23875 1.16669 2.62552 1.16669H2.91719V1.75003C2.91719 1.90474 2.97864 2.05311 3.08804 2.1625C3.19744 2.2719 3.34581 2.33336 3.50052 2.33336C3.65523 2.33336 3.8036 2.2719 3.913 2.1625C4.02239 2.05311 4.08385 1.90474 4.08385 1.75003V1.16669H5.25052V1.75003C5.25052 1.90474 5.31198 2.05311 5.42137 2.1625C5.53077 2.2719 5.67914 2.33336 5.83385 2.33336C5.98856 2.33336 6.13694 2.2719 6.24633 2.1625C6.35573 2.05311 6.41719 1.90474 6.41719 1.75003V1.16669H11.3755C11.7623 1.16669 12.1332 1.32034 12.4067 1.59383C12.6802 1.86732 12.8339 2.23825 12.8339 2.62503C12.8339 3.0118 12.6802 3.38273 12.4067 3.65622C12.1332 3.92971 11.7623 4.08336 11.3755 4.08336H2.62552C2.23875 4.08336 1.86781 3.92971 1.59432 3.65622C1.32083 3.38273 1.16719 3.0118 1.16719 2.62503ZM12.8339 10.7917C12.8339 11.1785 12.6802 11.5494 12.4067 11.8229C12.1332 12.0964 11.7623 12.25 11.3755 12.25H2.62552C2.23875 12.25 1.86781 12.0964 1.59432 11.8229C1.32083 11.5494 1.16719 11.1785 1.16719 10.7917C1.16719 10.4049 1.32083 10.034 1.59432 9.7605C1.86781 9.48701 2.23875 9.33336 2.62552 9.33336H2.91719V9.91669C2.91719 10.0714 2.97864 10.2198 3.08804 10.3292C3.19744 10.4386 3.34581 10.5 3.50052 10.5C3.65523 10.5 3.8036 10.4386 3.913 10.3292C4.02239 10.2198 4.08385 10.0714 4.08385 9.91669V9.33336H5.25052V9.91669C5.25052 10.0714 5.31198 10.2198 5.42137 10.3292C5.53077 10.4386 5.67914 10.5 5.83385 10.5C5.98856 10.5 6.13694 10.4386 6.24633 10.3292C6.35573 10.2198 6.41719 10.0714 6.41719 9.91669V9.33336H11.3755C11.7623 9.33336 12.1332 9.48701 12.4067 9.7605C12.6802 10.034 12.8339 10.4049 12.8339 10.7917ZM2.62552 8.16669C2.23875 8.16669 1.86781 8.01305 1.59432 7.73956C1.32083 7.46607 1.16719 7.09513 1.16719 6.70836C1.16719 6.32159 1.32083 5.95065 1.59432 5.67716C1.86781 5.40367 2.23875 5.25003 2.62552 5.25003H2.91719V5.83336C2.91719 5.98807 2.97864 6.13644 3.08804 6.24584C3.19744 6.35523 3.34581 6.41669 3.50052 6.41669C3.65523 6.41669 3.8036 6.35523 3.913 6.24584C4.02239 6.13644 4.08385 5.98807 4.08385 5.83336V5.25003H5.25052V5.83336C5.25052 5.98807 5.31198 6.13644 5.42137 6.24584C5.53077 6.35523 5.67914 6.41669 5.83385 6.41669C5.98856 6.41669 6.13694 6.35523 6.24633 6.24584C6.35573 6.13644 6.41719 5.98807 6.41719 5.83336V5.25003H11.3755C11.7623 5.25003 12.1332 5.40367 12.4067 5.67716C12.6802 5.95065 12.8339 6.32159 12.8339 6.70836C12.8339 7.09513 12.6802 7.46607 12.4067 7.73956C12.1332 8.01305 11.7623 8.16669 11.3755 8.16669H2.62552Z" fill="white"/>
</g>
<defs>
<clipPath id="clip0_3529_252">
<rect width="14" height="14" fill="white"/>
</clipPath>
</defs>
</svg>
