<svg width="14" height="14" viewBox="0 0 14 14" fill="none" xmlns="http://www.w3.org/2000/svg">
<g clip-path="url(#clip0_3529_239)">
<path d="M11.0833 1.75065H7.27533C7.18512 1.75125 7.09595 1.7313 7.01458 1.69232L5.17358 0.768318C4.93056 0.647302 4.66282 0.58421 4.39133 0.583984H2.91667C2.1434 0.584911 1.40208 0.892499 0.855295 1.43928C0.308514 1.98606 0.00092625 2.72739 0 3.50065L0 10.5007C0.00092625 11.2739 0.308514 12.0152 0.855295 12.562C1.40208 13.1088 2.1434 13.4164 2.91667 13.4173H11.0833C11.8566 13.4164 12.5979 13.1088 13.1447 12.562C13.6915 12.0152 13.9991 11.2739 14 10.5007V4.66732C13.9991 3.89405 13.6915 3.15273 13.1447 2.60595C12.5979 2.05917 11.8566 1.75158 11.0833 1.75065ZM2.91667 1.75065H4.39133C4.48155 1.75006 4.57072 1.77 4.65208 1.80898L6.49308 2.73007C6.73586 2.85209 7.00362 2.91619 7.27533 2.91732H11.0833C11.4322 2.91789 11.7729 3.02271 12.0618 3.21832C12.3506 3.41394 12.5744 3.69142 12.7044 4.01515L1.16667 4.08048V3.50065C1.16667 3.03652 1.35104 2.5914 1.67923 2.26321C2.00742 1.93503 2.45254 1.75065 2.91667 1.75065ZM11.0833 12.2507H2.91667C2.45254 12.2507 2.00742 12.0663 1.67923 11.7381C1.35104 11.4099 1.16667 10.9648 1.16667 10.5007V5.24715L12.8333 5.18123V10.5007C12.8333 10.9648 12.649 11.4099 12.3208 11.7381C11.9926 12.0663 11.5475 12.2507 11.0833 12.2507Z" fill="white"/>
</g>
<defs>
<clipPath id="clip0_3529_239">
<rect width="14" height="14" fill="white"/>
</clipPath>
</defs>
</svg>
