<svg width="17" height="17" viewBox="0 0 17 17" fill="none" xmlns="http://www.w3.org/2000/svg">
<path d="M4.59649 6.54199H12.0498C12.1817 6.54255 12.3104 6.58218 12.4197 6.65589C12.529 6.7296 12.6141 6.83407 12.664 6.95609C12.714 7.07811 12.7266 7.2122 12.7003 7.34141C12.6741 7.47062 12.6101 7.58914 12.5165 7.68199L8.79649 11.402C8.73451 11.4645 8.66078 11.5141 8.57954 11.5479C8.4983 11.5818 8.41116 11.5992 8.32316 11.5992C8.23515 11.5992 8.14801 11.5818 8.06677 11.5479C7.98553 11.5141 7.9118 11.4645 7.84982 11.402L4.12982 7.68199C4.03621 7.58914 3.97223 7.47062 3.94597 7.34141C3.91971 7.2122 3.93236 7.07811 3.98231 6.95609C4.03226 6.83407 4.11727 6.7296 4.22659 6.65589C4.33592 6.58218 4.46464 6.54255 4.59649 6.54199Z" fill="#717EA0"/>
</svg>
