<svg width="58" height="58" viewBox="0 0 58 58" fill="none" xmlns="http://www.w3.org/2000/svg">
<g clip-path="url(#clip0_3388_11653)">
<path d="M1 7C1 3.68629 3.68629 1 7 1H51C54.3137 1 57 3.68629 57 7V51C57 54.3137 54.3137 57 51 57H7C3.68629 57 1 54.3137 1 51V7Z" fill="url(#paint0_linear_3388_11653)"/>
<path fill-rule="evenodd" clip-rule="evenodd" d="M7 0H51C54.866 0 58 3.13401 58 7V51C58 54.866 54.866 58 51 58H7C3.13401 58 0 54.866 0 51V7C0 3.13401 3.13401 0 7 0ZM7 1C3.68629 1 1 3.68629 1 7V51C1 54.3137 3.68629 57 7 57H51C54.3137 57 57 54.3137 57 51V7C57 3.68629 54.3137 1 51 1H7Z" fill="url(#paint1_linear_3388_11653)"/>
<g filter="url(#filter0_d_3388_11653)">
<path d="M40.9 17.1H39.2V13.7C39.2 13.2491 39.0209 12.8167 38.7021 12.4979C38.3833 12.1791 37.9509 12 37.5 12C37.0491 12 36.6167 12.1791 36.2979 12.4979C35.9791 12.8167 35.8 13.2491 35.8 13.7V17.1H22.2V13.7C22.2 13.2491 22.0209 12.8167 21.7021 12.4979C21.3833 12.1791 20.9509 12 20.5 12C20.0491 12 19.6167 12.1791 19.2979 12.4979C18.9791 12.8167 18.8 13.2491 18.8 13.7V17.1H17.1C15.7474 17.1 14.4502 17.6373 13.4938 18.5938C12.5373 19.5502 12 20.8474 12 22.2V23.9H46V22.2C46 20.8474 45.4627 19.5502 44.5062 18.5938C43.5498 17.6373 42.2526 17.1 40.9 17.1Z" fill="url(#paint2_linear_3388_11653)"/>
<path d="M12 40.9C12 42.2526 12.5373 43.5498 13.4938 44.5062C14.4502 45.4627 15.7474 46 17.1 46H40.9C42.2526 46 43.5498 45.4627 44.5062 44.5062C45.4627 43.5498 46 42.2526 46 40.9V27.3H12V40.9Z" fill="url(#paint3_linear_3388_11653)"/>
</g>
</g>
<defs>
<filter id="filter0_d_3388_11653" x="7" y="9" width="42" height="42" filterUnits="userSpaceOnUse" color-interpolation-filters="sRGB">
<feFlood flood-opacity="0" result="BackgroundImageFix"/>
<feColorMatrix in="SourceAlpha" type="matrix" values="0 0 0 0 0 0 0 0 0 0 0 0 0 0 0 0 0 0 127 0" result="hardAlpha"/>
<feOffset dx="-1" dy="1"/>
<feGaussianBlur stdDeviation="2"/>
<feComposite in2="hardAlpha" operator="out"/>
<feColorMatrix type="matrix" values="0 0 0 0 0.0684862 0 0 0 0 0.456624 0 0 0 0 0.14222 0 0 0 0.31 0"/>
<feBlend mode="normal" in2="BackgroundImageFix" result="effect1_dropShadow_3388_11653"/>
<feBlend mode="normal" in="SourceGraphic" in2="effect1_dropShadow_3388_11653" result="shape"/>
</filter>
<linearGradient id="paint0_linear_3388_11653" x1="-20" y1="-24.5" x2="2.51585" y2="70.8885" gradientUnits="userSpaceOnUse">
<stop stop-color="#98E8FF"/>
<stop offset="0.0001" stop-color="#BDF0FF" stop-opacity="0"/>
<stop offset="1" stop-color="#69DDFF" stop-opacity="0.31"/>
</linearGradient>
<linearGradient id="paint1_linear_3388_11653" x1="75.5" y1="71.5" x2="-15.5844" y2="52.2385" gradientUnits="userSpaceOnUse">
<stop stop-color="#52D7FF" stop-opacity="0.89"/>
<stop offset="1" stop-color="#9AE8FF" stop-opacity="0.16"/>
</linearGradient>
<linearGradient id="paint2_linear_3388_11653" x1="46" y1="9.34375" x2="0.312501" y2="51.8438" gradientUnits="userSpaceOnUse">
<stop stop-color="#A5EAFF"/>
<stop offset="1" stop-color="#52D7FF"/>
</linearGradient>
<linearGradient id="paint3_linear_3388_11653" x1="46" y1="9.34375" x2="0.312501" y2="51.8438" gradientUnits="userSpaceOnUse">
<stop stop-color="#A5EAFF"/>
<stop offset="1" stop-color="#52D7FF"/>
</linearGradient>
<clipPath id="clip0_3388_11653">
<rect width="58" height="58" fill="white"/>
</clipPath>
</defs>
</svg>
