<svg width="58" height="58" viewBox="0 0 58 58" fill="none" xmlns="http://www.w3.org/2000/svg">
<g clip-path="url(#clip0_3388_11644)">
<path d="M1 7C1 3.68629 3.68629 1 7 1H51C54.3137 1 57 3.68629 57 7V51C57 54.3137 54.3137 57 51 57H7C3.68629 57 1 54.3137 1 51V7Z" fill="url(#paint0_linear_3388_11644)"/>
<path fill-rule="evenodd" clip-rule="evenodd" d="M7 0H51C54.866 0 58 3.13401 58 7V51C58 54.866 54.866 58 51 58H7C3.13401 58 0 54.866 0 51V7C0 3.13401 3.13401 0 7 0ZM7 1C3.68629 1 1 3.68629 1 7V51C1 54.3137 3.68629 57 7 57H51C54.3137 57 57 54.3137 57 51V7C57 3.68629 54.3137 1 51 1H7Z" fill="url(#paint1_linear_3388_11644)"/>
<path d="M46.6832 41.2603L30.8889 15.0668C30.4897 14.4048 29.773 14 28.9999 14C28.2269 14 27.5102 14.4047 27.111 15.0668L11.3168 41.2603C10.9061 41.9415 10.8939 42.7912 11.2851 43.4839C11.6763 44.1766 12.4102 44.605 13.2057 44.605H44.7943C45.5898 44.605 46.3236 44.1765 46.7149 43.4839C47.1061 42.7912 47.094 41.9415 46.6832 41.2603ZM29.0118 23.0606C29.9189 23.0606 30.6864 23.5724 30.6864 24.4794C30.6864 27.2471 30.3608 31.2244 30.3608 33.9921C30.3608 34.7132 29.57 35.0154 29.0118 35.0154C28.2676 35.0154 27.6395 34.7131 27.6395 33.9921C27.6395 31.2244 27.314 27.2471 27.314 24.4794C27.314 23.5724 28.0582 23.0606 29.0118 23.0606ZM29.035 40.2022C28.0117 40.2022 27.2441 39.3649 27.2441 38.4113C27.2441 37.4345 28.0116 36.6205 29.035 36.6205C29.9886 36.6205 30.8027 37.4345 30.8027 38.4113C30.8027 39.3649 29.9886 40.2022 29.035 40.2022Z" fill="url(#paint2_linear_3388_11644)"/>
</g>
<defs>
<linearGradient id="paint0_linear_3388_11644" x1="-20" y1="-24.5" x2="2.51585" y2="70.8885" gradientUnits="userSpaceOnUse">
<stop stop-color="#FFD978"/>
<stop offset="0.0001" stop-opacity="0"/>
<stop offset="1" stop-color="#FFC700" stop-opacity="0.14"/>
</linearGradient>
<linearGradient id="paint1_linear_3388_11644" x1="75.5" y1="71.5" x2="-15.5844" y2="52.2385" gradientUnits="userSpaceOnUse">
<stop stop-color="#FBC427" stop-opacity="0.79"/>
<stop offset="1" stop-color="#FFA031" stop-opacity="0.05"/>
</linearGradient>
<linearGradient id="paint2_linear_3388_11644" x1="34" y1="17" x2="11" y2="45.0525" gradientUnits="userSpaceOnUse">
<stop stop-color="#FFEA79"/>
<stop offset="1" stop-color="#F1890F"/>
</linearGradient>
<clipPath id="clip0_3388_11644">
<rect width="58" height="58" fill="white"/>
</clipPath>
</defs>
</svg>
