<svg width="15" height="11" viewBox="0 0 15 11" fill="none" xmlns="http://www.w3.org/2000/svg">
<path d="M13.2425 10.5V2.86364H14.4158V10.5H13.2425ZM13.8391 1.59091C13.6104 1.59091 13.4132 1.51302 13.2475 1.35724C13.0851 1.20147 13.0039 1.0142 13.0039 0.795455C13.0039 0.576705 13.0851 0.389441 13.2475 0.233665C13.4132 0.0778883 13.6104 0 13.8391 0C14.0678 0 14.2634 0.0778883 14.4258 0.233665C14.5915 0.389441 14.6744 0.576705 14.6744 0.795455C14.6744 1.0142 14.5915 1.20147 14.4258 1.35724C14.2634 1.51302 14.0678 1.59091 13.8391 1.59091Z" fill="#818798"/>
<path d="M8.0332 10.4998V2.86346H9.16673V4.01687H9.24627C9.38548 3.63903 9.63737 3.33245 10.002 3.09712C10.3665 2.8618 10.7775 2.74414 11.2349 2.74414C11.3211 2.74414 11.4288 2.7458 11.5581 2.74911C11.6873 2.75243 11.7851 2.7574 11.8514 2.76403V3.95721C11.8116 3.94727 11.7205 3.93235 11.5779 3.91246C11.4387 3.88926 11.2913 3.87766 11.1355 3.87766C10.7643 3.87766 10.4328 3.95555 10.1412 4.11133C9.8528 4.26379 9.62411 4.47591 9.45508 4.74769C9.28936 5.01616 9.2065 5.32274 9.2065 5.66744V10.4998H8.0332Z" fill="#818798"/>
<path d="M0.0576172 10.5002V0.318359H6.16273V1.41211H1.29057V4.85245H5.70534V5.9462H1.29057V10.5002H0.0576172Z" fill="#818798"/>
</svg>
