<svg width="50" height="33" viewBox="0 0 50 33" fill="none" xmlns="http://www.w3.org/2000/svg">
<path d="M8.75 4C8.75 6.20914 6.95914 8 4.75 8C2.54086 8 0.75 6.20914 0.75 4C0.75 1.79086 2.54086 0 4.75 0C6.95914 0 8.75 1.79086 8.75 4Z" fill="#FBE5B5"/>
<path d="M41.9388 8.99956L40.0127 2.4541H41.3295L42.6121 7.26092H42.676L43.963 2.4541H45.2797L46.5581 7.23961H46.6221L47.8962 2.4541H49.213L47.2911 8.99956H45.9914L44.6618 4.2737H44.5638L43.2343 8.99956H41.9388Z" fill="white"/>
<path d="M36.2464 9.13192C35.6328 9.13192 35.0973 8.9913 34.6399 8.71005C34.1825 8.4288 33.8274 8.03533 33.5746 7.52965C33.3217 7.02397 33.1953 6.43306 33.1953 5.75692C33.1953 5.07795 33.3217 4.4842 33.5746 3.97567C33.8274 3.46715 34.1825 3.07227 34.6399 2.79102C35.0973 2.50977 35.6328 2.36914 36.2464 2.36914C36.8601 2.36914 37.3956 2.50977 37.853 2.79102C38.3104 3.07227 38.6655 3.46715 38.9183 3.97567C39.1712 4.4842 39.2976 5.07795 39.2976 5.75692C39.2976 6.43306 39.1712 7.02397 38.9183 7.52965C38.6655 8.03533 38.3104 8.4288 37.853 8.71005C37.3956 8.9913 36.8601 9.13192 36.2464 9.13192ZM36.2507 8.06232C36.6484 8.06232 36.978 7.95721 37.2393 7.74698C37.5007 7.53675 37.6939 7.25692 37.8189 6.90749C37.9467 6.55806 38.0107 6.17312 38.0107 5.75266C38.0107 5.33505 37.9467 4.95153 37.8189 4.6021C37.6939 4.24982 37.5007 3.96715 37.2393 3.75408C36.978 3.54102 36.6484 3.43448 36.2507 3.43448C35.8501 3.43448 35.5178 3.54102 35.2536 3.75408C34.9922 3.96715 34.7976 4.24982 34.6697 4.6021C34.5447 4.95153 34.4822 5.33505 34.4822 5.75266C34.4822 6.17312 34.5447 6.55806 34.6697 6.90749C34.7976 7.25692 34.9922 7.53675 35.2536 7.74698C35.5178 7.95721 35.8501 8.06232 36.2507 8.06232Z" fill="white"/>
<path d="M26.8174 8.99973V0.272461H28.1341V7.86621H32.0887V8.99973H26.8174Z" fill="white"/>
<path d="M18.7126 9.11923C18.0564 9.11923 17.4726 9.0127 16.9612 8.79963C16.4527 8.58372 16.0535 8.28968 15.7638 7.91753C15.474 7.54537 15.3291 7.12349 15.3291 6.6519C15.3291 6.28826 15.4115 5.95446 15.5763 5.65048C15.7439 5.34366 15.9711 5.0894 16.2581 4.8877C16.545 4.68315 16.866 4.55247 17.2211 4.49565V4.43599C16.7552 4.34224 16.3774 4.11639 16.0876 3.75843C15.7979 3.39764 15.653 2.9786 15.653 2.50133C15.653 2.04963 15.7851 1.64764 16.0493 1.29537C16.3135 0.940252 16.6757 0.661843 17.1359 0.460139C17.599 0.255593 18.1246 0.15332 18.7126 0.15332C19.3007 0.15332 19.8248 0.255593 20.2851 0.460139C20.7481 0.664684 21.1118 0.944514 21.376 1.29963C21.6402 1.6519 21.7737 2.05247 21.7765 2.50133C21.7737 2.98145 21.626 3.40048 21.3334 3.75843C21.0407 4.11639 20.6657 4.34224 20.2084 4.43599V4.49565C20.5578 4.55247 20.8746 4.68315 21.1586 4.8877C21.4456 5.0894 21.6729 5.34366 21.8405 5.65048C22.0109 5.95446 22.0976 6.28826 22.1004 6.6519C22.0976 7.12349 21.9513 7.54537 21.6615 7.91753C21.3717 8.28968 20.9711 8.58372 20.4598 8.79963C19.9513 9.0127 19.3689 9.11923 18.7126 9.11923ZM18.7126 7.76412C19.0052 7.76412 19.2609 7.71156 19.4797 7.60645C19.6984 7.49849 19.8689 7.35076 19.991 7.16326C20.116 6.97292 20.1785 6.75417 20.1785 6.50701C20.1785 6.25417 20.1146 6.03116 19.9868 5.83798C19.8589 5.64196 19.6856 5.48855 19.4669 5.37775C19.2481 5.26412 18.9967 5.2073 18.7126 5.2073C18.4314 5.2073 18.18 5.26412 17.9584 5.37775C17.7368 5.48855 17.5621 5.64196 17.4342 5.83798C17.3092 6.03116 17.2467 6.25417 17.2467 6.50701C17.2467 6.75417 17.3078 6.97292 17.43 7.16326C17.5521 7.35076 17.724 7.49849 17.9456 7.60645C18.1672 7.71156 18.4229 7.76412 18.7126 7.76412ZM18.7126 3.86497C18.9569 3.86497 19.1743 3.81525 19.3646 3.71582C19.555 3.61639 19.7041 3.4786 19.8121 3.30247C19.92 3.12633 19.974 2.92321 19.974 2.69309C19.974 2.46582 19.92 2.26696 19.8121 2.0965C19.7041 1.92321 19.5564 1.78826 19.3689 1.69167C19.1814 1.59224 18.9626 1.54253 18.7126 1.54253C18.4655 1.54253 18.2467 1.59224 18.0564 1.69167C17.866 1.78826 17.7169 1.92321 17.6089 2.0965C17.5038 2.26696 17.4513 2.46582 17.4513 2.69309C17.4513 2.92321 17.5052 3.12633 17.6132 3.30247C17.7211 3.4786 17.8703 3.61639 18.0606 3.71582C18.251 3.81525 18.4683 3.86497 18.7126 3.86497Z" fill="#FBE5B5"/>
<path d="M39.8111 30.0906V29.5536C39.8111 29.146 39.8973 28.7714 40.0696 28.43C40.2453 28.0853 40.4988 27.8103 40.8303 27.6048C41.165 27.396 41.5727 27.2915 42.0533 27.2915C42.5405 27.2915 42.9498 27.3943 43.2812 27.5998C43.616 27.8053 43.8679 28.0804 44.0369 28.4251C44.2093 28.7665 44.2955 29.1426 44.2955 29.5536V30.0906C44.2955 30.4982 44.2093 30.8744 44.0369 31.2191C43.8646 31.5605 43.611 31.8339 43.2763 32.0394C42.9415 32.2482 42.5339 32.3526 42.0533 32.3526C41.5661 32.3526 41.1567 32.2482 40.8253 32.0394C40.4938 31.8339 40.242 31.5605 40.0696 31.2191C39.8973 30.8744 39.8111 30.4982 39.8111 30.0906ZM41.2578 29.5536V30.0906C41.2578 30.3259 41.3142 30.5479 41.4268 30.7567C41.5428 30.9656 41.7517 31.07 42.0533 31.07C42.3549 31.07 42.5604 30.9672 42.6697 30.7617C42.7824 30.5562 42.8388 30.3325 42.8388 30.0906V29.5536C42.8388 29.3117 42.7857 29.0863 42.6797 28.8775C42.5736 28.6687 42.3648 28.5643 42.0533 28.5643C41.755 28.5643 41.5478 28.6687 41.4318 28.8775C41.3158 29.0863 41.2578 29.3117 41.2578 29.5536ZM34.5859 24.2638V23.7269C34.5859 23.3159 34.6738 22.9397 34.8494 22.5984C35.0251 22.2537 35.2786 21.9786 35.6101 21.7731C35.9448 21.5676 36.3492 21.4648 36.8232 21.4648C37.3137 21.4648 37.7247 21.5676 38.0561 21.7731C38.3875 21.9786 38.6394 22.2537 38.8118 22.5984C38.9841 22.9397 39.0703 23.3159 39.0703 23.7269V24.2638C39.0703 24.6748 38.9825 25.051 38.8068 25.3924C38.6345 25.7338 38.3809 26.0072 38.0462 26.2127C37.7147 26.4149 37.3071 26.516 36.8232 26.516C36.3393 26.516 35.9299 26.4132 35.5952 26.2077C35.2637 25.9989 35.0118 25.7255 34.8395 25.3874C34.6705 25.046 34.5859 24.6715 34.5859 24.2638ZM36.0426 23.7269V24.2638C36.0426 24.5058 36.099 24.7295 36.2116 24.935C36.3277 25.1405 36.5315 25.2433 36.8232 25.2433C37.1281 25.2433 37.3352 25.1405 37.4446 24.935C37.5573 24.7295 37.6136 24.5058 37.6136 24.2638V23.7269C37.6136 23.485 37.5606 23.2596 37.4545 23.0508C37.3485 22.842 37.138 22.7376 36.8232 22.7376C36.5282 22.7376 36.3243 22.8436 36.2116 23.0558C36.099 23.2679 36.0426 23.4916 36.0426 23.7269ZM35.2422 31.9996L42.2422 21.8178H43.5447L36.5447 31.9996H35.2422Z" fill="white"/>
<path d="M28.591 32.2235C27.7359 32.2201 27.0001 32.0097 26.3837 31.5921C25.7705 31.1744 25.2982 30.5696 24.9668 29.7774C24.6386 28.9853 24.4762 28.0324 24.4795 26.9188C24.4795 25.8084 24.6436 24.8622 24.9717 24.08C25.3032 23.2978 25.7755 22.7029 26.3886 22.2952C27.0051 21.8842 27.7392 21.6787 28.591 21.6787C29.4428 21.6787 30.1753 21.8842 30.7885 22.2952C31.405 22.7062 31.8789 23.3028 32.2104 24.085C32.5418 24.8638 32.7059 25.8084 32.7026 26.9188C32.7026 28.0357 32.5368 28.9903 32.2054 29.7824C31.8773 30.5745 31.4066 31.1794 30.7935 31.597C30.1803 32.0146 29.4462 32.2235 28.591 32.2235ZM28.591 30.4387C29.1744 30.4387 29.6401 30.1453 29.9881 29.5587C30.3361 28.972 30.5084 28.0921 30.5051 26.9188C30.5051 26.1465 30.4256 25.5035 30.2665 24.9898C30.1107 24.4761 29.8886 24.0899 29.6003 23.8314C29.3152 23.5729 28.9788 23.4436 28.591 23.4436C28.011 23.4436 27.547 23.7336 27.199 24.3137C26.851 24.8937 26.6753 25.762 26.672 26.9188C26.672 27.701 26.7499 28.3539 26.9057 28.8776C27.0648 29.3979 27.2885 29.789 27.5768 30.0509C27.8652 30.3094 28.2033 30.4387 28.591 30.4387Z" fill="white"/>
<path d="M19.2943 32.1384C18.5916 32.1384 17.9652 32.0091 17.415 31.7506C16.8682 31.4921 16.434 31.1358 16.1125 30.6817C15.791 30.2277 15.6236 29.7073 15.6104 29.1206H17.6984C17.7216 29.5151 17.8873 29.8349 18.1956 30.0802C18.5038 30.3254 18.8701 30.4481 19.2943 30.4481C19.6324 30.4481 19.9307 30.3735 20.1892 30.2243C20.451 30.0719 20.6549 29.8614 20.8007 29.593C20.9498 29.3212 21.0244 29.0096 21.0244 28.6583C21.0244 28.3003 20.9482 27.9855 20.7957 27.7137C20.6466 27.4419 20.4394 27.2298 20.1743 27.0773C19.9091 26.9249 19.6059 26.847 19.2645 26.8437C18.9662 26.8437 18.6762 26.905 18.3944 27.0276C18.116 27.1502 17.8989 27.3176 17.7432 27.5297L15.8291 27.1867L16.3113 21.8174H22.5358V23.5773H18.0862L17.8227 26.1278H17.8824C18.0613 25.8759 18.3315 25.6671 18.6927 25.5013C19.054 25.3356 19.4584 25.2528 19.9058 25.2528C20.519 25.2528 21.0658 25.3969 21.5464 25.6853C22.027 25.9736 22.4065 26.3697 22.6849 26.8735C22.9633 27.374 23.1009 27.9507 23.0976 28.6036C23.1009 29.2897 22.9418 29.8995 22.6203 30.4331C22.3021 30.9635 21.8563 31.3811 21.2829 31.686C20.7129 31.9876 20.05 32.1384 19.2943 32.1384Z" fill="white"/>
</svg>
