<svg width="32" height="32" viewBox="0 0 32 32" fill="none" xmlns="http://www.w3.org/2000/svg">
<g clip-path="url(#clip0_3529_113)">
<path d="M16.5837 10.1964V9.58333C16.5837 9.42862 16.5223 9.28025 16.4129 9.17085C16.3035 9.06146 16.1551 9 16.0004 9C15.8457 9 15.6973 9.06146 15.5879 9.17085C15.4785 9.28025 15.4171 9.42862 15.4171 9.58333V10.1964C14.2427 10.3017 13.1201 10.7291 12.1731 11.4316C11.2261 12.134 10.4914 13.0843 10.0499 14.1776C9.60843 15.2709 9.47731 16.4649 9.67099 17.628C9.86468 18.791 10.3757 19.8781 11.1476 20.7693C10.8428 20.9202 10.588 21.1559 10.414 21.4482C10.2401 21.7404 10.1543 22.0768 10.1671 22.4167C10.1671 22.5714 10.2285 22.7198 10.3379 22.8291C10.4473 22.9385 10.5957 23 10.7504 23C10.9051 23 11.0535 22.9385 11.1629 22.8291C11.2723 22.7198 11.3337 22.5714 11.3337 22.4167C11.3289 22.2369 11.3934 22.0621 11.514 21.9286C11.6346 21.7951 11.8019 21.7132 11.9812 21.6998C12.0214 21.6921 12.0605 21.68 12.0979 21.6636C13.2153 22.5302 14.5892 23.0006 16.0033 23.0006C17.4174 23.0006 18.7913 22.5302 19.9087 21.6636C19.9429 21.6793 19.9784 21.6918 20.0149 21.7009C20.1949 21.7132 20.3632 21.7945 20.4847 21.9278C20.6062 22.0612 20.6715 22.2363 20.6671 22.4167C20.6671 22.5714 20.7285 22.7198 20.8379 22.8291C20.9473 22.9385 21.0957 23 21.2504 23C21.4051 23 21.5535 22.9385 21.6629 22.8291C21.7723 22.7198 21.8337 22.5714 21.8337 22.4167C21.8465 22.0768 21.7607 21.7404 21.5868 21.4482C21.4128 21.1559 21.158 20.9202 20.8531 20.7693C21.6251 19.8781 22.1361 18.791 22.3298 17.628C22.5235 16.4649 22.3924 15.2709 21.9509 14.1776C21.5094 13.0843 20.7747 12.134 19.8277 11.4316C18.8806 10.7291 17.7581 10.3017 16.5837 10.1964ZM10.7504 16.5833C10.7504 15.545 11.0583 14.5299 11.6352 13.6666C12.2121 12.8032 13.032 12.1303 13.9913 11.733C14.9506 11.3356 16.0062 11.2316 17.0246 11.4342C18.043 11.6368 18.9785 12.1368 19.7127 12.871C20.4469 13.6052 20.9469 14.5407 21.1495 15.5591C21.3521 16.5775 21.2481 17.6331 20.8508 18.5924C20.4534 19.5517 19.7805 20.3717 18.9171 20.9486C18.0538 21.5254 17.0387 21.8333 16.0004 21.8333C14.6085 21.8316 13.2742 21.278 12.29 20.2938C11.3058 19.3096 10.7521 17.9752 10.7504 16.5833Z" fill="white"/>
<path d="M20.2083 9.00024C20.0536 9.00024 19.9053 9.0617 19.7959 9.1711C19.6865 9.28049 19.625 9.42887 19.625 9.58358C19.625 9.73828 19.6865 9.88666 19.7959 9.99605C19.9053 10.1055 20.0536 10.1669 20.2083 10.1669C20.4117 10.1514 20.6162 10.1773 20.8093 10.243C21.0025 10.3087 21.1803 10.4128 21.3321 10.5491C21.4839 10.6854 21.6065 10.851 21.6926 11.0359C21.7787 11.2209 21.8264 11.4213 21.8329 11.6252C21.8329 11.78 21.8944 11.9283 22.0038 12.0377C22.1132 12.1471 22.2615 12.2086 22.4162 12.2086C22.571 12.2086 22.7193 12.1471 22.8287 12.0377C22.9381 11.9283 22.9996 11.78 22.9996 11.6252C22.9921 11.2685 22.9136 10.9169 22.7686 10.5909C22.6236 10.2649 22.415 9.97109 22.1551 9.72666C21.8952 9.48223 21.5892 9.29209 21.2549 9.16736C20.9206 9.04263 20.5648 8.98581 20.2083 9.00024Z" fill="white"/>
<path d="M10.1667 11.6252C10.1732 11.4213 10.2209 11.2209 10.307 11.0359C10.393 10.851 10.5157 10.6854 10.6675 10.5491C10.8193 10.4128 10.9971 10.3087 11.1903 10.243C11.3834 10.1773 11.5878 10.1514 11.7912 10.1669C11.946 10.1669 12.0943 10.1055 12.2037 9.99605C12.3131 9.88666 12.3746 9.73828 12.3746 9.58358C12.3746 9.42887 12.3131 9.28049 12.2037 9.1711C12.0943 9.0617 11.946 9.00024 11.7912 9.00024C11.4348 8.98581 11.079 9.04263 10.7447 9.16736C10.4104 9.29209 10.1044 9.48223 9.84445 9.72666C9.58454 9.97109 9.37599 10.2649 9.23099 10.5909C9.08599 10.9169 9.00746 11.2685 9 11.6252C9 11.78 9.06146 11.9283 9.17085 12.0377C9.28025 12.1471 9.42862 12.2086 9.58333 12.2086C9.73804 12.2086 9.88642 12.1471 9.99581 12.0377C10.1052 11.9283 10.1667 11.78 10.1667 11.6252Z" fill="white"/>
<path d="M16.5837 15.7585V13.0833C16.5837 12.9286 16.5222 12.7803 16.4128 12.6709C16.3034 12.5615 16.155 12.5 16.0003 12.5C15.8456 12.5 15.6972 12.5615 15.5878 12.6709C15.4785 12.7803 15.417 12.9286 15.417 13.0833V16C15.417 16.1547 15.4785 16.303 15.5879 16.4124L17.3379 18.1624C17.4479 18.2687 17.5953 18.3275 17.7482 18.3261C17.9012 18.3248 18.0475 18.2635 18.1556 18.1553C18.2638 18.0472 18.3251 17.9008 18.3265 17.7479C18.3278 17.595 18.269 17.4476 18.1627 17.3376L16.5837 15.7585Z" fill="white"/>
</g>
<defs>
<clipPath id="clip0_3529_113">
<rect width="14" height="14" fill="white" transform="translate(9 9)"/>
</clipPath>
</defs>
</svg>
