<svg width="32" height="32" viewBox="0 0 32 32" fill="none" xmlns="http://www.w3.org/2000/svg">
<g clip-path="url(#clip0_3529_244)">
<path d="M16 16C16.6922 16 17.3689 15.7947 17.9445 15.4101C18.5201 15.0256 18.9687 14.4789 19.2336 13.8394C19.4985 13.1999 19.5678 12.4961 19.4327 11.8172C19.2977 11.1383 18.9644 10.5146 18.4749 10.0251C17.9854 9.53564 17.3618 9.2023 16.6828 9.06725C16.0039 8.9322 15.3001 9.00152 14.6606 9.26642C14.0211 9.53133 13.4744 9.97993 13.0899 10.5555C12.7053 11.1311 12.5 11.8078 12.5 12.5C12.5009 13.428 12.87 14.3177 13.5261 14.9739C14.1823 15.63 15.072 15.9991 16 16ZM16 10.1667C16.4615 10.1667 16.9126 10.3035 17.2963 10.5599C17.68 10.8163 17.9791 11.1807 18.1557 11.6071C18.3323 12.0334 18.3785 12.5026 18.2885 12.9552C18.1985 13.4078 17.9762 13.8236 17.6499 14.1499C17.3236 14.4762 16.9078 14.6985 16.4552 14.7885C16.0026 14.8785 15.5334 14.8323 15.1071 14.6557C14.6807 14.4791 14.3163 14.18 14.0599 13.7963C13.8035 13.4126 13.6667 12.9615 13.6667 12.5C13.6667 11.8812 13.9125 11.2877 14.3501 10.8501C14.7877 10.4125 15.3812 10.1667 16 10.1667Z" fill="white"/>
<path d="M16 17.167C14.6081 17.1685 13.2736 17.7222 12.2894 18.7064C11.3052 19.6906 10.7515 21.0251 10.75 22.417C10.75 22.5717 10.8115 22.7201 10.9209 22.8295C11.0303 22.9389 11.1786 23.0003 11.3333 23.0003C11.488 23.0003 11.6364 22.9389 11.7458 22.8295C11.8552 22.7201 11.9167 22.5717 11.9167 22.417C11.9167 21.334 12.3469 20.2954 13.1126 19.5296C13.8784 18.7639 14.917 18.3337 16 18.3337C17.083 18.3337 18.1216 18.7639 18.8874 19.5296C19.6531 20.2954 20.0833 21.334 20.0833 22.417C20.0833 22.5717 20.1448 22.7201 20.2542 22.8295C20.3636 22.9389 20.512 23.0003 20.6667 23.0003C20.8214 23.0003 20.9697 22.9389 21.0791 22.8295C21.1885 22.7201 21.25 22.5717 21.25 22.417C21.2485 21.0251 20.6948 19.6906 19.7106 18.7064C18.7264 17.7222 17.3919 17.1685 16 17.167Z" fill="white"/>
</g>
<defs>
<clipPath id="clip0_3529_244">
<rect width="14" height="14" fill="white" transform="translate(9 9)"/>
</clipPath>
</defs>
</svg>
