<svg width="32" height="32" viewBox="0 0 32 32" fill="none" xmlns="http://www.w3.org/2000/svg">
<g clip-path="url(#clip0_3529_3)">
<path d="M13.0833 12.5006H22.4167C22.5714 12.5006 22.7197 12.4392 22.8291 12.3298C22.9385 12.2204 23 12.072 23 11.9173C23 11.7626 22.9385 11.6142 22.8291 11.5048C22.7197 11.3954 22.5714 11.334 22.4167 11.334H13.0833C12.9286 11.334 12.7803 11.3954 12.6709 11.5048C12.5615 11.6142 12.5 11.7626 12.5 11.9173C12.5 12.072 12.5615 12.2204 12.6709 12.3298C12.7803 12.4392 12.9286 12.5006 13.0833 12.5006Z" fill="white"/>
<path d="M22.4167 15.416H13.0833C12.9286 15.416 12.7803 15.4775 12.6709 15.5869C12.5615 15.6963 12.5 15.8446 12.5 15.9994C12.5 16.1541 12.5615 16.3024 12.6709 16.4118C12.7803 16.5212 12.9286 16.5827 13.0833 16.5827H22.4167C22.5714 16.5827 22.7197 16.5212 22.8291 16.4118C22.9385 16.3024 23 16.1541 23 15.9994C23 15.8446 22.9385 15.6963 22.8291 15.5869C22.7197 15.4775 22.5714 15.416 22.4167 15.416Z" fill="white"/>
<path d="M22.4167 19.5H13.0833C12.9286 19.5 12.7803 19.5615 12.6709 19.6709C12.5615 19.7803 12.5 19.9286 12.5 20.0833C12.5 20.238 12.5615 20.3864 12.6709 20.4958C12.7803 20.6052 12.9286 20.6667 13.0833 20.6667H22.4167C22.5714 20.6667 22.7197 20.6052 22.8291 20.4958C22.9385 20.3864 23 20.238 23 20.0833C23 19.9286 22.9385 19.7803 22.8291 19.6709C22.7197 19.5615 22.5714 19.5 22.4167 19.5Z" fill="white"/>
<path d="M10.1667 13.0833C10.811 13.0833 11.3333 12.561 11.3333 11.9167C11.3333 11.2723 10.811 10.75 10.1667 10.75C9.52233 10.75 9 11.2723 9 11.9167C9 12.561 9.52233 13.0833 10.1667 13.0833Z" fill="white"/>
<path d="M10.1667 17.1673C10.811 17.1673 11.3333 16.645 11.3333 16.0006C11.3333 15.3563 10.811 14.834 10.1667 14.834C9.52233 14.834 9 15.3563 9 16.0006C9 16.645 9.52233 17.1673 10.1667 17.1673Z" fill="white"/>
<path d="M10.1667 21.2493C10.811 21.2493 11.3333 20.727 11.3333 20.0827C11.3333 19.4383 10.811 18.916 10.1667 18.916C9.52233 18.916 9 19.4383 9 20.0827C9 20.727 9.52233 21.2493 10.1667 21.2493Z" fill="white"/>
</g>
<defs>
<clipPath id="clip0_3529_3">
<rect width="14" height="14" fill="white" transform="translate(9 9)"/>
</clipPath>
</defs>
</svg>
