<svg width="294" height="32" viewBox="0 0 294 32" fill="none" xmlns="http://www.w3.org/2000/svg">
<path d="M-1 0H274.904C276.483 0 277.914 0.92882 278.557 2.37087L294 37H-1V0Z" fill="#121416"/>
<path d="M263.911 25.1389C263.424 25.1356 262.948 25.0511 262.484 24.8854C262.02 24.7164 261.603 24.4429 261.232 24.0651C260.86 23.6839 260.565 23.1785 260.347 22.5487C260.128 21.9157 260.02 21.1318 260.024 20.1972C260.024 19.3255 260.116 18.5483 260.302 17.8655C260.488 17.1827 260.754 16.606 261.102 16.1354C261.45 15.6614 261.87 15.3002 262.36 15.0516C262.854 14.803 263.406 14.6787 264.016 14.6787C264.655 14.6787 265.222 14.8047 265.716 15.0566C266.213 15.3084 266.614 15.6531 266.919 16.0906C267.224 16.5248 267.413 17.0154 267.486 17.5622H265.671C265.578 17.1711 265.388 16.8596 265.1 16.6276C264.814 16.3923 264.453 16.2746 264.016 16.2746C263.31 16.2746 262.766 16.5812 262.385 17.1943C262.007 17.8075 261.817 18.6494 261.813 19.7199H261.883C262.045 19.4282 262.256 19.178 262.514 18.9692C262.773 18.7604 263.064 18.5996 263.389 18.4869C263.717 18.3709 264.064 18.3129 264.428 18.3129C265.025 18.3129 265.56 18.4555 266.034 18.7405C266.511 19.0255 266.889 19.4183 267.168 19.9188C267.446 20.4159 267.584 20.986 267.58 21.629C267.584 22.2985 267.431 22.9001 267.123 23.4337C266.815 23.964 266.385 24.3816 265.835 24.6865C265.285 24.9914 264.644 25.1423 263.911 25.1389ZM263.901 23.6475C264.263 23.6475 264.586 23.5596 264.871 23.384C265.156 23.2083 265.381 22.9713 265.547 22.673C265.713 22.3747 265.794 22.04 265.791 21.6688C265.794 21.3042 265.714 20.9744 265.552 20.6794C265.393 20.3844 265.172 20.1508 264.891 19.9784C264.609 19.8061 264.287 19.7199 263.926 19.7199C263.658 19.7199 263.407 19.7713 263.175 19.874C262.943 19.9768 262.741 20.1193 262.569 20.3016C262.397 20.4806 262.261 20.6894 262.161 20.928C262.065 21.1633 262.015 21.4152 262.012 21.6837C262.015 22.0383 262.098 22.3648 262.261 22.6631C262.423 22.9614 262.647 23.2 262.932 23.379C263.217 23.558 263.54 23.6475 263.901 23.6475Z" fill="#F22A41"/>
<path d="M257.597 14.8184V25.0002H255.753V16.6131H255.693L253.312 18.1344V16.4441L255.842 14.8184H257.597Z" fill="#F22A41"/>
<path d="M242.749 25.0795C242.504 25.0795 242.294 24.9916 242.118 24.816C241.942 24.6403 241.854 24.4298 241.854 24.1846C241.854 23.9393 241.942 23.7288 242.118 23.5532C242.294 23.3775 242.504 23.2897 242.749 23.2897C242.995 23.2897 243.205 23.3775 243.381 23.5532C243.556 23.7288 243.644 23.9393 243.644 24.1846C243.644 24.347 243.603 24.4961 243.52 24.632C243.44 24.7679 243.333 24.8773 243.197 24.9601C243.064 25.0397 242.915 25.0795 242.749 25.0795ZM242.749 19.4118C242.504 19.4118 242.294 19.324 242.118 19.1483C241.942 18.9727 241.854 18.7622 241.854 18.517C241.854 18.2717 241.942 18.0612 242.118 17.8856C242.294 17.7099 242.504 17.6221 242.749 17.6221C242.995 17.6221 243.205 17.7099 243.381 17.8856C243.556 18.0612 243.644 18.2717 243.644 18.517C243.644 18.6794 243.603 18.8285 243.52 18.9644C243.44 19.1003 243.333 19.2097 243.197 19.2925C243.064 19.3721 242.915 19.4118 242.749 19.4118Z" fill="#FFCCC7"/>
<path d="M239.989 19.0733L238.935 19.3716C238.869 19.196 238.771 19.0253 238.642 18.8596C238.516 18.6905 238.344 18.5513 238.125 18.4419C237.906 18.3326 237.626 18.2779 237.285 18.2779C236.817 18.2779 236.428 18.3856 236.116 18.601C235.808 18.8132 235.654 19.0833 235.654 19.4114C235.654 19.7031 235.76 19.9334 235.972 20.1024C236.184 20.2715 236.516 20.4123 236.967 20.525L238.1 20.8034C238.783 20.9692 239.292 21.2227 239.626 21.5641C239.961 21.9022 240.129 22.338 240.129 22.8716C240.129 23.3091 240.003 23.7002 239.751 24.0449C239.502 24.3896 239.154 24.6614 238.707 24.8603C238.259 25.0591 237.739 25.1586 237.146 25.1586C236.367 25.1586 235.722 24.9895 235.212 24.6515C234.701 24.3134 234.378 23.8195 234.242 23.1699L235.356 22.8915C235.462 23.3025 235.662 23.6107 235.957 23.8162C236.256 24.0217 236.645 24.1245 237.126 24.1245C237.673 24.1245 238.107 24.0085 238.428 23.7765C238.753 23.5411 238.915 23.2594 238.915 22.9313C238.915 22.6661 238.823 22.4441 238.637 22.2651C238.451 22.0828 238.166 21.9469 237.782 21.8574L236.509 21.5591C235.81 21.3934 235.296 21.1365 234.968 20.7885C234.643 20.4372 234.481 19.998 234.481 19.4711C234.481 19.0402 234.602 18.659 234.844 18.3276C235.089 17.9962 235.422 17.736 235.843 17.5471C236.267 17.3581 236.748 17.2637 237.285 17.2637C238.04 17.2637 238.634 17.4294 239.065 17.7608C239.499 18.0923 239.807 18.5298 239.989 19.0733Z" fill="#FFCCC7"/>
<path d="M227.543 27.8633C227.344 27.8633 227.167 27.8467 227.011 27.8136C226.855 27.7837 226.747 27.7539 226.688 27.7241L226.986 26.69C227.271 26.7629 227.523 26.7894 227.742 26.7695C227.96 26.7496 228.154 26.6519 228.323 26.4762C228.496 26.3039 228.653 26.0238 228.796 25.636L229.014 25.0394L226.19 17.3633H227.463L229.571 23.4485H229.651L231.759 17.3633H233.031L229.79 26.1133C229.644 26.5077 229.463 26.8342 229.248 27.0927C229.033 27.3545 228.782 27.5484 228.497 27.6744C228.216 27.8003 227.897 27.8633 227.543 27.8633Z" fill="#FFCCC7"/>
<path d="M221.42 25.1784C220.936 25.1784 220.497 25.0873 220.102 24.905C219.708 24.7194 219.394 24.4526 219.162 24.1046C218.93 23.7533 218.814 23.329 218.814 22.8319C218.814 22.3944 218.901 22.0397 219.073 21.7679C219.245 21.4928 219.476 21.2774 219.764 21.1216C220.052 20.9658 220.371 20.8498 220.719 20.7736C221.07 20.6941 221.423 20.6311 221.778 20.5847C222.242 20.525 222.618 20.4803 222.906 20.4505C223.198 20.4173 223.41 20.3626 223.542 20.2864C223.678 20.2102 223.746 20.0776 223.746 19.8887V19.8489C223.746 19.3584 223.612 18.9772 223.344 18.7054C223.078 18.4337 222.676 18.2978 222.135 18.2978C221.575 18.2978 221.136 18.4204 220.818 18.6657C220.5 18.9109 220.276 19.1728 220.147 19.4512L219.033 19.0534C219.232 18.5894 219.497 18.2282 219.829 17.9696C220.163 17.7078 220.528 17.5255 220.922 17.4228C221.32 17.3167 221.711 17.2637 222.096 17.2637C222.341 17.2637 222.623 17.2935 222.941 17.3532C223.262 17.4095 223.572 17.5272 223.871 17.7061C224.172 17.8851 224.422 18.1552 224.621 18.5165C224.82 18.8778 224.92 19.3617 224.92 19.9682V24.9995H223.746V23.9654H223.687C223.607 24.1311 223.474 24.3084 223.289 24.4973C223.103 24.6863 222.856 24.847 222.548 24.9796C222.24 25.1122 221.864 25.1784 221.42 25.1784ZM221.599 24.1245C222.063 24.1245 222.454 24.0333 222.772 23.851C223.093 23.6687 223.335 23.4334 223.498 23.1451C223.663 22.8567 223.746 22.5534 223.746 22.2353V21.1614C223.697 21.2211 223.587 21.2757 223.418 21.3255C223.252 21.3719 223.06 21.4133 222.841 21.4498C222.626 21.4829 222.416 21.5127 222.21 21.5392C222.008 21.5624 221.844 21.5823 221.718 21.5989C221.413 21.6387 221.128 21.7033 220.863 21.7928C220.601 21.879 220.389 22.0099 220.226 22.1855C220.067 22.3579 219.988 22.5932 219.988 22.8915C219.988 23.2992 220.139 23.6074 220.44 23.8162C220.745 24.0217 221.131 24.1245 221.599 24.1245Z" fill="#FFCCC7"/>
<path d="M213.361 25.1593C212.724 25.1593 212.162 24.9985 211.675 24.677C211.188 24.3522 210.807 23.8948 210.532 23.3049C210.257 22.7116 210.119 22.0106 210.119 21.2019C210.119 20.3998 210.257 19.7038 210.532 19.1138C210.807 18.5239 211.19 18.0681 211.68 17.7466C212.171 17.4251 212.738 17.2644 213.381 17.2644C213.878 17.2644 214.27 17.3472 214.559 17.513C214.85 17.6754 215.072 17.861 215.225 18.0698C215.381 18.2753 215.502 18.4443 215.588 18.5769H215.687V14.8184H216.861V25.0002H215.727V23.8269H215.588C215.502 23.9661 215.379 24.1417 215.22 24.3539C215.061 24.5627 214.834 24.7499 214.539 24.9157C214.244 25.0781 213.851 25.1593 213.361 25.1593ZM213.52 24.1053C213.99 24.1053 214.388 23.9827 214.713 23.7374C215.038 23.4888 215.285 23.1458 215.454 22.7083C215.623 22.2675 215.707 21.7587 215.707 21.182C215.707 20.6119 215.624 20.1131 215.459 19.6855C215.293 19.2547 215.048 18.9199 214.723 18.6813C214.398 18.4393 213.997 18.3184 213.52 18.3184C213.023 18.3184 212.608 18.446 212.277 18.7012C211.949 18.9531 211.702 19.2961 211.536 19.7303C211.374 20.1612 211.292 20.6451 211.292 21.182C211.292 21.7256 211.375 22.2194 211.541 22.6635C211.71 23.1043 211.959 23.4557 212.287 23.7175C212.618 23.976 213.029 24.1053 213.52 24.1053Z" fill="#FFCCC7"/>
<path d="M198.68 25.0002L203.125 16.2104V16.1358H197.984V14.8184H204.716V16.1806L200.286 25.0002H198.68Z" fill="#F66676"/>
<path d="M187.478 20.4057V24.9995H186.305V17.3631H187.438V18.5563H187.538C187.717 18.1685 187.988 17.8569 188.353 17.6216C188.718 17.383 189.188 17.2637 189.765 17.2637C190.282 17.2637 190.734 17.3697 191.122 17.5819C191.51 17.7907 191.812 18.1088 192.027 18.5364C192.242 18.9606 192.35 19.4976 192.35 20.1472V24.9995H191.177V20.2267C191.177 19.6268 191.021 19.1595 190.71 18.8248C190.398 18.4867 189.97 18.3176 189.427 18.3176C189.052 18.3176 188.718 18.3989 188.423 18.5613C188.131 18.7237 187.901 18.9606 187.732 19.2722C187.563 19.5837 187.478 19.9616 187.478 20.4057Z" fill="#FFCCC7"/>
<path d="M180.664 25.1784C180.18 25.1784 179.741 25.0873 179.346 24.905C178.952 24.7194 178.639 24.4526 178.407 24.1046C178.175 23.7533 178.059 23.329 178.059 22.8319C178.059 22.3944 178.145 22.0397 178.317 21.7679C178.489 21.4928 178.72 21.2774 179.008 21.1216C179.297 20.9658 179.615 20.8498 179.963 20.7736C180.314 20.6941 180.667 20.6311 181.022 20.5847C181.486 20.525 181.862 20.4803 182.15 20.4505C182.442 20.4173 182.654 20.3626 182.787 20.2864C182.922 20.2102 182.99 20.0776 182.99 19.8887V19.8489C182.99 19.3584 182.856 18.9772 182.588 18.7054C182.323 18.4337 181.92 18.2978 181.38 18.2978C180.819 18.2978 180.38 18.4204 180.062 18.6657C179.744 18.9109 179.52 19.1728 179.391 19.4512L178.277 19.0534C178.476 18.5894 178.741 18.2282 179.073 17.9696C179.408 17.7078 179.772 17.5255 180.167 17.4228C180.564 17.3167 180.955 17.2637 181.34 17.2637C181.585 17.2637 181.867 17.2935 182.185 17.3532C182.507 17.4095 182.816 17.5272 183.115 17.7061C183.416 17.8851 183.667 18.1552 183.865 18.5165C184.064 18.8778 184.164 19.3617 184.164 19.9682V24.9995H182.99V23.9654H182.931C182.851 24.1311 182.719 24.3084 182.533 24.4973C182.347 24.6863 182.1 24.847 181.792 24.9796C181.484 25.1122 181.108 25.1784 180.664 25.1784ZM180.843 24.1245C181.307 24.1245 181.698 24.0333 182.016 23.851C182.337 23.6687 182.579 23.4334 182.742 23.1451C182.908 22.8567 182.99 22.5534 182.99 22.2353V21.1614C182.941 21.2211 182.831 21.2757 182.662 21.3255C182.497 21.3719 182.304 21.4133 182.086 21.4498C181.87 21.4829 181.66 21.5127 181.454 21.5392C181.252 21.5624 181.088 21.5823 180.962 21.5989C180.657 21.6387 180.372 21.7033 180.107 21.7928C179.845 21.879 179.633 22.0099 179.471 22.1855C179.311 22.3579 179.232 22.5932 179.232 22.8915C179.232 23.2992 179.383 23.6074 179.684 23.8162C179.989 24.0217 180.375 24.1245 180.843 24.1245Z" fill="#FFCCC7"/>
<path d="M171.318 20.4064V25.0002H170.145V14.8184H171.318V18.557H171.417C171.596 18.1626 171.865 17.8494 172.223 17.6174C172.584 17.382 173.065 17.2644 173.664 17.2644C174.185 17.2644 174.641 17.3688 175.032 17.5776C175.423 17.7831 175.726 18.0996 175.941 18.5272C176.16 18.9514 176.27 19.4917 176.27 20.1479V25.0002H175.096V20.2275C175.096 19.6209 174.939 19.1519 174.624 18.8205C174.312 18.4857 173.88 18.3184 173.326 18.3184C172.942 18.3184 172.597 18.3996 172.292 18.562C171.991 18.7244 171.752 18.9614 171.576 19.2729C171.404 19.5845 171.318 19.9623 171.318 20.4064Z" fill="#FFCCC7"/>
<path d="M168.215 17.3637V18.358H164.258V17.3637H168.215ZM165.411 15.5342H166.585V22.8126C166.585 23.144 166.633 23.3926 166.729 23.5583C166.828 23.7207 166.954 23.8301 167.107 23.8865C167.262 23.9395 167.426 23.966 167.599 23.966C167.728 23.966 167.834 23.9594 167.917 23.9461C168 23.9295 168.066 23.9163 168.116 23.9063L168.354 24.9603C168.275 24.9901 168.164 25.02 168.021 25.0498C167.879 25.0829 167.698 25.0995 167.479 25.0995C167.148 25.0995 166.823 25.0283 166.505 24.8857C166.19 24.7432 165.928 24.5261 165.719 24.2345C165.514 23.9428 165.411 23.5749 165.411 23.1308V15.5342Z" fill="#FFCCC7"/>
<path d="M156.011 25.1586C155.275 25.1586 154.64 24.9962 154.107 24.6713C153.576 24.3432 153.167 23.8858 152.879 23.2992C152.594 22.7092 152.451 22.0231 152.451 21.2409C152.451 20.4587 152.594 19.7694 152.879 19.1728C153.167 18.5729 153.568 18.1055 154.082 17.7708C154.599 17.4327 155.202 17.2637 155.892 17.2637C156.289 17.2637 156.682 17.33 157.07 17.4625C157.458 17.5951 157.811 17.8105 158.129 18.1088C158.447 18.4038 158.7 18.7949 158.889 19.2821C159.078 19.7694 159.173 20.3693 159.173 21.0819V21.579H153.286V20.5648H157.98C157.98 20.1339 157.893 19.7495 157.721 19.4114C157.552 19.0733 157.31 18.8065 156.995 18.611C156.684 18.4154 156.316 18.3176 155.892 18.3176C155.424 18.3176 155.02 18.4337 154.678 18.6657C154.34 18.8944 154.08 19.1926 153.898 19.5605C153.716 19.9284 153.624 20.3229 153.624 20.7438V21.4199C153.624 21.9966 153.724 22.4855 153.923 22.8865C154.125 23.2843 154.405 23.5875 154.763 23.7963C155.121 24.0018 155.537 24.1046 156.011 24.1046C156.319 24.1046 156.597 24.0615 156.846 23.9753C157.098 23.8858 157.315 23.7533 157.497 23.5776C157.68 23.3986 157.82 23.1766 157.92 22.9114L159.053 23.2296C158.934 23.6141 158.734 23.9521 158.452 24.2438C158.17 24.5321 157.822 24.7575 157.408 24.9199C156.994 25.079 156.528 25.1586 156.011 25.1586Z" fill="#FFCCC7"/>
<path d="M147.832 24.9998V17.3635H148.966V18.5169H149.045C149.184 18.139 149.436 17.8324 149.801 17.5971C150.165 17.3618 150.576 17.2441 151.034 17.2441C151.12 17.2441 151.228 17.2458 151.357 17.2491C151.486 17.2524 151.584 17.2574 151.65 17.264V18.4572C151.61 18.4473 151.519 18.4324 151.377 18.4125C151.238 18.3893 151.09 18.3777 150.934 18.3777C150.563 18.3777 150.232 18.4556 149.94 18.6113C149.652 18.7638 149.423 18.9759 149.254 19.2477C149.088 19.5162 149.005 19.8227 149.005 20.1674V24.9998H147.832Z" fill="#FFCCC7"/>
<path d="M142.581 25.1586C141.892 25.1586 141.287 24.9945 140.767 24.6664C140.25 24.3382 139.845 23.8792 139.554 23.2892C139.265 22.6993 139.121 22.0099 139.121 21.2211C139.121 20.4256 139.265 19.7312 139.554 19.138C139.845 18.5447 140.25 18.084 140.767 17.7559C141.287 17.4277 141.892 17.2637 142.581 17.2637C143.271 17.2637 143.874 17.4277 144.391 17.7559C144.911 18.084 145.316 18.5447 145.604 19.138C145.896 19.7312 146.042 20.4256 146.042 21.2211C146.042 22.0099 145.896 22.6993 145.604 23.2892C145.316 23.8792 144.911 24.3382 144.391 24.6664C143.874 24.9945 143.271 25.1586 142.581 25.1586ZM142.581 24.1046C143.105 24.1046 143.536 23.9703 143.874 23.7019C144.212 23.4334 144.462 23.0804 144.625 22.6429C144.787 22.2054 144.868 21.7315 144.868 21.2211C144.868 20.7106 144.787 20.235 144.625 19.7942C144.462 19.3534 144.212 18.9971 143.874 18.7253C143.536 18.4535 143.105 18.3176 142.581 18.3176C142.058 18.3176 141.627 18.4535 141.289 18.7253C140.951 18.9971 140.7 19.3534 140.538 19.7942C140.376 20.235 140.294 20.7106 140.294 21.2211C140.294 21.7315 140.376 22.2054 140.538 22.6429C140.7 23.0804 140.951 23.4334 141.289 23.7019C141.627 23.9703 142.058 24.1046 142.581 24.1046Z" fill="#FFCCC7"/>
<path d="M127.311 24.9995V17.3631H128.444V18.5563H128.544C128.703 18.1486 128.959 17.8321 129.314 17.6067C129.669 17.378 130.095 17.2637 130.592 17.2637C131.096 17.2637 131.515 17.378 131.85 17.6067C132.188 17.8321 132.451 18.1486 132.64 18.5563H132.72C132.915 18.1619 133.209 17.8487 133.6 17.6167C133.991 17.3813 134.46 17.2637 135.007 17.2637C135.689 17.2637 136.248 17.4775 136.682 17.905C137.116 18.3292 137.333 18.9905 137.333 19.8887V24.9995H136.16V19.8887C136.16 19.3252 136.006 18.9225 135.698 18.6806C135.389 18.4386 135.026 18.3176 134.609 18.3176C134.072 18.3176 133.656 18.4801 133.361 18.8049C133.066 19.1264 132.919 19.534 132.919 20.0279V24.9995H131.725V19.7694C131.725 19.3352 131.584 18.9855 131.303 18.7203C131.021 18.4519 130.658 18.3176 130.214 18.3176C129.909 18.3176 129.624 18.3989 129.359 18.5613C129.097 18.7237 128.885 18.949 128.722 19.2374C128.563 19.5224 128.484 19.8522 128.484 20.2267V24.9995H127.311Z" fill="#FFCCC7"/>
<path d="M118.164 24.9998V17.3635H119.298V18.5169H119.377C119.516 18.139 119.768 17.8324 120.133 17.5971C120.497 17.3618 120.908 17.2441 121.366 17.2441C121.452 17.2441 121.56 17.2458 121.689 17.2491C121.818 17.2524 121.916 17.2574 121.982 17.264V18.4572C121.942 18.4473 121.851 18.4324 121.709 18.4125C121.57 18.3893 121.422 18.3777 121.266 18.3777C120.895 18.3777 120.564 18.4556 120.272 18.6113C119.984 18.7638 119.755 18.9759 119.586 19.2477C119.42 19.5162 119.337 19.8227 119.337 20.1674V24.9998H118.164Z" fill="#FFCCC7"/>
<path d="M112.913 25.1586C112.224 25.1586 111.619 24.9945 111.099 24.6664C110.582 24.3382 110.177 23.8792 109.886 23.2892C109.597 22.6993 109.453 22.0099 109.453 21.2211C109.453 20.4256 109.597 19.7312 109.886 19.138C110.177 18.5447 110.582 18.084 111.099 17.7559C111.619 17.4277 112.224 17.2637 112.913 17.2637C113.603 17.2637 114.206 17.4277 114.723 17.7559C115.243 18.084 115.648 18.5447 115.936 19.138C116.228 19.7312 116.374 20.4256 116.374 21.2211C116.374 22.0099 116.228 22.6993 115.936 23.2892C115.648 23.8792 115.243 24.3382 114.723 24.6664C114.206 24.9945 113.603 25.1586 112.913 25.1586ZM112.913 24.1046C113.437 24.1046 113.868 23.9703 114.206 23.7019C114.544 23.4334 114.794 23.0804 114.957 22.6429C115.119 22.2054 115.2 21.7315 115.2 21.2211C115.2 20.7106 115.119 20.235 114.957 19.7942C114.794 19.3534 114.544 18.9971 114.206 18.7253C113.868 18.4535 113.437 18.3176 112.913 18.3176C112.39 18.3176 111.959 18.4535 111.621 18.7253C111.283 18.9971 111.032 19.3534 110.87 19.7942C110.708 20.235 110.626 20.7106 110.626 21.2211C110.626 21.7315 110.708 22.2054 110.87 22.6429C111.032 23.0804 111.283 23.4334 111.621 23.7019C111.959 23.9703 112.39 24.1046 112.913 24.1046Z" fill="#FFCCC7"/>
<path d="M108.481 17.3635V18.3579H104.364V17.3635H108.481ZM105.597 24.9999V16.3096C105.597 15.8721 105.7 15.5075 105.905 15.2158C106.111 14.9242 106.378 14.7054 106.706 14.5596C107.034 14.4137 107.38 14.3408 107.745 14.3408C108.033 14.3408 108.269 14.364 108.451 14.4104C108.633 14.4568 108.769 14.4999 108.859 14.5397L108.521 15.5539C108.461 15.534 108.378 15.5091 108.272 15.4793C108.169 15.4495 108.033 15.4346 107.864 15.4346C107.476 15.4346 107.196 15.5323 107.024 15.7279C106.855 15.9234 106.771 16.2101 106.771 16.588V24.9999H105.597Z" fill="#FFCCC7"/>
<path d="M95.3313 25.1593C94.695 25.1593 94.1332 24.9985 93.646 24.677C93.1587 24.3522 92.7776 23.8948 92.5025 23.3049C92.2274 22.7116 92.0898 22.0106 92.0898 21.2019C92.0898 20.3998 92.2274 19.7038 92.5025 19.1138C92.7776 18.5239 93.1604 18.0681 93.6509 17.7466C94.1414 17.4251 94.7082 17.2644 95.3512 17.2644C95.8484 17.2644 96.2411 17.3472 96.5295 17.513C96.8211 17.6754 97.0432 17.861 97.1957 18.0698C97.3514 18.2753 97.4724 18.4443 97.5586 18.5769H97.658V14.8184H98.8313V25.0002H97.6978V23.8269H97.5586C97.4724 23.9661 97.3498 24.1417 97.1907 24.3539C97.0316 24.5627 96.8046 24.7499 96.5096 24.9157C96.2146 25.0781 95.8219 25.1593 95.3313 25.1593ZM95.4904 24.1053C95.9611 24.1053 96.3588 23.9827 96.6836 23.7374C97.0084 23.4888 97.2553 23.1458 97.4244 22.7083C97.5934 22.2675 97.6779 21.7587 97.6779 21.182C97.6779 20.6119 97.595 20.1131 97.4293 19.6855C97.2636 19.2547 97.0183 18.9199 96.6935 18.6813C96.3687 18.4393 95.9677 18.3184 95.4904 18.3184C94.9933 18.3184 94.579 18.446 94.2475 18.7012C93.9194 18.9531 93.6725 19.2961 93.5067 19.7303C93.3443 20.1612 93.2631 20.6451 93.2631 21.182C93.2631 21.7256 93.346 22.2194 93.5117 22.6635C93.6808 23.1043 93.9293 23.4557 94.2575 23.7175C94.5889 23.976 94.9999 24.1053 95.4904 24.1053Z" fill="#FFCCC7"/>
<path d="M87.5011 25.1586C86.7653 25.1586 86.1306 24.9962 85.5969 24.6713C85.0666 24.3432 84.6573 23.8858 84.369 23.2992C84.0839 22.7092 83.9414 22.0231 83.9414 21.2409C83.9414 20.4587 84.0839 19.7694 84.369 19.1728C84.6573 18.5729 85.0584 18.1055 85.5721 17.7708C86.0891 17.4327 86.6924 17.2637 87.3817 17.2637C87.7795 17.2637 88.1722 17.33 88.56 17.4625C88.9478 17.5951 89.3008 17.8105 89.619 18.1088C89.9371 18.4038 90.1907 18.7949 90.3796 19.2821C90.5685 19.7694 90.663 20.3693 90.663 21.0819V21.579H84.7766V20.5648H89.4698C89.4698 20.1339 89.3836 19.7495 89.2113 19.4114C89.0423 19.0733 88.8003 18.8065 88.4854 18.611C88.1739 18.4154 87.806 18.3176 87.3817 18.3176C86.9144 18.3176 86.5101 18.4337 86.1687 18.6657C85.8306 18.8944 85.5704 19.1926 85.3881 19.5605C85.2058 19.9284 85.1147 20.3229 85.1147 20.7438V21.4199C85.1147 21.9966 85.2141 22.4855 85.413 22.8865C85.6152 23.2843 85.8952 23.5875 86.2532 23.7963C86.6112 24.0018 87.0271 24.1046 87.5011 24.1046C87.8093 24.1046 88.0877 24.0615 88.3363 23.9753C88.5882 23.8858 88.8053 23.7533 88.9876 23.5776C89.1699 23.3986 89.3107 23.1766 89.4102 22.9114L90.5437 23.2296C90.4244 23.6141 90.2238 23.9521 89.9421 24.2438C89.6604 24.5321 89.3124 24.7575 88.8981 24.9199C88.4838 25.079 88.0181 25.1586 87.5011 25.1586Z" fill="#FFCCC7"/>
<path d="M82.6156 17.3637V18.358H78.6582V17.3637H82.6156ZM79.8116 15.5342H80.9849V22.8126C80.9849 23.144 81.033 23.3926 81.1291 23.5583C81.2285 23.7207 81.3545 23.8301 81.5069 23.8865C81.6627 23.9395 81.8268 23.966 81.9991 23.966C82.1284 23.966 82.2344 23.9594 82.3173 23.9461C82.4002 23.9295 82.4664 23.9163 82.5162 23.9063L82.7548 24.9603C82.6752 24.9901 82.5642 25.02 82.4217 25.0498C82.2792 25.0829 82.0985 25.0995 81.8798 25.0995C81.5484 25.0995 81.2235 25.0283 80.9054 24.8857C80.5905 24.7432 80.3287 24.5261 80.1199 24.2345C79.9144 23.9428 79.8116 23.5749 79.8116 23.1308V15.5342Z" fill="#FFCCC7"/>
<path d="M74.5774 25.1586C73.8615 25.1586 73.245 24.9895 72.728 24.6515C72.2109 24.3134 71.8132 23.8477 71.5348 23.2544C71.2564 22.6612 71.1172 21.9834 71.1172 21.2211C71.1172 20.4455 71.2597 19.7611 71.5447 19.1678C71.8331 18.5712 72.2341 18.1055 72.7479 17.7708C73.2649 17.4327 73.8681 17.2637 74.5575 17.2637C75.0945 17.2637 75.5784 17.3631 76.0092 17.562C76.4401 17.7608 76.7931 18.0392 77.0682 18.3972C77.3433 18.7551 77.514 19.1728 77.5803 19.65H76.407C76.3175 19.302 76.1186 18.9938 75.8104 18.7253C75.5054 18.4535 75.0945 18.3176 74.5774 18.3176C74.12 18.3176 73.719 18.437 73.3743 18.6756C73.0329 18.9109 72.7661 19.244 72.5739 19.6749C72.3849 20.1024 72.2905 20.6046 72.2905 21.1813C72.2905 21.7712 72.3833 22.285 72.5689 22.7225C72.7578 23.16 73.023 23.4997 73.3643 23.7417C73.709 23.9836 74.1134 24.1046 74.5774 24.1046C74.8823 24.1046 75.1591 24.0516 75.4077 23.9455C75.6563 23.8394 75.8667 23.687 76.0391 23.4881C76.2114 23.2892 76.334 23.0506 76.407 22.7722H77.5803C77.514 23.223 77.3499 23.629 77.0881 23.9902C76.8295 24.3482 76.4865 24.6332 76.0589 24.8453C75.6347 25.0542 75.1409 25.1586 74.5774 25.1586Z" fill="#FFCCC7"/>
<path d="M66.5284 25.1586C65.7926 25.1586 65.1579 24.9962 64.6243 24.6713C64.094 24.3432 63.6847 23.8858 63.3963 23.2992C63.1113 22.7092 62.9688 22.0231 62.9688 21.2409C62.9688 20.4587 63.1113 19.7694 63.3963 19.1728C63.6847 18.5729 64.0857 18.1055 64.5994 17.7708C65.1165 17.4327 65.7197 17.2637 66.4091 17.2637C66.8068 17.2637 67.1996 17.33 67.5874 17.4625C67.9751 17.5951 68.3281 17.8105 68.6463 18.1088C68.9645 18.4038 69.218 18.7949 69.407 19.2821C69.5959 19.7694 69.6903 20.3693 69.6903 21.0819V21.579H63.804V20.5648H68.4972C68.4972 20.1339 68.411 19.7495 68.2386 19.4114C68.0696 19.0733 67.8277 18.8065 67.5128 18.611C67.2012 18.4154 66.8333 18.3176 66.4091 18.3176C65.9418 18.3176 65.5374 18.4337 65.196 18.6657C64.858 18.8944 64.5978 19.1926 64.4155 19.5605C64.2332 19.9284 64.142 20.3229 64.142 20.7438V21.4199C64.142 21.9966 64.2415 22.4855 64.4403 22.8865C64.6425 23.2843 64.9226 23.5875 65.2805 23.7963C65.6385 24.0018 66.0545 24.1046 66.5284 24.1046C66.8367 24.1046 67.1151 24.0615 67.3636 23.9753C67.6155 23.8858 67.8326 23.7533 68.0149 23.5776C68.1972 23.3986 68.3381 23.1766 68.4375 22.9114L69.571 23.2296C69.4517 23.6141 69.2512 23.9521 68.9695 24.2438C68.6877 24.5321 68.3397 24.7575 67.9254 24.9199C67.5111 25.079 67.0455 25.1586 66.5284 25.1586Z" fill="#FFCCC7"/>
<path d="M56.31 20.4057V24.9995H55.1367V17.3631H56.2702V18.5563H56.3697C56.5487 18.1685 56.8204 17.8569 57.185 17.6216C57.5496 17.383 58.0202 17.2637 58.5969 17.2637C59.114 17.2637 59.5664 17.3697 59.9542 17.5819C60.342 17.7907 60.6436 18.1088 60.859 18.5364C61.0745 18.9606 61.1822 19.4976 61.1822 20.1472V24.9995H60.0089V20.2267C60.0089 19.6268 59.8531 19.1595 59.5415 18.8248C59.23 18.4867 58.8024 18.3176 58.2589 18.3176C57.8844 18.3176 57.5496 18.3989 57.2546 18.5613C56.9629 18.7237 56.7326 18.9606 56.5636 19.2722C56.3945 19.5837 56.31 19.9616 56.31 20.4057Z" fill="#FFCCC7"/>
<path d="M48.1206 20.4057V24.9995H46.9473V17.3631H48.0808V18.5563H48.1802C48.3592 18.1685 48.631 17.8569 48.9956 17.6216C49.3601 17.383 49.8308 17.2637 50.4075 17.2637C50.9245 17.2637 51.377 17.3697 51.7647 17.5819C52.1525 17.7907 52.4541 18.1088 52.6696 18.5364C52.885 18.9606 52.9927 19.4976 52.9927 20.1472V24.9995H51.8194V20.2267C51.8194 19.6268 51.6636 19.1595 51.3521 18.8248C51.0405 18.4867 50.613 18.3176 50.0694 18.3176C49.6949 18.3176 49.3601 18.3989 49.0652 18.5613C48.7735 18.7237 48.5431 18.9606 48.3741 19.2722C48.2051 19.5837 48.1206 19.9616 48.1206 20.4057Z" fill="#FFCCC7"/>
<path d="M41.6966 25.1586C41.0072 25.1586 40.4023 24.9945 39.8819 24.6664C39.3649 24.3382 38.9605 23.8792 38.6689 23.2892C38.3805 22.6993 38.2363 22.0099 38.2363 21.2211C38.2363 20.4256 38.3805 19.7312 38.6689 19.138C38.9605 18.5447 39.3649 18.084 39.8819 17.7559C40.4023 17.4277 41.0072 17.2637 41.6966 17.2637C42.3859 17.2637 42.9892 17.4277 43.5062 17.7559C44.0266 18.084 44.4309 18.5447 44.7193 19.138C45.0109 19.7312 45.1568 20.4256 45.1568 21.2211C45.1568 22.0099 45.0109 22.6993 44.7193 23.2892C44.4309 23.8792 44.0266 24.3382 43.5062 24.6664C42.9892 24.9945 42.3859 25.1586 41.6966 25.1586ZM41.6966 24.1046C42.2202 24.1046 42.6511 23.9703 42.9892 23.7019C43.3272 23.4334 43.5775 23.0804 43.7399 22.6429C43.9023 22.2054 43.9835 21.7315 43.9835 21.2211C43.9835 20.7106 43.9023 20.235 43.7399 19.7942C43.5775 19.3534 43.3272 18.9971 42.9892 18.7253C42.6511 18.4535 42.2202 18.3176 41.6966 18.3176C41.1729 18.3176 40.742 18.4535 40.4039 18.7253C40.0659 18.9971 39.8156 19.3534 39.6532 19.7942C39.4908 20.235 39.4096 20.7106 39.4096 21.2211C39.4096 21.7315 39.4908 22.2054 39.6532 22.6429C39.8156 23.0804 40.0659 23.4334 40.4039 23.7019C40.742 23.9703 41.1729 24.1046 41.6966 24.1046Z" fill="#FFCCC7"/>
<path d="M33.8762 25.1586C33.1603 25.1586 32.5439 24.9895 32.0268 24.6515C31.5098 24.3134 31.112 23.8477 30.8336 23.2544C30.5552 22.6612 30.416 21.9834 30.416 21.2211C30.416 20.4455 30.5585 19.7611 30.8436 19.1678C31.1319 18.5712 31.533 18.1055 32.0467 17.7708C32.5637 17.4327 33.167 17.2637 33.8564 17.2637C34.3933 17.2637 34.8772 17.3631 35.3081 17.562C35.7389 17.7608 36.0919 18.0392 36.367 18.3972C36.6421 18.7551 36.8128 19.1728 36.8791 19.65H35.7058C35.6163 19.302 35.4174 18.9938 35.1092 18.7253C34.8043 18.4535 34.3933 18.3176 33.8762 18.3176C33.4189 18.3176 33.0178 18.437 32.6731 18.6756C32.3317 18.9109 32.0649 19.244 31.8727 19.6749C31.6838 20.1024 31.5893 20.6046 31.5893 21.1813C31.5893 21.7712 31.6821 22.285 31.8677 22.7225C32.0566 23.16 32.3218 23.4997 32.6632 23.7417C33.0079 23.9836 33.4122 24.1046 33.8762 24.1046C34.1812 24.1046 34.4579 24.0516 34.7065 23.9455C34.9551 23.8394 35.1655 23.687 35.3379 23.4881C35.5102 23.2892 35.6329 23.0506 35.7058 22.7722H36.8791C36.8128 23.223 36.6487 23.629 36.3869 23.9902C36.1284 24.3482 35.7853 24.6332 35.3578 24.8453C34.9335 25.0542 34.4397 25.1586 33.8762 25.1586Z" fill="#FFCCC7"/>
<path d="M28.8683 19.0733L27.8143 19.3716C27.748 19.196 27.6502 19.0253 27.521 18.8596C27.395 18.6905 27.2227 18.5513 27.0039 18.4419C26.7852 18.3326 26.5051 18.2779 26.1637 18.2779C25.6964 18.2779 25.3069 18.3856 24.9954 18.601C24.6871 18.8132 24.533 19.0833 24.533 19.4114C24.533 19.7031 24.6391 19.9334 24.8512 20.1024C25.0633 20.2715 25.3948 20.4123 25.8455 20.525L26.979 20.8034C27.6618 20.9692 28.1706 21.2227 28.5053 21.5641C28.8401 21.9022 29.0075 22.338 29.0075 22.8716C29.0075 23.3091 28.8815 23.7002 28.6296 24.0449C28.381 24.3896 28.033 24.6614 27.5856 24.8603C27.1381 25.0591 26.6178 25.1586 26.0245 25.1586C25.2456 25.1586 24.601 24.9895 24.0906 24.6515C23.5801 24.3134 23.257 23.8195 23.1211 23.1699L24.2347 22.8915C24.3408 23.3025 24.5413 23.6107 24.8363 23.8162C25.1346 24.0217 25.524 24.1245 26.0046 24.1245C26.5515 24.1245 26.9857 24.0085 27.3072 23.7765C27.632 23.5411 27.7944 23.2594 27.7944 22.9313C27.7944 22.6661 27.7016 22.4441 27.516 22.2651C27.3304 22.0828 27.0453 21.9469 26.6609 21.8574L25.3881 21.5591C24.6888 21.3934 24.1751 21.1365 23.8469 20.7885C23.5221 20.4372 23.3597 19.998 23.3597 19.4711C23.3597 19.0402 23.4807 18.659 23.7227 18.3276C23.9679 17.9962 24.301 17.736 24.7219 17.5471C25.1462 17.3581 25.6268 17.2637 26.1637 17.2637C26.9194 17.2637 27.5127 17.4294 27.9435 17.7608C28.3777 18.0923 28.686 18.5298 28.8683 19.0733Z" fill="#FFCCC7"/>
<path d="M20.1371 25V17.3636H21.3104V25H20.1371ZM20.7337 16.0909C20.505 16.0909 20.3078 16.013 20.142 15.8572C19.9796 15.7015 19.8984 15.5142 19.8984 15.2955C19.8984 15.0767 19.9796 14.8894 20.142 14.7337C20.3078 14.5779 20.505 14.5 20.7337 14.5C20.9624 14.5 21.1579 14.5779 21.3203 14.7337C21.486 14.8894 21.5689 15.0767 21.5689 15.2955C21.5689 15.5142 21.486 15.7015 21.3203 15.8572C21.1579 16.013 20.9624 16.0909 20.7337 16.0909Z" fill="#FFCCC7"/>
<path d="M13.3754 25.0002H10.2334V14.8184H13.5146C14.5023 14.8184 15.3475 15.0222 16.0502 15.4299C16.7528 15.8342 17.2914 16.4159 17.6659 17.1749C18.0405 17.9306 18.2277 18.8354 18.2277 19.8894C18.2277 20.95 18.0388 21.8631 17.661 22.6287C17.2831 23.391 16.7329 23.9777 16.0104 24.3887C15.2878 24.7963 14.4095 25.0002 13.3754 25.0002ZM11.4664 23.9064H13.2959C14.1378 23.9064 14.8354 23.744 15.3889 23.4192C15.9424 23.0944 16.3551 22.632 16.6269 22.0321C16.8986 21.4322 17.0345 20.718 17.0345 19.8894C17.0345 19.0674 16.9003 18.3598 16.6318 17.7665C16.3634 17.1699 15.9623 16.7125 15.4287 16.3944C14.8951 16.0729 14.2306 15.9121 13.4351 15.9121H11.4664V23.9064Z" fill="#FFCCC7"/>
</svg>
