<svg width="522" height="255" viewBox="0 0 522 255" fill="none" xmlns="http://www.w3.org/2000/svg">
<path d="M3 227L132.5 3L262 227L390.5 253L519 87V253H390.5H3V227Z" fill="url(#paint0_linear_3388_11786)"/>
<path fill-rule="evenodd" clip-rule="evenodd" d="M132 -0.00585938L261.961 225.663L389.883 251.346L517.814 86.0816L520.186 87.918L391.117 254.654L260.039 228.337L132 6.00553L4.29991 227.748L1.7002 226.251L132 -0.00585938Z" fill="#72EBFF"/>
<path d="M6 227C6 228.657 4.65685 230 3 230C1.34315 230 0 228.657 0 227C0 225.343 1.34315 224 3 224C4.65685 224 6 225.343 6 227Z" fill="#72EBFF"/>
<path d="M135 3C135 4.65685 133.657 6 132 6C130.343 6 129 4.65685 129 3C129 1.34315 130.343 0 132 0C133.657 0 135 1.34315 135 3Z" fill="#72EBFF"/>
<path d="M264 227C264 228.657 262.657 230 261 230C259.343 230 258 228.657 258 227C258 225.343 259.343 224 261 224C262.657 224 264 225.343 264 227Z" fill="#72EBFF"/>
<path d="M393 252C393 253.657 391.657 255 390 255C388.343 255 387 253.657 387 252C387 250.343 388.343 249 390 249C391.657 249 393 250.343 393 252Z" fill="#72EBFF"/>
<path d="M522 87C522 88.6569 520.657 90 519 90C517.343 90 516 88.6569 516 87C516 85.3431 517.343 84 519 84C520.657 84 522 85.3431 522 87Z" fill="#72EBFF"/>
<defs>
<linearGradient id="paint0_linear_3388_11786" x1="261" y1="3" x2="261" y2="253" gradientUnits="userSpaceOnUse">
<stop stop-color="#72EBFF" stop-opacity="0.7"/>
<stop offset="1" stop-color="#19CAFF" stop-opacity="0"/>
</linearGradient>
</defs>
</svg>
