<svg width="32" height="32" viewBox="0 0 32 32" fill="none" xmlns="http://www.w3.org/2000/svg">
<g clip-path="url(#clip0_3529_155)">
<path d="M9.58333 11.771H11.1793C11.3045 12.2317 11.5779 12.6383 11.9571 12.9283C12.3364 13.2182 12.8005 13.3753 13.2779 13.3753C13.7553 13.3753 14.2194 13.2182 14.5986 12.9283C14.9779 12.6383 15.2512 12.2317 15.3764 11.771H22.4167C22.5714 11.771 22.7197 11.7095 22.8291 11.6001C22.9385 11.4907 23 11.3424 23 11.1877C23 11.0329 22.9385 10.8846 22.8291 10.7752C22.7197 10.6658 22.5714 10.6043 22.4167 10.6043H15.3764C15.2512 10.1436 14.9779 9.73696 14.5986 9.44702C14.2194 9.15709 13.7553 9 13.2779 9C12.8005 9 12.3364 9.15709 11.9571 9.44702C11.5779 9.73696 11.3045 10.1436 11.1793 10.6043H9.58333C9.42862 10.6043 9.28025 10.6658 9.17085 10.7752C9.06146 10.8846 9 11.0329 9 11.1877C9 11.3424 9.06146 11.4907 9.17085 11.6001C9.28025 11.7095 9.42862 11.771 9.58333 11.771ZM13.2776 10.1668C13.4795 10.1668 13.6769 10.2267 13.8447 10.3389C14.0126 10.451 14.1434 10.6105 14.2207 10.797C14.298 10.9835 14.3182 11.1888 14.2788 11.3868C14.2394 11.5848 14.1422 11.7667 13.9994 11.9095C13.8567 12.0523 13.6748 12.1495 13.4767 12.1889C13.2787 12.2283 13.0735 12.208 12.8869 12.1308C12.7004 12.0535 12.541 11.9227 12.4288 11.7548C12.3166 11.5869 12.2568 11.3896 12.2568 11.1877C12.2571 10.917 12.3647 10.6575 12.5561 10.4662C12.7475 10.2748 13.0069 10.1671 13.2776 10.1668Z" fill="white"/>
<path d="M22.4167 15.4164H20.8207C20.6957 14.9556 20.4225 14.5488 20.0432 14.2587C19.664 13.9687 19.1999 13.8115 18.7224 13.8115C18.245 13.8115 17.7808 13.9687 17.4016 14.2587C17.0224 14.5488 16.7492 14.9556 16.6242 15.4164H9.58333C9.42862 15.4164 9.28025 15.4779 9.17085 15.5873C9.06146 15.6967 9 15.845 9 15.9997C9 16.1544 9.06146 16.3028 9.17085 16.4122C9.28025 16.5216 9.42862 16.5831 9.58333 16.5831H16.6242C16.7492 17.0439 17.0224 17.4507 17.4016 17.7407C17.7808 18.0308 18.245 18.188 18.7224 18.188C19.1999 18.188 19.664 18.0308 20.0432 17.7407C20.4225 17.4507 20.6957 17.0439 20.8207 16.5831H22.4167C22.5714 16.5831 22.7197 16.5216 22.8291 16.4122C22.9385 16.3028 23 16.1544 23 15.9997C23 15.845 22.9385 15.6967 22.8291 15.5873C22.7197 15.4779 22.5714 15.4164 22.4167 15.4164ZM18.7224 17.0206C18.5205 17.0206 18.3231 16.9607 18.1553 16.8485C17.9874 16.7364 17.8566 16.5769 17.7793 16.3904C17.702 16.2039 17.6818 15.9986 17.7212 15.8006C17.7606 15.6026 17.8578 15.4207 18.0006 15.2779C18.1433 15.1351 18.3252 15.0379 18.5233 14.9985C18.7213 14.9591 18.9265 14.9793 19.1131 15.0566C19.2996 15.1339 19.459 15.2647 19.5712 15.4326C19.6834 15.6005 19.7432 15.7978 19.7432 15.9997C19.7429 16.2704 19.6353 16.5299 19.4439 16.7212C19.2525 16.9126 18.9931 17.0203 18.7224 17.0206Z" fill="white"/>
<path d="M22.4167 20.2293H15.3764C15.2512 19.7686 14.9779 19.362 14.5986 19.072C14.2194 18.7821 13.7553 18.625 13.2779 18.625C12.8005 18.625 12.3364 18.7821 11.9571 19.072C11.5779 19.362 11.3045 19.7686 11.1793 20.2293H9.58333C9.42862 20.2293 9.28025 20.2908 9.17085 20.4002C9.06146 20.5096 9 20.6579 9 20.8126C9 20.9674 9.06146 21.1157 9.17085 21.2251C9.28025 21.3345 9.42862 21.396 9.58333 21.396H11.1793C11.3045 21.8566 11.5779 22.2633 11.9571 22.5533C12.3364 22.8432 12.8005 23.0003 13.2779 23.0003C13.7553 23.0003 14.2194 22.8432 14.5986 22.5533C14.9779 22.2633 15.2512 21.8566 15.3764 21.396H22.4167C22.5714 21.396 22.7197 21.3345 22.8291 21.2251C22.9385 21.1157 23 20.9674 23 20.8126C23 20.6579 22.9385 20.5096 22.8291 20.4002C22.7197 20.2908 22.5714 20.2293 22.4167 20.2293ZM13.2776 21.8335C13.0757 21.8335 12.8783 21.7736 12.7104 21.6614C12.5426 21.5493 12.4117 21.3898 12.3345 21.2033C12.2572 21.0168 12.237 20.8115 12.2764 20.6135C12.3158 20.4155 12.413 20.2336 12.5557 20.0908C12.6985 19.948 12.8804 19.8508 13.0784 19.8114C13.2765 19.772 13.4817 19.7923 13.6682 19.8695C13.8548 19.9468 14.0142 20.0776 14.1264 20.2455C14.2385 20.4134 14.2984 20.6107 14.2984 20.8126C14.298 21.0832 14.1903 21.3426 13.9989 21.534C13.8076 21.7253 13.5482 21.833 13.2776 21.8335Z" fill="white"/>
</g>
<defs>
<clipPath id="clip0_3529_155">
<rect width="14" height="14" fill="white" transform="translate(9 9)"/>
</clipPath>
</defs>
</svg>
