<svg width="780" height="227" viewBox="0 0 780 227" fill="none" xmlns="http://www.w3.org/2000/svg">
<path d="M3 224.5L132 87L260.5 171H389.5L519 3L647.5 224.5L777.5 143V224.5H647.5H3Z" fill="url(#paint0_linear_3388_11771)"/>
<path fill-rule="evenodd" clip-rule="evenodd" d="M519.176 0.314453L648.019 222.404L776.703 141.729L778.297 144.271L646.982 226.595L518.824 5.68549L390.238 172.5H260.053L132.231 88.9429L4.09233 225.028L1.9082 222.972L131.769 85.057L260.947 169.5H388.763L519.176 0.314453Z" fill="#0095FF"/>
<path d="M6 224C6 225.657 4.65685 227 3 227C1.34315 227 0 225.657 0 224C0 222.343 1.34315 221 3 221C4.65685 221 6 222.343 6 224Z" fill="#0095FF"/>
<path d="M135 87C135 88.6569 133.657 90 132 90C130.343 90 129 88.6569 129 87C129 85.3431 130.343 84 132 84C133.657 84 135 85.3431 135 87Z" fill="#0095FF"/>
<path d="M264 171C264 172.657 262.657 174 261 174C259.343 174 258 172.657 258 171C258 169.343 259.343 168 261 168C262.657 168 264 169.343 264 171Z" fill="#0095FF"/>
<path d="M392 171C392 172.657 390.657 174 389 174C387.343 174 386 172.657 386 171C386 169.343 387.343 168 389 168C390.657 168 392 169.343 392 171Z" fill="#0095FF"/>
<path d="M522 3C522 4.65685 520.657 6 519 6C517.343 6 516 4.65685 516 3C516 1.34315 517.343 0 519 0C520.657 0 522 1.34315 522 3Z" fill="#0095FF"/>
<path d="M780 143C780 144.657 778.657 146 777 146C775.343 146 774 144.657 774 143C774 141.343 775.343 140 777 140C778.657 140 780 141.343 780 143Z" fill="#0095FF"/>
<path d="M651 224C651 225.657 649.657 227 648 227C646.343 227 645 225.657 645 224C645 222.343 646.343 221 648 221C649.657 221 651 222.343 651 224Z" fill="#0095FF"/>
<defs>
<linearGradient id="paint0_linear_3388_11771" x1="457" y1="12" x2="457" y2="241" gradientUnits="userSpaceOnUse">
<stop stop-color="#0095FF" stop-opacity="0.7"/>
<stop offset="1" stop-color="#0095FF" stop-opacity="0"/>
</linearGradient>
</defs>
</svg>
