<svg width="80" height="34" viewBox="0 0 80 34" fill="none" xmlns="http://www.w3.org/2000/svg">
<path d="M8.68066 5.14941C8.68066 7.35855 6.8898 9.14941 4.68066 9.14941C2.47153 9.14941 0.680664 7.35855 0.680664 5.14941C0.680664 2.94028 2.47153 1.14941 4.68066 1.14941C6.8898 1.14941 8.68066 2.94028 8.68066 5.14941Z" fill="#7EE1FF"/>
<path d="M70.2471 9.14924V2.60378H71.7215V3.716H71.7982C71.9346 3.341 72.1604 3.04838 72.4758 2.83816C72.7911 2.62509 73.1675 2.51855 73.605 2.51855C74.0482 2.51855 74.4218 2.62651 74.7258 2.84242C75.0326 3.05549 75.2485 3.34668 75.3735 3.716H75.4417C75.5866 3.35236 75.8309 3.06259 76.1746 2.84668C76.5212 2.62793 76.9317 2.51855 77.4062 2.51855C78.0084 2.51855 78.4999 2.7089 78.8806 3.08958C79.2613 3.47026 79.4516 4.02566 79.4516 4.75577V9.14924H77.9047V4.99441C77.9047 4.58816 77.7968 4.29128 77.5809 4.10378C77.365 3.91344 77.1008 3.81827 76.7883 3.81827C76.4161 3.81827 76.1249 3.93475 75.9147 4.1677C75.7073 4.39782 75.6036 4.69753 75.6036 5.06685V9.14924H74.0908V4.93049C74.0908 4.59242 73.9885 4.32253 73.784 4.12083C73.5823 3.91912 73.3181 3.81827 72.9914 3.81827C72.7698 3.81827 72.5681 3.87509 72.3863 3.98873C72.2045 4.09952 72.0596 4.25719 71.9516 4.46174C71.8437 4.66344 71.7897 4.89924 71.7897 5.16912V9.14924H70.2471Z" fill="white"/>
<path d="M67.1182 6.39613V2.60352H68.6608V9.14897H67.165V7.98562H67.0969C66.9491 8.3521 66.7062 8.65181 66.3682 8.88477C66.0329 9.11772 65.6196 9.2342 65.1281 9.2342C64.6991 9.2342 64.3199 9.13903 63.9903 8.94869C63.6636 8.7555 63.4079 8.47567 63.2233 8.1092C63.0386 7.73988 62.9463 7.29386 62.9463 6.77113V2.60352H64.4889V6.53249C64.4889 6.94727 64.6025 7.27681 64.8298 7.52113C65.0571 7.76545 65.3554 7.88761 65.7247 7.88761C65.952 7.88761 66.1721 7.83221 66.3852 7.72141C66.5983 7.61062 66.773 7.44585 66.9094 7.2271C67.0486 7.0055 67.1182 6.72852 67.1182 6.39613Z" fill="white"/>
<path d="M59.8166 9.14915V2.60369H61.3592V9.14915H59.8166ZM60.5922 1.67472C60.3478 1.67472 60.1376 1.59375 59.9615 1.43182C59.7853 1.26705 59.6973 1.0696 59.6973 0.839489C59.6973 0.606534 59.7853 0.409091 59.9615 0.247159C60.1376 0.0823863 60.3478 0 60.5922 0C60.8393 0 61.0495 0.0823863 61.2228 0.247159C61.399 0.409091 61.487 0.606534 61.487 0.839489C61.487 1.0696 61.399 1.26705 61.2228 1.43182C61.0495 1.59375 60.8393 1.67472 60.5922 1.67472Z" fill="white"/>
<path d="M54.6877 9.2642C54.1735 9.2642 53.7132 9.1321 53.307 8.8679C52.9007 8.60369 52.5797 8.22017 52.3439 7.71733C52.1081 7.21449 51.9902 6.60369 51.9902 5.88494C51.9902 5.15767 52.1096 4.54403 52.3482 4.04403C52.5897 3.54119 52.915 3.16193 53.324 2.90625C53.7331 2.64773 54.1891 2.51847 54.6919 2.51847C55.0755 2.51847 55.3908 2.58381 55.638 2.71449C55.8851 2.84233 56.0811 2.99716 56.226 3.17898C56.3709 3.35795 56.4831 3.52699 56.5627 3.68608H56.6266V0.421875H58.1735V9.14915H56.6564V8.1179H56.5627C56.4831 8.27699 56.3681 8.44602 56.2175 8.625C56.0669 8.80114 55.8681 8.9517 55.6209 9.0767C55.3738 9.2017 55.0627 9.2642 54.6877 9.2642ZM55.1181 7.99858C55.4448 7.99858 55.7232 7.91051 55.9533 7.73438C56.1834 7.5554 56.3581 7.30682 56.4775 6.98864C56.5968 6.67045 56.6564 6.29972 56.6564 5.87642C56.6564 5.45312 56.5968 5.08523 56.4775 4.77273C56.361 4.46023 56.1877 4.21733 55.9576 4.04403C55.7303 3.87074 55.4505 3.78409 55.1181 3.78409C54.7743 3.78409 54.4874 3.87358 54.2573 4.05256C54.0272 4.23153 53.8539 4.47869 53.7374 4.79403C53.6209 5.10938 53.5627 5.47017 53.5627 5.87642C53.5627 6.28551 53.6209 6.65057 53.7374 6.97159C53.8567 7.28977 54.0314 7.54119 54.2615 7.72585C54.4945 7.90767 54.78 7.99858 55.1181 7.99858Z" fill="white"/>
<path d="M48.0432 9.27708C47.387 9.27708 46.8202 9.14071 46.343 8.86799C45.8685 8.59242 45.5035 8.20321 45.2478 7.70037C44.9921 7.19469 44.8643 6.59952 44.8643 5.91486C44.8643 5.24157 44.9921 4.65066 45.2478 4.14213C45.5063 3.63077 45.8671 3.23304 46.3302 2.94895C46.7932 2.66202 47.3373 2.51855 47.9623 2.51855C48.3657 2.51855 48.7464 2.5839 49.1043 2.71458C49.4651 2.84242 49.7833 3.04128 50.0589 3.31117C50.3373 3.58105 50.556 3.9248 50.7151 4.34242C50.8742 4.75719 50.9537 5.25151 50.9537 5.82537V6.29838H45.5887V5.25861H49.4751C49.4722 4.96316 49.4083 4.70037 49.2833 4.47026C49.1583 4.2373 48.9836 4.05407 48.7591 3.92054C48.5376 3.78702 48.279 3.72026 47.9836 3.72026C47.6682 3.72026 47.3912 3.79696 47.1526 3.95037C46.914 4.10094 46.7279 4.2998 46.5944 4.54696C46.4637 4.79128 46.3969 5.05975 46.3941 5.35236V6.26003C46.3941 6.64071 46.4637 6.96742 46.6029 7.24015C46.7421 7.51003 46.9367 7.71742 47.1867 7.8623C47.4367 8.00435 47.7293 8.07537 48.0645 8.07537C48.289 8.07537 48.4921 8.04412 48.6739 7.98162C48.8557 7.91628 49.0134 7.82111 49.1469 7.69611C49.2804 7.57111 49.3813 7.41628 49.4495 7.23162L50.8898 7.39355C50.7989 7.77424 50.6256 8.10662 50.3699 8.39071C50.1171 8.67196 49.7932 8.89071 49.3983 9.04696C49.0035 9.20037 48.5518 9.27708 48.0432 9.27708Z" fill="white"/>
<path d="M34.3379 0.421875H36.2725L38.8635 6.74574H38.9657L41.5566 0.421875H43.4913V9.14915H41.9743V3.15341H41.8933L39.4814 9.12358H38.3478L35.9359 3.14062H35.8549V9.14915H34.3379V0.421875Z" fill="white"/>
<path d="M26.3689 9.34109C25.636 9.33825 25.0053 9.15785 24.4769 8.79989C23.9513 8.44194 23.5465 7.92347 23.2624 7.2445C22.9811 6.56552 22.8419 5.74876 22.8448 4.79421C22.8448 3.84251 22.9854 3.03143 23.2666 2.36097C23.5507 1.69052 23.9556 1.18058 24.4811 0.831144C25.0095 0.478871 25.6388 0.302734 26.3689 0.302734C27.099 0.302734 27.7269 0.478871 28.2524 0.831144C28.7808 1.18342 29.1871 1.69478 29.4712 2.36523C29.7553 3.03285 29.8959 3.84251 29.8931 4.79421C29.8931 5.7516 29.751 6.56978 29.4669 7.24876C29.1857 7.92773 28.7823 8.4462 28.2567 8.80416C27.7311 9.16211 27.1019 9.34109 26.3689 9.34109ZM26.3689 7.81126C26.8689 7.81126 27.2681 7.55984 27.5664 7.057C27.8647 6.55415 28.0124 5.79989 28.0095 4.79421C28.0095 4.13228 27.9414 3.58114 27.805 3.1408C27.6715 2.70046 27.4811 2.3695 27.234 2.1479C26.9897 1.92631 26.7013 1.81552 26.3689 1.81552C25.8718 1.81552 25.474 2.0641 25.1757 2.56126C24.8774 3.05842 24.7269 3.80273 24.724 4.79421C24.724 5.46467 24.7908 6.02433 24.9243 6.47319C25.0607 6.91921 25.2524 7.25444 25.4996 7.47887C25.7468 7.70046 26.0365 7.81126 26.3689 7.81126Z" fill="#7EE1FF"/>
<path d="M15.388 9.14933V7.81978L18.4945 4.94336C18.7587 4.68768 18.9803 4.45756 19.1593 4.25302C19.3411 4.04847 19.4789 3.84819 19.5726 3.65217C19.6664 3.4533 19.7132 3.23881 19.7132 3.0087C19.7132 2.75302 19.655 2.53285 19.5385 2.34819C19.4221 2.16069 19.263 2.01722 19.0613 1.91779C18.8596 1.81552 18.6309 1.76438 18.3752 1.76438C18.1081 1.76438 17.8752 1.81836 17.6763 1.92631C17.4775 2.03427 17.324 2.1891 17.2161 2.3908C17.1081 2.59251 17.0542 2.83256 17.0542 3.11097H15.3027C15.3027 2.53995 15.432 2.04421 15.6905 1.62376C15.949 1.2033 16.3113 0.878019 16.7772 0.647905C17.2431 0.417791 17.78 0.302734 18.388 0.302734C19.013 0.302734 19.557 0.41353 20.0201 0.635121C20.486 0.853871 20.8482 1.15785 21.1067 1.54705C21.3652 1.93626 21.4945 2.38228 21.4945 2.88512C21.4945 3.21467 21.4292 3.53995 21.2985 3.86097C21.1706 4.182 20.9419 4.53853 20.6124 4.93058C20.2828 5.31978 19.8184 5.78711 19.2189 6.33256L17.9448 7.58114V7.6408H21.6096V9.14933H15.388Z" fill="#7EE1FF"/>
<path d="M40.2056 31.24V30.703C40.2056 30.2954 40.2918 29.9208 40.4641 29.5795C40.6398 29.2348 40.8933 28.9597 41.2248 28.7542C41.5595 28.5454 41.9672 28.441 42.4478 28.441C42.935 28.441 43.3443 28.5437 43.6758 28.7492C44.0105 28.9547 44.2624 29.2298 44.4315 29.5745C44.6038 29.9159 44.69 30.2921 44.69 30.703V31.24C44.69 31.6476 44.6038 32.0238 44.4315 32.3685C44.2591 32.7099 44.0056 32.9833 43.6708 33.1888C43.3361 33.3976 42.9284 33.502 42.4478 33.502C41.9606 33.502 41.5513 33.3976 41.2198 33.1888C40.8884 32.9833 40.6365 32.7099 40.4641 32.3685C40.2918 32.0238 40.2056 31.6476 40.2056 31.24ZM41.6523 30.703V31.24C41.6523 31.4753 41.7087 31.6974 41.8214 31.9062C41.9374 32.115 42.1462 32.2194 42.4478 32.2194C42.7494 32.2194 42.9549 32.1166 43.0643 31.9111C43.177 31.7056 43.2333 31.4819 43.2333 31.24V30.703C43.2333 30.4611 43.1803 30.2357 43.0742 30.0269C42.9682 29.8181 42.7594 29.7137 42.4478 29.7137C42.1495 29.7137 41.9424 29.8181 41.8263 30.0269C41.7103 30.2357 41.6523 30.4611 41.6523 30.703ZM34.9805 25.4133V24.8763C34.9805 24.4653 35.0683 24.0892 35.244 23.7478C35.4196 23.4031 35.6732 23.128 36.0046 22.9225C36.3394 22.717 36.7437 22.6143 37.2177 22.6143C37.7082 22.6143 38.1192 22.717 38.4506 22.9225C38.7821 23.128 39.034 23.4031 39.2063 23.7478C39.3787 24.0892 39.4648 24.4653 39.4648 24.8763V25.4133C39.4648 25.8242 39.377 26.2004 39.2013 26.5418C39.029 26.8832 38.7754 27.1566 38.4407 27.3621C38.1093 27.5643 37.7016 27.6654 37.2177 27.6654C36.7338 27.6654 36.3245 27.5626 35.9897 27.3572C35.6583 27.1483 35.4064 26.8749 35.234 26.5368C35.065 26.1955 34.9805 25.8209 34.9805 25.4133ZM36.4371 24.8763V25.4133C36.4371 25.6552 36.4935 25.8789 36.6062 26.0844C36.7222 26.2899 36.926 26.3927 37.2177 26.3927C37.5226 26.3927 37.7298 26.2899 37.8391 26.0844C37.9518 25.8789 38.0082 25.6552 38.0082 25.4133V24.8763C38.0082 24.6344 37.9551 24.409 37.8491 24.2002C37.743 23.9914 37.5326 23.887 37.2177 23.887C36.9227 23.887 36.7189 23.993 36.6062 24.2052C36.4935 24.4173 36.4371 24.641 36.4371 24.8763ZM35.6367 33.1491L42.6367 22.9672H43.9393L36.9393 33.1491H35.6367Z" fill="white"/>
<path d="M28.9866 33.3729C28.1314 33.3696 27.3956 33.1591 26.7792 32.7415C26.166 32.3239 25.6937 31.719 25.3623 30.9268C25.0341 30.1347 24.8717 29.1818 24.875 28.0682C24.875 26.9579 25.0391 26.0116 25.3672 25.2294C25.6987 24.4472 26.171 23.8523 26.7841 23.4446C27.4006 23.0336 28.1348 22.8281 28.9866 22.8281C29.8384 22.8281 30.5708 23.0336 31.184 23.4446C31.8005 23.8556 32.2744 24.4522 32.6059 25.2344C32.9373 26.0133 33.1014 26.9579 33.0981 28.0682C33.0981 29.1851 32.9323 30.1397 32.6009 30.9318C32.2728 31.724 31.8021 32.3288 31.189 32.7464C30.5758 33.1641 29.8417 33.3729 28.9866 33.3729ZM28.9866 31.5881C29.5699 31.5881 30.0356 31.2947 30.3836 30.7081C30.7316 30.1214 30.9039 29.2415 30.9006 28.0682C30.9006 27.2959 30.8211 26.6529 30.662 26.1392C30.5062 25.6255 30.2841 25.2393 29.9958 24.9808C29.7108 24.7223 29.3743 24.593 28.9866 24.593C28.4065 24.593 27.9425 24.883 27.5945 25.4631C27.2465 26.0431 27.0708 26.9115 27.0675 28.0682C27.0675 28.8504 27.1454 29.5033 27.3012 30.027C27.4603 30.5473 27.684 30.9384 27.9724 31.2003C28.2607 31.4588 28.5988 31.5881 28.9866 31.5881Z" fill="white"/>
<path d="M15.3516 31.3588V29.6635L19.6023 22.9668H21.0639V25.3134H20.1989L17.5192 29.5542V29.6337H23.5597V31.3588H15.3516ZM20.2386 33.1486V30.8418L20.2784 30.0911V22.9668H22.2969V33.1486H20.2386Z" fill="white"/>
</svg>
