<svg width="62" height="34" viewBox="0 0 62 34" fill="none" xmlns="http://www.w3.org/2000/svg">
<path d="M8 5.14941C8 7.35855 6.20914 9.14941 4 9.14941C1.79086 9.14941 0 7.35855 0 5.14941C0 2.94028 1.79086 1.14941 4 1.14941C6.20914 1.14941 8 2.94028 8 5.14941Z" fill="#2693F5"/>
<path d="M61.5606 2.60334V3.79652H57.7979V2.60334H61.5606ZM58.7268 1.03516H60.2694V7.18004C60.2694 7.38743 60.3007 7.54652 60.3632 7.65732C60.4285 7.76527 60.5138 7.83913 60.6189 7.87891C60.724 7.91868 60.8405 7.93857 60.9683 7.93857C61.0649 7.93857 61.153 7.93146 61.2325 7.91726C61.3149 7.90305 61.3774 7.89027 61.42 7.87891L61.68 9.08487C61.5976 9.11328 61.4797 9.14453 61.3263 9.17862C61.1757 9.21271 60.991 9.2326 60.7723 9.23828C60.3859 9.24965 60.0379 9.19141 59.7283 9.06357C59.4186 8.93288 59.1729 8.73118 58.991 8.45845C58.8121 8.18572 58.724 7.84482 58.7268 7.43572V1.03516Z" fill="white"/>
<path d="M52.4762 5.31392V9.14915H50.9336V0.421875H52.4421V3.71591H52.5188C52.6722 3.34659 52.9094 3.0554 53.2305 2.84233C53.5543 2.62642 53.9663 2.51847 54.4663 2.51847C54.9208 2.51847 55.3171 2.61364 55.6552 2.80398C55.9933 2.99432 56.2546 3.27273 56.4393 3.6392C56.6268 4.00568 56.7205 4.45312 56.7205 4.98153V9.14915H55.1779V5.22017C55.1779 4.77983 55.0643 4.4375 54.837 4.19318C54.6126 3.94602 54.2972 3.82244 53.891 3.82244C53.6183 3.82244 53.3739 3.8821 53.158 4.00142C52.945 4.1179 52.7773 4.28693 52.6552 4.50852C52.5359 4.73011 52.4762 4.99858 52.4762 5.31392Z" fill="white"/>
<path d="M46.2801 11.7401C45.7261 11.7401 45.2503 11.6649 44.8525 11.5143C44.4548 11.3666 44.1352 11.1677 43.8937 10.9177C43.6523 10.6677 43.4846 10.3907 43.3909 10.0867L44.7801 9.75009C44.8426 9.87793 44.9335 10.0044 45.0528 10.1294C45.1721 10.2572 45.3327 10.3623 45.5344 10.4447C45.7389 10.5299 45.996 10.5725 46.3057 10.5725C46.7432 10.5725 47.1054 10.466 47.3923 10.2529C47.6792 10.0427 47.8227 9.69611 47.8227 9.21316V7.9731H47.746C47.6665 8.13219 47.55 8.29554 47.3966 8.46316C47.246 8.63077 47.0457 8.7714 46.7957 8.88503C46.5486 8.99867 46.2375 9.05549 45.8625 9.05549C45.3596 9.05549 44.9037 8.93759 44.4946 8.70179C44.0883 8.46316 43.7645 8.10804 43.523 7.63645C43.2844 7.16202 43.165 6.56827 43.165 5.8552C43.165 5.13645 43.2844 4.52992 43.523 4.0356C43.7645 3.53844 44.0898 3.16202 44.4988 2.90634C44.9079 2.64782 45.3639 2.51855 45.8667 2.51855C46.2503 2.51855 46.5656 2.5839 46.8128 2.71458C47.0628 2.84242 47.2616 2.99725 47.4094 3.17907C47.5571 3.35804 47.6693 3.52708 47.746 3.68617H47.8312V2.60378H49.3525V9.25577C49.3525 9.81543 49.219 10.2785 48.952 10.645C48.6849 11.0115 48.3199 11.2856 47.8568 11.4674C47.3937 11.6492 46.8682 11.7401 46.2801 11.7401ZM46.2929 7.84526C46.6196 7.84526 46.898 7.76571 47.1281 7.60662C47.3582 7.44753 47.5329 7.21884 47.6523 6.92054C47.7716 6.62225 47.8312 6.26429 47.8312 5.84668C47.8312 5.43475 47.7716 5.07395 47.6523 4.76429C47.5358 4.45463 47.3625 4.21458 47.1324 4.04412C46.9051 3.87083 46.6253 3.78418 46.2929 3.78418C45.9491 3.78418 45.6622 3.87367 45.4321 4.05265C45.202 4.23162 45.0287 4.47736 44.9122 4.78986C44.7957 5.09952 44.7375 5.45179 44.7375 5.84668C44.7375 6.24725 44.7957 6.5981 44.9122 6.89924C45.0315 7.19753 45.2062 7.43049 45.4363 7.5981C45.6693 7.76287 45.9548 7.84526 46.2929 7.84526Z" fill="white"/>
<path d="M40.3039 9.14915V2.60369H41.8465V9.14915H40.3039ZM41.0795 1.67472C40.8351 1.67472 40.6249 1.59375 40.4488 1.43182C40.2726 1.26705 40.1846 1.0696 40.1846 0.839489C40.1846 0.606534 40.2726 0.409091 40.4488 0.247159C40.6249 0.0823863 40.8351 0 41.0795 0C41.3266 0 41.5368 0.0823863 41.7101 0.247159C41.8863 0.409091 41.9743 0.606534 41.9743 0.839489C41.9743 1.0696 41.8863 1.26705 41.7101 1.43182C41.5368 1.59375 41.3266 1.67472 41.0795 1.67472Z" fill="white"/>
<path d="M31.4424 9.14915V0.421875H33.0233V4.11648H37.0674V0.421875H38.6526V9.14915H37.0674V5.44176H33.0233V9.14915H31.4424Z" fill="white"/>
<path d="M23.7661 9.26847C23.1638 9.26847 22.6269 9.15767 22.1553 8.93608C21.6865 8.71449 21.3144 8.40909 21.0388 8.01989C20.7632 7.63068 20.6198 7.18466 20.6084 6.68182H22.3982C22.4181 7.01989 22.5601 7.29403 22.8243 7.50426C23.0885 7.71449 23.4024 7.8196 23.7661 7.8196C24.0558 7.8196 24.3115 7.75568 24.5331 7.62784C24.7575 7.49716 24.9323 7.31676 25.0573 7.08665C25.1851 6.85369 25.249 6.58665 25.249 6.28551C25.249 5.97869 25.1837 5.70881 25.053 5.47585C24.9252 5.2429 24.7476 5.06108 24.5203 4.9304C24.2931 4.79972 24.0331 4.73295 23.7405 4.73011C23.4848 4.73011 23.2362 4.78267 22.9948 4.88778C22.7561 4.9929 22.57 5.13636 22.4365 5.31818L20.7959 5.02415L21.2093 0.421875H26.5445V1.9304H22.7306L22.5047 4.11648H22.5558C22.7093 3.90057 22.9408 3.72159 23.2504 3.57955C23.5601 3.4375 23.9067 3.36648 24.2902 3.36648C24.8158 3.36648 25.2845 3.49006 25.6965 3.73722C26.1084 3.98438 26.4337 4.32386 26.6723 4.75568C26.911 5.18466 27.0289 5.67898 27.026 6.23864C27.0289 6.8267 26.8925 7.34943 26.6169 7.80682C26.3442 8.26136 25.9621 8.61932 25.4706 8.88068C24.982 9.1392 24.4138 9.26847 23.7661 9.26847Z" fill="#2693F5"/>
<path d="M18.5043 0.421875V9.14915H16.6591V2.1733H16.608L14.6094 3.42614V1.78977L16.7699 0.421875H18.5043Z" fill="#2693F5"/>
<path d="M39.2652 31.24V30.703C39.2652 30.2954 39.3514 29.9208 39.5237 29.5795C39.6994 29.2348 39.9529 28.9597 40.2844 28.7542C40.6191 28.5454 41.0268 28.441 41.5074 28.441C41.9946 28.441 42.4039 28.5437 42.7354 28.7492C43.0701 28.9547 43.322 29.2298 43.491 29.5745C43.6634 29.9159 43.7496 30.2921 43.7496 30.703V31.24C43.7496 31.6476 43.6634 32.0238 43.491 32.3685C43.3187 32.7099 43.0651 32.9833 42.7304 33.1888C42.3956 33.3976 41.988 33.502 41.5074 33.502C41.0202 33.502 40.6108 33.3976 40.2794 33.1888C39.9479 32.9833 39.6961 32.7099 39.5237 32.3685C39.3514 32.0238 39.2652 31.6476 39.2652 31.24ZM40.7119 30.703V31.24C40.7119 31.4753 40.7683 31.6974 40.8809 31.9062C40.997 32.115 41.2058 32.2194 41.5074 32.2194C41.809 32.2194 42.0145 32.1166 42.1238 31.9111C42.2365 31.7056 42.2929 31.4819 42.2929 31.24V30.703C42.2929 30.4611 42.2399 30.2357 42.1338 30.0269C42.0277 29.8181 41.8189 29.7137 41.5074 29.7137C41.2091 29.7137 41.0019 29.8181 40.8859 30.0269C40.7699 30.2357 40.7119 30.4611 40.7119 30.703ZM34.04 25.4133V24.8763C34.04 24.4653 34.1279 24.0892 34.3035 23.7478C34.4792 23.4031 34.7327 23.128 35.0642 22.9225C35.3989 22.717 35.8033 22.6143 36.2773 22.6143C36.7678 22.6143 37.1788 22.717 37.5102 22.9225C37.8416 23.128 38.0935 23.4031 38.2659 23.7478C38.4382 24.0892 38.5244 24.4653 38.5244 24.8763V25.4133C38.5244 25.8242 38.4366 26.2004 38.2609 26.5418C38.0886 26.8832 37.835 27.1566 37.5003 27.3621C37.1688 27.5643 36.7612 27.6654 36.2773 27.6654C35.7934 27.6654 35.384 27.5626 35.0493 27.3572C34.7178 27.1483 34.4659 26.8749 34.2936 26.5368C34.1246 26.1955 34.04 25.8209 34.04 25.4133ZM35.4967 24.8763V25.4133C35.4967 25.6552 35.5531 25.8789 35.6657 26.0844C35.7818 26.2899 35.9856 26.3927 36.2773 26.3927C36.5822 26.3927 36.7893 26.2899 36.8987 26.0844C37.0114 25.8789 37.0677 25.6552 37.0677 25.4133V24.8763C37.0677 24.6344 37.0147 24.409 36.9086 24.2002C36.8026 23.9914 36.5921 23.887 36.2773 23.887C35.9823 23.887 35.7784 23.993 35.6657 24.2052C35.5531 24.4173 35.4967 24.641 35.4967 24.8763ZM34.6963 33.1491L41.6963 22.9672H42.9988L35.9988 33.1491H34.6963Z" fill="white"/>
<path d="M28.0461 33.3729C27.191 33.3696 26.4552 33.1591 25.8387 32.7415C25.2256 32.3239 24.7533 31.719 24.4218 30.9268C24.0937 30.1347 23.9313 29.1818 23.9346 28.0682C23.9346 26.9579 24.0987 26.0116 24.4268 25.2294C24.7582 24.4472 25.2305 23.8523 25.8437 23.4446C26.4602 23.0336 27.1943 22.8281 28.0461 22.8281C28.8979 22.8281 29.6304 23.0336 30.2436 23.4446C30.86 23.8556 31.334 24.4522 31.6654 25.2344C31.9969 26.0133 32.1609 26.9579 32.1576 28.0682C32.1576 29.1851 31.9919 30.1397 31.6605 30.9318C31.3323 31.724 30.8617 32.3288 30.2485 32.7464C29.6354 33.1641 28.9012 33.3729 28.0461 33.3729ZM28.0461 31.5881C28.6295 31.5881 29.0951 31.2947 29.4431 30.7081C29.7912 30.1214 29.9635 29.2415 29.9602 28.0682C29.9602 27.2959 29.8806 26.6529 29.7216 26.1392C29.5658 25.6255 29.3437 25.2393 29.0554 24.9808C28.7703 24.7223 28.4339 24.593 28.0461 24.593C27.4661 24.593 27.0021 24.883 26.6541 25.4631C26.3061 26.0431 26.1304 26.9115 26.1271 28.0682C26.1271 28.8504 26.205 29.5033 26.3608 30.027C26.5198 30.5473 26.7436 30.9384 27.0319 31.2003C27.3203 31.4588 27.6583 31.5881 28.0461 31.5881Z" fill="white"/>
<path d="M18.5885 33.2884C17.8461 33.2884 17.1849 33.1607 16.6048 32.9055C16.0281 32.647 15.5724 32.2924 15.2377 31.8416C14.9062 31.3875 14.7355 30.8639 14.7256 30.2706H16.8932C16.9065 30.5192 16.9877 30.7379 17.1368 30.9268C17.2893 31.1125 17.4914 31.2566 17.7433 31.3594C17.9952 31.4621 18.2786 31.5135 18.5935 31.5135C18.9216 31.5135 19.2116 31.4555 19.4635 31.3395C19.7154 31.2235 19.9126 31.0627 20.0551 30.8572C20.1977 30.6518 20.2689 30.4148 20.2689 30.1463C20.2689 29.8745 20.1927 29.6342 20.0402 29.4254C19.8911 29.2133 19.6756 29.0476 19.3939 28.9283C19.1155 28.8089 18.7841 28.7493 18.3996 28.7493H17.45V27.1683H18.3996C18.7244 27.1683 19.0111 27.112 19.2597 26.9993C19.5116 26.8866 19.7071 26.7308 19.8463 26.532C19.9855 26.3298 20.0551 26.0945 20.0551 25.826C20.0551 25.5708 19.9938 25.3471 19.8712 25.1548C19.7519 24.9593 19.5828 24.8068 19.3641 24.6974C19.1486 24.5881 18.8968 24.5334 18.6084 24.5334C18.3167 24.5334 18.0499 24.5864 17.808 24.6925C17.566 24.7952 17.3721 24.9427 17.2263 25.1349C17.0805 25.3272 17.0026 25.5526 16.9926 25.8111H14.9294C14.9394 25.2244 15.1067 24.7074 15.4316 24.2599C15.7564 23.8125 16.1939 23.4628 16.7441 23.2109C17.2976 22.9557 17.9223 22.8281 18.6183 22.8281C19.321 22.8281 19.9358 22.9557 20.4628 23.2109C20.9898 23.4661 21.3991 23.8108 21.6908 24.245C21.9858 24.6759 22.1316 25.1598 22.1283 25.6967C22.1316 26.2668 21.9543 26.7424 21.5963 27.1236C21.2417 27.5047 20.7793 27.7467 20.2093 27.8494V27.929C20.9583 28.0251 21.5284 28.2853 21.9195 28.7095C22.3139 29.1304 22.5094 29.6574 22.5061 30.2905C22.5094 30.8705 22.3421 31.3859 22.004 31.8366C21.6692 32.2874 21.2069 32.642 20.6169 32.9006C20.027 33.1591 19.3508 33.2884 18.5885 33.2884Z" fill="white"/>
</svg>
