<svg width="75" height="28" viewBox="0 0 75 28" fill="none" xmlns="http://www.w3.org/2000/svg">
<path d="M70.8776 13.9704C70.271 13.9704 69.749 13.8909 69.3115 13.7318C68.8773 13.5727 68.5227 13.3622 68.2476 13.1004C67.9725 12.8386 67.767 12.5519 67.6311 12.2403L68.9088 11.7133C68.9983 11.8592 69.1176 12.0133 69.2668 12.1757C69.4192 12.3414 69.6247 12.4823 69.8833 12.5983C70.1451 12.7143 70.4815 12.7723 70.8925 12.7723C71.4559 12.7723 71.9216 12.6347 72.2895 12.3596C72.6574 12.0879 72.8414 11.6537 72.8414 11.0571V9.55566H72.7469C72.6574 9.71807 72.5281 9.8987 72.3591 10.0976C72.1934 10.2964 71.9647 10.4688 71.673 10.6146C71.3814 10.7604 71.0019 10.8334 70.5345 10.8334C69.9313 10.8334 69.3878 10.6925 68.9039 10.4108C68.4233 10.1257 68.0421 9.70647 67.7604 9.15297C67.482 8.59615 67.3428 7.91172 67.3428 7.0997C67.3428 6.28767 67.4803 5.59165 67.7554 5.01163C68.0338 4.43161 68.415 3.98748 68.8989 3.67924C69.3828 3.36769 69.9313 3.21191 70.5445 3.21191C71.0184 3.21191 71.4013 3.29146 71.6929 3.45055C71.9846 3.60633 72.2116 3.78862 72.374 3.99743C72.5397 4.20623 72.6673 4.39018 72.7568 4.54927H72.8662V3.31135H74.3229V11.1167C74.3229 11.773 74.1704 12.3116 73.8655 12.7325C73.5606 13.1534 73.1479 13.465 72.6276 13.6672C72.1105 13.8693 71.5272 13.9704 70.8776 13.9704ZM70.8627 9.60041C71.2902 9.60041 71.6515 9.50098 71.9465 9.30211C72.2448 9.09994 72.4701 8.81158 72.6226 8.43706C72.7784 8.05922 72.8563 7.6068 72.8563 7.07981C72.8563 6.56608 72.78 6.11367 72.6276 5.72257C72.4751 5.33147 72.2514 5.02655 71.9564 4.8078C71.6614 4.58573 71.2968 4.4747 70.8627 4.4747C70.4152 4.4747 70.0424 4.5907 69.7441 4.82271C69.4458 5.0514 69.2204 5.36296 69.0679 5.75737C68.9188 6.15178 68.8442 6.5926 68.8442 7.07981C68.8442 7.58029 68.9204 8.01944 69.0729 8.39728C69.2254 8.77512 69.4507 9.07011 69.749 9.28223C70.0506 9.49435 70.4218 9.60041 70.8627 9.60041Z" fill="white"/>
<path d="M60.7951 6.41362V10.9477H59.3086V3.31135H60.7354V4.55424H60.8299C61.0056 4.14989 61.2807 3.82508 61.6552 3.57981C62.033 3.33455 62.5086 3.21191 63.082 3.21191C63.6024 3.21191 64.0581 3.32129 64.4492 3.54004C64.8403 3.75547 65.1436 4.07697 65.359 4.50453C65.5745 4.93208 65.6822 5.46073 65.6822 6.09047V10.9477H64.1957V6.26944C64.1957 5.71594 64.0515 5.28341 63.7631 4.97186C63.4748 4.65699 63.0787 4.49956 62.5749 4.49956C62.2302 4.49956 61.9237 4.57413 61.6552 4.72328C61.39 4.87243 61.1796 5.09118 61.0238 5.37953C60.8713 5.66457 60.7951 6.00926 60.7951 6.41362Z" fill="white"/>
<path d="M53.5597 11.1165C53.0758 11.1165 52.6383 11.027 52.2472 10.848C51.8562 10.6657 51.5463 10.4022 51.3176 10.0575C51.0922 9.71283 50.9795 9.29025 50.9795 8.78977C50.9795 8.3589 51.0624 8.00426 51.2281 7.72585C51.3938 7.44744 51.6175 7.22704 51.8992 7.06463C52.181 6.90223 52.4958 6.77959 52.8438 6.69673C53.1918 6.61387 53.5465 6.5509 53.9078 6.50781C54.3651 6.45478 54.7364 6.4117 55.0214 6.37855C55.3064 6.34209 55.5136 6.28409 55.6428 6.20455C55.7721 6.125 55.8367 5.99574 55.8367 5.81676V5.78196C55.8367 5.34777 55.7141 5.01136 55.4688 4.77273C55.2269 4.53409 54.8656 4.41477 54.385 4.41477C53.8846 4.41477 53.4901 4.5258 53.2018 4.74787C52.9168 4.96662 52.7196 5.21023 52.6102 5.47869L51.2132 5.16051C51.3789 4.6965 51.6208 4.32197 51.939 4.03693C52.2605 3.74858 52.6301 3.53977 53.0477 3.41051C53.4653 3.27794 53.9044 3.21165 54.3651 3.21165C54.6701 3.21165 54.9932 3.24811 55.3346 3.32102C55.6793 3.39063 56.0008 3.51989 56.2991 3.70881C56.6007 3.89773 56.8476 4.16785 57.0399 4.51918C57.2321 4.86719 57.3282 5.3196 57.3282 5.87642V10.9474H55.8765V9.90341H55.8169C55.7207 10.0956 55.5766 10.2846 55.3843 10.4702C55.1921 10.6558 54.9452 10.8099 54.6436 10.9325C54.3419 11.0552 53.9807 11.1165 53.5597 11.1165ZM53.8829 9.9233C54.2939 9.9233 54.6452 9.84209 54.9369 9.67969C55.2319 9.51728 55.4556 9.30516 55.608 9.04332C55.7638 8.77817 55.8417 8.49479 55.8417 8.19318V7.20881C55.7887 7.26184 55.6859 7.31155 55.5335 7.35795C55.3843 7.40104 55.2136 7.43916 55.0214 7.4723C54.8292 7.50213 54.6419 7.5303 54.4596 7.55682C54.2773 7.58002 54.1249 7.59991 54.0022 7.61648C53.7139 7.65294 53.4504 7.71425 53.2117 7.80043C52.9764 7.8866 52.7875 8.01089 52.645 8.1733C52.5058 8.33239 52.4362 8.54451 52.4362 8.80966C52.4362 9.17756 52.5721 9.45597 52.8438 9.64489C53.1156 9.83049 53.462 9.9233 53.8829 9.9233ZM53.863 2.2919L52.3268 0H53.8928L55.0512 2.2919H53.863Z" fill="white"/>
<path d="M46.1192 11.1018C45.4033 11.1018 44.7786 10.9378 44.2449 10.6096C43.7113 10.2815 43.297 9.82247 43.002 9.23251C42.7071 8.64255 42.5596 7.95316 42.5596 7.16433C42.5596 6.37219 42.7071 5.67948 43.002 5.0862C43.297 4.49293 43.7113 4.03223 44.2449 3.7041C44.7786 3.37598 45.4033 3.21191 46.1192 3.21191C46.8351 3.21191 47.4599 3.37598 47.9935 3.7041C48.5271 4.03223 48.9414 4.49293 49.2364 5.0862C49.5314 5.67948 49.6789 6.37219 49.6789 7.16433C49.6789 7.95316 49.5314 8.64255 49.2364 9.23251C48.9414 9.82247 48.5271 10.2815 47.9935 10.6096C47.4599 10.9378 46.8351 11.1018 46.1192 11.1018ZM46.1242 9.85396C46.5882 9.85396 46.9727 9.73133 47.2776 9.48606C47.5825 9.2408 47.8079 8.91433 47.9537 8.50666C48.1029 8.09899 48.1775 7.64989 48.1775 7.15936C48.1775 6.67214 48.1029 6.2247 47.9537 5.81703C47.8079 5.40604 47.5825 5.07626 47.2776 4.82768C46.9727 4.5791 46.5882 4.45481 46.1242 4.45481C45.6569 4.45481 45.2691 4.5791 44.9608 4.82768C44.6559 5.07626 44.4289 5.40604 44.2797 5.81703C44.1339 6.2247 44.061 6.67214 44.061 7.15936C44.061 7.64989 44.1339 8.09899 44.2797 8.50666C44.4289 8.91433 44.6559 9.2408 44.9608 9.48606C45.2691 9.73133 45.6569 9.85396 46.1242 9.85396Z" fill="white"/>
<path d="M32.6309 10.9474V0.765625H34.1671V5.19034H39.2431V0.765625H40.7843V10.9474H39.2431V6.50781H34.1671V10.9474H32.6309Z" fill="white"/>
<path d="M16.4336 10.9477V3.31135H17.8604V4.55424H17.9549C18.114 4.13332 18.3742 3.80519 18.7354 3.56987C19.0967 3.33123 19.5292 3.21191 20.033 3.21191C20.5434 3.21191 20.971 3.33123 21.3157 3.56987C21.6637 3.8085 21.9206 4.13663 22.0863 4.55424H22.1658C22.3481 4.14657 22.6381 3.82176 23.0359 3.57981C23.4336 3.33455 23.9076 3.21191 24.4577 3.21191C25.1504 3.21191 25.7156 3.42901 26.1531 3.86319C26.5939 4.29738 26.8143 4.95197 26.8143 5.82697V10.9477H25.3278V5.96618C25.3278 5.44913 25.1869 5.0746 24.9052 4.8426C24.6235 4.61059 24.2871 4.49458 23.896 4.49458C23.4121 4.49458 23.0359 4.64373 22.7674 4.94203C22.4989 5.23701 22.3647 5.61651 22.3647 6.08052V10.9477H20.8832V5.87172C20.8832 5.45742 20.7539 5.12432 20.4954 4.87243C20.2369 4.62053 19.9005 4.49458 19.4862 4.49458C19.2044 4.49458 18.9442 4.56916 18.7056 4.71831C18.4703 4.86414 18.2797 5.06797 18.1339 5.32981C17.9914 5.59165 17.9201 5.89492 17.9201 6.23961V10.9477H16.4336Z" fill="white"/>
<path d="M10.6847 11.1166C10.2008 11.1166 9.76335 11.0271 9.37225 10.8481C8.98115 10.6658 8.67125 10.4023 8.44256 10.0576C8.21718 9.71292 8.10449 9.29033 8.10449 8.78986C8.10449 8.35899 8.18735 8.00435 8.35307 7.72594C8.51879 7.44753 8.74251 7.22713 9.02424 7.06472C9.30596 6.90232 9.62083 6.77968 9.96884 6.69682C10.3169 6.61396 10.6715 6.55099 11.0328 6.5079C11.4901 6.45487 11.8614 6.41178 12.1464 6.37864C12.4314 6.34218 12.6386 6.28418 12.7678 6.20463C12.8971 6.12509 12.9617 5.99583 12.9617 5.81685V5.78205C12.9617 5.34786 12.8391 5.01145 12.5938 4.77282C12.3519 4.53418 11.9906 4.41486 11.51 4.41486C11.0096 4.41486 10.6151 4.52589 10.3268 4.74796C10.0418 4.96671 9.84455 5.21032 9.73517 5.47878L8.33816 5.1606C8.50388 4.69659 8.74583 4.32206 9.06401 4.03702C9.3855 3.74867 9.75506 3.53986 10.1727 3.4106C10.5903 3.27802 11.0294 3.21174 11.4901 3.21174C11.7951 3.21174 12.1182 3.2482 12.4596 3.32111C12.8043 3.39071 13.1258 3.51998 13.4241 3.7089C13.7257 3.89782 13.9726 4.16794 14.1649 4.51927C14.3571 4.86728 14.4532 5.31969 14.4532 5.87651V10.9475H13.0015V9.9035H12.9418C12.8457 10.0957 12.7016 10.2847 12.5093 10.4703C12.3171 10.6559 12.0702 10.81 11.7686 10.9326C11.4669 11.0553 11.1057 11.1166 10.6847 11.1166ZM11.0079 9.92338C11.4189 9.92338 11.7702 9.84218 12.0619 9.67978C12.3569 9.51737 12.5806 9.30525 12.733 9.04341C12.8888 8.77826 12.9667 8.49488 12.9667 8.19327V7.2089C12.9137 7.26193 12.8109 7.31164 12.6585 7.35804C12.5093 7.40113 12.3386 7.43925 12.1464 7.47239C11.9542 7.50222 11.7669 7.53039 11.5846 7.55691C11.4023 7.58011 11.2499 7.59999 11.1272 7.61657C10.8389 7.65303 10.5754 7.71434 10.3367 7.80052C10.1014 7.88669 9.91249 8.01098 9.76997 8.17338C9.63077 8.33248 9.56117 8.5446 9.56117 8.80975C9.56117 9.17765 9.69706 9.45606 9.96884 9.64498C10.2406 9.83058 10.587 9.92338 11.0079 9.92338ZM12.5889 2.3964L11.5697 1.06401L10.5455 2.3964H9.20321V2.32182L10.9482 0.213867H12.1862L13.9362 2.32182V2.3964H12.5889Z" fill="white"/>
<path d="M0 2.08807V0.765625H7.87997V2.08807H4.70312V10.9474H3.17188V2.08807H0Z" fill="white"/>
<path d="M39.4561 26.9475V20.4021H40.4276V21.3907H40.4958C40.6151 21.0669 40.8311 20.8041 41.1436 20.6024C41.4561 20.4007 41.8083 20.2998 42.2004 20.2998C42.2742 20.2998 42.3666 20.3012 42.4774 20.3041C42.5882 20.3069 42.672 20.3112 42.7288 20.3169V21.3396C42.6947 21.3311 42.6166 21.3183 42.4944 21.3012C42.3751 21.2813 42.2487 21.2714 42.1151 21.2714C41.797 21.2714 41.5129 21.3382 41.2629 21.4717C41.0157 21.6024 40.8197 21.7842 40.6748 22.0171C40.5328 22.2472 40.4617 22.51 40.4617 22.8055V26.9475H39.4561Z" fill="#818798"/>
<path d="M34.9552 27.0835C34.3643 27.0835 33.8458 26.9428 33.3998 26.6616C32.9566 26.3803 32.61 25.9869 32.36 25.4812C32.1128 24.9755 31.9893 24.3846 31.9893 23.7085C31.9893 23.0266 32.1128 22.4315 32.36 21.9229C32.61 21.4144 32.9566 21.0195 33.3998 20.7383C33.8458 20.457 34.3643 20.3164 34.9552 20.3164C35.5461 20.3164 36.0631 20.457 36.5063 20.7383C36.9523 21.0195 37.2989 21.4144 37.5461 21.9229C37.7961 22.4315 37.9211 23.0266 37.9211 23.7085C37.9211 24.3846 37.7961 24.9755 37.5461 25.4812C37.2989 25.9869 36.9523 26.3803 36.5063 26.6616C36.0631 26.9428 35.5461 27.0835 34.9552 27.0835ZM34.9552 26.18C35.404 26.18 35.7733 26.065 36.0631 25.8349C36.3529 25.6048 36.5674 25.3022 36.7066 24.9272C36.8458 24.5522 36.9154 24.146 36.9154 23.7085C36.9154 23.271 36.8458 22.8633 36.7066 22.4854C36.5674 22.1076 36.3529 21.8022 36.0631 21.5692C35.7733 21.3363 35.404 21.2198 34.9552 21.2198C34.5063 21.2198 34.137 21.3363 33.8472 21.5692C33.5574 21.8022 33.343 22.1076 33.2037 22.4854C33.0645 22.8633 32.9949 23.271 32.9949 23.7085C32.9949 24.146 33.0645 24.5522 33.2037 24.9272C33.343 25.3022 33.5574 25.6048 33.8472 25.8349C34.137 26.065 34.5063 26.18 34.9552 26.18Z" fill="#818798"/>
<path d="M30.854 20.4022V21.2544H27.4619V20.4022H30.854ZM28.4506 18.834H29.4562V25.0726C29.4562 25.3567 29.4974 25.5698 29.5798 25.7118C29.665 25.851 29.773 25.9448 29.9037 25.9931C30.0372 26.0385 30.1778 26.0613 30.3256 26.0613C30.4363 26.0613 30.5273 26.0556 30.5983 26.0442C30.6693 26.03 30.7261 26.0186 30.7687 26.0101L30.9733 26.9135C30.9051 26.9391 30.8099 26.9647 30.6878 26.9902C30.5656 27.0186 30.4108 27.0328 30.2233 27.0328C29.9392 27.0328 29.6608 26.9718 29.3881 26.8496C29.1182 26.7275 28.8937 26.5414 28.7148 26.2914C28.5386 26.0414 28.4506 25.726 28.4506 25.3453V18.834Z" fill="#818798"/>
<path d="M25.1596 26.9473V20.4018H26.1653V26.9473H25.1596ZM25.671 19.3109C25.475 19.3109 25.3059 19.2441 25.1639 19.1106C25.0247 18.9771 24.9551 18.8166 24.9551 18.6291C24.9551 18.4416 25.0247 18.2811 25.1639 18.1475C25.3059 18.014 25.475 17.9473 25.671 17.9473C25.867 17.9473 26.0346 18.014 26.1738 18.1475C26.3159 18.2811 26.3869 18.4416 26.3869 18.6291C26.3869 18.8166 26.3159 18.9771 26.1738 19.1106C26.0346 19.2441 25.867 19.3109 25.671 19.3109Z" fill="#818798"/>
<path d="M19.1453 23.0096V26.9471H18.1396V20.4016H19.1112V21.4244H19.1965C19.3499 21.092 19.5828 20.8249 19.8953 20.6232C20.2078 20.4187 20.6112 20.3164 21.1056 20.3164C21.5487 20.3164 21.9365 20.4073 22.2689 20.5891C22.6013 20.7681 22.8598 21.0408 23.0445 21.4073C23.2291 21.771 23.3215 22.2312 23.3215 22.788V26.9471H22.3158V22.8562C22.3158 22.342 22.1823 21.9414 21.9152 21.6545C21.6482 21.3647 21.2817 21.2198 20.8158 21.2198C20.4948 21.2198 20.2078 21.2894 19.955 21.4286C19.705 21.5678 19.5075 21.771 19.3627 22.038C19.2178 22.305 19.1453 22.6289 19.1453 23.0096Z" fill="#818798"/>
<path d="M13.6388 27.0835C13.0479 27.0835 12.5294 26.9428 12.0834 26.6616C11.6402 26.3803 11.2936 25.9869 11.0436 25.4812C10.7964 24.9755 10.6729 24.3846 10.6729 23.7085C10.6729 23.0266 10.7964 22.4315 11.0436 21.9229C11.2936 21.4144 11.6402 21.0195 12.0834 20.7383C12.5294 20.457 13.0479 20.3164 13.6388 20.3164C14.2297 20.3164 14.7467 20.457 15.1899 20.7383C15.6359 21.0195 15.9825 21.4144 16.2297 21.9229C16.4797 22.4315 16.6047 23.0266 16.6047 23.7085C16.6047 24.3846 16.4797 24.9755 16.2297 25.4812C15.9825 25.9869 15.6359 26.3803 15.1899 26.6616C14.7467 26.9428 14.2297 27.0835 13.6388 27.0835ZM13.6388 26.18C14.0876 26.18 14.4569 26.065 14.7467 25.8349C15.0365 25.6048 15.251 25.3022 15.3902 24.9272C15.5294 24.5522 15.599 24.146 15.599 23.7085C15.599 23.271 15.5294 22.8633 15.3902 22.4854C15.251 22.1076 15.0365 21.8022 14.7467 21.5692C14.4569 21.3363 14.0876 21.2198 13.6388 21.2198C13.1899 21.2198 12.8206 21.3363 12.5308 21.5692C12.241 21.8022 12.0265 22.1076 11.8873 22.4854C11.7481 22.8633 11.6785 23.271 11.6785 23.7085C11.6785 24.146 11.7481 24.5522 11.8873 24.9272C12.0265 25.3022 12.241 25.6048 12.5308 25.8349C12.8206 26.065 13.1899 26.18 13.6388 26.18Z" fill="#818798"/>
<path d="M0.44043 18.2197H1.70179L4.6677 25.464H4.76998L7.73588 18.2197H8.99725V26.947H8.00861V20.3163H7.92338L5.19611 26.947H4.24157L1.51429 20.3163H1.42907V26.947H0.44043V18.2197Z" fill="#818798"/>
</svg>
