<svg width="71" height="33" viewBox="0 0 71 33" fill="none" xmlns="http://www.w3.org/2000/svg">
<path d="M8.46094 4.07715C8.46094 6.28629 6.67008 8.07715 4.46094 8.07715C2.2518 8.07715 0.460938 6.28629 0.460938 4.07715C0.460938 1.86801 2.2518 0.0771484 4.46094 0.0771484C6.67008 0.0771484 8.46094 1.86801 8.46094 4.07715Z" fill="#F2B325"/>
<path d="M61.8525 9.07697V2.53152H63.0756V3.59686H63.1565C63.2929 3.23606 63.5159 2.95481 63.8256 2.75311C64.1352 2.54856 64.5059 2.44629 64.9378 2.44629C65.3753 2.44629 65.7417 2.54856 66.0372 2.75311C66.3355 2.95765 66.5557 3.2389 66.6977 3.59686H66.7659C66.9221 3.24743 67.1707 2.96902 67.5116 2.76163C67.8525 2.5514 68.2588 2.44629 68.7304 2.44629C69.3241 2.44629 69.8085 2.63237 70.1835 3.00453C70.5613 3.37669 70.7503 3.93777 70.7503 4.68777V9.07697H69.4761V4.80708C69.4761 4.3639 69.3554 4.04288 69.1139 3.84402C68.8724 3.64515 68.5841 3.54572 68.2488 3.54572C67.8341 3.54572 67.5116 3.67356 67.2815 3.92924C67.0514 4.18208 66.9363 4.50737 66.9363 4.9051V9.07697H65.6665V4.72612C65.6665 4.371 65.5557 4.08549 65.3341 3.86958C65.1125 3.65368 64.8241 3.54572 64.469 3.54572C64.2275 3.54572 64.0045 3.60964 63.8 3.73748C63.5983 3.86248 63.4349 4.0372 63.3099 4.26163C63.1878 4.48606 63.1267 4.74601 63.1267 5.04146V9.07697H61.8525Z" fill="white"/>
<path d="M58.8621 6.36222V2.53125H60.1405V9.0767H58.8877V7.94318H58.8195C58.6689 8.29261 58.4275 8.58381 58.0951 8.81676C57.7655 9.04688 57.355 9.16193 56.8635 9.16193C56.4431 9.16193 56.0709 9.0696 55.7471 8.88494C55.426 8.69744 55.1732 8.42046 54.9885 8.05398C54.8067 7.6875 54.7158 7.23438 54.7158 6.6946V2.53125H55.99V6.54119C55.99 6.98722 56.1135 7.34233 56.3607 7.60653C56.6079 7.87074 56.9289 8.00284 57.3238 8.00284C57.5624 8.00284 57.7996 7.94318 58.0354 7.82386C58.2741 7.70455 58.4715 7.52415 58.6278 7.28267C58.7868 7.04119 58.865 6.73438 58.8621 6.36222Z" fill="white"/>
<path d="M51.7274 9.0767V2.53125H53.0015V9.0767H51.7274ZM52.3708 1.52131C52.1492 1.52131 51.9589 1.44744 51.7998 1.29972C51.6436 1.14915 51.5654 0.97017 51.5654 0.762784C51.5654 0.552557 51.6436 0.37358 51.7998 0.225852C51.9589 0.075284 52.1492 0 52.3708 0C52.5924 0 52.7813 0.075284 52.9376 0.225852C53.0967 0.37358 53.1762 0.552557 53.1762 0.762784C53.1762 0.97017 53.0967 1.14915 52.9376 1.29972C52.7813 1.44744 52.5924 1.52131 52.3708 1.52131Z" fill="white"/>
<path d="M46.6665 9.20472C46.1381 9.20472 45.6665 9.06978 45.2517 8.79989C44.8398 8.52717 44.5159 8.13938 44.2801 7.63654C44.0471 7.13086 43.9307 6.52433 43.9307 5.81694C43.9307 5.10955 44.0486 4.50444 44.2844 4.0016C44.523 3.49876 44.8497 3.11381 45.2645 2.84677C45.6792 2.57972 46.1494 2.4462 46.675 2.4462C47.0812 2.4462 47.4079 2.51438 47.6551 2.65075C47.9051 2.78427 48.0983 2.94052 48.2346 3.1195C48.3738 3.29847 48.4818 3.45614 48.5585 3.59251H48.6352V0.349609H49.9094V9.07688H48.665V8.05842H48.5585C48.4818 8.19762 48.371 8.35671 48.2261 8.53569C48.0841 8.71467 47.8881 8.87092 47.6381 9.00444C47.3881 9.13796 47.0642 9.20472 46.6665 9.20472ZM46.9477 8.11808C47.3142 8.11808 47.6238 8.02148 47.8767 7.8283C48.1324 7.63228 48.3256 7.36097 48.4562 7.01438C48.5898 6.66779 48.6565 6.26438 48.6565 5.80416C48.6565 5.34961 48.5912 4.95188 48.4605 4.61097C48.3298 4.27006 48.1381 4.00444 47.8852 3.8141C47.6324 3.62376 47.3199 3.52859 46.9477 3.52859C46.5642 3.52859 46.2446 3.62802 45.9889 3.82688C45.7332 4.02575 45.54 4.29705 45.4094 4.6408C45.2815 4.98455 45.2176 5.37234 45.2176 5.80416C45.2176 6.24166 45.2829 6.63512 45.4136 6.98455C45.5443 7.33398 45.7375 7.61097 45.9932 7.81552C46.2517 8.01722 46.5699 8.11808 46.9477 8.11808Z" fill="white"/>
<path d="M39.994 9.20907C39.3491 9.20907 38.7937 9.07129 38.3278 8.79572C37.8647 8.51731 37.5067 8.12669 37.2539 7.62385C37.0039 7.11816 36.8789 6.52583 36.8789 5.84686C36.8789 5.1764 37.0039 4.58549 37.2539 4.07413C37.5067 3.56277 37.859 3.16362 38.3107 2.87669C38.7653 2.58976 39.2965 2.44629 39.9045 2.44629C40.2738 2.44629 40.6317 2.50737 40.9783 2.62953C41.3249 2.75169 41.636 2.94345 41.9116 3.20481C42.1871 3.46618 42.4045 3.80566 42.5636 4.22328C42.7227 4.63805 42.8022 5.14231 42.8022 5.73606V6.18777H37.5991V5.23322H41.5536C41.5536 4.89799 41.4854 4.60112 41.3491 4.3426C41.2127 4.08123 41.021 3.87527 40.7738 3.7247C40.5295 3.57413 40.2425 3.49885 39.913 3.49885C39.555 3.49885 39.2425 3.58691 38.9755 3.76305C38.7113 3.93635 38.5067 4.16362 38.3619 4.44487C38.2198 4.72328 38.1488 5.02583 38.1488 5.35254V6.09828C38.1488 6.53578 38.2255 6.90794 38.3789 7.21476C38.5352 7.52157 38.7525 7.75595 39.0309 7.91788C39.3093 8.07697 39.6346 8.15652 40.0067 8.15652C40.2482 8.15652 40.4684 8.12243 40.6673 8.05424C40.8661 7.98322 41.038 7.87811 41.1829 7.7389C41.3278 7.5997 41.4386 7.42782 41.5153 7.22328L42.7212 7.44061C42.6246 7.79572 42.4513 8.1068 42.2013 8.37385C41.9542 8.63805 41.6431 8.84402 41.2681 8.99174C40.896 9.13663 40.4712 9.20907 39.994 9.20907Z" fill="white"/>
<path d="M26.5059 0.349609H28.1039L30.8823 7.1337H30.9846L33.763 0.349609H35.361V9.07688H34.1081V2.76154H34.0272L31.4533 9.0641H30.4135L27.8397 2.75728H27.7587V9.07688H26.5059V0.349609Z" fill="white"/>
<path d="M18.3941 9.19638C17.7577 9.19638 17.191 9.087 16.6938 8.86825C16.1995 8.64666 15.8089 8.34268 15.5219 7.95632C15.2378 7.56712 15.0915 7.11825 15.083 6.60973H16.941C16.9523 6.8228 17.0219 7.0103 17.1498 7.17223C17.2805 7.33132 17.4537 7.4549 17.6697 7.54297C17.8856 7.63104 18.1285 7.67507 18.3983 7.67507C18.6796 7.67507 18.9282 7.62536 19.1441 7.52592C19.36 7.42649 19.529 7.28871 19.6512 7.11257C19.7733 6.93643 19.8344 6.73331 19.8344 6.5032C19.8344 6.27024 19.7691 6.06428 19.6384 5.8853C19.5106 5.70348 19.3259 5.56143 19.0844 5.45916C18.8458 5.35689 18.5617 5.30575 18.2322 5.30575H17.4182V3.95064H18.2322C18.5106 3.95064 18.7563 3.90234 18.9694 3.80575C19.1853 3.70916 19.3529 3.57564 19.4722 3.40518C19.5915 3.23189 19.6512 3.03018 19.6512 2.80007C19.6512 2.58132 19.5986 2.38956 19.4935 2.22479C19.3912 2.05717 19.2464 1.92649 19.0589 1.83274C18.8742 1.73899 18.6583 1.69212 18.4111 1.69212C18.1611 1.69212 17.9324 1.73757 17.7251 1.82848C17.5177 1.91655 17.3515 2.04297 17.2265 2.20774C17.1015 2.37251 17.0347 2.5657 17.0262 2.78729H15.2577C15.2662 2.28445 15.4097 1.84126 15.6881 1.45774C15.9665 1.07422 16.3415 0.774503 16.8131 0.558594C17.2876 0.339844 17.8231 0.230469 18.4197 0.230469C19.0219 0.230469 19.5489 0.339844 20.0006 0.558594C20.4523 0.777344 20.8032 1.0728 21.0532 1.44496C21.306 1.81428 21.431 2.22905 21.4282 2.68928C21.431 3.17791 21.279 3.58558 20.9722 3.91229C20.6682 4.23899 20.2719 4.44638 19.7833 4.53445V4.60263C20.4253 4.68501 20.914 4.90803 21.2492 5.27166C21.5873 5.63246 21.7549 6.08416 21.752 6.62678C21.7549 7.12393 21.6114 7.5657 21.3216 7.95206C21.0347 8.33842 20.6384 8.6424 20.1327 8.86399C19.627 9.08558 19.0475 9.19638 18.3941 9.19638Z" fill="#F2B325"/>
<path d="M36.732 30.1677V29.6308C36.732 29.2231 36.8182 28.8486 36.9905 28.5072C37.1662 28.1625 37.4197 27.8874 37.7512 27.6819C38.0859 27.4731 38.4936 27.3687 38.9742 27.3687C39.4614 27.3687 39.8707 27.4714 40.2021 27.6769C40.5369 27.8824 40.7888 28.1575 40.9578 28.5022C41.1302 28.8436 41.2164 29.2198 41.2164 29.6308V30.1677C41.2164 30.5754 41.1302 30.9516 40.9578 31.2963C40.7855 31.6376 40.5319 31.9111 40.1972 32.1166C39.8624 32.3254 39.4548 32.4298 38.9742 32.4298C38.4869 32.4298 38.0776 32.3254 37.7462 32.1166C37.4147 31.9111 37.1628 31.6376 36.9905 31.2963C36.8182 30.9516 36.732 30.5754 36.732 30.1677ZM38.1787 29.6308V30.1677C38.1787 30.403 38.2351 30.6251 38.3477 30.8339C38.4637 31.0427 38.6726 31.1471 38.9742 31.1471C39.2758 31.1471 39.4813 31.0444 39.5906 30.8389C39.7033 30.6334 39.7597 30.4097 39.7597 30.1677V29.6308C39.7597 29.3888 39.7066 29.1634 39.6006 28.9546C39.4945 28.7458 39.2857 28.6414 38.9742 28.6414C38.6759 28.6414 38.4687 28.7458 38.3527 28.9546C38.2367 29.1634 38.1787 29.3888 38.1787 29.6308ZM31.5068 24.341V23.8041C31.5068 23.3931 31.5947 23.0169 31.7703 22.6755C31.946 22.3308 32.1995 22.0557 32.531 21.8502C32.8657 21.6447 33.2701 21.542 33.7441 21.542C34.2346 21.542 34.6456 21.6447 34.977 21.8502C35.3084 22.0557 35.5603 22.3308 35.7327 22.6755C35.905 23.0169 35.9912 23.3931 35.9912 23.8041V24.341C35.9912 24.752 35.9034 25.1282 35.7277 25.4695C35.5554 25.8109 35.3018 26.0844 34.9671 26.2899C34.6356 26.492 34.228 26.5931 33.7441 26.5931C33.2601 26.5931 32.8508 26.4904 32.5161 26.2849C32.1846 26.0761 31.9327 25.8026 31.7604 25.4646C31.5914 25.1232 31.5068 24.7487 31.5068 24.341ZM32.9635 23.8041V24.341C32.9635 24.5829 33.0199 24.8067 33.1325 25.0122C33.2485 25.2177 33.4524 25.3204 33.7441 25.3204C34.049 25.3204 34.2561 25.2177 34.3655 25.0122C34.4782 24.8067 34.5345 24.5829 34.5345 24.341V23.8041C34.5345 23.5621 34.4815 23.3367 34.3754 23.1279C34.2694 22.9191 34.0589 22.8147 33.7441 22.8147C33.4491 22.8147 33.2452 22.9208 33.1325 23.1329C33.0199 23.345 32.9635 23.5687 32.9635 23.8041ZM32.1631 32.0768L39.1631 21.895H40.4656L33.4656 32.0768H32.1631Z" fill="white"/>
<path d="M25.8548 32.2156C25.1522 32.2156 24.5258 32.0863 23.9756 31.8278C23.4287 31.5692 22.9945 31.213 22.673 30.7589C22.3515 30.3048 22.1842 29.7844 22.1709 29.1978H24.259C24.2822 29.5922 24.4479 29.9121 24.7561 30.1573C25.0644 30.4026 25.4306 30.5252 25.8548 30.5252C26.1929 30.5252 26.4912 30.4506 26.7497 30.3015C27.0116 30.149 27.2154 29.9386 27.3612 29.6701C27.5104 29.3983 27.585 29.0868 27.585 28.7354C27.585 28.3775 27.5087 28.0626 27.3563 27.7908C27.2071 27.5191 27 27.3069 26.7348 27.1545C26.4697 27.002 26.1664 26.9241 25.825 26.9208C25.5267 26.9208 25.2367 26.9821 24.955 27.1048C24.6766 27.2274 24.4595 27.3948 24.3037 27.6069L22.3896 27.2638L22.8719 21.8945H29.0963V23.6545H24.6468L24.3833 26.2049H24.4429C24.6219 25.953 24.892 25.7442 25.2533 25.5785C25.6146 25.4128 26.0189 25.3299 26.4664 25.3299C27.0795 25.3299 27.6264 25.4741 28.107 25.7624C28.5876 26.0508 28.9671 26.4469 29.2455 26.9506C29.5239 27.4511 29.6614 28.0278 29.6581 28.6808C29.6614 29.3668 29.5023 29.9767 29.1808 30.5103C28.8627 31.0406 28.4169 31.4582 27.8435 31.7631C27.2734 32.0647 26.6105 32.2156 25.8548 32.2156Z" fill="white"/>
<path d="M19.7159 21.8945V32.0763H17.5632V23.9379H17.5036L15.1719 25.3995V23.4904L17.6925 21.8945H19.7159Z" fill="white"/>
</svg>
