<svg width="32" height="32" viewBox="0 0 32 32" fill="none" xmlns="http://www.w3.org/2000/svg">
<g clip-path="url(#clip0_3529_231)">
<path d="M19.916 15.9996H17.1667C16.8573 15.9996 16.5606 15.8767 16.3418 15.6579C16.123 15.4391 16 15.1424 16 14.833V12.0761C16.0008 11.8078 15.9399 11.5429 15.822 11.3018C15.704 11.0608 15.5322 10.8501 15.3199 10.6861C15.1187 10.5267 14.8835 10.4157 14.6325 10.3617C14.3816 10.3077 14.1216 10.3121 13.8726 10.3746C12.4584 10.7256 11.2064 11.5488 10.3236 12.7081C9.44082 13.8674 8.98014 15.2932 9.01776 16.7498C9.05538 18.2065 9.58904 19.6067 10.5305 20.7188C11.4719 21.831 12.7648 22.5885 14.1952 22.8661C15.8035 23.1739 17.4687 22.8552 18.8497 21.9753C20.2306 21.0953 21.223 19.7207 21.6234 18.1329C21.6861 17.8836 21.6906 17.6232 21.6367 17.3719C21.5828 17.1206 21.4719 16.885 21.3125 16.6833C21.1465 16.4712 20.9346 16.2995 20.6927 16.1811C20.4508 16.0627 20.1853 16.0007 19.916 15.9996ZM20.4923 17.8476C20.2689 18.7471 19.8107 19.571 19.1644 20.2352C18.5182 20.8994 17.7071 21.3801 16.8141 21.628C15.9211 21.8759 14.9783 21.8821 14.0822 21.6461C13.186 21.4101 12.3686 20.9403 11.7135 20.2847C11.0585 19.6291 10.5894 18.8113 10.3541 17.915C10.1188 17.0186 10.1259 16.0758 10.3745 15.183C10.6231 14.2903 11.1044 13.4796 11.7692 12.8339C12.4339 12.1881 13.2583 11.7306 14.1579 11.508C14.2348 11.4887 14.3152 11.4878 14.3926 11.5052C14.47 11.5226 14.5423 11.558 14.6035 11.6083C14.6759 11.6635 14.7346 11.7346 14.7751 11.8162C14.8156 11.8977 14.8367 11.9874 14.8369 12.0785V14.833C14.8369 15.4518 15.0827 16.0453 15.5203 16.4829C15.9579 16.9205 16.5514 17.1663 17.1702 17.1663H19.9189C20.0107 17.1667 20.1012 17.1879 20.1837 17.2283C20.2661 17.2687 20.3383 17.3273 20.3949 17.3996C20.4445 17.4618 20.479 17.5346 20.4958 17.6123C20.5126 17.69 20.5112 17.7706 20.4917 17.8476H20.4923Z" fill="white"/>
<path d="M22.7964 13.3434C22.5278 12.3561 22.0061 11.456 21.2829 10.7322C20.5596 10.0085 19.6599 9.48612 18.6728 9.21686C18.5693 9.18904 18.4626 9.17492 18.3555 9.17486C18.2013 9.17339 18.0484 9.20249 17.9056 9.26046C17.7628 9.31844 17.6329 9.40414 17.5234 9.51262C17.4138 9.6211 17.3269 9.75021 17.2676 9.89249C17.2083 10.0348 17.1777 10.1874 17.1777 10.3415V13.0832C17.1777 13.5473 17.3621 13.9924 17.6903 14.3206C18.0185 14.6488 18.4636 14.8332 18.9277 14.8332H21.6805C21.8605 14.8315 22.0378 14.7882 22.1984 14.7069C22.3591 14.6255 22.4988 14.5082 22.6067 14.3641C22.7147 14.22 22.7879 14.0529 22.8208 13.8759C22.8537 13.6989 22.8454 13.5166 22.7964 13.3434ZM21.3392 13.6665H18.9254C18.7707 13.6665 18.6223 13.6051 18.5129 13.4957C18.4035 13.3863 18.3421 13.2379 18.3421 13.0832L18.3374 10.3456C18.3417 10.3425 18.3467 10.3407 18.352 10.3404H18.3672C19.1617 10.5568 19.8856 10.9779 20.4666 11.5615C21.0476 12.1452 21.4653 12.871 21.6782 13.6665H21.3392Z" fill="white"/>
</g>
<defs>
<clipPath id="clip0_3529_231">
<rect width="14" height="14" fill="white" transform="translate(9 9)"/>
</clipPath>
</defs>
</svg>
