<svg width="56" height="33" viewBox="0 0 56 33" fill="none" xmlns="http://www.w3.org/2000/svg">
<path d="M8 4.07715C8 6.28629 6.20914 8.07715 4 8.07715C1.79086 8.07715 0 6.28629 0 4.07715C0 1.86801 1.79086 0.0771484 4 0.0771484C6.20914 0.0771484 8 1.86801 8 4.07715Z" fill="#EF8325"/>
<path d="M55.3419 2.53107V3.5538H51.7666V2.53107H55.3419ZM52.7254 0.962891H53.9996V7.15465C53.9996 7.40181 54.0365 7.58789 54.1104 7.71289C54.1842 7.83505 54.2794 7.91886 54.3959 7.96431C54.5152 8.00692 54.6444 8.02823 54.7836 8.02823C54.8859 8.02823 54.9754 8.02113 55.0521 8.00693C55.1288 7.99272 55.1885 7.98136 55.2311 7.97283L55.4612 9.02539C55.3873 9.0538 55.2822 9.08221 55.1459 9.11062C55.0095 9.14187 54.839 9.15891 54.6345 9.16175C54.2993 9.16744 53.9868 9.10778 53.697 8.98278C53.4072 8.85778 53.1729 8.6646 52.9939 8.40323C52.8149 8.14187 52.7254 7.81374 52.7254 7.41886V0.962891Z" fill="white"/>
<path d="M46.3415 5.19052V9.07688H45.0674V0.349609H46.3245V3.59677H46.4055C46.5589 3.2445 46.7932 2.96467 47.1086 2.75728C47.4239 2.54989 47.8358 2.4462 48.3444 2.4462C48.7932 2.4462 49.1853 2.53853 49.5205 2.72319C49.8586 2.90785 50.1199 3.18342 50.3046 3.54989C50.4921 3.91353 50.5858 4.36808 50.5858 4.91353V9.07688H49.3117V5.06694C49.3117 4.58683 49.1881 4.21467 48.941 3.95046C48.6938 3.68342 48.3501 3.54989 47.9097 3.54989C47.6086 3.54989 47.3387 3.61381 47.1001 3.74165C46.8643 3.8695 46.6782 4.057 46.5418 4.30415C46.4083 4.54847 46.3415 4.84393 46.3415 5.19052Z" fill="white"/>
<path d="M40.4058 11.6679C39.8859 11.6679 39.4385 11.5997 39.0635 11.4633C38.6913 11.327 38.3873 11.1466 38.1515 10.9221C37.9157 10.6977 37.7396 10.452 37.6231 10.1849L38.7183 9.73322C38.795 9.85822 38.8973 9.99032 39.0251 10.1295C39.1558 10.2716 39.3319 10.3923 39.5535 10.4917C39.778 10.5912 40.0663 10.6409 40.4186 10.6409C40.9015 10.6409 41.3007 10.523 41.616 10.2872C41.9314 10.0542 42.089 9.68208 42.089 9.17072V7.88379H42.0081C41.9314 8.02299 41.8206 8.17782 41.6757 8.34828C41.5336 8.51873 41.3376 8.66646 41.0876 8.79146C40.8376 8.91646 40.5123 8.97896 40.1118 8.97896C39.5947 8.97896 39.1288 8.85822 38.714 8.61674C38.3021 8.37243 37.9754 8.01305 37.7339 7.53862C37.4953 7.06135 37.376 6.4747 37.376 5.77868C37.376 5.08265 37.4939 4.48606 37.7297 3.9889C37.9683 3.49174 38.295 3.11106 38.7098 2.84686C39.1246 2.57981 39.5947 2.44629 40.1203 2.44629C40.5265 2.44629 40.8547 2.51447 41.1047 2.65083C41.3547 2.78436 41.5493 2.94061 41.6885 3.11958C41.8305 3.29856 41.9399 3.45623 42.0166 3.5926H42.1104V2.53152H43.3589V9.22186C43.3589 9.78436 43.2283 10.246 42.9669 10.6068C42.7055 10.9676 42.3518 11.2346 41.9058 11.4079C41.4626 11.5812 40.9626 11.6679 40.4058 11.6679ZM40.393 7.92214C40.7595 7.92214 41.0692 7.83691 41.322 7.66646C41.5777 7.49316 41.7709 7.24601 41.9015 6.92498C42.0351 6.60112 42.1018 6.21333 42.1018 5.76163C42.1018 5.32129 42.0365 4.93351 41.9058 4.59828C41.7751 4.26305 41.5834 4.00169 41.3305 3.81419C41.0777 3.62385 40.7652 3.52868 40.393 3.52868C40.0095 3.52868 39.6899 3.62811 39.4342 3.82697C39.1785 4.02299 38.9854 4.29004 38.8547 4.62811C38.7268 4.96618 38.6629 5.34402 38.6629 5.76163C38.6629 6.19061 38.7283 6.56703 38.8589 6.89089C38.9896 7.21475 39.1828 7.4676 39.4385 7.64941C39.697 7.83123 40.0152 7.92214 40.393 7.92214Z" fill="white"/>
<path d="M34.6727 9.0767V2.53125H35.9468V9.0767H34.6727ZM35.3161 1.52131C35.0945 1.52131 34.9042 1.44744 34.7451 1.29972C34.5889 1.14915 34.5107 0.97017 34.5107 0.762784C34.5107 0.552557 34.5889 0.37358 34.7451 0.225852C34.9042 0.075284 35.0945 0 35.3161 0C35.5377 0 35.7267 0.075284 35.8829 0.225852C36.042 0.37358 36.1215 0.552557 36.1215 0.762784C36.1215 0.97017 36.042 1.14915 35.8829 1.29972C35.7267 1.44744 35.5377 1.52131 35.3161 1.52131Z" fill="white"/>
<path d="M25.8691 9.07688V0.349609H27.1859V4.14222H31.5368V0.349609H32.8578V9.07688H31.5368V5.27148H27.1859V9.07688H25.8691Z" fill="white"/>
<path d="M17.895 9.1962C17.2927 9.1962 16.7558 9.08541 16.2842 8.86381C15.8154 8.64222 15.4433 8.33683 15.1677 7.94762C14.8921 7.55842 14.7487 7.11239 14.7373 6.60955H16.5271C16.547 6.94762 16.689 7.22177 16.9532 7.432C17.2174 7.64222 17.5313 7.74734 17.895 7.74734C18.1847 7.74734 18.4404 7.68342 18.662 7.55558C18.8865 7.42489 19.0612 7.2445 19.1862 7.01438C19.314 6.78143 19.3779 6.51438 19.3779 6.21325C19.3779 5.90643 19.3126 5.63654 19.1819 5.40359C19.0541 5.17063 18.8765 4.98881 18.6492 4.85813C18.422 4.72745 18.162 4.66069 17.8694 4.65785C17.6137 4.65785 17.3651 4.7104 17.1237 4.81552C16.885 4.92063 16.699 5.0641 16.5654 5.24592L14.9248 4.95188L15.3382 0.349609H20.6734V1.85813H16.8595L16.6336 4.04421H16.6847C16.8382 3.8283 17.0697 3.64933 17.3794 3.50728C17.689 3.36523 18.0356 3.29421 18.4191 3.29421C18.9447 3.29421 19.4134 3.41779 19.8254 3.66495C20.2373 3.91211 20.5626 4.2516 20.8012 4.68342C21.0399 5.11239 21.1578 5.60671 21.1549 6.16637C21.1578 6.75444 21.0214 7.27717 20.7458 7.73455C20.4731 8.1891 20.091 8.54705 19.5995 8.80842C19.1109 9.06694 18.5427 9.1962 17.895 9.1962Z" fill="#EF8325"/>
<path d="M38.6499 30.1677V29.6308C38.6499 29.2231 38.7361 28.8486 38.9085 28.5072C39.0841 28.1625 39.3377 27.8874 39.6691 27.6819C40.0039 27.4731 40.4115 27.3687 40.8921 27.3687C41.3794 27.3687 41.7887 27.4714 42.1201 27.6769C42.4549 27.8824 42.7068 28.1575 42.8758 28.5022C43.0481 28.8436 43.1343 29.2198 43.1343 29.6308V30.1677C43.1343 30.5754 43.0481 30.9516 42.8758 31.2963C42.7035 31.6376 42.4499 31.9111 42.1151 32.1166C41.7804 32.3254 41.3727 32.4298 40.8921 32.4298C40.4049 32.4298 39.9956 32.3254 39.6642 32.1166C39.3327 31.9111 39.0808 31.6376 38.9085 31.2963C38.7361 30.9516 38.6499 30.5754 38.6499 30.1677ZM40.0967 29.6308V30.1677C40.0967 30.403 40.153 30.6251 40.2657 30.8339C40.3817 31.0427 40.5905 31.1471 40.8921 31.1471C41.1937 31.1471 41.3992 31.0444 41.5086 30.8389C41.6213 30.6334 41.6776 30.4097 41.6776 30.1677V29.6308C41.6776 29.3888 41.6246 29.1634 41.5186 28.9546C41.4125 28.7458 41.2037 28.6414 40.8921 28.6414C40.5938 28.6414 40.3867 28.7458 40.2707 28.9546C40.1547 29.1634 40.0967 29.3888 40.0967 29.6308ZM33.4248 24.341V23.8041C33.4248 23.3931 33.5126 23.0169 33.6883 22.6755C33.864 22.3308 34.1175 22.0557 34.449 21.8502C34.7837 21.6447 35.1881 21.542 35.662 21.542C36.1525 21.542 36.5635 21.6447 36.895 21.8502C37.2264 22.0557 37.4783 22.3308 37.6507 22.6755C37.823 23.0169 37.9092 23.3931 37.9092 23.8041V24.341C37.9092 24.752 37.8213 25.1282 37.6457 25.4695C37.4733 25.8109 37.2198 26.0844 36.885 26.2899C36.5536 26.492 36.1459 26.5931 35.662 26.5931C35.1781 26.5931 34.7688 26.4904 34.434 26.2849C34.1026 26.0761 33.8507 25.8026 33.6784 25.4646C33.5093 25.1232 33.4248 24.7487 33.4248 24.341ZM34.8815 23.8041V24.341C34.8815 24.5829 34.9378 24.8067 35.0505 25.0122C35.1665 25.2177 35.3704 25.3204 35.662 25.3204C35.9669 25.3204 36.1741 25.2177 36.2835 25.0122C36.3962 24.8067 36.4525 24.5829 36.4525 24.341V23.8041C36.4525 23.5621 36.3995 23.3367 36.2934 23.1279C36.1874 22.9191 35.9769 22.8147 35.662 22.8147C35.367 22.8147 35.1632 22.9208 35.0505 23.1329C34.9378 23.345 34.8815 23.5687 34.8815 23.8041ZM34.0811 32.0768L41.0811 21.895H42.3836L35.3836 32.0768H34.0811Z" fill="white"/>
<path d="M27.7718 32.2156C27.0692 32.2156 26.4428 32.0863 25.8926 31.8278C25.3457 31.5692 24.9115 31.213 24.59 30.7589C24.2685 30.3048 24.1011 29.7844 24.0879 29.1978H26.176C26.1992 29.5922 26.3649 29.9121 26.6731 30.1573C26.9814 30.4026 27.3476 30.5252 27.7718 30.5252C28.1099 30.5252 28.4082 30.4506 28.6667 30.3015C28.9286 30.149 29.1324 29.9386 29.2782 29.6701C29.4274 29.3983 29.502 29.0868 29.502 28.7354C29.502 28.3775 29.4257 28.0626 29.2733 27.7908C29.1241 27.5191 28.917 27.3069 28.6518 27.1545C28.3867 27.002 28.0834 26.9241 27.742 26.9208C27.4437 26.9208 27.1537 26.9821 26.872 27.1048C26.5936 27.2274 26.3765 27.3948 26.2207 27.6069L24.3066 27.2638L24.7889 21.8945H31.0133V23.6545H26.5637L26.3002 26.2049H26.3599C26.5389 25.953 26.809 25.7442 27.1703 25.5785C27.5315 25.4128 27.9359 25.3299 28.3833 25.3299C28.9965 25.3299 29.5434 25.4741 30.024 25.7624C30.5046 26.0508 30.8841 26.4469 31.1625 26.9506C31.4409 27.4511 31.5784 28.0278 31.5751 28.6808C31.5784 29.3668 31.4193 29.9767 31.0978 30.5103C30.7797 31.0406 30.3339 31.4582 29.7605 31.7631C29.1904 32.0647 28.5275 32.2156 27.7718 32.2156Z" fill="white"/>
<path d="M18.5885 32.2161C17.8461 32.2161 17.1849 32.0885 16.6048 31.8333C16.0281 31.5748 15.5724 31.2201 15.2377 30.7694C14.9062 30.3153 14.7355 29.7916 14.7256 29.1983H16.8932C16.9065 29.4469 16.9877 29.6657 17.1368 29.8546C17.2893 30.0402 17.4914 30.1844 17.7433 30.2871C17.9952 30.3899 18.2786 30.4412 18.5935 30.4412C18.9216 30.4412 19.2116 30.3832 19.4635 30.2672C19.7154 30.1512 19.9126 29.9905 20.0551 29.785C20.1977 29.5795 20.2689 29.3425 20.2689 29.074C20.2689 28.8023 20.1927 28.562 20.0402 28.3532C19.8911 28.141 19.6756 27.9753 19.3939 27.856C19.1155 27.7367 18.7841 27.677 18.3996 27.677H17.45V26.0961H18.3996C18.7244 26.0961 19.0111 26.0397 19.2597 25.927C19.5116 25.8143 19.7071 25.6586 19.8463 25.4597C19.9855 25.2575 20.0551 25.0222 20.0551 24.7537C20.0551 24.4985 19.9938 24.2748 19.8712 24.0826C19.7519 23.887 19.5828 23.7346 19.3641 23.6252C19.1486 23.5158 18.8968 23.4611 18.6084 23.4611C18.3167 23.4611 18.0499 23.5141 17.808 23.6202C17.566 23.723 17.3721 23.8704 17.2263 24.0627C17.0805 24.2549 17.0026 24.4803 16.9926 24.7388H14.9294C14.9394 24.1522 15.1067 23.6351 15.4316 23.1877C15.7564 22.7402 16.1939 22.3906 16.7441 22.1387C17.2976 21.8835 17.9223 21.7559 18.6183 21.7559C19.321 21.7559 19.9358 21.8835 20.4628 22.1387C20.9898 22.3939 21.3991 22.7386 21.6908 23.1728C21.9858 23.6036 22.1316 24.0875 22.1283 24.6245C22.1316 25.1945 21.9543 25.6702 21.5963 26.0513C21.2417 26.4325 20.7793 26.6744 20.2093 26.7772V26.8567C20.9583 26.9528 21.5284 27.213 21.9195 27.6373C22.3139 28.0582 22.5094 28.5852 22.5061 29.2182C22.5094 29.7982 22.3421 30.3136 22.004 30.7644C21.6692 31.2151 21.2069 31.5698 20.6169 31.8283C20.027 32.0868 19.3508 32.2161 18.5885 32.2161Z" fill="white"/>
</svg>
