<svg width="32" height="32" viewBox="0 0 32 32" fill="none" xmlns="http://www.w3.org/2000/svg">
<g clip-path="url(#clip0_3529_166)">
<path d="M20.0833 10.1667H19.5V9.58333C19.5 9.42862 19.4385 9.28025 19.3291 9.17085C19.2197 9.06146 19.0714 9 18.9167 9C18.762 9 18.6136 9.06146 18.5042 9.17085C18.3948 9.28025 18.3333 9.42862 18.3333 9.58333V10.1667H13.6667V9.58333C13.6667 9.42862 13.6052 9.28025 13.4958 9.17085C13.3864 9.06146 13.238 9 13.0833 9C12.9286 9 12.7803 9.06146 12.6709 9.17085C12.5615 9.28025 12.5 9.42862 12.5 9.58333V10.1667H11.9167C11.1434 10.1676 10.4021 10.4752 9.85529 11.022C9.30851 11.5687 9.00093 12.3101 9 13.0833L9 20.0833C9.00093 20.8566 9.30851 21.5979 9.85529 22.1447C10.4021 22.6915 11.1434 22.9991 11.9167 23H20.0833C20.8566 22.9991 21.5979 22.6915 22.1447 22.1447C22.6915 21.5979 22.9991 20.8566 23 20.0833V13.0833C22.9991 12.3101 22.6915 11.5687 22.1447 11.022C21.5979 10.4752 20.8566 10.1676 20.0833 10.1667ZM10.1667 13.0833C10.1667 12.6192 10.351 12.1741 10.6792 11.8459C11.0074 11.5177 11.4525 11.3333 11.9167 11.3333H20.0833C20.5475 11.3333 20.9926 11.5177 21.3208 11.8459C21.649 12.1741 21.8333 12.6192 21.8333 13.0833V13.6667H10.1667V13.0833ZM20.0833 21.8333H11.9167C11.4525 21.8333 11.0074 21.649 10.6792 21.3208C10.351 20.9926 10.1667 20.5475 10.1667 20.0833V14.8333H21.8333V20.0833C21.8333 20.5475 21.649 20.9926 21.3208 21.3208C20.9926 21.649 20.5475 21.8333 20.0833 21.8333Z" fill="white"/>
<path d="M16 18.625C16.4832 18.625 16.875 18.2332 16.875 17.75C16.875 17.2668 16.4832 16.875 16 16.875C15.5168 16.875 15.125 17.2668 15.125 17.75C15.125 18.2332 15.5168 18.625 16 18.625Z" fill="white"/>
<path d="M13.083 18.625C13.5663 18.625 13.958 18.2332 13.958 17.75C13.958 17.2668 13.5663 16.875 13.083 16.875C12.5998 16.875 12.208 17.2668 12.208 17.75C12.208 18.2332 12.5998 18.625 13.083 18.625Z" fill="white"/>
<path d="M18.917 18.625C19.4002 18.625 19.792 18.2332 19.792 17.75C19.792 17.2668 19.4002 16.875 18.917 16.875C18.4337 16.875 18.042 17.2668 18.042 17.75C18.042 18.2332 18.4337 18.625 18.917 18.625Z" fill="white"/>
</g>
<defs>
<clipPath id="clip0_3529_166">
<rect width="14" height="14" fill="white" transform="translate(9 9)"/>
</clipPath>
</defs>
</svg>
