<svg width="17" height="16" viewBox="0 0 17 16" fill="none" xmlns="http://www.w3.org/2000/svg">
<path d="M16.4883 8C16.4883 12.4183 12.9066 16 8.48828 16C4.07 16 0.488281 12.4183 0.488281 8C0.488281 3.58172 4.07 0 8.48828 0C12.9066 0 16.4883 3.58172 16.4883 8Z" fill="#0095FF" fill-opacity="0.2"/>
<path fill-rule="evenodd" clip-rule="evenodd" d="M8.48828 15C12.3543 15 15.4883 11.866 15.4883 8C15.4883 4.13401 12.3543 1 8.48828 1C4.62229 1 1.48828 4.13401 1.48828 8C1.48828 11.866 4.62229 15 8.48828 15ZM8.48828 16C12.9066 16 16.4883 12.4183 16.4883 8C16.4883 3.58172 12.9066 0 8.48828 0C4.07 0 0.488281 3.58172 0.488281 8C0.488281 12.4183 4.07 16 8.48828 16Z" fill="url(#paint0_linear_3388_11735)"/>
<path d="M11.4883 8C11.4883 9.65685 10.1451 11 8.48828 11C6.83143 11 5.48828 9.65685 5.48828 8C5.48828 6.34315 6.83143 5 8.48828 5C10.1451 5 11.4883 6.34315 11.4883 8Z" fill="#2693F5"/>
<defs>
<linearGradient id="paint0_linear_3388_11735" x1="8.48828" y1="0" x2="8.48828" y2="16" gradientUnits="userSpaceOnUse">
<stop stop-color="#00B3FF"/>
<stop offset="1" stop-color="#0095FF"/>
</linearGradient>
</defs>
</svg>
