<svg width="55" height="34" viewBox="0 0 55 34" fill="none" xmlns="http://www.w3.org/2000/svg">
<path d="M8.45117 4.72754C8.45117 6.93668 6.66031 8.72754 4.45117 8.72754C2.24203 8.72754 0.451172 6.93668 0.451172 4.72754C0.451172 2.5184 2.24203 0.727539 4.45117 0.727539C6.66031 0.727539 8.45117 2.5184 8.45117 4.72754Z" fill="#DCEEFD"/>
<path d="M47.0867 8.7271L45.2373 2.18164H46.8097L47.9603 6.78391H48.02L49.1961 2.18164H50.7515L51.9276 6.75835H51.9916L53.1251 2.18164H54.7018L52.8481 8.7271H51.2416L50.0143 4.3038H49.9248L48.6975 8.7271H47.0867Z" fill="white"/>
<path d="M41.4782 8.8552C40.839 8.8552 40.285 8.71458 39.8162 8.43333C39.3475 8.15208 38.9838 7.75861 38.7253 7.25293C38.4696 6.74725 38.3418 6.15634 38.3418 5.4802C38.3418 4.80407 38.4696 4.21174 38.7253 3.70321C38.9838 3.19469 39.3475 2.7998 39.8162 2.51855C40.285 2.2373 40.839 2.09668 41.4782 2.09668C42.1174 2.09668 42.6713 2.2373 43.1401 2.51855C43.6088 2.7998 43.9711 3.19469 44.2267 3.70321C44.4853 4.21174 44.6145 4.80407 44.6145 5.4802C44.6145 6.15634 44.4853 6.74725 44.2267 7.25293C43.9711 7.75861 43.6088 8.15208 43.1401 8.43333C42.6713 8.71458 42.1174 8.8552 41.4782 8.8552ZM41.4867 7.61941C41.8333 7.61941 42.123 7.52424 42.356 7.3339C42.589 7.14071 42.7623 6.88219 42.8759 6.55833C42.9924 6.23446 43.0506 5.87367 43.0506 5.47594C43.0506 5.07537 42.9924 4.71316 42.8759 4.38929C42.7623 4.06259 42.589 3.80265 42.356 3.60946C42.123 3.41628 41.8333 3.31969 41.4867 3.31969C41.1316 3.31969 40.8361 3.41628 40.6003 3.60946C40.3674 3.80265 40.1926 4.06259 40.0762 4.38929C39.9625 4.71316 39.9057 5.07537 39.9057 5.47594C39.9057 5.87367 39.9625 6.23446 40.0762 6.55833C40.1926 6.88219 40.3674 7.14071 40.6003 7.3339C40.8361 7.52424 41.1316 7.61941 41.4867 7.61941Z" fill="white"/>
<path d="M31.8936 8.72727V0H33.4745V7.40199H37.3183V8.72727H31.8936Z" fill="white"/>
<path d="M24.2172 8.84659C23.615 8.84659 23.078 8.7358 22.6064 8.5142C22.1377 8.29261 21.7655 7.98722 21.49 7.59801C21.2144 7.20881 21.0709 6.76278 21.0596 6.25994H22.8493C22.8692 6.59801 23.0113 6.87216 23.2755 7.08239C23.5397 7.29261 23.8536 7.39773 24.2172 7.39773C24.507 7.39773 24.7627 7.33381 24.9843 7.20597C25.2087 7.07528 25.3834 6.89489 25.5084 6.66477C25.6363 6.43182 25.7002 6.16477 25.7002 5.86364C25.7002 5.55682 25.6349 5.28693 25.5042 5.05398C25.3763 4.82102 25.1988 4.6392 24.9715 4.50852C24.7442 4.37784 24.4843 4.31108 24.1917 4.30824C23.936 4.30824 23.6874 4.3608 23.4459 4.46591C23.2073 4.57102 23.0212 4.71449 22.8877 4.89631L21.2471 4.60227L21.6604 0H26.9957V1.50852H23.1817L22.9559 3.6946H23.007C23.1604 3.47869 23.392 3.29972 23.7016 3.15767C24.0113 3.01562 24.3579 2.9446 24.7414 2.9446C25.267 2.9446 25.7357 3.06818 26.1476 3.31534C26.5596 3.5625 26.8849 3.90199 27.1235 4.33381C27.3621 4.76278 27.48 5.2571 27.4772 5.81676C27.48 6.40483 27.3437 6.92756 27.0681 7.38494C26.7954 7.83949 26.4133 8.19744 25.9218 8.45881C25.4331 8.71733 24.865 8.84659 24.2172 8.84659Z" fill="#DCEEFD"/>
<path d="M18.9554 0V8.72727H17.1103V1.75142H17.0591L15.0605 3.00426V1.3679L17.2211 0H18.9554Z" fill="#DCEEFD"/>
<path d="M39.7164 30.8181V30.2812C39.7164 29.8735 39.8025 29.499 39.9749 29.1576C40.1505 28.8129 40.4041 28.5378 40.7355 28.3323C41.0703 28.1235 41.478 28.0191 41.9585 28.0191C42.4458 28.0191 42.8551 28.1218 43.1865 28.3273C43.5213 28.5328 43.7732 28.8079 43.9422 29.1526C44.1146 29.494 44.2007 29.8702 44.2007 30.2812V30.8181C44.2007 31.2258 44.1146 31.6019 43.9422 31.9466C43.7699 32.288 43.5163 32.5615 43.1816 32.767C42.8468 32.9758 42.4391 33.0802 41.9585 33.0802C41.4713 33.0802 41.062 32.9758 40.7306 32.767C40.3991 32.5615 40.1472 32.288 39.9749 31.9466C39.8025 31.6019 39.7164 31.2258 39.7164 30.8181ZM41.1631 30.2812V30.8181C41.1631 31.0534 41.2194 31.2755 41.3321 31.4843C41.4481 31.6931 41.6569 31.7975 41.9585 31.7975C42.2601 31.7975 42.4656 31.6947 42.575 31.4893C42.6877 31.2838 42.7441 31.06 42.7441 30.8181V30.2812C42.7441 30.0392 42.691 29.8138 42.585 29.605C42.4789 29.3962 42.2701 29.2918 41.9585 29.2918C41.6602 29.2918 41.4531 29.3962 41.3371 29.605C41.2211 29.8138 41.1631 30.0392 41.1631 30.2812ZM34.4912 24.9914V24.4545C34.4912 24.0435 34.579 23.6673 34.7547 23.3259C34.9304 22.9812 35.1839 22.7061 35.5154 22.5006C35.8501 22.2951 36.2545 22.1924 36.7284 22.1924C37.219 22.1924 37.6299 22.2951 37.9614 22.5006C38.2928 22.7061 38.5447 22.9812 38.7171 23.3259C38.8894 23.6673 38.9756 24.0435 38.9756 24.4545V24.9914C38.9756 25.4024 38.8878 25.7786 38.7121 26.1199C38.5397 26.4613 38.2862 26.7348 37.9514 26.9403C37.62 27.1424 37.2123 27.2435 36.7284 27.2435C36.2445 27.2435 35.8352 27.1408 35.5004 26.9353C35.169 26.7265 34.9171 26.453 34.7448 26.115C34.5757 25.7736 34.4912 25.3991 34.4912 24.9914ZM35.9479 24.4545V24.9914C35.9479 25.2333 36.0042 25.4571 36.1169 25.6626C36.2329 25.868 36.4368 25.9708 36.7284 25.9708C37.0333 25.9708 37.2405 25.868 37.3499 25.6626C37.4626 25.4571 37.5189 25.2333 37.5189 24.9914V24.4545C37.5189 24.2125 37.4659 23.9871 37.3598 23.7783C37.2538 23.5695 37.0433 23.4651 36.7284 23.4651C36.4334 23.4651 36.2296 23.5712 36.1169 23.7833C36.0042 23.9954 35.9479 24.2191 35.9479 24.4545ZM35.1475 32.7272L42.1475 22.5454H43.45L36.45 32.7272H35.1475Z" fill="white"/>
<path d="M28.4973 32.951C27.6422 32.9477 26.9064 32.7372 26.2899 32.3196C25.6767 31.902 25.2044 31.2971 24.873 30.505C24.5449 29.7128 24.3825 28.7599 24.3858 27.6463C24.3858 26.536 24.5499 25.5897 24.878 24.8075C25.2094 24.0253 25.6817 23.4304 26.2949 23.0227C26.9114 22.6117 27.6455 22.4062 28.4973 22.4062C29.3491 22.4062 30.0816 22.6117 30.6947 23.0227C31.3112 23.4337 31.7852 24.0303 32.1166 24.8125C32.4481 25.5914 32.6121 26.536 32.6088 27.6463C32.6088 28.7633 32.4431 29.7178 32.1116 30.5099C31.7835 31.3021 31.3129 31.907 30.6997 32.3246C30.0865 32.7422 29.3524 32.951 28.4973 32.951ZM28.4973 31.1662C29.0806 31.1662 29.5463 30.8729 29.8943 30.2862C30.2423 29.6996 30.4147 28.8196 30.4114 27.6463C30.4114 26.8741 30.3318 26.2311 30.1727 25.7173C30.0169 25.2036 29.7949 24.8175 29.5065 24.5589C29.2215 24.3004 28.8851 24.1712 28.4973 24.1712C27.9173 24.1712 27.4533 24.4612 27.1053 25.0412C26.7572 25.6212 26.5816 26.4896 26.5783 27.6463C26.5783 28.4285 26.6562 29.0814 26.8119 29.6051C26.971 30.1255 27.1947 30.5166 27.4831 30.7784C27.7714 31.0369 28.1095 31.1662 28.4973 31.1662Z" fill="white"/>
<path d="M19.0397 32.8665C18.2973 32.8665 17.636 32.7389 17.056 32.4837C16.4793 32.2251 16.0236 31.8705 15.6888 31.4197C15.3574 30.9657 15.1867 30.442 15.1768 29.8487H17.3444C17.3576 30.0973 17.4388 30.3161 17.588 30.505C17.7404 30.6906 17.9426 30.8348 18.1945 30.9375C18.4464 31.0402 18.7298 31.0916 19.0447 31.0916C19.3728 31.0916 19.6628 31.0336 19.9147 30.9176C20.1666 30.8016 20.3638 30.6409 20.5063 30.4354C20.6488 30.2299 20.7201 29.9929 20.7201 29.7244C20.7201 29.4527 20.6439 29.2124 20.4914 29.0036C20.3422 28.7914 20.1268 28.6257 19.8451 28.5064C19.5667 28.3871 19.2352 28.3274 18.8508 28.3274H17.9012V26.7464H18.8508C19.1756 26.7464 19.4623 26.6901 19.7108 26.5774C19.9627 26.4647 20.1583 26.3089 20.2975 26.1101C20.4367 25.9079 20.5063 25.6726 20.5063 25.4041C20.5063 25.1489 20.445 24.9252 20.3224 24.733C20.203 24.5374 20.034 24.3849 19.8153 24.2756C19.5998 24.1662 19.3479 24.1115 19.0596 24.1115C18.7679 24.1115 18.5011 24.1645 18.2591 24.2706C18.0172 24.3733 17.8233 24.5208 17.6775 24.7131C17.5316 24.9053 17.4537 25.1307 17.4438 25.3892H15.3806C15.3905 24.8026 15.5579 24.2855 15.8827 23.8381C16.2075 23.3906 16.645 23.041 17.1952 22.7891C17.7487 22.5339 18.3735 22.4062 19.0695 22.4062C19.7722 22.4062 20.387 22.5339 20.914 22.7891C21.441 23.0443 21.8503 23.389 22.142 23.8232C22.4369 24.254 22.5828 24.7379 22.5795 25.2749C22.5828 25.8449 22.4055 26.3205 22.0475 26.7017C21.6929 27.0829 21.2305 27.3248 20.6604 27.4276V27.5071C21.4095 27.6032 21.9796 27.8634 22.3707 28.2876C22.7651 28.7086 22.9606 29.2356 22.9573 29.8686C22.9606 30.4486 22.7932 30.964 22.4552 31.4148C22.1204 31.8655 21.6581 32.2202 21.0681 32.4787C20.4781 32.7372 19.802 32.8665 19.0397 32.8665Z" fill="white"/>
</svg>
