<svg width="32" height="32" viewBox="0 0 32 32" fill="none" xmlns="http://www.w3.org/2000/svg">
<rect width="32" height="32" rx="6" fill="url(#paint0_linear_3529_219)"/>
<g clip-path="url(#clip0_3529_219)">
<path d="M22.116 15.4025L15.9997 19.0728L9.88346 15.4025C9.7508 15.3229 9.59195 15.2992 9.44186 15.3368C9.29177 15.3743 9.16273 15.4699 9.08313 15.6026C9.00353 15.7352 8.9799 15.8941 9.01742 16.0442C9.05494 16.1942 9.15055 16.3233 9.28321 16.4029L15.6999 20.2529C15.7906 20.3074 15.8945 20.3362 16.0003 20.3362C16.1061 20.3362 16.21 20.3074 16.3007 20.2529L22.7174 16.4029C22.85 16.3233 22.9457 16.1942 22.9832 16.0442C23.0207 15.8941 22.9971 15.7352 22.9175 15.6026C22.8379 15.4699 22.7088 15.3743 22.5587 15.3368C22.4086 15.2992 22.2498 15.3229 22.1171 15.4025H22.116Z" fill="white"/>
<path d="M22.116 18.0665L15.9997 21.7363L9.88346 18.0665C9.81777 18.0271 9.74497 18.001 9.6692 17.9898C9.59343 17.9785 9.51618 17.9822 9.44186 18.0008C9.36754 18.0194 9.29761 18.0524 9.23606 18.098C9.17451 18.1436 9.12254 18.2009 9.08313 18.2666C9.04372 18.3323 9.01763 18.4051 9.00635 18.4809C8.99508 18.5567 8.99884 18.6339 9.01742 18.7082C9.05494 18.8583 9.15055 18.9874 9.28321 19.067L15.6999 22.917C15.7906 22.9715 15.8945 23.0003 16.0003 23.0003C16.1061 23.0003 16.21 22.9715 16.3007 22.917L22.7174 19.067C22.85 18.9874 22.9457 18.8583 22.9832 18.7082C23.0207 18.5581 22.9971 18.3993 22.9175 18.2666C22.8379 18.134 22.7088 18.0383 22.5587 18.0008C22.4086 17.9633 22.2498 17.9869 22.1171 18.0665H22.116Z" fill="white"/>
<path d="M9.28273 13.875L15.1067 17.3698C15.3764 17.532 15.6851 17.6177 15.9998 17.6177C16.3145 17.6177 16.6232 17.532 16.8929 17.3698L22.7169 13.875C22.8031 13.8232 22.8745 13.7499 22.9241 13.6623C22.9736 13.5747 22.9996 13.4758 22.9996 13.3751C22.9996 13.2745 22.9736 13.1755 22.9241 13.0879C22.8745 13.0004 22.8031 12.9271 22.7169 12.8752L16.8929 9.38045C16.6232 9.21841 16.3145 9.13281 15.9998 9.13281C15.6852 9.13281 15.3764 9.21841 15.1067 9.38045L9.28273 12.8752C9.19648 12.9271 9.12512 13.0004 9.07558 13.0879C9.02604 13.1755 9 13.2745 9 13.3751C9 13.4758 9.02604 13.5747 9.07558 13.6623C9.12512 13.7499 9.19648 13.8232 9.28273 13.875Z" fill="#1961A2"/>
</g>
<defs>
<linearGradient id="paint0_linear_3529_219" x1="-3.40594" y1="59" x2="33.6127" y2="58.0293" gradientUnits="userSpaceOnUse">
<stop stop-color="#2693F5"/>
<stop offset="1" stop-color="#19CAFF"/>
</linearGradient>
<clipPath id="clip0_3529_219">
<rect width="14" height="14" fill="white" transform="translate(9 9)"/>
</clipPath>
</defs>
</svg>
