<svg width="35" height="14" viewBox="0 0 35 14" fill="none" xmlns="http://www.w3.org/2000/svg">
<path d="M34.5032 2.95357V4.14675H30.332V2.95357H34.5032ZM31.4506 1.12402H32.9371V8.34774C32.9371 8.6361 32.9802 8.85319 33.0664 8.99902C33.1526 9.14154 33.2636 9.23932 33.3995 9.29235C33.5387 9.34206 33.6895 9.36692 33.8519 9.36692C33.9712 9.36692 34.0756 9.35863 34.1651 9.34206C34.2546 9.32549 34.3242 9.31223 34.3739 9.30229L34.6424 10.5303C34.5562 10.5634 34.4336 10.5966 34.2745 10.6297C34.1154 10.6662 33.9165 10.6861 33.6779 10.6894C33.2868 10.696 32.9222 10.6264 32.5842 10.4806C32.2461 10.3347 31.9727 10.1093 31.7638 9.80442C31.555 9.4995 31.4506 9.11668 31.4506 8.65598V1.12402Z" fill="#818798"/>
<path d="M24.0031 6.05495V10.589H22.5166V0.407227H23.9832V4.19558H24.0777C24.2567 3.78459 24.5301 3.45813 24.898 3.21618C25.2659 2.97422 25.7465 2.85325 26.3398 2.85325C26.8634 2.85325 27.3208 2.96097 27.7119 3.1764C28.1063 3.39184 28.4113 3.71333 28.6267 4.14089C28.8454 4.56513 28.9548 5.09544 28.9548 5.7318V10.589H27.4683V5.91078C27.4683 5.35065 27.3241 4.91646 27.0358 4.60822C26.7474 4.29667 26.3464 4.14089 25.8327 4.14089C25.4813 4.14089 25.1665 4.21547 24.8881 4.36461C24.613 4.51376 24.3959 4.73251 24.2368 5.02086C24.081 5.3059 24.0031 5.6506 24.0031 6.05495Z" fill="#818798"/>
<path d="M17.0778 13.612C16.4712 13.612 15.9492 13.5325 15.5117 13.3734C15.0775 13.2143 14.7229 13.0038 14.4478 12.742C14.1727 12.4802 13.9672 12.1935 13.8313 11.8819L15.109 11.3549C15.1985 11.5008 15.3178 11.6549 15.467 11.8173C15.6194 11.983 15.8249 12.1239 16.0835 12.2399C16.3453 12.3559 16.6817 12.4139 17.0927 12.4139C17.6561 12.4139 18.1218 12.2763 18.4897 12.0012C18.8576 11.7295 19.0415 11.2953 19.0415 10.6987V9.19727H18.9471C18.8576 9.35967 18.7283 9.54031 18.5593 9.73917C18.3936 9.93803 18.1649 10.1104 17.8732 10.2562C17.5816 10.402 17.2021 10.475 16.7347 10.475C16.1315 10.475 15.5879 10.3341 15.104 10.0524C14.6235 9.76734 14.2423 9.34807 13.9606 8.79457C13.6822 8.23775 13.543 7.55333 13.543 6.7413C13.543 5.92927 13.6805 5.23325 13.9556 4.65323C14.234 4.07321 14.6152 3.62908 15.0991 3.32085C15.583 3.00929 16.1315 2.85352 16.7447 2.85352C17.2186 2.85352 17.6014 2.93306 17.8931 3.09215C18.1848 3.24793 18.4118 3.43022 18.5742 3.63903C18.7399 3.84783 18.8675 4.03178 18.957 4.19087H19.0664V2.95295H20.5231V10.7583C20.5231 11.4146 20.3706 11.9532 20.0657 12.3741C19.7608 12.795 19.3481 13.1066 18.8278 13.3088C18.3107 13.5109 17.7274 13.612 17.0778 13.612ZM17.0629 9.24201C17.4904 9.24201 17.8517 9.14258 18.1467 8.94371C18.445 8.74154 18.6703 8.45318 18.8228 8.07866C18.9786 7.70082 19.0565 7.2484 19.0565 6.72141C19.0565 6.20768 18.9802 5.75527 18.8278 5.36417C18.6753 4.97307 18.4516 4.66815 18.1566 4.4494C17.8616 4.22733 17.497 4.1163 17.0629 4.1163C16.6154 4.1163 16.2425 4.2323 15.9442 4.46431C15.646 4.693 15.4206 5.00456 15.2681 5.39897C15.119 5.79338 15.0444 6.2342 15.0444 6.72141C15.0444 7.22189 15.1206 7.66104 15.2731 8.03888C15.4255 8.41673 15.6509 8.71171 15.9492 8.92383C16.2508 9.13595 16.622 9.24201 17.0629 9.24201Z" fill="#818798"/>
<path d="M10.3891 10.5895V2.95312H11.8756V10.5895H10.3891ZM11.1398 1.77486C10.8813 1.77486 10.6592 1.68868 10.4736 1.51634C10.2913 1.34067 10.2002 1.13187 10.2002 0.889915C10.2002 0.64465 10.2913 0.435843 10.4736 0.263494C10.6592 0.0878313 10.8813 0 11.1398 0C11.3983 0 11.6188 0.0878313 11.801 0.263494C11.9867 0.435843 12.0795 0.64465 12.0795 0.889915C12.0795 1.13187 11.9867 1.34067 11.801 1.51634C11.6188 1.68868 11.3983 1.77486 11.1398 1.77486Z" fill="#818798"/>
<path d="M0.118164 10.589V0.407227H1.65439V4.83194H6.73038V0.407227H8.27157V10.589H6.73038V6.14941H1.65439V10.589H0.118164Z" fill="#818798"/>
</svg>
