<svg width="562" height="1" viewBox="0 0 562 1" fill="none" xmlns="http://www.w3.org/2000/svg">
<path fill-rule="evenodd" clip-rule="evenodd" d="M0 0.5C0 0.223858 0.223858 0 0.5 0H2.00179V1H0.5C0.223858 1 0 0.776142 0 0.5ZM3.00536 0H6.00893V1H3.00536V0ZM7.0125 0H10.0161V1H7.0125V0ZM11.0196 0H14.0232V1H11.0196V0ZM15.0268 0H18.0304V1H15.0268V0ZM19.0339 0H22.0375V1H19.0339V0ZM23.0411 0H26.0446V1H23.0411V0ZM27.0482 0H30.0518V1H27.0482V0ZM31.0553 0H34.0589V1H31.0553V0ZM35.0625 0H38.0661V1H35.0625V0ZM39.0696 0H42.0732V1H39.0696V0ZM43.0768 0H46.0803V1H43.0768V0ZM47.0839 0H50.0875V1H47.0839V0ZM51.0911 0H54.0946V1H51.0911V0ZM55.0982 0H58.1018V1H55.0982V0ZM59.1053 0H62.1089V1H59.1053V0ZM63.1125 0H66.116V1H63.1125V0ZM67.1196 0H70.1232V1H67.1196V0ZM71.1268 0H74.1303V1H71.1268V0ZM75.1339 0H78.1375V1H75.1339V0ZM79.141 0H82.1446V1H79.141V0ZM83.1482 0H86.1517V1H83.1482V0ZM87.1553 0H90.1589V1H87.1553V0ZM91.1625 0H94.166V1H91.1625V0ZM95.1696 0H98.1732V1H95.1696V0ZM99.1767 0H102.18V1H99.1767V0ZM103.184 0H106.187V1H103.184V0ZM107.191 0H110.195V1H107.191V0ZM111.198 0H114.202V1H111.198V0ZM115.205 0H118.209V1H115.205V0ZM119.212 0H122.216V1H119.212V0ZM123.22 0H126.223V1H123.22V0ZM127.227 0H130.23V1H127.227V0ZM131.234 0H134.237V1H131.234V0ZM135.241 0H138.245V1H135.241V0ZM139.248 0H142.252V1H139.248V0ZM143.255 0H146.259V1H143.255V0ZM147.262 0H150.266V1H147.262V0ZM151.27 0H154.273V1H151.27V0ZM155.277 0H158.28V1H155.277V0ZM159.284 0H162.287V1H159.284V0ZM163.291 0H166.295V1H163.291V0ZM167.298 0H170.302V1H167.298V0ZM171.305 0H174.309V1H171.305V0ZM175.312 0H178.316V1H175.312V0ZM179.32 0H182.323V1H179.32V0ZM183.327 0H186.33V1H183.327V0ZM187.334 0H190.337V1H187.334V0ZM191.341 0H194.345V1H191.341V0ZM195.348 0H198.352V1H195.348V0ZM199.355 0H202.359V1H199.355V0ZM203.362 0H206.366V1H203.362V0ZM207.37 0H210.373V1H207.37V0ZM211.377 0H214.38V1H211.377V0ZM215.384 0H218.387V1H215.384V0ZM219.391 0H222.395V1H219.391V0ZM223.398 0H226.402V1H223.398V0ZM227.405 0H230.409V1H227.405V0ZM231.412 0H234.416V1H231.412V0ZM235.42 0H238.423V1H235.42V0ZM239.427 0H242.43V1H239.427V0ZM243.434 0H246.437V1H243.434V0ZM247.441 0H250.445V1H247.441V0ZM251.448 0H254.452V1H251.448V0ZM255.455 0H258.459V1H255.455V0ZM259.462 0H262.466V1H259.462V0ZM263.47 0H266.473V1H263.47V0ZM267.477 0H270.48V1H267.477V0ZM271.484 0H274.487V1H271.484V0ZM275.491 0H278.495V1H275.491V0ZM279.498 0H282.502V1H279.498V0ZM283.505 0H286.509V1H283.505V0ZM287.512 0H290.516V1H287.512V0ZM291.52 0H294.523V1H291.52V0ZM295.527 0H298.53V1H295.527V0ZM299.534 0H302.537V1H299.534V0ZM303.541 0H306.544V1H303.541V0ZM307.548 0H310.552V1H307.548V0ZM311.555 0H314.559V1H311.555V0ZM315.562 0H318.566V1H315.562V0ZM319.57 0H322.573V1H319.57V0ZM323.577 0H326.58V1H323.577V0ZM327.584 0H330.587V1H327.584V0ZM331.591 0H334.595V1H331.591V0ZM335.598 0H338.602V1H335.598V0ZM339.605 0H342.609V1H339.605V0ZM343.612 0H346.616V1H343.612V0ZM347.62 0H350.623V1H347.62V0ZM351.627 0H354.63V1H351.627V0ZM355.634 0H358.637V1H355.634V0ZM359.641 0H362.644V1H359.641V0ZM363.648 0H366.652V1H363.648V0ZM367.655 0H370.659V1H367.655V0ZM371.662 0H374.666V1H371.662V0ZM375.669 0H378.673V1H375.669V0ZM379.677 0H382.68V1H379.677V0ZM383.684 0H386.687V1H383.684V0ZM387.691 0H390.694V1H387.691V0ZM391.698 0H394.702V1H391.698V0ZM395.705 0H398.709V1H395.705V0ZM399.712 0H402.716V1H399.712V0ZM403.719 0H406.723V1H403.719V0ZM407.727 0H410.73V1H407.727V0ZM411.734 0H414.737V1H411.734V0ZM415.741 0H418.744V1H415.741V0ZM419.748 0H422.752V1H419.748V0ZM423.755 0H426.759V1H423.755V0ZM427.762 0H430.766V1H427.762V0ZM431.769 0H434.773V1H431.769V0ZM435.777 0H438.78V1H435.777V0ZM439.784 0H442.787V1H439.784V0ZM443.791 0H446.794V1H443.791V0ZM447.798 0H450.802V1H447.798V0ZM451.805 0H454.809V1H451.805V0ZM455.812 0H458.816V1H455.812V0ZM459.819 0H462.823V1H459.819V0ZM463.827 0H466.83V1H463.827V0ZM467.834 0H470.837V1H467.834V0ZM471.841 0H474.844V1H471.841V0ZM475.848 0H478.852V1H475.848V0ZM479.855 0H482.859V1H479.855V0ZM483.862 0H486.866V1H483.862V0ZM487.869 0H490.873V1H487.869V0ZM491.877 0H494.88V1H491.877V0ZM495.884 0H498.887V1H495.884V0ZM499.891 0H502.894V1H499.891V0ZM503.898 0H506.902V1H503.898V0ZM507.905 0H510.909V1H507.905V0ZM511.912 0H514.916V1H511.912V0ZM515.919 0H518.923V1H515.919V0ZM519.927 0H522.93V1H519.927V0ZM523.934 0H526.938V1H523.934V0ZM527.941 0H530.945V1H527.941V0ZM531.948 0H534.952V1H531.948V0ZM535.956 0H538.959V1H535.956V0ZM539.963 0H542.966V1H539.963V0ZM543.97 0H546.974V1H543.97V0ZM547.977 0H550.981V1H547.977V0ZM551.984 0H554.988V1H551.984V0ZM555.992 0H558.995V1H555.992V0ZM559.999 0H562V1H559.999V0Z" fill="#2B2B32"/>
</svg>
