<svg width="849" height="1" viewBox="0 0 849 1" fill="none" xmlns="http://www.w3.org/2000/svg">
<path fill-rule="evenodd" clip-rule="evenodd" d="M0 0.600195C0 0.379281 0.179086 0.200195 0.4 0.200195H1.4V1.0002H0.4C0.179086 1.0002 0 0.821109 0 0.600195ZM5.4 1.0002H3.4V0.200195H5.4V1.0002ZM9.4 1.0002H7.4V0.200195H9.4V1.0002ZM13.4 1.0002H11.4V0.200195H13.4V1.0002ZM17.4 1.0002H15.4V0.200195H17.4V1.0002ZM21.4 1.0002H19.4V0.200195H21.4V1.0002ZM25.4 1.0002H23.4V0.200195H25.4V1.0002ZM29.4 1.0002H27.4V0.200195H29.4V1.0002ZM33.4 1.0002H31.4V0.200195H33.4V1.0002ZM37.4 1.0002H35.4V0.200195H37.4V1.0002ZM41.4 1.0002H39.4V0.200195H41.4V1.0002ZM45.4 1.0002H43.4V0.200195H45.4V1.0002ZM49.4 1.0002H47.4V0.200195H49.4V1.0002ZM53.4 1.0002H51.4V0.200195H53.4V1.0002ZM57.4 1.0002H55.4V0.200195H57.4V1.0002ZM61.4 1.0002H59.4V0.200195H61.4V1.0002ZM65.4 1.0002H63.4V0.200195H65.4V1.0002ZM69.4 1.0002H67.4V0.200195H69.4V1.0002ZM73.4 1.0002H71.4V0.200195H73.4V1.0002ZM77.4 1.0002H75.4V0.200195H77.4V1.0002ZM81.4 1.0002H79.4V0.200195H81.4V1.0002ZM85.4 1.0002H83.4V0.200195H85.4V1.0002ZM89.4 1.0002H87.4V0.200195H89.4V1.0002ZM93.4 1.0002H91.4V0.200195H93.4V1.0002ZM97.4 1.0002H95.4V0.200195H97.4V1.0002ZM101.4 1.0002H99.4V0.200195H101.4V1.0002ZM105.4 1.0002H103.4V0.200195H105.4V1.0002ZM109.4 1.0002H107.4V0.200195H109.4V1.0002ZM113.4 1.0002H111.4V0.200195H113.4V1.0002ZM117.4 1.0002H115.4V0.200195H117.4V1.0002ZM121.4 1.0002H119.4V0.200195H121.4V1.0002ZM125.4 1.0002H123.4V0.200195H125.4V1.0002ZM129.4 1.0002H127.4V0.200195H129.4V1.0002ZM133.4 1.0002H131.4V0.200195H133.4V1.0002ZM137.4 1.0002H135.4V0.200195H137.4V1.0002ZM141.4 1.0002H139.4V0.200195H141.4V1.0002ZM145.4 1.0002H143.4V0.200195H145.4V1.0002ZM149.4 1.0002H147.4V0.200195H149.4V1.0002ZM153.4 1.0002H151.4V0.200195H153.4V1.0002ZM157.4 1.0002H155.4V0.200195H157.4V1.0002ZM161.4 1.0002H159.4V0.200195H161.4V1.0002ZM165.4 1.0002H163.4V0.200195H165.4V1.0002ZM169.4 1.0002H167.4V0.200195H169.4V1.0002ZM173.4 1.0002H171.4V0.200195H173.4V1.0002ZM177.4 1.0002H175.4V0.200195H177.4V1.0002ZM181.4 1.0002H179.4V0.200195H181.4V1.0002ZM185.4 1.0002H183.4V0.200195H185.4V1.0002ZM189.4 1.0002H187.4V0.200195H189.4V1.0002ZM193.4 1.0002H191.4V0.200195H193.4V1.0002ZM197.4 1.0002H195.4V0.200195H197.4V1.0002ZM201.4 1.0002H199.4V0.200195H201.4V1.0002ZM205.4 1.0002H203.4V0.200195H205.4V1.0002ZM209.4 1.0002H207.4V0.200195H209.4V1.0002ZM213.4 1.0002H211.4V0.200195H213.4V1.0002ZM217.4 1.0002H215.4V0.200195H217.4V1.0002ZM221.4 1.0002H219.4V0.200195H221.4V1.0002ZM225.4 1.0002H223.4V0.200195H225.4V1.0002ZM229.4 1.0002H227.4V0.200195H229.4V1.0002ZM233.4 1.0002H231.4V0.200195H233.4V1.0002ZM237.4 1.0002H235.4V0.200195H237.4V1.0002ZM241.4 1.0002H239.4V0.200195H241.4V1.0002ZM245.4 1.0002H243.4V0.200195H245.4V1.0002ZM249.4 1.0002H247.4V0.200195H249.4V1.0002ZM253.4 1.0002H251.4V0.200195H253.4V1.0002ZM257.4 1.0002H255.4V0.200195H257.4V1.0002ZM261.4 1.0002H259.4V0.200195H261.4V1.0002ZM265.4 1.0002H263.4V0.200195H265.4V1.0002ZM269.4 1.0002H267.4V0.200195H269.4V1.0002ZM273.4 1.0002H271.4V0.200195H273.4V1.0002ZM277.4 1.0002H275.4V0.200195H277.4V1.0002ZM281.4 1.0002H279.4V0.200195H281.4V1.0002ZM285.4 1.0002H283.4V0.200195H285.4V1.0002ZM289.4 1.0002H287.4V0.200195H289.4V1.0002ZM293.4 1.0002H291.4V0.200195H293.4V1.0002ZM297.4 1.0002H295.4V0.200195H297.4V1.0002ZM301.4 1.0002H299.4V0.200195H301.4V1.0002ZM305.4 1.0002H303.4V0.200195H305.4V1.0002ZM309.4 1.0002H307.4V0.200195H309.4V1.0002ZM313.4 1.0002H311.4V0.200195H313.4V1.0002ZM317.4 1.0002H315.4V0.200195H317.4V1.0002ZM321.4 1.0002H319.4V0.200195H321.4V1.0002ZM325.4 1.0002H323.4V0.200195H325.4V1.0002ZM329.4 1.0002H327.4V0.200195H329.4V1.0002ZM333.4 1.0002H331.4V0.200195H333.4V1.0002ZM337.4 1.0002H335.4V0.200195H337.4V1.0002ZM341.4 1.0002H339.4V0.200195H341.4V1.0002ZM345.4 1.0002H343.4V0.200195H345.4V1.0002ZM349.4 1.0002H347.4V0.200195H349.4V1.0002ZM353.4 1.0002H351.4V0.200195H353.4V1.0002ZM357.4 1.0002H355.4V0.200195H357.4V1.0002ZM361.4 1.0002H359.4V0.200195H361.4V1.0002ZM365.4 1.0002H363.4V0.200195H365.4V1.0002ZM369.4 1.0002H367.4V0.200195H369.4V1.0002ZM373.4 1.0002H371.4V0.200195H373.4V1.0002ZM377.4 1.0002H375.4V0.200195H377.4V1.0002ZM381.4 1.0002H379.4V0.200195H381.4V1.0002ZM385.4 1.0002H383.4V0.200195H385.4V1.0002ZM389.4 1.0002H387.4V0.200195H389.4V1.0002ZM393.4 1.0002H391.4V0.200195H393.4V1.0002ZM397.4 1.0002H395.4V0.200195H397.4V1.0002ZM401.4 1.0002H399.4V0.200195H401.4V1.0002ZM405.4 1.0002H403.4V0.200195H405.4V1.0002ZM409.4 1.0002H407.4V0.200195H409.4V1.0002ZM413.4 1.0002H411.4V0.200195H413.4V1.0002ZM417.4 1.0002H415.4V0.200195H417.4V1.0002ZM421.4 1.0002H419.4V0.200195H421.4V1.0002ZM425.4 1.0002H423.4V0.200195H425.4V1.0002ZM429.4 1.0002H427.4V0.200195H429.4V1.0002ZM433.4 1.0002H431.4V0.200195H433.4V1.0002ZM437.4 1.0002H435.4V0.200195H437.4V1.0002ZM441.4 1.0002H439.4V0.200195H441.4V1.0002ZM445.4 1.0002H443.4V0.200195H445.4V1.0002ZM449.4 1.0002H447.4V0.200195H449.4V1.0002ZM453.4 1.0002H451.4V0.200195H453.4V1.0002ZM457.4 1.0002H455.4V0.200195H457.4V1.0002ZM461.4 1.0002H459.4V0.200195H461.4V1.0002ZM465.4 1.0002H463.4V0.200195H465.4V1.0002ZM469.4 1.0002H467.4V0.200195H469.4V1.0002ZM473.4 1.0002H471.4V0.200195H473.4V1.0002ZM477.4 1.0002H475.4V0.200195H477.4V1.0002ZM481.4 1.0002H479.4V0.200195H481.4V1.0002ZM485.4 1.0002H483.4V0.200195H485.4V1.0002ZM489.4 1.0002H487.4V0.200195H489.4V1.0002ZM493.4 1.0002H491.4V0.200195H493.4V1.0002ZM497.4 1.0002H495.4V0.200195H497.4V1.0002ZM501.4 1.0002H499.4V0.200195H501.4V1.0002ZM505.4 1.0002H503.4V0.200195H505.4V1.0002ZM509.4 1.0002H507.4V0.200195H509.4V1.0002ZM513.4 1.0002H511.4V0.200195H513.4V1.0002ZM517.4 1.0002H515.4V0.200195H517.4V1.0002ZM521.4 1.0002H519.4V0.200195H521.4V1.0002ZM525.4 1.0002H523.4V0.200195H525.4V1.0002ZM529.4 1.0002H527.4V0.200195H529.4V1.0002ZM533.4 1.0002H531.4V0.200195H533.4V1.0002ZM537.4 1.0002H535.4V0.200195H537.4V1.0002ZM541.4 1.0002H539.4V0.200195H541.4V1.0002ZM545.4 1.0002H543.4V0.200195H545.4V1.0002ZM549.4 1.0002H547.4V0.200195H549.4V1.0002ZM553.4 1.0002H551.4V0.200195H553.4V1.0002ZM557.4 1.0002H555.4V0.200195H557.4V1.0002ZM561.4 1.0002H559.4V0.200195H561.4V1.0002ZM565.4 1.0002H563.4V0.200195H565.4V1.0002ZM569.4 1.0002H567.4V0.200195H569.4V1.0002ZM573.4 1.0002H571.4V0.200195H573.4V1.0002ZM577.4 1.0002H575.4V0.200195H577.4V1.0002ZM581.4 1.0002H579.4V0.200195H581.4V1.0002ZM585.4 1.0002H583.4V0.200195H585.4V1.0002ZM589.4 1.0002H587.4V0.200195H589.4V1.0002ZM593.4 1.0002H591.4V0.200195H593.4V1.0002ZM597.4 1.0002H595.4V0.200195H597.4V1.0002ZM601.4 1.0002H599.4V0.200195H601.4V1.0002ZM605.4 1.0002H603.4V0.200195H605.4V1.0002ZM609.4 1.0002H607.4V0.200195H609.4V1.0002ZM613.4 1.0002H611.4V0.200195H613.4V1.0002ZM617.4 1.0002H615.4V0.200195H617.4V1.0002ZM621.4 1.0002H619.4V0.200195H621.4V1.0002ZM625.4 1.0002H623.4V0.200195H625.4V1.0002ZM629.4 1.0002H627.4V0.200195H629.4V1.0002ZM633.4 1.0002H631.4V0.200195H633.4V1.0002ZM637.4 1.0002H635.4V0.200195H637.4V1.0002ZM641.4 1.0002H639.4V0.200195H641.4V1.0002ZM645.4 1.0002H643.4V0.200195H645.4V1.0002ZM649.4 1.0002H647.4V0.200195H649.4V1.0002ZM653.4 1.0002H651.4V0.200195H653.4V1.0002ZM657.4 1.0002H655.4V0.200195H657.4V1.0002ZM661.4 1.0002H659.4V0.200195H661.4V1.0002ZM665.4 1.0002H663.4V0.200195H665.4V1.0002ZM669.4 1.0002H667.4V0.200195H669.4V1.0002ZM673.4 1.0002H671.4V0.200195H673.4V1.0002ZM677.4 1.0002H675.4V0.200195H677.4V1.0002ZM681.4 1.0002H679.4V0.200195H681.4V1.0002ZM685.4 1.0002H683.4V0.200195H685.4V1.0002ZM689.4 1.0002H687.4V0.200195H689.4V1.0002ZM693.4 1.0002H691.4V0.200195H693.4V1.0002ZM697.4 1.0002H695.4V0.200195H697.4V1.0002ZM701.4 1.0002H699.4V0.200195H701.4V1.0002ZM705.4 1.0002H703.4V0.200195H705.4V1.0002ZM709.4 1.0002H707.4V0.200195H709.4V1.0002ZM713.4 1.0002H711.4V0.200195H713.4V1.0002ZM717.4 1.0002H715.4V0.200195H717.4V1.0002ZM721.4 1.0002H719.4V0.200195H721.4V1.0002ZM725.4 1.0002H723.4V0.200195H725.4V1.0002ZM729.4 1.0002H727.4V0.200195H729.4V1.0002ZM733.4 1.0002H731.4V0.200195H733.4V1.0002ZM737.4 1.0002H735.4V0.200195H737.4V1.0002ZM741.4 1.0002H739.4V0.200195H741.4V1.0002ZM745.4 1.0002H743.4V0.200195H745.4V1.0002ZM749.4 1.0002H747.4V0.200195H749.4V1.0002ZM753.4 1.0002H751.4V0.200195H753.4V1.0002ZM757.4 1.0002H755.4V0.200195H757.4V1.0002ZM761.4 1.0002H759.4V0.200195H761.4V1.0002ZM765.4 1.0002H763.4V0.200195H765.4V1.0002ZM769.4 1.0002H767.4V0.200195H769.4V1.0002ZM773.4 1.0002H771.4V0.200195H773.4V1.0002ZM777.4 1.0002H775.4V0.200195H777.4V1.0002ZM781.4 1.0002H779.4V0.200195H781.4V1.0002ZM785.4 1.0002H783.4V0.200195H785.4V1.0002ZM789.4 1.0002H787.4V0.200195H789.4V1.0002ZM793.4 1.0002H791.4V0.200195H793.4V1.0002ZM797.4 1.0002H795.4V0.200195H797.4V1.0002ZM801.4 1.0002H799.4V0.200195H801.4V1.0002ZM805.4 1.0002H803.4V0.200195H805.4V1.0002ZM809.4 1.0002H807.4V0.200195H809.4V1.0002ZM813.4 1.0002H811.4V0.200195H813.4V1.0002ZM817.4 1.0002H815.4V0.200195H817.4V1.0002ZM821.4 1.0002H819.4V0.200195H821.4V1.0002ZM825.4 1.0002H823.4V0.200195H825.4V1.0002ZM829.4 1.0002H827.4V0.200195H829.4V1.0002ZM833.4 1.0002H831.4V0.200195H833.4V1.0002ZM837.4 1.0002H835.4V0.200195H837.4V1.0002ZM841.4 1.0002H839.4V0.200195H841.4V1.0002ZM845.4 1.0002H843.4V0.200195H845.4V1.0002ZM848.4 1.0002H847.4V0.200195H848.4V1.0002Z" fill="#2B2B32"/>
</svg>
