<svg width="849" height="2" viewBox="0 0 849 2" fill="none" xmlns="http://www.w3.org/2000/svg">
<path fill-rule="evenodd" clip-rule="evenodd" d="M0 1.1998C0 0.978891 0.179086 0.799805 0.4 0.799805H1.4V1.5998H0.4C0.179086 1.5998 0 1.42072 0 1.1998ZM5.4 1.5998H3.4V0.799805H5.4V1.5998ZM9.4 1.5998H7.4V0.799805H9.4V1.5998ZM13.4 1.5998H11.4V0.799805H13.4V1.5998ZM17.4 1.5998H15.4V0.799805H17.4V1.5998ZM21.4 1.5998H19.4V0.799805H21.4V1.5998ZM25.4 1.5998H23.4V0.799805H25.4V1.5998ZM29.4 1.5998H27.4V0.799805H29.4V1.5998ZM33.4 1.5998H31.4V0.799805H33.4V1.5998ZM37.4 1.5998H35.4V0.799805H37.4V1.5998ZM41.4 1.5998H39.4V0.799805H41.4V1.5998ZM45.4 1.5998H43.4V0.799805H45.4V1.5998ZM49.4 1.5998H47.4V0.799805H49.4V1.5998ZM53.4 1.5998H51.4V0.799805H53.4V1.5998ZM57.4 1.5998H55.4V0.799805H57.4V1.5998ZM61.4 1.5998H59.4V0.799805H61.4V1.5998ZM65.4 1.5998H63.4V0.799805H65.4V1.5998ZM69.4 1.5998H67.4V0.799805H69.4V1.5998ZM73.4 1.5998H71.4V0.799805H73.4V1.5998ZM77.4 1.5998H75.4V0.799805H77.4V1.5998ZM81.4 1.5998H79.4V0.799805H81.4V1.5998ZM85.4 1.5998H83.4V0.799805H85.4V1.5998ZM89.4 1.5998H87.4V0.799805H89.4V1.5998ZM93.4 1.5998H91.4V0.799805H93.4V1.5998ZM97.4 1.5998H95.4V0.799805H97.4V1.5998ZM101.4 1.5998H99.4V0.799805H101.4V1.5998ZM105.4 1.5998H103.4V0.799805H105.4V1.5998ZM109.4 1.5998H107.4V0.799805H109.4V1.5998ZM113.4 1.5998H111.4V0.799805H113.4V1.5998ZM117.4 1.5998H115.4V0.799805H117.4V1.5998ZM121.4 1.5998H119.4V0.799805H121.4V1.5998ZM125.4 1.5998H123.4V0.799805H125.4V1.5998ZM129.4 1.5998H127.4V0.799805H129.4V1.5998ZM133.4 1.5998H131.4V0.799805H133.4V1.5998ZM137.4 1.5998H135.4V0.799805H137.4V1.5998ZM141.4 1.5998H139.4V0.799805H141.4V1.5998ZM145.4 1.5998H143.4V0.799805H145.4V1.5998ZM149.4 1.5998H147.4V0.799805H149.4V1.5998ZM153.4 1.5998H151.4V0.799805H153.4V1.5998ZM157.4 1.5998H155.4V0.799805H157.4V1.5998ZM161.4 1.5998H159.4V0.799805H161.4V1.5998ZM165.4 1.5998H163.4V0.799805H165.4V1.5998ZM169.4 1.5998H167.4V0.799805H169.4V1.5998ZM173.4 1.5998H171.4V0.799805H173.4V1.5998ZM177.4 1.5998H175.4V0.799805H177.4V1.5998ZM181.4 1.5998H179.4V0.799805H181.4V1.5998ZM185.4 1.5998H183.4V0.799805H185.4V1.5998ZM189.4 1.5998H187.4V0.799805H189.4V1.5998ZM193.4 1.5998H191.4V0.799805H193.4V1.5998ZM197.4 1.5998H195.4V0.799805H197.4V1.5998ZM201.4 1.5998H199.4V0.799805H201.4V1.5998ZM205.4 1.5998H203.4V0.799805H205.4V1.5998ZM209.4 1.5998H207.4V0.799805H209.4V1.5998ZM213.4 1.5998H211.4V0.799805H213.4V1.5998ZM217.4 1.5998H215.4V0.799805H217.4V1.5998ZM221.4 1.5998H219.4V0.799805H221.4V1.5998ZM225.4 1.5998H223.4V0.799805H225.4V1.5998ZM229.4 1.5998H227.4V0.799805H229.4V1.5998ZM233.4 1.5998H231.4V0.799805H233.4V1.5998ZM237.4 1.5998H235.4V0.799805H237.4V1.5998ZM241.4 1.5998H239.4V0.799805H241.4V1.5998ZM245.4 1.5998H243.4V0.799805H245.4V1.5998ZM249.4 1.5998H247.4V0.799805H249.4V1.5998ZM253.4 1.5998H251.4V0.799805H253.4V1.5998ZM257.4 1.5998H255.4V0.799805H257.4V1.5998ZM261.4 1.5998H259.4V0.799805H261.4V1.5998ZM265.4 1.5998H263.4V0.799805H265.4V1.5998ZM269.4 1.5998H267.4V0.799805H269.4V1.5998ZM273.4 1.5998H271.4V0.799805H273.4V1.5998ZM277.4 1.5998H275.4V0.799805H277.4V1.5998ZM281.4 1.5998H279.4V0.799805H281.4V1.5998ZM285.4 1.5998H283.4V0.799805H285.4V1.5998ZM289.4 1.5998H287.4V0.799805H289.4V1.5998ZM293.4 1.5998H291.4V0.799805H293.4V1.5998ZM297.4 1.5998H295.4V0.799805H297.4V1.5998ZM301.4 1.5998H299.4V0.799805H301.4V1.5998ZM305.4 1.5998H303.4V0.799805H305.4V1.5998ZM309.4 1.5998H307.4V0.799805H309.4V1.5998ZM313.4 1.5998H311.4V0.799805H313.4V1.5998ZM317.4 1.5998H315.4V0.799805H317.4V1.5998ZM321.4 1.5998H319.4V0.799805H321.4V1.5998ZM325.4 1.5998H323.4V0.799805H325.4V1.5998ZM329.4 1.5998H327.4V0.799805H329.4V1.5998ZM333.4 1.5998H331.4V0.799805H333.4V1.5998ZM337.4 1.5998H335.4V0.799805H337.4V1.5998ZM341.4 1.5998H339.4V0.799805H341.4V1.5998ZM345.4 1.5998H343.4V0.799805H345.4V1.5998ZM349.4 1.5998H347.4V0.799805H349.4V1.5998ZM353.4 1.5998H351.4V0.799805H353.4V1.5998ZM357.4 1.5998H355.4V0.799805H357.4V1.5998ZM361.4 1.5998H359.4V0.799805H361.4V1.5998ZM365.4 1.5998H363.4V0.799805H365.4V1.5998ZM369.4 1.5998H367.4V0.799805H369.4V1.5998ZM373.4 1.5998H371.4V0.799805H373.4V1.5998ZM377.4 1.5998H375.4V0.799805H377.4V1.5998ZM381.4 1.5998H379.4V0.799805H381.4V1.5998ZM385.4 1.5998H383.4V0.799805H385.4V1.5998ZM389.4 1.5998H387.4V0.799805H389.4V1.5998ZM393.4 1.5998H391.4V0.799805H393.4V1.5998ZM397.4 1.5998H395.4V0.799805H397.4V1.5998ZM401.4 1.5998H399.4V0.799805H401.4V1.5998ZM405.4 1.5998H403.4V0.799805H405.4V1.5998ZM409.4 1.5998H407.4V0.799805H409.4V1.5998ZM413.4 1.5998H411.4V0.799805H413.4V1.5998ZM417.4 1.5998H415.4V0.799805H417.4V1.5998ZM421.4 1.5998H419.4V0.799805H421.4V1.5998ZM425.4 1.5998H423.4V0.799805H425.4V1.5998ZM429.4 1.5998H427.4V0.799805H429.4V1.5998ZM433.4 1.5998H431.4V0.799805H433.4V1.5998ZM437.4 1.5998H435.4V0.799805H437.4V1.5998ZM441.4 1.5998H439.4V0.799805H441.4V1.5998ZM445.4 1.5998H443.4V0.799805H445.4V1.5998ZM449.4 1.5998H447.4V0.799805H449.4V1.5998ZM453.4 1.5998H451.4V0.799805H453.4V1.5998ZM457.4 1.5998H455.4V0.799805H457.4V1.5998ZM461.4 1.5998H459.4V0.799805H461.4V1.5998ZM465.4 1.5998H463.4V0.799805H465.4V1.5998ZM469.4 1.5998H467.4V0.799805H469.4V1.5998ZM473.4 1.5998H471.4V0.799805H473.4V1.5998ZM477.4 1.5998H475.4V0.799805H477.4V1.5998ZM481.4 1.5998H479.4V0.799805H481.4V1.5998ZM485.4 1.5998H483.4V0.799805H485.4V1.5998ZM489.4 1.5998H487.4V0.799805H489.4V1.5998ZM493.4 1.5998H491.4V0.799805H493.4V1.5998ZM497.4 1.5998H495.4V0.799805H497.4V1.5998ZM501.4 1.5998H499.4V0.799805H501.4V1.5998ZM505.4 1.5998H503.4V0.799805H505.4V1.5998ZM509.4 1.5998H507.4V0.799805H509.4V1.5998ZM513.4 1.5998H511.4V0.799805H513.4V1.5998ZM517.4 1.5998H515.4V0.799805H517.4V1.5998ZM521.4 1.5998H519.4V0.799805H521.4V1.5998ZM525.4 1.5998H523.4V0.799805H525.4V1.5998ZM529.4 1.5998H527.4V0.799805H529.4V1.5998ZM533.4 1.5998H531.4V0.799805H533.4V1.5998ZM537.4 1.5998H535.4V0.799805H537.4V1.5998ZM541.4 1.5998H539.4V0.799805H541.4V1.5998ZM545.4 1.5998H543.4V0.799805H545.4V1.5998ZM549.4 1.5998H547.4V0.799805H549.4V1.5998ZM553.4 1.5998H551.4V0.799805H553.4V1.5998ZM557.4 1.5998H555.4V0.799805H557.4V1.5998ZM561.4 1.5998H559.4V0.799805H561.4V1.5998ZM565.4 1.5998H563.4V0.799805H565.4V1.5998ZM569.4 1.5998H567.4V0.799805H569.4V1.5998ZM573.4 1.5998H571.4V0.799805H573.4V1.5998ZM577.4 1.5998H575.4V0.799805H577.4V1.5998ZM581.4 1.5998H579.4V0.799805H581.4V1.5998ZM585.4 1.5998H583.4V0.799805H585.4V1.5998ZM589.4 1.5998H587.4V0.799805H589.4V1.5998ZM593.4 1.5998H591.4V0.799805H593.4V1.5998ZM597.4 1.5998H595.4V0.799805H597.4V1.5998ZM601.4 1.5998H599.4V0.799805H601.4V1.5998ZM605.4 1.5998H603.4V0.799805H605.4V1.5998ZM609.4 1.5998H607.4V0.799805H609.4V1.5998ZM613.4 1.5998H611.4V0.799805H613.4V1.5998ZM617.4 1.5998H615.4V0.799805H617.4V1.5998ZM621.4 1.5998H619.4V0.799805H621.4V1.5998ZM625.4 1.5998H623.4V0.799805H625.4V1.5998ZM629.4 1.5998H627.4V0.799805H629.4V1.5998ZM633.4 1.5998H631.4V0.799805H633.4V1.5998ZM637.4 1.5998H635.4V0.799805H637.4V1.5998ZM641.4 1.5998H639.4V0.799805H641.4V1.5998ZM645.4 1.5998H643.4V0.799805H645.4V1.5998ZM649.4 1.5998H647.4V0.799805H649.4V1.5998ZM653.4 1.5998H651.4V0.799805H653.4V1.5998ZM657.4 1.5998H655.4V0.799805H657.4V1.5998ZM661.4 1.5998H659.4V0.799805H661.4V1.5998ZM665.4 1.5998H663.4V0.799805H665.4V1.5998ZM669.4 1.5998H667.4V0.799805H669.4V1.5998ZM673.4 1.5998H671.4V0.799805H673.4V1.5998ZM677.4 1.5998H675.4V0.799805H677.4V1.5998ZM681.4 1.5998H679.4V0.799805H681.4V1.5998ZM685.4 1.5998H683.4V0.799805H685.4V1.5998ZM689.4 1.5998H687.4V0.799805H689.4V1.5998ZM693.4 1.5998H691.4V0.799805H693.4V1.5998ZM697.4 1.5998H695.4V0.799805H697.4V1.5998ZM701.4 1.5998H699.4V0.799805H701.4V1.5998ZM705.4 1.5998H703.4V0.799805H705.4V1.5998ZM709.4 1.5998H707.4V0.799805H709.4V1.5998ZM713.4 1.5998H711.4V0.799805H713.4V1.5998ZM717.4 1.5998H715.4V0.799805H717.4V1.5998ZM721.4 1.5998H719.4V0.799805H721.4V1.5998ZM725.4 1.5998H723.4V0.799805H725.4V1.5998ZM729.4 1.5998H727.4V0.799805H729.4V1.5998ZM733.4 1.5998H731.4V0.799805H733.4V1.5998ZM737.4 1.5998H735.4V0.799805H737.4V1.5998ZM741.4 1.5998H739.4V0.799805H741.4V1.5998ZM745.4 1.5998H743.4V0.799805H745.4V1.5998ZM749.4 1.5998H747.4V0.799805H749.4V1.5998ZM753.4 1.5998H751.4V0.799805H753.4V1.5998ZM757.4 1.5998H755.4V0.799805H757.4V1.5998ZM761.4 1.5998H759.4V0.799805H761.4V1.5998ZM765.4 1.5998H763.4V0.799805H765.4V1.5998ZM769.4 1.5998H767.4V0.799805H769.4V1.5998ZM773.4 1.5998H771.4V0.799805H773.4V1.5998ZM777.4 1.5998H775.4V0.799805H777.4V1.5998ZM781.4 1.5998H779.4V0.799805H781.4V1.5998ZM785.4 1.5998H783.4V0.799805H785.4V1.5998ZM789.4 1.5998H787.4V0.799805H789.4V1.5998ZM793.4 1.5998H791.4V0.799805H793.4V1.5998ZM797.4 1.5998H795.4V0.799805H797.4V1.5998ZM801.4 1.5998H799.4V0.799805H801.4V1.5998ZM805.4 1.5998H803.4V0.799805H805.4V1.5998ZM809.4 1.5998H807.4V0.799805H809.4V1.5998ZM813.4 1.5998H811.4V0.799805H813.4V1.5998ZM817.4 1.5998H815.4V0.799805H817.4V1.5998ZM821.4 1.5998H819.4V0.799805H821.4V1.5998ZM825.4 1.5998H823.4V0.799805H825.4V1.5998ZM829.4 1.5998H827.4V0.799805H829.4V1.5998ZM833.4 1.5998H831.4V0.799805H833.4V1.5998ZM837.4 1.5998H835.4V0.799805H837.4V1.5998ZM841.4 1.5998H839.4V0.799805H841.4V1.5998ZM845.4 1.5998H843.4V0.799805H845.4V1.5998ZM848.4 1.5998H847.4V0.799805H848.4V1.5998Z" fill="#2B2B32"/>
</svg>
