<svg width="2" height="218" viewBox="0 0 2 218" fill="none" xmlns="http://www.w3.org/2000/svg">
<path fill-rule="evenodd" clip-rule="evenodd" d="M2 215.981V218H0L0 215.981C0 215.429 0.447715 214.981 1 214.981C1.55228 214.981 2 215.429 2 215.981ZM1 212.944C0.447715 212.944 0 212.497 0 211.944L0 207.907C0 207.355 0.447715 206.907 1 206.907C1.55228 206.907 2 207.355 2 207.907V211.944C2 212.497 1.55228 212.944 1 212.944ZM1 204.87C0.447715 204.87 0 204.423 0 203.87L0 199.833C0 199.281 0.447715 198.833 1 198.833C1.55228 198.833 2 199.281 2 199.833L2 203.87C2 204.423 1.55228 204.87 1 204.87ZM1 196.796C0.447715 196.796 0 196.349 0 195.796L0 191.759C0 191.207 0.447715 190.759 1 190.759C1.55228 190.759 2 191.207 2 191.759L2 195.796C2 196.349 1.55228 196.796 1 196.796ZM1 188.722C0.447715 188.722 0 188.275 0 187.722L0 183.685C0 183.133 0.447715 182.685 1 182.685C1.55228 182.685 2 183.133 2 183.685L2 187.722C2 188.275 1.55228 188.722 1 188.722ZM1 180.648C0.447715 180.648 0 180.2 0 179.648L0 175.611C0 175.059 0.447715 174.611 1 174.611C1.55228 174.611 2 175.059 2 175.611L2 179.648C2 180.2 1.55228 180.648 1 180.648ZM1 172.574C0.447715 172.574 0 172.126 0 171.574L0 167.537C0 166.985 0.447715 166.537 1 166.537C1.55228 166.537 2 166.985 2 167.537L2 171.574C2 172.126 1.55228 172.574 1 172.574ZM1 164.5C0.447715 164.5 0 164.052 0 163.5L0 159.463C0 158.911 0.447715 158.463 1 158.463C1.55228 158.463 2 158.911 2 159.463V163.5C2 164.052 1.55228 164.5 1 164.5ZM1 156.426C0.447715 156.426 0 155.978 0 155.426L0 151.389C0 150.837 0.447715 150.389 1 150.389C1.55228 150.389 2 150.837 2 151.389V155.426C2 155.978 1.55228 156.426 1 156.426ZM1 148.352C0.447715 148.352 0 147.904 0 147.352L0 143.315C0 142.763 0.447715 142.315 1 142.315C1.55228 142.315 2 142.763 2 143.315V147.352C2 147.904 1.55228 148.352 1 148.352ZM1 140.278C0.447715 140.278 0 139.83 0 139.278L0 135.241C0 134.688 0.447715 134.241 1 134.241C1.55228 134.241 2 134.688 2 135.241V139.278C2 139.83 1.55228 140.278 1 140.278ZM1 132.204C0.447715 132.204 0 131.756 0 131.204L0 127.167C0 126.614 0.447715 126.167 1 126.167C1.55228 126.167 2 126.614 2 127.167L2 131.204C2 131.756 1.55228 132.204 1 132.204ZM1 124.13C0.447715 124.13 0 123.682 0 123.13L0 119.093C0 118.54 0.447715 118.093 1 118.093C1.55228 118.093 2 118.54 2 119.093L2 123.13C2 123.682 1.55228 124.13 1 124.13ZM1 116.056C0.447715 116.056 0 115.608 0 115.056L0 111.019C0 110.466 0.447715 110.019 1 110.019C1.55228 110.019 2 110.466 2 111.019L2 115.056C2 115.608 1.55228 116.056 1 116.056ZM1 107.982C0.447715 107.982 0 107.534 0 106.982L0 102.944C0 102.392 0.447715 101.944 1 101.944C1.55228 101.944 2 102.392 2 102.944L2 106.982C2 107.534 1.55228 107.982 1 107.982ZM1 99.9075C0.447715 99.9075 0 99.4597 0 98.9075L0 94.8704C0 94.3181 0.447715 93.8704 1 93.8704C1.55228 93.8704 2 94.3181 2 94.8704L2 98.9075C2 99.4597 1.55228 99.9075 1 99.9075ZM1 91.8334C0.447715 91.8334 0 91.3857 0 90.8334L0 86.7964C0 86.2441 0.447715 85.7964 1 85.7964C1.55228 85.7964 2 86.2441 2 86.7964V90.8334C2 91.3857 1.55228 91.8334 1 91.8334ZM1 83.7593C0.447715 83.7593 0 83.3116 0 82.7593L0 78.7223C0 78.17 0.447715 77.7223 1 77.7223C1.55228 77.7223 2 78.17 2 78.7223V82.7593C2 83.3116 1.55228 83.7593 1 83.7593ZM1 75.6853C0.447715 75.6853 0 75.2375 0 74.6853L0 70.6482C0 70.0959 0.447715 69.6482 1 69.6482C1.55228 69.6482 2 70.0959 2 70.6482V74.6853C2 75.2375 1.55228 75.6853 1 75.6853ZM1 67.6112C0.447715 67.6112 0 67.1635 0 66.6112L0 62.5742C0 62.0219 0.447715 61.5742 1 61.5742C1.55228 61.5742 2 62.0219 2 62.5742V66.6112C2 67.1635 1.55228 67.6112 1 67.6112ZM1 59.5371C0.447715 59.5371 0 59.0894 0 58.5371L0 54.5001C0 53.9478 0.447715 53.5001 1 53.5001C1.55228 53.5001 2 53.9478 2 54.5001L2 58.5371C2 59.0894 1.55228 59.5371 1 59.5371ZM1 51.4631C0.447715 51.4631 0 51.0153 0 50.4631L0 46.426C0 45.8737 0.447715 45.426 1 45.426C1.55228 45.426 2 45.8737 2 46.426L2 50.4631C2 51.0153 1.55228 51.4631 1 51.4631ZM1 43.389C0.447715 43.389 0 42.9413 0 42.389L0 38.352C0 37.7997 0.447715 37.352 1 37.352C1.55228 37.352 2 37.7997 2 38.352L2 42.389C2 42.9413 1.55228 43.389 1 43.389ZM1 35.3149C0.447715 35.3149 0 34.8672 0 34.3149L0 30.2779C0 29.7256 0.447715 29.2779 1 29.2779C1.55228 29.2779 2 29.7256 2 30.2779L2 34.3149C2 34.8672 1.55228 35.3149 1 35.3149ZM1 27.2409C0.447715 27.2409 0 26.7931 0 26.2409L0 22.2038C0 21.6515 0.447715 21.2038 1 21.2038C1.55228 21.2038 2 21.6515 2 22.2038L2 26.2409C2 26.7931 1.55228 27.2409 1 27.2409ZM1 19.1668C0.447715 19.1668 0 18.7191 0 18.1668L0 14.1298C0 13.5775 0.447715 13.1298 1 13.1298C1.55228 13.1298 2 13.5775 2 14.1298V18.1668C2 18.7191 1.55228 19.1668 1 19.1668ZM1 11.0927C0.447715 11.0927 0 10.645 0 10.0927L0 6.05568C0 5.5034 0.447715 5.05568 1 5.05568C1.55228 5.05568 2 5.5034 2 6.05568V10.0927C2 10.645 1.55228 11.0927 1 11.0927ZM1 3.01866C0.447715 3.01866 0 2.57095 0 2.01866L0 0H2V2.01866C2 2.57095 1.55228 3.01866 1 3.01866Z" fill="#0095FF"/>
</svg>
