<svg width="849" height="2" viewBox="0 0 849 2" fill="none" xmlns="http://www.w3.org/2000/svg">
<path fill-rule="evenodd" clip-rule="evenodd" d="M0 0.800391C0 0.579477 0.179086 0.400391 0.4 0.400391H1.4V1.20039H0.4C0.179086 1.20039 0 1.0213 0 0.800391ZM5.4 1.20039H3.4V0.400391H5.4V1.20039ZM9.4 1.20039H7.4V0.400391H9.4V1.20039ZM13.4 1.20039H11.4V0.400391H13.4V1.20039ZM17.4 1.20039H15.4V0.400391H17.4V1.20039ZM21.4 1.20039H19.4V0.400391H21.4V1.20039ZM25.4 1.20039H23.4V0.400391H25.4V1.20039ZM29.4 1.20039H27.4V0.400391H29.4V1.20039ZM33.4 1.20039H31.4V0.400391H33.4V1.20039ZM37.4 1.20039H35.4V0.400391H37.4V1.20039ZM41.4 1.20039H39.4V0.400391H41.4V1.20039ZM45.4 1.20039H43.4V0.400391H45.4V1.20039ZM49.4 1.20039H47.4V0.400391H49.4V1.20039ZM53.4 1.20039H51.4V0.400391H53.4V1.20039ZM57.4 1.20039H55.4V0.400391H57.4V1.20039ZM61.4 1.20039H59.4V0.400391H61.4V1.20039ZM65.4 1.20039H63.4V0.400391H65.4V1.20039ZM69.4 1.20039H67.4V0.400391H69.4V1.20039ZM73.4 1.20039H71.4V0.400391H73.4V1.20039ZM77.4 1.20039H75.4V0.400391H77.4V1.20039ZM81.4 1.20039H79.4V0.400391H81.4V1.20039ZM85.4 1.20039H83.4V0.400391H85.4V1.20039ZM89.4 1.20039H87.4V0.400391H89.4V1.20039ZM93.4 1.20039H91.4V0.400391H93.4V1.20039ZM97.4 1.20039H95.4V0.400391H97.4V1.20039ZM101.4 1.20039H99.4V0.400391H101.4V1.20039ZM105.4 1.20039H103.4V0.400391H105.4V1.20039ZM109.4 1.20039H107.4V0.400391H109.4V1.20039ZM113.4 1.20039H111.4V0.400391H113.4V1.20039ZM117.4 1.20039H115.4V0.400391H117.4V1.20039ZM121.4 1.20039H119.4V0.400391H121.4V1.20039ZM125.4 1.20039H123.4V0.400391H125.4V1.20039ZM129.4 1.20039H127.4V0.400391H129.4V1.20039ZM133.4 1.20039H131.4V0.400391H133.4V1.20039ZM137.4 1.20039H135.4V0.400391H137.4V1.20039ZM141.4 1.20039H139.4V0.400391H141.4V1.20039ZM145.4 1.20039H143.4V0.400391H145.4V1.20039ZM149.4 1.20039H147.4V0.400391H149.4V1.20039ZM153.4 1.20039H151.4V0.400391H153.4V1.20039ZM157.4 1.20039H155.4V0.400391H157.4V1.20039ZM161.4 1.20039H159.4V0.400391H161.4V1.20039ZM165.4 1.20039H163.4V0.400391H165.4V1.20039ZM169.4 1.20039H167.4V0.400391H169.4V1.20039ZM173.4 1.20039H171.4V0.400391H173.4V1.20039ZM177.4 1.20039H175.4V0.400391H177.4V1.20039ZM181.4 1.20039H179.4V0.400391H181.4V1.20039ZM185.4 1.20039H183.4V0.400391H185.4V1.20039ZM189.4 1.20039H187.4V0.400391H189.4V1.20039ZM193.4 1.20039H191.4V0.400391H193.4V1.20039ZM197.4 1.20039H195.4V0.400391H197.4V1.20039ZM201.4 1.20039H199.4V0.400391H201.4V1.20039ZM205.4 1.20039H203.4V0.400391H205.4V1.20039ZM209.4 1.20039H207.4V0.400391H209.4V1.20039ZM213.4 1.20039H211.4V0.400391H213.4V1.20039ZM217.4 1.20039H215.4V0.400391H217.4V1.20039ZM221.4 1.20039H219.4V0.400391H221.4V1.20039ZM225.4 1.20039H223.4V0.400391H225.4V1.20039ZM229.4 1.20039H227.4V0.400391H229.4V1.20039ZM233.4 1.20039H231.4V0.400391H233.4V1.20039ZM237.4 1.20039H235.4V0.400391H237.4V1.20039ZM241.4 1.20039H239.4V0.400391H241.4V1.20039ZM245.4 1.20039H243.4V0.400391H245.4V1.20039ZM249.4 1.20039H247.4V0.400391H249.4V1.20039ZM253.4 1.20039H251.4V0.400391H253.4V1.20039ZM257.4 1.20039H255.4V0.400391H257.4V1.20039ZM261.4 1.20039H259.4V0.400391H261.4V1.20039ZM265.4 1.20039H263.4V0.400391H265.4V1.20039ZM269.4 1.20039H267.4V0.400391H269.4V1.20039ZM273.4 1.20039H271.4V0.400391H273.4V1.20039ZM277.4 1.20039H275.4V0.400391H277.4V1.20039ZM281.4 1.20039H279.4V0.400391H281.4V1.20039ZM285.4 1.20039H283.4V0.400391H285.4V1.20039ZM289.4 1.20039H287.4V0.400391H289.4V1.20039ZM293.4 1.20039H291.4V0.400391H293.4V1.20039ZM297.4 1.20039H295.4V0.400391H297.4V1.20039ZM301.4 1.20039H299.4V0.400391H301.4V1.20039ZM305.4 1.20039H303.4V0.400391H305.4V1.20039ZM309.4 1.20039H307.4V0.400391H309.4V1.20039ZM313.4 1.20039H311.4V0.400391H313.4V1.20039ZM317.4 1.20039H315.4V0.400391H317.4V1.20039ZM321.4 1.20039H319.4V0.400391H321.4V1.20039ZM325.4 1.20039H323.4V0.400391H325.4V1.20039ZM329.4 1.20039H327.4V0.400391H329.4V1.20039ZM333.4 1.20039H331.4V0.400391H333.4V1.20039ZM337.4 1.20039H335.4V0.400391H337.4V1.20039ZM341.4 1.20039H339.4V0.400391H341.4V1.20039ZM345.4 1.20039H343.4V0.400391H345.4V1.20039ZM349.4 1.20039H347.4V0.400391H349.4V1.20039ZM353.4 1.20039H351.4V0.400391H353.4V1.20039ZM357.4 1.20039H355.4V0.400391H357.4V1.20039ZM361.4 1.20039H359.4V0.400391H361.4V1.20039ZM365.4 1.20039H363.4V0.400391H365.4V1.20039ZM369.4 1.20039H367.4V0.400391H369.4V1.20039ZM373.4 1.20039H371.4V0.400391H373.4V1.20039ZM377.4 1.20039H375.4V0.400391H377.4V1.20039ZM381.4 1.20039H379.4V0.400391H381.4V1.20039ZM385.4 1.20039H383.4V0.400391H385.4V1.20039ZM389.4 1.20039H387.4V0.400391H389.4V1.20039ZM393.4 1.20039H391.4V0.400391H393.4V1.20039ZM397.4 1.20039H395.4V0.400391H397.4V1.20039ZM401.4 1.20039H399.4V0.400391H401.4V1.20039ZM405.4 1.20039H403.4V0.400391H405.4V1.20039ZM409.4 1.20039H407.4V0.400391H409.4V1.20039ZM413.4 1.20039H411.4V0.400391H413.4V1.20039ZM417.4 1.20039H415.4V0.400391H417.4V1.20039ZM421.4 1.20039H419.4V0.400391H421.4V1.20039ZM425.4 1.20039H423.4V0.400391H425.4V1.20039ZM429.4 1.20039H427.4V0.400391H429.4V1.20039ZM433.4 1.20039H431.4V0.400391H433.4V1.20039ZM437.4 1.20039H435.4V0.400391H437.4V1.20039ZM441.4 1.20039H439.4V0.400391H441.4V1.20039ZM445.4 1.20039H443.4V0.400391H445.4V1.20039ZM449.4 1.20039H447.4V0.400391H449.4V1.20039ZM453.4 1.20039H451.4V0.400391H453.4V1.20039ZM457.4 1.20039H455.4V0.400391H457.4V1.20039ZM461.4 1.20039H459.4V0.400391H461.4V1.20039ZM465.4 1.20039H463.4V0.400391H465.4V1.20039ZM469.4 1.20039H467.4V0.400391H469.4V1.20039ZM473.4 1.20039H471.4V0.400391H473.4V1.20039ZM477.4 1.20039H475.4V0.400391H477.4V1.20039ZM481.4 1.20039H479.4V0.400391H481.4V1.20039ZM485.4 1.20039H483.4V0.400391H485.4V1.20039ZM489.4 1.20039H487.4V0.400391H489.4V1.20039ZM493.4 1.20039H491.4V0.400391H493.4V1.20039ZM497.4 1.20039H495.4V0.400391H497.4V1.20039ZM501.4 1.20039H499.4V0.400391H501.4V1.20039ZM505.4 1.20039H503.4V0.400391H505.4V1.20039ZM509.4 1.20039H507.4V0.400391H509.4V1.20039ZM513.4 1.20039H511.4V0.400391H513.4V1.20039ZM517.4 1.20039H515.4V0.400391H517.4V1.20039ZM521.4 1.20039H519.4V0.400391H521.4V1.20039ZM525.4 1.20039H523.4V0.400391H525.4V1.20039ZM529.4 1.20039H527.4V0.400391H529.4V1.20039ZM533.4 1.20039H531.4V0.400391H533.4V1.20039ZM537.4 1.20039H535.4V0.400391H537.4V1.20039ZM541.4 1.20039H539.4V0.400391H541.4V1.20039ZM545.4 1.20039H543.4V0.400391H545.4V1.20039ZM549.4 1.20039H547.4V0.400391H549.4V1.20039ZM553.4 1.20039H551.4V0.400391H553.4V1.20039ZM557.4 1.20039H555.4V0.400391H557.4V1.20039ZM561.4 1.20039H559.4V0.400391H561.4V1.20039ZM565.4 1.20039H563.4V0.400391H565.4V1.20039ZM569.4 1.20039H567.4V0.400391H569.4V1.20039ZM573.4 1.20039H571.4V0.400391H573.4V1.20039ZM577.4 1.20039H575.4V0.400391H577.4V1.20039ZM581.4 1.20039H579.4V0.400391H581.4V1.20039ZM585.4 1.20039H583.4V0.400391H585.4V1.20039ZM589.4 1.20039H587.4V0.400391H589.4V1.20039ZM593.4 1.20039H591.4V0.400391H593.4V1.20039ZM597.4 1.20039H595.4V0.400391H597.4V1.20039ZM601.4 1.20039H599.4V0.400391H601.4V1.20039ZM605.4 1.20039H603.4V0.400391H605.4V1.20039ZM609.4 1.20039H607.4V0.400391H609.4V1.20039ZM613.4 1.20039H611.4V0.400391H613.4V1.20039ZM617.4 1.20039H615.4V0.400391H617.4V1.20039ZM621.4 1.20039H619.4V0.400391H621.4V1.20039ZM625.4 1.20039H623.4V0.400391H625.4V1.20039ZM629.4 1.20039H627.4V0.400391H629.4V1.20039ZM633.4 1.20039H631.4V0.400391H633.4V1.20039ZM637.4 1.20039H635.4V0.400391H637.4V1.20039ZM641.4 1.20039H639.4V0.400391H641.4V1.20039ZM645.4 1.20039H643.4V0.400391H645.4V1.20039ZM649.4 1.20039H647.4V0.400391H649.4V1.20039ZM653.4 1.20039H651.4V0.400391H653.4V1.20039ZM657.4 1.20039H655.4V0.400391H657.4V1.20039ZM661.4 1.20039H659.4V0.400391H661.4V1.20039ZM665.4 1.20039H663.4V0.400391H665.4V1.20039ZM669.4 1.20039H667.4V0.400391H669.4V1.20039ZM673.4 1.20039H671.4V0.400391H673.4V1.20039ZM677.4 1.20039H675.4V0.400391H677.4V1.20039ZM681.4 1.20039H679.4V0.400391H681.4V1.20039ZM685.4 1.20039H683.4V0.400391H685.4V1.20039ZM689.4 1.20039H687.4V0.400391H689.4V1.20039ZM693.4 1.20039H691.4V0.400391H693.4V1.20039ZM697.4 1.20039H695.4V0.400391H697.4V1.20039ZM701.4 1.20039H699.4V0.400391H701.4V1.20039ZM705.4 1.20039H703.4V0.400391H705.4V1.20039ZM709.4 1.20039H707.4V0.400391H709.4V1.20039ZM713.4 1.20039H711.4V0.400391H713.4V1.20039ZM717.4 1.20039H715.4V0.400391H717.4V1.20039ZM721.4 1.20039H719.4V0.400391H721.4V1.20039ZM725.4 1.20039H723.4V0.400391H725.4V1.20039ZM729.4 1.20039H727.4V0.400391H729.4V1.20039ZM733.4 1.20039H731.4V0.400391H733.4V1.20039ZM737.4 1.20039H735.4V0.400391H737.4V1.20039ZM741.4 1.20039H739.4V0.400391H741.4V1.20039ZM745.4 1.20039H743.4V0.400391H745.4V1.20039ZM749.4 1.20039H747.4V0.400391H749.4V1.20039ZM753.4 1.20039H751.4V0.400391H753.4V1.20039ZM757.4 1.20039H755.4V0.400391H757.4V1.20039ZM761.4 1.20039H759.4V0.400391H761.4V1.20039ZM765.4 1.20039H763.4V0.400391H765.4V1.20039ZM769.4 1.20039H767.4V0.400391H769.4V1.20039ZM773.4 1.20039H771.4V0.400391H773.4V1.20039ZM777.4 1.20039H775.4V0.400391H777.4V1.20039ZM781.4 1.20039H779.4V0.400391H781.4V1.20039ZM785.4 1.20039H783.4V0.400391H785.4V1.20039ZM789.4 1.20039H787.4V0.400391H789.4V1.20039ZM793.4 1.20039H791.4V0.400391H793.4V1.20039ZM797.4 1.20039H795.4V0.400391H797.4V1.20039ZM801.4 1.20039H799.4V0.400391H801.4V1.20039ZM805.4 1.20039H803.4V0.400391H805.4V1.20039ZM809.4 1.20039H807.4V0.400391H809.4V1.20039ZM813.4 1.20039H811.4V0.400391H813.4V1.20039ZM817.4 1.20039H815.4V0.400391H817.4V1.20039ZM821.4 1.20039H819.4V0.400391H821.4V1.20039ZM825.4 1.20039H823.4V0.400391H825.4V1.20039ZM829.4 1.20039H827.4V0.400391H829.4V1.20039ZM833.4 1.20039H831.4V0.400391H833.4V1.20039ZM837.4 1.20039H835.4V0.400391H837.4V1.20039ZM841.4 1.20039H839.4V0.400391H841.4V1.20039ZM845.4 1.20039H843.4V0.400391H845.4V1.20039ZM848.4 1.20039H847.4V0.400391H848.4V1.20039Z" fill="#2B2B32"/>
</svg>
