<svg width="849" height="1" viewBox="0 0 849 1" fill="none" xmlns="http://www.w3.org/2000/svg">
<path fill-rule="evenodd" clip-rule="evenodd" d="M0 0.4C0 0.179086 0.179086 0 0.4 0H1.4V0.8H0.4C0.179086 0.8 0 0.620914 0 0.4ZM5.4 0.8H3.4V0H5.4V0.8ZM9.4 0.8H7.4V0H9.4V0.8ZM13.4 0.8H11.4V0H13.4V0.8ZM17.4 0.8H15.4V0H17.4V0.8ZM21.4 0.8H19.4V0H21.4V0.8ZM25.4 0.8H23.4V0H25.4V0.8ZM29.4 0.8H27.4V0H29.4V0.8ZM33.4 0.8H31.4V0H33.4V0.8ZM37.4 0.8H35.4V0H37.4V0.8ZM41.4 0.8H39.4V0H41.4V0.8ZM45.4 0.8H43.4V0H45.4V0.8ZM49.4 0.8H47.4V0H49.4V0.8ZM53.4 0.8H51.4V0H53.4V0.8ZM57.4 0.8H55.4V0H57.4V0.8ZM61.4 0.8H59.4V0H61.4V0.8ZM65.4 0.8H63.4V0H65.4V0.8ZM69.4 0.8H67.4V0H69.4V0.8ZM73.4 0.8H71.4V0H73.4V0.8ZM77.4 0.8H75.4V0H77.4V0.8ZM81.4 0.8H79.4V0H81.4V0.8ZM85.4 0.8H83.4V0H85.4V0.8ZM89.4 0.8H87.4V0H89.4V0.8ZM93.4 0.8H91.4V0H93.4V0.8ZM97.4 0.8H95.4V0H97.4V0.8ZM101.4 0.8H99.4V0H101.4V0.8ZM105.4 0.8H103.4V0H105.4V0.8ZM109.4 0.8H107.4V0H109.4V0.8ZM113.4 0.8H111.4V0H113.4V0.8ZM117.4 0.8H115.4V0H117.4V0.8ZM121.4 0.8H119.4V0H121.4V0.8ZM125.4 0.8H123.4V0H125.4V0.8ZM129.4 0.8H127.4V0H129.4V0.8ZM133.4 0.8H131.4V0H133.4V0.8ZM137.4 0.8H135.4V0H137.4V0.8ZM141.4 0.8H139.4V0H141.4V0.8ZM145.4 0.8H143.4V0H145.4V0.8ZM149.4 0.8H147.4V0H149.4V0.8ZM153.4 0.8H151.4V0H153.4V0.8ZM157.4 0.8H155.4V0H157.4V0.8ZM161.4 0.8H159.4V0H161.4V0.8ZM165.4 0.8H163.4V0H165.4V0.8ZM169.4 0.8H167.4V0H169.4V0.8ZM173.4 0.8H171.4V0H173.4V0.8ZM177.4 0.8H175.4V0H177.4V0.8ZM181.4 0.8H179.4V0H181.4V0.8ZM185.4 0.8H183.4V0H185.4V0.8ZM189.4 0.8H187.4V0H189.4V0.8ZM193.4 0.8H191.4V0H193.4V0.8ZM197.4 0.8H195.4V0H197.4V0.8ZM201.4 0.8H199.4V0H201.4V0.8ZM205.4 0.8H203.4V0H205.4V0.8ZM209.4 0.8H207.4V0H209.4V0.8ZM213.4 0.8H211.4V0H213.4V0.8ZM217.4 0.8H215.4V0H217.4V0.8ZM221.4 0.8H219.4V0H221.4V0.8ZM225.4 0.8H223.4V0H225.4V0.8ZM229.4 0.8H227.4V0H229.4V0.8ZM233.4 0.8H231.4V0H233.4V0.8ZM237.4 0.8H235.4V0H237.4V0.8ZM241.4 0.8H239.4V0H241.4V0.8ZM245.4 0.8H243.4V0H245.4V0.8ZM249.4 0.8H247.4V0H249.4V0.8ZM253.4 0.8H251.4V0H253.4V0.8ZM257.4 0.8H255.4V0H257.4V0.8ZM261.4 0.8H259.4V0H261.4V0.8ZM265.4 0.8H263.4V0H265.4V0.8ZM269.4 0.8H267.4V0H269.4V0.8ZM273.4 0.8H271.4V0H273.4V0.8ZM277.4 0.8H275.4V0H277.4V0.8ZM281.4 0.8H279.4V0H281.4V0.8ZM285.4 0.8H283.4V0H285.4V0.8ZM289.4 0.8H287.4V0H289.4V0.8ZM293.4 0.8H291.4V0H293.4V0.8ZM297.4 0.8H295.4V0H297.4V0.8ZM301.4 0.8H299.4V0H301.4V0.8ZM305.4 0.8H303.4V0H305.4V0.8ZM309.4 0.8H307.4V0H309.4V0.8ZM313.4 0.8H311.4V0H313.4V0.8ZM317.4 0.8H315.4V0H317.4V0.8ZM321.4 0.8H319.4V0H321.4V0.8ZM325.4 0.8H323.4V0H325.4V0.8ZM329.4 0.8H327.4V0H329.4V0.8ZM333.4 0.8H331.4V0H333.4V0.8ZM337.4 0.8H335.4V0H337.4V0.8ZM341.4 0.8H339.4V0H341.4V0.8ZM345.4 0.8H343.4V0H345.4V0.8ZM349.4 0.8H347.4V0H349.4V0.8ZM353.4 0.8H351.4V0H353.4V0.8ZM357.4 0.8H355.4V0H357.4V0.8ZM361.4 0.8H359.4V0H361.4V0.8ZM365.4 0.8H363.4V0H365.4V0.8ZM369.4 0.8H367.4V0H369.4V0.8ZM373.4 0.8H371.4V0H373.4V0.8ZM377.4 0.8H375.4V0H377.4V0.8ZM381.4 0.8H379.4V0H381.4V0.8ZM385.4 0.8H383.4V0H385.4V0.8ZM389.4 0.8H387.4V0H389.4V0.8ZM393.4 0.8H391.4V0H393.4V0.8ZM397.4 0.8H395.4V0H397.4V0.8ZM401.4 0.8H399.4V0H401.4V0.8ZM405.4 0.8H403.4V0H405.4V0.8ZM409.4 0.8H407.4V0H409.4V0.8ZM413.4 0.8H411.4V0H413.4V0.8ZM417.4 0.8H415.4V0H417.4V0.8ZM421.4 0.8H419.4V0H421.4V0.8ZM425.4 0.8H423.4V0H425.4V0.8ZM429.4 0.8H427.4V0H429.4V0.8ZM433.4 0.8H431.4V0H433.4V0.8ZM437.4 0.8H435.4V0H437.4V0.8ZM441.4 0.8H439.4V0H441.4V0.8ZM445.4 0.8H443.4V0H445.4V0.8ZM449.4 0.8H447.4V0H449.4V0.8ZM453.4 0.8H451.4V0H453.4V0.8ZM457.4 0.8H455.4V0H457.4V0.8ZM461.4 0.8H459.4V0H461.4V0.8ZM465.4 0.8H463.4V0H465.4V0.8ZM469.4 0.8H467.4V0H469.4V0.8ZM473.4 0.8H471.4V0H473.4V0.8ZM477.4 0.8H475.4V0H477.4V0.8ZM481.4 0.8H479.4V0H481.4V0.8ZM485.4 0.8H483.4V0H485.4V0.8ZM489.4 0.8H487.4V0H489.4V0.8ZM493.4 0.8H491.4V0H493.4V0.8ZM497.4 0.8H495.4V0H497.4V0.8ZM501.4 0.8H499.4V0H501.4V0.8ZM505.4 0.8H503.4V0H505.4V0.8ZM509.4 0.8H507.4V0H509.4V0.8ZM513.4 0.8H511.4V0H513.4V0.8ZM517.4 0.8H515.4V0H517.4V0.8ZM521.4 0.8H519.4V0H521.4V0.8ZM525.4 0.8H523.4V0H525.4V0.8ZM529.4 0.8H527.4V0H529.4V0.8ZM533.4 0.8H531.4V0H533.4V0.8ZM537.4 0.8H535.4V0H537.4V0.8ZM541.4 0.8H539.4V0H541.4V0.8ZM545.4 0.8H543.4V0H545.4V0.8ZM549.4 0.8H547.4V0H549.4V0.8ZM553.4 0.8H551.4V0H553.4V0.8ZM557.4 0.8H555.4V0H557.4V0.8ZM561.4 0.8H559.4V0H561.4V0.8ZM565.4 0.8H563.4V0H565.4V0.8ZM569.4 0.8H567.4V0H569.4V0.8ZM573.4 0.8H571.4V0H573.4V0.8ZM577.4 0.8H575.4V0H577.4V0.8ZM581.4 0.8H579.4V0H581.4V0.8ZM585.4 0.8H583.4V0H585.4V0.8ZM589.4 0.8H587.4V0H589.4V0.8ZM593.4 0.8H591.4V0H593.4V0.8ZM597.4 0.8H595.4V0H597.4V0.8ZM601.4 0.8H599.4V0H601.4V0.8ZM605.4 0.8H603.4V0H605.4V0.8ZM609.4 0.8H607.4V0H609.4V0.8ZM613.4 0.8H611.4V0H613.4V0.8ZM617.4 0.8H615.4V0H617.4V0.8ZM621.4 0.8H619.4V0H621.4V0.8ZM625.4 0.8H623.4V0H625.4V0.8ZM629.4 0.8H627.4V0H629.4V0.8ZM633.4 0.8H631.4V0H633.4V0.8ZM637.4 0.8H635.4V0H637.4V0.8ZM641.4 0.8H639.4V0H641.4V0.8ZM645.4 0.8H643.4V0H645.4V0.8ZM649.4 0.8H647.4V0H649.4V0.8ZM653.4 0.8H651.4V0H653.4V0.8ZM657.4 0.8H655.4V0H657.4V0.8ZM661.4 0.8H659.4V0H661.4V0.8ZM665.4 0.8H663.4V0H665.4V0.8ZM669.4 0.8H667.4V0H669.4V0.8ZM673.4 0.8H671.4V0H673.4V0.8ZM677.4 0.8H675.4V0H677.4V0.8ZM681.4 0.8H679.4V0H681.4V0.8ZM685.4 0.8H683.4V0H685.4V0.8ZM689.4 0.8H687.4V0H689.4V0.8ZM693.4 0.8H691.4V0H693.4V0.8ZM697.4 0.8H695.4V0H697.4V0.8ZM701.4 0.8H699.4V0H701.4V0.8ZM705.4 0.8H703.4V0H705.4V0.8ZM709.4 0.8H707.4V0H709.4V0.8ZM713.4 0.8H711.4V0H713.4V0.8ZM717.4 0.8H715.4V0H717.4V0.8ZM721.4 0.8H719.4V0H721.4V0.8ZM725.4 0.8H723.4V0H725.4V0.8ZM729.4 0.8H727.4V0H729.4V0.8ZM733.4 0.8H731.4V0H733.4V0.8ZM737.4 0.8H735.4V0H737.4V0.8ZM741.4 0.8H739.4V0H741.4V0.8ZM745.4 0.8H743.4V0H745.4V0.8ZM749.4 0.8H747.4V0H749.4V0.8ZM753.4 0.8H751.4V0H753.4V0.8ZM757.4 0.8H755.4V0H757.4V0.8ZM761.4 0.8H759.4V0H761.4V0.8ZM765.4 0.8H763.4V0H765.4V0.8ZM769.4 0.8H767.4V0H769.4V0.8ZM773.4 0.8H771.4V0H773.4V0.8ZM777.4 0.8H775.4V0H777.4V0.8ZM781.4 0.8H779.4V0H781.4V0.8ZM785.4 0.8H783.4V0H785.4V0.8ZM789.4 0.8H787.4V0H789.4V0.8ZM793.4 0.8H791.4V0H793.4V0.8ZM797.4 0.8H795.4V0H797.4V0.8ZM801.4 0.8H799.4V0H801.4V0.8ZM805.4 0.8H803.4V0H805.4V0.8ZM809.4 0.8H807.4V0H809.4V0.8ZM813.4 0.8H811.4V0H813.4V0.8ZM817.4 0.8H815.4V0H817.4V0.8ZM821.4 0.8H819.4V0H821.4V0.8ZM825.4 0.8H823.4V0H825.4V0.8ZM829.4 0.8H827.4V0H829.4V0.8ZM833.4 0.8H831.4V0H833.4V0.8ZM837.4 0.8H835.4V0H837.4V0.8ZM841.4 0.8H839.4V0H841.4V0.8ZM845.4 0.8H843.4V0H845.4V0.8ZM848.4 0.8H847.4V0H848.4V0.8Z" fill="#2B2B32"/>
</svg>
