<svg width="849" height="2" viewBox="0 0 849 2" fill="none" xmlns="http://www.w3.org/2000/svg">
<path fill-rule="evenodd" clip-rule="evenodd" d="M0 0.999609C0 0.778695 0.179086 0.599609 0.4 0.599609H1.4V1.39961H0.4C0.179086 1.39961 0 1.22052 0 0.999609ZM5.4 1.39961H3.4V0.599609H5.4V1.39961ZM9.4 1.39961H7.4V0.599609H9.4V1.39961ZM13.4 1.39961H11.4V0.599609H13.4V1.39961ZM17.4 1.39961H15.4V0.599609H17.4V1.39961ZM21.4 1.39961H19.4V0.599609H21.4V1.39961ZM25.4 1.39961H23.4V0.599609H25.4V1.39961ZM29.4 1.39961H27.4V0.599609H29.4V1.39961ZM33.4 1.39961H31.4V0.599609H33.4V1.39961ZM37.4 1.39961H35.4V0.599609H37.4V1.39961ZM41.4 1.39961H39.4V0.599609H41.4V1.39961ZM45.4 1.39961H43.4V0.599609H45.4V1.39961ZM49.4 1.39961H47.4V0.599609H49.4V1.39961ZM53.4 1.39961H51.4V0.599609H53.4V1.39961ZM57.4 1.39961H55.4V0.599609H57.4V1.39961ZM61.4 1.39961H59.4V0.599609H61.4V1.39961ZM65.4 1.39961H63.4V0.599609H65.4V1.39961ZM69.4 1.39961H67.4V0.599609H69.4V1.39961ZM73.4 1.39961H71.4V0.599609H73.4V1.39961ZM77.4 1.39961H75.4V0.599609H77.4V1.39961ZM81.4 1.39961H79.4V0.599609H81.4V1.39961ZM85.4 1.39961H83.4V0.599609H85.4V1.39961ZM89.4 1.39961H87.4V0.599609H89.4V1.39961ZM93.4 1.39961H91.4V0.599609H93.4V1.39961ZM97.4 1.39961H95.4V0.599609H97.4V1.39961ZM101.4 1.39961H99.4V0.599609H101.4V1.39961ZM105.4 1.39961H103.4V0.599609H105.4V1.39961ZM109.4 1.39961H107.4V0.599609H109.4V1.39961ZM113.4 1.39961H111.4V0.599609H113.4V1.39961ZM117.4 1.39961H115.4V0.599609H117.4V1.39961ZM121.4 1.39961H119.4V0.599609H121.4V1.39961ZM125.4 1.39961H123.4V0.599609H125.4V1.39961ZM129.4 1.39961H127.4V0.599609H129.4V1.39961ZM133.4 1.39961H131.4V0.599609H133.4V1.39961ZM137.4 1.39961H135.4V0.599609H137.4V1.39961ZM141.4 1.39961H139.4V0.599609H141.4V1.39961ZM145.4 1.39961H143.4V0.599609H145.4V1.39961ZM149.4 1.39961H147.4V0.599609H149.4V1.39961ZM153.4 1.39961H151.4V0.599609H153.4V1.39961ZM157.4 1.39961H155.4V0.599609H157.4V1.39961ZM161.4 1.39961H159.4V0.599609H161.4V1.39961ZM165.4 1.39961H163.4V0.599609H165.4V1.39961ZM169.4 1.39961H167.4V0.599609H169.4V1.39961ZM173.4 1.39961H171.4V0.599609H173.4V1.39961ZM177.4 1.39961H175.4V0.599609H177.4V1.39961ZM181.4 1.39961H179.4V0.599609H181.4V1.39961ZM185.4 1.39961H183.4V0.599609H185.4V1.39961ZM189.4 1.39961H187.4V0.599609H189.4V1.39961ZM193.4 1.39961H191.4V0.599609H193.4V1.39961ZM197.4 1.39961H195.4V0.599609H197.4V1.39961ZM201.4 1.39961H199.4V0.599609H201.4V1.39961ZM205.4 1.39961H203.4V0.599609H205.4V1.39961ZM209.4 1.39961H207.4V0.599609H209.4V1.39961ZM213.4 1.39961H211.4V0.599609H213.4V1.39961ZM217.4 1.39961H215.4V0.599609H217.4V1.39961ZM221.4 1.39961H219.4V0.599609H221.4V1.39961ZM225.4 1.39961H223.4V0.599609H225.4V1.39961ZM229.4 1.39961H227.4V0.599609H229.4V1.39961ZM233.4 1.39961H231.4V0.599609H233.4V1.39961ZM237.4 1.39961H235.4V0.599609H237.4V1.39961ZM241.4 1.39961H239.4V0.599609H241.4V1.39961ZM245.4 1.39961H243.4V0.599609H245.4V1.39961ZM249.4 1.39961H247.4V0.599609H249.4V1.39961ZM253.4 1.39961H251.4V0.599609H253.4V1.39961ZM257.4 1.39961H255.4V0.599609H257.4V1.39961ZM261.4 1.39961H259.4V0.599609H261.4V1.39961ZM265.4 1.39961H263.4V0.599609H265.4V1.39961ZM269.4 1.39961H267.4V0.599609H269.4V1.39961ZM273.4 1.39961H271.4V0.599609H273.4V1.39961ZM277.4 1.39961H275.4V0.599609H277.4V1.39961ZM281.4 1.39961H279.4V0.599609H281.4V1.39961ZM285.4 1.39961H283.4V0.599609H285.4V1.39961ZM289.4 1.39961H287.4V0.599609H289.4V1.39961ZM293.4 1.39961H291.4V0.599609H293.4V1.39961ZM297.4 1.39961H295.4V0.599609H297.4V1.39961ZM301.4 1.39961H299.4V0.599609H301.4V1.39961ZM305.4 1.39961H303.4V0.599609H305.4V1.39961ZM309.4 1.39961H307.4V0.599609H309.4V1.39961ZM313.4 1.39961H311.4V0.599609H313.4V1.39961ZM317.4 1.39961H315.4V0.599609H317.4V1.39961ZM321.4 1.39961H319.4V0.599609H321.4V1.39961ZM325.4 1.39961H323.4V0.599609H325.4V1.39961ZM329.4 1.39961H327.4V0.599609H329.4V1.39961ZM333.4 1.39961H331.4V0.599609H333.4V1.39961ZM337.4 1.39961H335.4V0.599609H337.4V1.39961ZM341.4 1.39961H339.4V0.599609H341.4V1.39961ZM345.4 1.39961H343.4V0.599609H345.4V1.39961ZM349.4 1.39961H347.4V0.599609H349.4V1.39961ZM353.4 1.39961H351.4V0.599609H353.4V1.39961ZM357.4 1.39961H355.4V0.599609H357.4V1.39961ZM361.4 1.39961H359.4V0.599609H361.4V1.39961ZM365.4 1.39961H363.4V0.599609H365.4V1.39961ZM369.4 1.39961H367.4V0.599609H369.4V1.39961ZM373.4 1.39961H371.4V0.599609H373.4V1.39961ZM377.4 1.39961H375.4V0.599609H377.4V1.39961ZM381.4 1.39961H379.4V0.599609H381.4V1.39961ZM385.4 1.39961H383.4V0.599609H385.4V1.39961ZM389.4 1.39961H387.4V0.599609H389.4V1.39961ZM393.4 1.39961H391.4V0.599609H393.4V1.39961ZM397.4 1.39961H395.4V0.599609H397.4V1.39961ZM401.4 1.39961H399.4V0.599609H401.4V1.39961ZM405.4 1.39961H403.4V0.599609H405.4V1.39961ZM409.4 1.39961H407.4V0.599609H409.4V1.39961ZM413.4 1.39961H411.4V0.599609H413.4V1.39961ZM417.4 1.39961H415.4V0.599609H417.4V1.39961ZM421.4 1.39961H419.4V0.599609H421.4V1.39961ZM425.4 1.39961H423.4V0.599609H425.4V1.39961ZM429.4 1.39961H427.4V0.599609H429.4V1.39961ZM433.4 1.39961H431.4V0.599609H433.4V1.39961ZM437.4 1.39961H435.4V0.599609H437.4V1.39961ZM441.4 1.39961H439.4V0.599609H441.4V1.39961ZM445.4 1.39961H443.4V0.599609H445.4V1.39961ZM449.4 1.39961H447.4V0.599609H449.4V1.39961ZM453.4 1.39961H451.4V0.599609H453.4V1.39961ZM457.4 1.39961H455.4V0.599609H457.4V1.39961ZM461.4 1.39961H459.4V0.599609H461.4V1.39961ZM465.4 1.39961H463.4V0.599609H465.4V1.39961ZM469.4 1.39961H467.4V0.599609H469.4V1.39961ZM473.4 1.39961H471.4V0.599609H473.4V1.39961ZM477.4 1.39961H475.4V0.599609H477.4V1.39961ZM481.4 1.39961H479.4V0.599609H481.4V1.39961ZM485.4 1.39961H483.4V0.599609H485.4V1.39961ZM489.4 1.39961H487.4V0.599609H489.4V1.39961ZM493.4 1.39961H491.4V0.599609H493.4V1.39961ZM497.4 1.39961H495.4V0.599609H497.4V1.39961ZM501.4 1.39961H499.4V0.599609H501.4V1.39961ZM505.4 1.39961H503.4V0.599609H505.4V1.39961ZM509.4 1.39961H507.4V0.599609H509.4V1.39961ZM513.4 1.39961H511.4V0.599609H513.4V1.39961ZM517.4 1.39961H515.4V0.599609H517.4V1.39961ZM521.4 1.39961H519.4V0.599609H521.4V1.39961ZM525.4 1.39961H523.4V0.599609H525.4V1.39961ZM529.4 1.39961H527.4V0.599609H529.4V1.39961ZM533.4 1.39961H531.4V0.599609H533.4V1.39961ZM537.4 1.39961H535.4V0.599609H537.4V1.39961ZM541.4 1.39961H539.4V0.599609H541.4V1.39961ZM545.4 1.39961H543.4V0.599609H545.4V1.39961ZM549.4 1.39961H547.4V0.599609H549.4V1.39961ZM553.4 1.39961H551.4V0.599609H553.4V1.39961ZM557.4 1.39961H555.4V0.599609H557.4V1.39961ZM561.4 1.39961H559.4V0.599609H561.4V1.39961ZM565.4 1.39961H563.4V0.599609H565.4V1.39961ZM569.4 1.39961H567.4V0.599609H569.4V1.39961ZM573.4 1.39961H571.4V0.599609H573.4V1.39961ZM577.4 1.39961H575.4V0.599609H577.4V1.39961ZM581.4 1.39961H579.4V0.599609H581.4V1.39961ZM585.4 1.39961H583.4V0.599609H585.4V1.39961ZM589.4 1.39961H587.4V0.599609H589.4V1.39961ZM593.4 1.39961H591.4V0.599609H593.4V1.39961ZM597.4 1.39961H595.4V0.599609H597.4V1.39961ZM601.4 1.39961H599.4V0.599609H601.4V1.39961ZM605.4 1.39961H603.4V0.599609H605.4V1.39961ZM609.4 1.39961H607.4V0.599609H609.4V1.39961ZM613.4 1.39961H611.4V0.599609H613.4V1.39961ZM617.4 1.39961H615.4V0.599609H617.4V1.39961ZM621.4 1.39961H619.4V0.599609H621.4V1.39961ZM625.4 1.39961H623.4V0.599609H625.4V1.39961ZM629.4 1.39961H627.4V0.599609H629.4V1.39961ZM633.4 1.39961H631.4V0.599609H633.4V1.39961ZM637.4 1.39961H635.4V0.599609H637.4V1.39961ZM641.4 1.39961H639.4V0.599609H641.4V1.39961ZM645.4 1.39961H643.4V0.599609H645.4V1.39961ZM649.4 1.39961H647.4V0.599609H649.4V1.39961ZM653.4 1.39961H651.4V0.599609H653.4V1.39961ZM657.4 1.39961H655.4V0.599609H657.4V1.39961ZM661.4 1.39961H659.4V0.599609H661.4V1.39961ZM665.4 1.39961H663.4V0.599609H665.4V1.39961ZM669.4 1.39961H667.4V0.599609H669.4V1.39961ZM673.4 1.39961H671.4V0.599609H673.4V1.39961ZM677.4 1.39961H675.4V0.599609H677.4V1.39961ZM681.4 1.39961H679.4V0.599609H681.4V1.39961ZM685.4 1.39961H683.4V0.599609H685.4V1.39961ZM689.4 1.39961H687.4V0.599609H689.4V1.39961ZM693.4 1.39961H691.4V0.599609H693.4V1.39961ZM697.4 1.39961H695.4V0.599609H697.4V1.39961ZM701.4 1.39961H699.4V0.599609H701.4V1.39961ZM705.4 1.39961H703.4V0.599609H705.4V1.39961ZM709.4 1.39961H707.4V0.599609H709.4V1.39961ZM713.4 1.39961H711.4V0.599609H713.4V1.39961ZM717.4 1.39961H715.4V0.599609H717.4V1.39961ZM721.4 1.39961H719.4V0.599609H721.4V1.39961ZM725.4 1.39961H723.4V0.599609H725.4V1.39961ZM729.4 1.39961H727.4V0.599609H729.4V1.39961ZM733.4 1.39961H731.4V0.599609H733.4V1.39961ZM737.4 1.39961H735.4V0.599609H737.4V1.39961ZM741.4 1.39961H739.4V0.599609H741.4V1.39961ZM745.4 1.39961H743.4V0.599609H745.4V1.39961ZM749.4 1.39961H747.4V0.599609H749.4V1.39961ZM753.4 1.39961H751.4V0.599609H753.4V1.39961ZM757.4 1.39961H755.4V0.599609H757.4V1.39961ZM761.4 1.39961H759.4V0.599609H761.4V1.39961ZM765.4 1.39961H763.4V0.599609H765.4V1.39961ZM769.4 1.39961H767.4V0.599609H769.4V1.39961ZM773.4 1.39961H771.4V0.599609H773.4V1.39961ZM777.4 1.39961H775.4V0.599609H777.4V1.39961ZM781.4 1.39961H779.4V0.599609H781.4V1.39961ZM785.4 1.39961H783.4V0.599609H785.4V1.39961ZM789.4 1.39961H787.4V0.599609H789.4V1.39961ZM793.4 1.39961H791.4V0.599609H793.4V1.39961ZM797.4 1.39961H795.4V0.599609H797.4V1.39961ZM801.4 1.39961H799.4V0.599609H801.4V1.39961ZM805.4 1.39961H803.4V0.599609H805.4V1.39961ZM809.4 1.39961H807.4V0.599609H809.4V1.39961ZM813.4 1.39961H811.4V0.599609H813.4V1.39961ZM817.4 1.39961H815.4V0.599609H817.4V1.39961ZM821.4 1.39961H819.4V0.599609H821.4V1.39961ZM825.4 1.39961H823.4V0.599609H825.4V1.39961ZM829.4 1.39961H827.4V0.599609H829.4V1.39961ZM833.4 1.39961H831.4V0.599609H833.4V1.39961ZM837.4 1.39961H835.4V0.599609H837.4V1.39961ZM841.4 1.39961H839.4V0.599609H841.4V1.39961ZM845.4 1.39961H843.4V0.599609H845.4V1.39961ZM848.4 1.39961H847.4V0.599609H848.4V1.39961Z" fill="#2B2B32"/>
</svg>
