<svg width="27" height="11" viewBox="0 0 27 11" fill="none" xmlns="http://www.w3.org/2000/svg">
<path d="M18.1397 10.1823L15.8926 2.5459H17.4288L18.9252 8.15385H18.9998L20.5012 2.5459H22.0375L23.5289 8.12899H23.6035L25.09 2.5459H26.6262L24.3841 10.1823H22.8677L21.3166 4.66877H21.2022L19.6511 10.1823H18.1397Z" fill="#818798"/>
<path d="M11.4981 10.3362C10.7822 10.3362 10.1575 10.1721 9.62385 9.84402C9.09023 9.51589 8.67593 9.05685 8.38095 8.46689C8.08597 7.87692 7.93848 7.18753 7.93848 6.3987C7.93848 5.60656 8.08597 4.91386 8.38095 4.32058C8.67593 3.7273 9.09023 3.2666 9.62385 2.93848C10.1575 2.61035 10.7822 2.44629 11.4981 2.44629C12.214 2.44629 12.8388 2.61035 13.3724 2.93848C13.906 3.2666 14.3203 3.7273 14.6153 4.32058C14.9103 4.91386 15.0578 5.60656 15.0578 6.3987C15.0578 7.18753 14.9103 7.87692 14.6153 8.46689C14.3203 9.05685 13.906 9.51589 13.3724 9.84402C12.8388 10.1721 12.214 10.3362 11.4981 10.3362ZM11.5031 9.08833C11.9671 9.08833 12.3516 8.9657 12.6565 8.72044C12.9614 8.47517 13.1868 8.1487 13.3327 7.74103C13.4818 7.33336 13.5564 6.88426 13.5564 6.39373C13.5564 5.90652 13.4818 5.45907 13.3327 5.0514C13.1868 4.64042 12.9614 4.31064 12.6565 4.06206C12.3516 3.81348 11.9671 3.68919 11.5031 3.68919C11.0358 3.68919 10.648 3.81348 10.3398 4.06206C10.0348 4.31064 9.8078 4.64042 9.65865 5.0514C9.51281 5.45907 9.4399 5.90652 9.4399 6.39373C9.4399 6.88426 9.51281 7.33336 9.65865 7.74103C9.8078 8.1487 10.0348 8.47517 10.3398 8.72044C10.648 8.9657 11.0358 9.08833 11.5031 9.08833Z" fill="#818798"/>
<path d="M0.498047 10.1818V0H2.03427V8.85938H6.6479V10.1818H0.498047Z" fill="#818798"/>
</svg>
