<svg width="629" height="256" viewBox="0 0 629 256" fill="none" xmlns="http://www.w3.org/2000/svg">
<mask id="mask0_3388_11639" style="mask-type:alpha" maskUnits="userSpaceOnUse" x="0" y="0" width="629" height="256">
<path d="M0 4C0 1.79086 1.79086 0 4 0H625C627.209 0 629 1.79086 629 4V252C629 254.209 627.209 256 625 256H3.99999C1.79085 256 0 254.209 0 252V4Z" fill="#292A31"/>
</mask>
<g mask="url(#mask0_3388_11639)">
<g opacity="0.7" filter="url(#filter0_f_3388_11639)">
<path d="M643 287.5C643 328.093 495.03 361 312.5 361C129.97 361 -18 328.093 -18 287.5C-18 246.907 129.97 214 312.5 214C495.03 214 643 246.907 643 287.5Z" fill="url(#paint0_radial_3388_11639)" fill-opacity="0.15"/>
</g>
</g>
<defs>
<filter id="filter0_f_3388_11639" x="-68" y="164" width="761" height="247" filterUnits="userSpaceOnUse" color-interpolation-filters="sRGB">
<feFlood flood-opacity="0" result="BackgroundImageFix"/>
<feBlend mode="normal" in="SourceGraphic" in2="BackgroundImageFix" result="shape"/>
<feGaussianBlur stdDeviation="25" result="effect1_foregroundBlur_3388_11639"/>
</filter>
<radialGradient id="paint0_radial_3388_11639" cx="0" cy="0" r="1" gradientUnits="userSpaceOnUse" gradientTransform="translate(312.5 254.528) rotate(90) scale(106.472 478.762)">
<stop stop-color="#1C74F9"/>
<stop offset="1" stop-color="#2772F5" stop-opacity="0"/>
</radialGradient>
</defs>
</svg>
