<svg width="53" height="11" viewBox="0 0 53 11" fill="none" xmlns="http://www.w3.org/2000/svg">
<path d="M41.999 10.5893V2.95295H43.4259V4.19585H43.5203C43.6794 3.77492 43.9396 3.44679 44.3009 3.21147C44.6621 2.97283 45.0947 2.85352 45.5985 2.85352C46.1089 2.85352 46.5364 2.97283 46.8811 3.21147C47.2291 3.45011 47.486 3.77823 47.6517 4.19585H47.7313C47.9136 3.78817 48.2036 3.46336 48.6013 3.22141C48.999 2.97615 49.473 2.85352 50.0232 2.85352C50.7159 2.85352 51.281 3.07061 51.7185 3.50479C52.1593 3.93898 52.3797 4.59357 52.3797 5.46857V10.5893H50.8932V5.60778C50.8932 5.09073 50.7523 4.7162 50.4706 4.4842C50.1889 4.25219 49.8525 4.13619 49.4614 4.13619C48.9775 4.13619 48.6013 4.28533 48.3328 4.58363C48.0644 4.87861 47.9301 5.25811 47.9301 5.72212V10.5893H46.4486V5.51332C46.4486 5.09902 46.3193 4.76592 46.0608 4.51403C45.8023 4.26213 45.4659 4.13619 45.0516 4.13619C44.7699 4.13619 44.5097 4.21076 44.271 4.35991C44.0357 4.50574 43.8451 4.70958 43.6993 4.97141C43.5568 5.23325 43.4855 5.53652 43.4855 5.88121V10.5893H41.999Z" fill="#818798"/>
<path d="M38.5102 7.42259V2.95312H40.0017V10.5895H38.54V9.26705H38.4605C38.2848 9.67472 38.0031 10.0144 37.6153 10.2862C37.2309 10.5547 36.7519 10.6889 36.1785 10.6889C35.688 10.6889 35.2538 10.5812 34.876 10.3658C34.5015 10.147 34.2065 9.82386 33.991 9.39631C33.7789 8.96875 33.6729 8.4401 33.6729 7.81037V2.95312H35.1594V7.63139C35.1594 8.15175 35.3035 8.56605 35.5919 8.87429C35.8802 9.18253 36.2548 9.33665 36.7155 9.33665C36.9939 9.33665 37.2706 9.26705 37.5457 9.12784C37.8241 8.98864 38.0545 8.77817 38.2368 8.49645C38.4224 8.21473 38.5135 7.85677 38.5102 7.42259Z" fill="#818798"/>
<path d="M30.186 10.5895V2.95312H31.6725V10.5895H30.186ZM30.9367 1.77486C30.6782 1.77486 30.4561 1.68868 30.2705 1.51634C30.0882 1.34067 29.9971 1.13187 29.9971 0.889915C29.9971 0.64465 30.0882 0.435843 30.2705 0.263494C30.4561 0.0878313 30.6782 0 30.9367 0C31.1952 0 31.4156 0.0878313 31.5979 0.263494C31.7835 0.435843 31.8763 0.64465 31.8763 0.889915C31.8763 1.13187 31.7835 1.34067 31.5979 1.51634C31.4156 1.68868 31.1952 1.77486 30.9367 1.77486Z" fill="#818798"/>
<path d="M24.2816 10.7382C23.6651 10.7382 23.1149 10.5808 22.631 10.2659C22.1504 9.94771 21.7726 9.4953 21.4975 8.90865C21.2257 8.31869 21.0898 7.61106 21.0898 6.78578C21.0898 5.96049 21.2274 5.25453 21.5025 4.66788C21.7809 4.08123 22.1621 3.63213 22.646 3.32058C23.1299 3.00903 23.6784 2.85325 24.2915 2.85325C24.7655 2.85325 25.1467 2.9328 25.435 3.09189C25.7267 3.24766 25.9521 3.42995 26.1112 3.63876C26.2736 3.84757 26.3995 4.03152 26.489 4.19061H26.5785V0.407227H28.065V10.589H26.6133V9.40084H26.489C26.3995 9.56324 26.2702 9.74885 26.1012 9.95765C25.9355 10.1665 25.7068 10.3488 25.4151 10.5045C25.1235 10.6603 24.7456 10.7382 24.2816 10.7382ZM24.6097 9.47044C25.0373 9.47044 25.3986 9.35775 25.6935 9.13237C25.9918 8.90368 26.2172 8.58715 26.3697 8.1828C26.5255 7.77844 26.6033 7.3078 26.6033 6.77086C26.6033 6.24056 26.5271 5.77655 26.3746 5.37882C26.2222 4.98109 25.9985 4.67119 25.7035 4.44913C25.4085 4.22707 25.0439 4.11603 24.6097 4.11603C24.1623 4.11603 23.7894 4.23204 23.4911 4.46405C23.1928 4.69605 22.9674 5.01258 22.815 5.41362C22.6658 5.81466 22.5913 6.26708 22.5913 6.77086C22.5913 7.28128 22.6675 7.74032 22.82 8.14799C22.9724 8.55566 23.1978 8.87882 23.4961 9.11745C23.7977 9.35278 24.1689 9.47044 24.6097 9.47044Z" fill="#818798"/>
<path d="M16.4975 10.7434C15.7451 10.7434 15.0972 10.5827 14.5536 10.2612C14.0134 9.93638 13.5958 9.48065 13.3008 8.894C13.0091 8.30404 12.8633 7.61299 12.8633 6.82085C12.8633 6.03865 13.0091 5.34925 13.3008 4.75266C13.5958 4.15607 14.0067 3.6904 14.5337 3.35565C15.064 3.02089 15.6838 2.85352 16.3931 2.85352C16.824 2.85352 17.2416 2.92478 17.646 3.06729C18.0503 3.20981 18.4132 3.43353 18.7347 3.73846C19.0562 4.04338 19.3098 4.43945 19.4954 4.92667C19.681 5.41057 19.7738 5.99888 19.7738 6.69158V7.21857H13.7035V6.10494H18.3171C18.3171 5.71384 18.2376 5.36748 18.0785 5.06587C17.9194 4.76095 17.6957 4.52066 17.4073 4.34499C17.1223 4.16933 16.7875 4.0815 16.4031 4.0815C15.9854 4.0815 15.6209 4.18424 15.3093 4.38974C15.0011 4.59191 14.7624 4.85707 14.5934 5.18519C14.4277 5.51 14.3448 5.86299 14.3448 6.24414V7.11417C14.3448 7.62459 14.4343 8.05877 14.6133 8.41673C14.7956 8.77468 15.0491 9.04812 15.3739 9.23704C15.6987 9.42264 16.0782 9.51545 16.5124 9.51545C16.7942 9.51545 17.051 9.47567 17.283 9.39613C17.515 9.31327 17.7156 9.19064 17.8846 9.02823C18.0536 8.86583 18.1829 8.66531 18.2724 8.42667L19.6793 8.68022C19.5666 9.09452 19.3645 9.45745 19.0728 9.769C18.7844 10.0772 18.4215 10.3175 17.984 10.4899C17.5498 10.6589 17.0543 10.7434 16.4975 10.7434Z" fill="#818798"/>
<path d="M0.760742 0.407227H2.62509L5.86657 8.322H5.98588L9.22736 0.407227H11.0917V10.589H9.63006V3.22115H9.5356L6.53276 10.5741H5.31969L2.31685 3.21618H2.22239V10.589H0.760742V0.407227Z" fill="#818798"/>
</svg>
