<svg width="27" height="11" viewBox="0 0 27 11" fill="none" xmlns="http://www.w3.org/2000/svg">
<path d="M21.8227 5.58833V10.1821H20.6494V2.54572H21.7829V3.7389H21.8824C22.0613 3.35112 22.3331 3.03957 22.6977 2.80424C23.0623 2.56561 23.5329 2.44629 24.1096 2.44629C24.6267 2.44629 25.0791 2.55235 25.4669 2.76447C25.8547 2.97328 26.1563 3.29146 26.3717 3.71902C26.5872 4.14326 26.6949 4.68019 26.6949 5.32981V10.1821H25.5216V5.40936C25.5216 4.80945 25.3658 4.34212 25.0542 4.00737C24.7427 3.6693 24.3151 3.50027 23.7716 3.50027C23.397 3.50027 23.0623 3.58147 22.7673 3.74387C22.4756 3.90628 22.2453 4.14326 22.0763 4.45481C21.9072 4.76636 21.8227 5.14421 21.8227 5.58833Z" fill="#818798"/>
<path d="M15.3987 10.3412C14.7093 10.3412 14.1044 10.1771 13.5841 9.84899C13.067 9.52086 12.6627 9.06182 12.371 8.47186C12.0827 7.8819 11.9385 7.1925 11.9385 6.40368C11.9385 5.60822 12.0827 4.91386 12.371 4.32058C12.6627 3.7273 13.067 3.2666 13.5841 2.93848C14.1044 2.61035 14.7093 2.44629 15.3987 2.44629C16.0881 2.44629 16.6913 2.61035 17.2084 2.93848C17.7287 3.2666 18.1331 3.7273 18.4214 4.32058C18.7131 4.91386 18.8589 5.60822 18.8589 6.40368C18.8589 7.1925 18.7131 7.8819 18.4214 8.47186C18.1331 9.06182 17.7287 9.52086 17.2084 9.84899C16.6913 10.1771 16.0881 10.3412 15.3987 10.3412ZM15.3987 9.2872C15.9224 9.2872 16.3532 9.15297 16.6913 8.8845C17.0294 8.61603 17.2796 8.26305 17.442 7.82555C17.6044 7.38805 17.6856 6.91409 17.6856 6.40368C17.6856 5.89326 17.6044 5.41764 17.442 4.97683C17.2796 4.53601 17.0294 4.17972 16.6913 3.90794C16.3532 3.63616 15.9224 3.50027 15.3987 3.50027C14.875 3.50027 14.4442 3.63616 14.1061 3.90794C13.768 4.17972 13.5178 4.53601 13.3554 4.97683C13.193 5.41764 13.1118 5.89326 13.1118 6.40368C13.1118 6.91409 13.193 7.38805 13.3554 7.82555C13.5178 8.26305 13.768 8.61603 14.1061 8.8845C14.4442 9.15297 14.875 9.2872 15.3987 9.2872Z" fill="#818798"/>
<path d="M0 0H1.47159L4.93182 8.4517H5.05114L8.51136 0H9.98295V10.1818H8.82955V2.44602H8.73011L5.5483 10.1818H4.43466L1.25284 2.44602H1.15341V10.1818H0V0Z" fill="#818798"/>
</svg>
