<svg width="24" height="26" viewBox="0 0 24 26" fill="none" xmlns="http://www.w3.org/2000/svg">
<g clip-path="url(#clip0_3388_11863)">
<g clip-path="url(#clip1_3388_11863)">
<path d="M6.18652 22.042C6.50957 22.7848 7.04255 23.4171 7.71998 23.8612C8.39742 24.3054 9.18982 24.5419 9.99986 24.5419C10.8099 24.5419 11.6023 24.3054 12.2797 23.8612C12.9572 23.4171 13.4901 22.7848 13.8132 22.042H6.18652Z" fill="#DAF7FF"/>
<path d="M18.6598 14.9991L17.2132 10.2299C16.7499 8.56186 15.7427 7.09638 14.3514 6.06615C12.9601 5.03592 11.2646 4.5 9.53393 4.54347C7.8033 4.58693 6.13678 5.2073 4.79898 6.30607C3.46118 7.40484 2.52879 8.91904 2.14984 10.6082L1.02651 15.2224C0.877201 15.8355 0.869112 16.4746 1.00285 17.0913C1.13659 17.708 1.40866 18.2863 1.79853 18.7825C2.18839 19.2787 2.68588 19.6798 3.25344 19.9557C3.82099 20.2316 4.44379 20.3749 5.07484 20.3749H14.6723C15.323 20.3749 15.9645 20.2226 16.5457 19.9301C17.1268 19.6376 17.6314 19.2131 18.019 18.6905C18.4066 18.168 18.6665 17.5619 18.7778 16.9209C18.889 16.2799 18.8486 15.6217 18.6598 14.9991Z" fill="#DAF7FF"/>
</g>
<path d="M24 7.04199C24 10.908 20.866 14.042 17 14.042C13.134 14.042 10 10.908 10 7.04199C10 3.176 13.134 0.0419922 17 0.0419922C20.866 0.0419922 24 3.176 24 7.04199Z" fill="#F22A41"/>
<path d="M14.0407 11.0421V10.0904L16.5655 7.61523C16.807 7.37139 17.0082 7.15477 17.1692 6.96538C17.3302 6.77598 17.4509 6.59251 17.5314 6.41495C17.6119 6.23739 17.6522 6.048 17.6522 5.84677C17.6522 5.61713 17.6001 5.42063 17.4959 5.25728C17.3917 5.09156 17.2485 4.96372 17.0662 4.87376C16.8839 4.7838 16.6768 4.73881 16.4448 4.73881C16.2057 4.73881 15.9962 4.78853 15.8162 4.88796C15.6363 4.98503 15.4966 5.12352 15.3972 5.30345C15.3001 5.48337 15.2516 5.69762 15.2516 5.9462H13.998C13.998 5.48455 14.1034 5.08327 14.3141 4.74237C14.5248 4.40146 14.8148 4.13749 15.1841 3.95046C15.5558 3.76344 15.9819 3.66992 16.4625 3.66992C16.9502 3.66992 17.3787 3.76107 17.748 3.94336C18.1174 4.12565 18.4038 4.37541 18.6074 4.69265C18.8134 5.00988 18.9164 5.3721 18.9164 5.7793C18.9164 6.05155 18.8643 6.31907 18.7601 6.58185C18.656 6.84464 18.4725 7.13583 18.2097 7.45543C17.9493 7.77504 17.5835 8.16211 17.1124 8.61665L15.8588 9.89151V9.94123H19.0265V11.0421H14.0407Z" fill="white"/>
</g>
<defs>
<clipPath id="clip0_3388_11863">
<rect width="24" height="25" fill="white" transform="translate(0 0.0419922)"/>
</clipPath>
<clipPath id="clip1_3388_11863">
<rect width="20" height="20" fill="white" transform="translate(0 4.54199)"/>
</clipPath>
</defs>
</svg>
