<svg width="316" height="24" viewBox="0 0 316 24" fill="none" xmlns="http://www.w3.org/2000/svg">
<path d="M315.211 9.10476L312.901 9.51385C312.804 9.21839 312.651 8.93714 312.441 8.6701C312.236 8.40305 311.958 8.1843 311.605 8.01385C311.253 7.84339 310.813 7.75817 310.284 7.75817C309.563 7.75817 308.96 7.9201 308.478 8.24396C307.995 8.56215 307.753 8.97408 307.753 9.47976C307.753 9.91726 307.915 10.2695 308.239 10.5366C308.563 10.8036 309.086 11.0224 309.807 11.1928L311.887 11.6701C313.091 11.9485 313.989 12.3775 314.58 12.957C315.171 13.5366 315.466 14.2894 315.466 15.2156C315.466 15.9996 315.239 16.6985 314.784 17.3121C314.335 17.9201 313.708 18.3974 312.901 18.744C312.1 19.0906 311.171 19.2638 310.114 19.2638C308.648 19.2638 307.452 18.9513 306.526 18.3263C305.6 17.6957 305.032 16.8008 304.821 15.6417L307.284 15.2667C307.438 15.9087 307.753 16.3945 308.23 16.7241C308.708 17.0479 309.33 17.2099 310.097 17.2099C310.932 17.2099 311.6 17.0366 312.1 16.69C312.6 16.3377 312.85 15.9087 312.85 15.4031C312.85 14.994 312.696 14.6502 312.389 14.3718C312.088 14.0934 311.625 13.8832 311 13.7411L308.784 13.2553C307.563 12.9769 306.659 12.5337 306.074 11.9258C305.495 11.3178 305.205 10.5479 305.205 9.61612C305.205 8.84339 305.421 8.16726 305.853 7.58771C306.284 7.00817 306.881 6.55646 307.642 6.2326C308.404 5.90305 309.276 5.73828 310.259 5.73828C311.674 5.73828 312.787 6.0451 313.6 6.65874C314.412 7.26669 314.949 8.08203 315.211 9.10476Z" fill="white"/>
<path d="M302.793 5.90882V7.95428H295.643V5.90882H302.793ZM297.56 2.77246H300.108V15.156C300.108 15.6503 300.182 16.0225 300.33 16.2725C300.478 16.5168 300.668 16.6844 300.901 16.7753C301.14 16.8605 301.398 16.9031 301.677 16.9031C301.881 16.9031 302.06 16.8889 302.214 16.8605C302.367 16.8321 302.486 16.8094 302.572 16.7923L303.032 18.8975C302.884 18.9543 302.674 19.0111 302.401 19.0679C302.128 19.1304 301.787 19.1645 301.378 19.1702C300.708 19.1816 300.083 19.0622 299.503 18.8122C298.924 18.5622 298.455 18.1759 298.097 17.6531C297.739 17.1304 297.56 16.4742 297.56 15.6844V2.77246Z" fill="white"/>
<path d="M286.698 18.9998V5.90891H289.161V7.98846H289.298C289.536 7.28391 289.957 6.72994 290.559 6.32653C291.167 5.91744 291.854 5.71289 292.622 5.71289C292.781 5.71289 292.968 5.71857 293.184 5.72994C293.406 5.7413 293.579 5.7555 293.704 5.77255V8.21005C293.602 8.18164 293.42 8.15039 293.158 8.1163C292.897 8.07653 292.636 8.05664 292.374 8.05664C291.772 8.05664 291.235 8.18448 290.764 8.44016C290.298 8.69016 289.928 9.0396 289.656 9.48846C289.383 9.93164 289.247 10.4373 289.247 11.0055V18.9998H286.698Z" fill="white"/>
<path d="M278.254 19.2638C276.964 19.2638 275.853 18.9883 274.921 18.4371C273.995 17.8803 273.279 17.0991 272.773 16.0934C272.273 15.082 272.023 13.8974 272.023 12.5394C272.023 11.1985 272.273 10.0167 272.773 8.99396C273.279 7.97124 273.984 7.17294 274.887 6.59908C275.796 6.02521 276.859 5.73828 278.075 5.73828C278.813 5.73828 279.529 5.86044 280.222 6.10476C280.915 6.34908 281.538 6.7326 282.089 7.25533C282.64 7.77805 283.075 8.45703 283.393 9.29226C283.711 10.1218 283.87 11.1303 283.87 12.3178V13.2212H273.464V11.3121H281.373C281.373 10.6417 281.237 10.0479 280.964 9.5309C280.691 9.00817 280.308 8.59624 279.813 8.2951C279.325 7.99396 278.751 7.8434 278.092 7.8434C277.376 7.8434 276.751 8.01953 276.217 8.3718C275.688 8.7184 275.279 9.17294 274.989 9.73544C274.705 10.2923 274.563 10.8974 274.563 11.5508V13.0423C274.563 13.9173 274.717 14.6616 275.023 15.2752C275.336 15.8888 275.771 16.3576 276.327 16.6815C276.884 16.9996 277.535 17.1587 278.279 17.1587C278.762 17.1587 279.202 17.0906 279.6 16.9542C279.998 16.8121 280.342 16.6019 280.631 16.3235C280.921 16.0451 281.143 15.7014 281.296 15.2923L283.708 15.7269C283.515 16.4371 283.168 17.0593 282.668 17.5934C282.174 18.1218 281.552 18.5337 280.802 18.8292C280.058 19.119 279.208 19.2638 278.254 19.2638Z" fill="white"/>
<path d="M269.184 1.5459V19.0004H266.636V1.5459H269.184Z" fill="white"/>
<path d="M251.509 19.0004H248.714L254.995 1.5459H258.038L264.319 19.0004H261.524L256.589 4.71635H256.453L251.509 19.0004ZM251.978 12.1652H261.046V14.3811H251.978V12.1652Z" fill="white"/>
<path d="M233.356 19.2561C232.3 19.2561 231.356 18.9862 230.527 18.4465C229.703 17.901 229.055 17.1254 228.584 16.1198C228.118 15.1084 227.885 13.8953 227.885 12.4806C227.885 11.0658 228.121 9.85556 228.592 8.84988C229.069 7.84419 229.723 7.07431 230.552 6.54022C231.382 6.00613 232.322 5.73908 233.373 5.73908C234.186 5.73908 234.839 5.87544 235.334 6.14817C235.834 6.41522 236.22 6.72772 236.493 7.08567C236.771 7.44363 236.987 7.75897 237.14 8.03169H237.294V1.5459H239.842V19.0004H237.354V16.9635H237.14C236.987 17.2419 236.765 17.5601 236.476 17.9181C236.192 18.276 235.8 18.5885 235.3 18.8556C234.8 19.1226 234.152 19.2561 233.356 19.2561ZM233.919 17.0828C234.652 17.0828 235.271 16.8896 235.777 16.5033C236.288 16.1112 236.675 15.5686 236.936 14.8754C237.203 14.1823 237.336 13.3754 237.336 12.455C237.336 11.5459 237.206 10.7504 236.944 10.0686C236.683 9.38681 236.3 8.85556 235.794 8.47488C235.288 8.09419 234.663 7.90385 233.919 7.90385C233.152 7.90385 232.513 8.10272 232.001 8.50044C231.49 8.89817 231.104 9.44078 230.842 10.1283C230.586 10.8158 230.459 11.5914 230.459 12.455C230.459 13.33 230.589 14.1169 230.851 14.8158C231.112 15.5146 231.498 16.0686 232.01 16.4777C232.527 16.8811 233.163 17.0828 233.919 17.0828Z" fill="white"/>
<path d="M216.661 11.2269V18.9996H214.112V5.90874H216.558V8.03942H216.72C217.021 7.34624 217.493 6.78942 218.135 6.36896C218.783 5.94851 219.598 5.73828 220.581 5.73828C221.473 5.73828 222.254 5.92578 222.925 6.30078C223.595 6.6701 224.115 7.22124 224.484 7.95419C224.854 8.68714 225.038 9.5934 225.038 10.6729V18.9996H222.49V10.9798C222.49 10.0309 222.243 9.28942 221.749 8.75533C221.254 8.21555 220.575 7.94567 219.712 7.94567C219.121 7.94567 218.595 8.07351 218.135 8.32919C217.68 8.58487 217.32 8.95987 217.053 9.45419C216.791 9.94283 216.661 10.5337 216.661 11.2269Z" fill="white"/>
<path d="M204.257 19.2894C203.428 19.2894 202.678 19.136 202.007 18.8292C201.337 18.5167 200.806 18.065 200.414 17.4741C200.027 16.8832 199.834 16.1587 199.834 15.3008C199.834 14.5621 199.976 13.9542 200.26 13.4769C200.544 12.9996 200.928 12.6218 201.411 12.3434C201.894 12.065 202.433 11.8548 203.03 11.7127C203.627 11.5707 204.235 11.4627 204.854 11.3888C205.638 11.2979 206.274 11.2241 206.763 11.1673C207.252 11.1048 207.607 11.0053 207.828 10.869C208.05 10.7326 208.161 10.511 208.161 10.2042V10.1445C208.161 9.40021 207.95 8.82351 207.53 8.41442C207.115 8.00533 206.496 7.80078 205.672 7.80078C204.814 7.80078 204.138 7.99112 203.644 8.3718C203.155 8.7468 202.817 9.16442 202.629 9.62465L200.235 9.07919C200.519 8.28374 200.933 7.64169 201.479 7.15305C202.03 6.65874 202.664 6.30078 203.379 6.07919C204.095 5.85192 204.848 5.73828 205.638 5.73828C206.161 5.73828 206.715 5.80078 207.3 5.92578C207.891 6.0451 208.442 6.26669 208.953 6.59055C209.47 6.91442 209.894 7.37749 210.223 7.97976C210.553 8.57635 210.718 9.35192 210.718 10.3065V18.9996H208.229V17.2099H208.127C207.962 17.5394 207.715 17.8633 207.385 18.1815C207.056 18.4996 206.632 18.7639 206.115 18.9741C205.598 19.1843 204.979 19.2894 204.257 19.2894ZM204.811 17.244C205.516 17.244 206.118 17.1048 206.618 16.8263C207.124 16.5479 207.507 16.1843 207.769 15.7354C208.036 15.2809 208.169 14.7951 208.169 14.2781V12.5906C208.078 12.6815 207.902 12.7667 207.641 12.8462C207.385 12.9201 207.093 12.9854 206.763 13.0423C206.433 13.0934 206.112 13.1417 205.8 13.1871C205.487 13.2269 205.226 13.261 205.016 13.2894C204.521 13.3519 204.07 13.457 203.661 13.6048C203.257 13.7525 202.933 13.9656 202.689 14.244C202.45 14.5167 202.331 14.8803 202.331 15.3349C202.331 15.9656 202.564 16.4428 203.03 16.7667C203.496 17.0849 204.09 17.244 204.811 17.244Z" fill="white"/>
<path d="M184.242 19.2894C183.412 19.2894 182.662 19.136 181.992 18.8292C181.321 18.5167 180.79 18.065 180.398 17.4741C180.012 16.8832 179.818 16.1587 179.818 15.3008C179.818 14.5621 179.96 13.9542 180.245 13.4769C180.529 12.9996 180.912 12.6218 181.395 12.3434C181.878 12.065 182.418 11.8548 183.014 11.7127C183.611 11.5707 184.219 11.4627 184.838 11.3888C185.622 11.2979 186.259 11.2241 186.747 11.1673C187.236 11.1048 187.591 11.0053 187.813 10.869C188.034 10.7326 188.145 10.511 188.145 10.2042V10.1445C188.145 9.40021 187.935 8.82351 187.514 8.41442C187.1 8.00533 186.48 7.80078 185.656 7.80078C184.798 7.80078 184.122 7.99112 183.628 8.3718C183.139 8.7468 182.801 9.16442 182.614 9.62465L180.219 9.07919C180.503 8.28374 180.918 7.64169 181.463 7.15305C182.014 6.65874 182.648 6.30078 183.364 6.07919C184.08 5.85192 184.833 5.73828 185.622 5.73828C186.145 5.73828 186.699 5.80078 187.284 5.92578C187.875 6.0451 188.426 6.26669 188.938 6.59055C189.455 6.91442 189.878 7.37749 190.208 7.97976C190.537 8.57635 190.702 9.35192 190.702 10.3065V18.9996H188.213V17.2099H188.111C187.946 17.5394 187.699 17.8633 187.37 18.1815C187.04 18.4996 186.617 18.7639 186.1 18.9741C185.583 19.1843 184.963 19.2894 184.242 19.2894ZM184.796 17.244C185.5 17.244 186.102 17.1048 186.602 16.8263C187.108 16.5479 187.492 16.1843 187.753 15.7354C188.02 15.2809 188.154 14.7951 188.154 14.2781V12.5906C188.063 12.6815 187.887 12.7667 187.625 12.8462C187.37 12.9201 187.077 12.9854 186.747 13.0423C186.418 13.0934 186.097 13.1417 185.784 13.1871C185.472 13.2269 185.21 13.261 185 13.2894C184.506 13.3519 184.054 13.457 183.645 13.6048C183.242 13.7525 182.918 13.9656 182.673 14.244C182.435 14.5167 182.316 14.8803 182.316 15.3349C182.316 15.9656 182.548 16.4428 183.014 16.7667C183.48 17.0849 184.074 17.244 184.796 17.244Z" fill="white"/>
<path d="M177.613 5.90882V7.95428H170.463V5.90882H177.613ZM172.381 2.77246H174.929V15.156C174.929 15.6503 175.003 16.0225 175.15 16.2725C175.298 16.5168 175.488 16.6844 175.721 16.7753C175.96 16.8605 176.219 16.9031 176.497 16.9031C176.702 16.9031 176.881 16.8889 177.034 16.8605C177.187 16.8321 177.307 16.8094 177.392 16.7923L177.852 18.8975C177.704 18.9543 177.494 19.0111 177.221 19.0679C176.949 19.1304 176.608 19.1645 176.199 19.1702C175.528 19.1816 174.903 19.0622 174.324 18.8122C173.744 18.5622 173.275 18.1759 172.917 17.6531C172.559 17.1304 172.381 16.4742 172.381 15.6844V2.77246Z" fill="white"/>
<path d="M161.648 19.2894C160.818 19.2894 160.068 19.136 159.398 18.8292C158.727 18.5167 158.196 18.065 157.804 17.4741C157.418 16.8832 157.225 16.1587 157.225 15.3008C157.225 14.5621 157.367 13.9542 157.651 13.4769C157.935 12.9996 158.318 12.6218 158.801 12.3434C159.284 12.065 159.824 11.8548 160.421 11.7127C161.017 11.5707 161.625 11.4627 162.245 11.3888C163.029 11.2979 163.665 11.2241 164.154 11.1673C164.642 11.1048 164.997 11.0053 165.219 10.869C165.441 10.7326 165.551 10.511 165.551 10.2042V10.1445C165.551 9.40021 165.341 8.82351 164.921 8.41442C164.506 8.00533 163.887 7.80078 163.063 7.80078C162.205 7.80078 161.529 7.99112 161.034 8.3718C160.546 8.7468 160.208 9.16442 160.02 9.62465L157.625 9.07919C157.909 8.28374 158.324 7.64169 158.87 7.15305C159.421 6.65874 160.054 6.30078 160.77 6.07919C161.486 5.85192 162.239 5.73828 163.029 5.73828C163.551 5.73828 164.105 5.80078 164.691 5.92578C165.281 6.0451 165.833 6.26669 166.344 6.59055C166.861 6.91442 167.284 7.37749 167.614 7.97976C167.943 8.57635 168.108 9.35192 168.108 10.3065V18.9996H165.62V17.2099H165.517C165.352 17.5394 165.105 17.8633 164.776 18.1815C164.446 18.4996 164.023 18.7639 163.506 18.9741C162.989 19.1843 162.369 19.2894 161.648 19.2894ZM162.202 17.244C162.906 17.244 163.509 17.1048 164.009 16.8263C164.514 16.5479 164.898 16.1843 165.159 15.7354C165.426 15.2809 165.56 14.7951 165.56 14.2781V12.5906C165.469 12.6815 165.293 12.7667 165.031 12.8462C164.776 12.9201 164.483 12.9854 164.154 13.0423C163.824 13.0934 163.503 13.1417 163.191 13.1871C162.878 13.2269 162.617 13.261 162.406 13.2894C161.912 13.3519 161.46 13.457 161.051 13.6048C160.648 13.7525 160.324 13.9656 160.08 14.244C159.841 14.5167 159.722 14.8803 159.722 15.3349C159.722 15.9656 159.955 16.4428 160.421 16.7667C160.887 17.0849 161.48 17.244 162.202 17.244Z" fill="white"/>
<path d="M146.373 19.0004H140.723V1.5459H146.552C148.262 1.5459 149.731 1.89533 150.958 2.59419C152.186 3.28738 153.126 4.28453 153.779 5.58567C154.439 6.88113 154.768 8.4351 154.768 10.2476C154.768 12.0658 154.436 13.6283 153.771 14.9351C153.112 16.2419 152.157 17.2476 150.907 17.9521C149.657 18.651 148.146 19.0004 146.373 19.0004ZM143.356 16.6993H146.228C147.558 16.6993 148.663 16.4493 149.544 15.9493C150.424 15.4436 151.083 14.7135 151.521 13.759C151.958 12.7987 152.177 11.6283 152.177 10.2476C152.177 8.87828 151.958 7.71635 151.521 6.76181C151.089 5.80726 150.444 5.08283 149.586 4.58851C148.728 4.09419 147.663 3.84703 146.39 3.84703H143.356V16.6993Z" fill="white"/>
<path d="M130.739 1.5459V19.0004H128.19V1.5459H130.739Z" fill="white"/>
<path d="M118.335 19.2894C117.506 19.2894 116.756 19.136 116.085 18.8292C115.415 18.5167 114.884 18.065 114.492 17.4741C114.105 16.8832 113.912 16.1587 113.912 15.3008C113.912 14.5621 114.054 13.9542 114.338 13.4769C114.622 12.9996 115.006 12.6218 115.489 12.3434C115.972 12.065 116.512 11.8548 117.108 11.7127C117.705 11.5707 118.313 11.4627 118.932 11.3888C119.716 11.2979 120.352 11.2241 120.841 11.1673C121.33 11.1048 121.685 11.0053 121.906 10.869C122.128 10.7326 122.239 10.511 122.239 10.2042V10.1445C122.239 9.40021 122.029 8.82351 121.608 8.41442C121.193 8.00533 120.574 7.80078 119.75 7.80078C118.892 7.80078 118.216 7.99112 117.722 8.3718C117.233 8.7468 116.895 9.16442 116.708 9.62465L114.313 9.07919C114.597 8.28374 115.012 7.64169 115.557 7.15305C116.108 6.65874 116.742 6.30078 117.458 6.07919C118.173 5.85192 118.926 5.73828 119.716 5.73828C120.239 5.73828 120.793 5.80078 121.378 5.92578C121.969 6.0451 122.52 6.26669 123.031 6.59055C123.548 6.91442 123.972 7.37749 124.301 7.97976C124.631 8.57635 124.796 9.35192 124.796 10.3065V18.9996H122.307V17.2099H122.205C122.04 17.5394 121.793 17.8633 121.463 18.1815C121.134 18.4996 120.71 18.7639 120.193 18.9741C119.676 19.1843 119.057 19.2894 118.335 19.2894ZM118.889 17.244C119.594 17.244 120.196 17.1048 120.696 16.8263C121.202 16.5479 121.585 16.1843 121.847 15.7354C122.114 15.2809 122.247 14.7951 122.247 14.2781V12.5906C122.156 12.6815 121.98 12.7667 121.719 12.8462C121.463 12.9201 121.171 12.9854 120.841 13.0423C120.512 13.0934 120.191 13.1417 119.878 13.1871C119.566 13.2269 119.304 13.261 119.094 13.2894C118.6 13.3519 118.148 13.457 117.739 13.6048C117.335 13.7525 117.012 13.9656 116.767 14.244C116.529 14.5167 116.409 14.8803 116.409 15.3349C116.409 15.9656 116.642 16.4428 117.108 16.7667C117.574 17.0849 118.168 17.244 118.889 17.244Z" fill="white"/>
<path d="M102.731 11.2269V18.9996H100.183V5.90874H102.629V8.03942H102.791C103.092 7.34624 103.563 6.78942 104.205 6.36896C104.853 5.94851 105.668 5.73828 106.651 5.73828C107.543 5.73828 108.325 5.92578 108.995 6.30078C109.666 6.6701 110.185 7.22124 110.555 7.95419C110.924 8.68714 111.109 9.5934 111.109 10.6729V18.9996H108.56V10.9798C108.56 10.0309 108.313 9.28942 107.819 8.75533C107.325 8.21555 106.646 7.94567 105.782 7.94567C105.191 7.94567 104.666 8.07351 104.205 8.32919C103.751 8.58487 103.39 8.95987 103.123 9.45419C102.862 9.94283 102.731 10.5337 102.731 11.2269Z" fill="white"/>
<path d="M91.2351 19.2638C90.0078 19.2638 88.9368 18.9826 88.022 18.4201C87.1072 17.8576 86.397 17.0707 85.8913 16.0593C85.3857 15.0479 85.1328 13.8661 85.1328 12.5138C85.1328 11.1559 85.3857 9.96839 85.8913 8.95135C86.397 7.9343 87.1072 7.14453 88.022 6.58203C88.9368 6.01953 90.0078 5.73828 91.2351 5.73828C92.4624 5.73828 93.5334 6.01953 94.4482 6.58203C95.3629 7.14453 96.0732 7.9343 96.5788 8.95135C97.0845 9.96839 97.3374 11.1559 97.3374 12.5138C97.3374 13.8661 97.0845 15.0479 96.5788 16.0593C96.0732 17.0707 95.3629 17.8576 94.4482 18.4201C93.5334 18.9826 92.4624 19.2638 91.2351 19.2638ZM91.2436 17.1246C92.0391 17.1246 92.6982 16.9144 93.2209 16.494C93.7436 16.0735 94.13 15.5138 94.38 14.815C94.6357 14.1161 94.7635 13.3462 94.7635 12.5053C94.7635 11.6701 94.6357 10.9031 94.38 10.2042C94.13 9.49965 93.7436 8.9343 93.2209 8.50817C92.6982 8.08203 92.0391 7.86896 91.2436 7.86896C90.4425 7.86896 89.7777 8.08203 89.2493 8.50817C88.7266 8.9343 88.3374 9.49965 88.0817 10.2042C87.8317 10.9031 87.7067 11.6701 87.7067 12.5053C87.7067 13.3462 87.8317 14.1161 88.0817 14.815C88.3374 15.5138 88.7266 16.0735 89.2493 16.494C89.7777 16.9144 90.4425 17.1246 91.2436 17.1246Z" fill="white"/>
<path d="M79.7448 19.0001V5.90918H82.2931V19.0001H79.7448ZM81.0317 3.88929C80.5885 3.88929 80.2078 3.74157 79.8896 3.44611C79.5771 3.14498 79.4209 2.78702 79.4209 2.37225C79.4209 1.95179 79.5771 1.59384 79.8896 1.29838C80.2078 0.997248 80.5885 0.84668 81.0317 0.84668C81.4749 0.84668 81.8527 0.997248 82.1652 1.29838C82.4834 1.59384 82.6425 1.95179 82.6425 2.37225C82.6425 2.78702 82.4834 3.14498 82.1652 3.44611C81.8527 3.74157 81.4749 3.88929 81.0317 3.88929Z" fill="white"/>
<path d="M76.926 5.90882V7.95428H69.7754V5.90882H76.926ZM71.693 2.77246H74.2413V15.156C74.2413 15.6503 74.3152 16.0225 74.4629 16.2725C74.6106 16.5168 74.801 16.6844 75.0339 16.7753C75.2725 16.8605 75.5311 16.9031 75.8095 16.9031C76.014 16.9031 76.193 16.8889 76.3464 16.8605C76.4998 16.8321 76.6191 16.8094 76.7044 16.7923L77.1646 18.8975C77.0169 18.9543 76.8066 19.0111 76.5339 19.0679C76.2612 19.1304 75.9203 19.1645 75.5112 19.1702C74.8407 19.1816 74.2157 19.0622 73.6362 18.8122C73.0566 18.5622 72.5879 18.1759 72.2299 17.6531C71.872 17.1304 71.693 16.4742 71.693 15.6844V2.77246Z" fill="white"/>
<path d="M60.9604 19.2894C60.1309 19.2894 59.3809 19.136 58.7104 18.8292C58.04 18.5167 57.5087 18.065 57.1167 17.4741C56.7303 16.8832 56.5371 16.1587 56.5371 15.3008C56.5371 14.5621 56.6792 13.9542 56.9632 13.4769C57.2473 12.9996 57.6309 12.6218 58.1138 12.3434C58.5968 12.065 59.1365 11.8548 59.7331 11.7127C60.3297 11.5707 60.9377 11.4627 61.557 11.3888C62.3411 11.2979 62.9775 11.2241 63.4661 11.1673C63.9547 11.1048 64.3098 11.0053 64.5314 10.869C64.753 10.7326 64.8638 10.511 64.8638 10.2042V10.1445C64.8638 9.40021 64.6536 8.82351 64.2331 8.41442C63.8184 8.00533 63.199 7.80078 62.3752 7.80078C61.5172 7.80078 60.8411 7.99112 60.3468 8.3718C59.8581 8.7468 59.5201 9.16442 59.3326 9.62465L56.9377 9.07919C57.2218 8.28374 57.6365 7.64169 58.182 7.15305C58.7331 6.65874 59.3667 6.30078 60.0826 6.07919C60.7985 5.85192 61.5513 5.73828 62.3411 5.73828C62.8638 5.73828 63.4178 5.80078 64.003 5.92578C64.5939 6.0451 65.1451 6.26669 65.6564 6.59055C66.1735 6.91442 66.5968 7.37749 66.9263 7.97976C67.2559 8.57635 67.4206 9.35192 67.4206 10.3065V18.9996H64.932V17.2099H64.8297C64.665 17.5394 64.4178 17.8633 64.0882 18.1815C63.7587 18.4996 63.3354 18.7639 62.8184 18.9741C62.3013 19.1843 61.682 19.2894 60.9604 19.2894ZM61.5144 17.244C62.2189 17.244 62.8212 17.1048 63.3212 16.8263C63.8269 16.5479 64.2104 16.1843 64.4718 15.7354C64.7388 15.2809 64.8723 14.7951 64.8723 14.2781V12.5906C64.7814 12.6815 64.6053 12.7667 64.3439 12.8462C64.0882 12.9201 63.7956 12.9854 63.4661 13.0423C63.1365 13.0934 62.8155 13.1417 62.503 13.1871C62.1905 13.2269 61.9292 13.261 61.7189 13.2894C61.2246 13.3519 60.7729 13.457 60.3638 13.6048C59.9604 13.7525 59.6365 13.9656 59.3922 14.244C59.1536 14.5167 59.0343 14.8803 59.0343 15.3349C59.0343 15.9656 59.2672 16.4428 59.7331 16.7667C60.199 17.0849 60.7928 17.244 61.5144 17.244Z" fill="white"/>
<path d="M48.0576 18.9998V5.90891H50.5207V7.98846H50.657C50.8957 7.28391 51.3161 6.72994 51.9184 6.32653C52.5264 5.91744 53.2139 5.71289 53.9809 5.71289C54.14 5.71289 54.3275 5.71857 54.5434 5.72994C54.765 5.7413 54.9383 5.7555 55.0633 5.77255V8.21005C54.961 8.18164 54.7792 8.15039 54.5178 8.1163C54.2565 8.07653 53.9951 8.05664 53.7338 8.05664C53.1315 8.05664 52.5945 8.18448 52.123 8.44016C51.657 8.69016 51.2877 9.0396 51.015 9.48846C50.7423 9.93164 50.6059 10.4373 50.6059 11.0055V18.9998H48.0576Z" fill="white"/>
<path d="M39.6129 19.2638C38.3232 19.2638 37.2124 18.9883 36.2805 18.4371C35.3544 17.8803 34.6385 17.0991 34.1328 16.0934C33.6328 15.082 33.3828 13.8974 33.3828 12.5394C33.3828 11.1985 33.6328 10.0167 34.1328 8.99396C34.6385 7.97124 35.343 7.17294 36.2464 6.59908C37.1555 6.02521 38.218 5.73828 39.4339 5.73828C40.1726 5.73828 40.8885 5.86044 41.5817 6.10476C42.2749 6.34908 42.897 6.7326 43.4482 7.25533C43.9993 7.77805 44.434 8.45703 44.7521 9.29226C45.0703 10.1218 45.2294 11.1303 45.2294 12.3178V13.2212H34.8232V11.3121H42.7322C42.7322 10.6417 42.5959 10.0479 42.3232 9.5309C42.0504 9.00817 41.6669 8.59624 41.1726 8.2951C40.6839 7.99396 40.1101 7.8434 39.451 7.8434C38.7351 7.8434 38.1101 8.01953 37.576 8.3718C37.0476 8.7184 36.6385 9.17294 36.3487 9.73544C36.0646 10.2923 35.9226 10.8974 35.9226 11.5508V13.0423C35.9226 13.9173 36.076 14.6616 36.3828 15.2752C36.6953 15.8888 37.13 16.3576 37.6868 16.6815C38.2436 16.9996 38.8942 17.1587 39.6385 17.1587C40.1214 17.1587 40.5618 17.0906 40.9595 16.9542C41.3572 16.8121 41.701 16.6019 41.9908 16.3235C42.2805 16.0451 42.5021 15.7014 42.6555 15.2923L45.0675 15.7269C44.8743 16.4371 44.5277 17.0593 44.0277 17.5934C43.5334 18.1218 42.9112 18.5337 42.1612 18.8292C41.4169 19.119 40.5675 19.2638 39.6129 19.2638Z" fill="white"/>
<path d="M19.1592 23.9087V5.90874H21.6478V8.0309H21.8609C22.0086 7.75817 22.2217 7.44283 22.5001 7.08487C22.7785 6.72692 23.1649 6.41442 23.6592 6.14737C24.1535 5.87465 24.8069 5.73828 25.6194 5.73828C26.6762 5.73828 27.6194 6.00533 28.449 6.53942C29.2785 7.07351 29.9291 7.8434 30.4007 8.84908C30.8779 9.85476 31.1166 11.065 31.1166 12.4798C31.1166 13.8945 30.8808 15.1076 30.4092 16.119C29.9376 17.1246 29.2899 17.9002 28.466 18.4457C27.6421 18.9854 26.7018 19.2553 25.645 19.2553C24.8495 19.2553 24.199 19.1218 23.6933 18.8548C23.1933 18.5877 22.8012 18.2752 22.5171 17.9173C22.233 17.5593 22.0143 17.2411 21.8609 16.9627H21.7075V23.9087H19.1592ZM21.6563 12.4542C21.6563 13.3746 21.7899 14.1815 22.0569 14.8746C22.324 15.5678 22.7103 16.1104 23.216 16.5025C23.7217 16.8888 24.341 17.082 25.074 17.082C25.8353 17.082 26.4717 16.8803 26.983 16.4769C27.4944 16.0678 27.8808 15.5138 28.1421 14.815C28.4092 14.1161 28.5427 13.3292 28.5427 12.4542C28.5427 11.5906 28.412 10.815 28.1507 10.1275C27.895 9.43999 27.5086 8.89737 26.9916 8.49965C26.4802 8.10192 25.841 7.90305 25.074 7.90305C24.3353 7.90305 23.7103 8.0934 23.199 8.47408C22.6933 8.85476 22.3097 9.38601 22.0484 10.0678C21.787 10.7496 21.6563 11.5451 21.6563 12.4542Z" fill="white"/>
<path d="M16.0799 10.2726C16.0799 12.1362 15.739 13.7385 15.0572 15.0794C14.3754 16.4146 13.4407 17.443 12.2532 18.1646C11.0714 18.8805 9.72763 19.2385 8.22195 19.2385C6.71058 19.2385 5.36115 18.8805 4.17365 18.1646C2.99183 17.443 2.06001 16.4118 1.3782 15.0708C0.696378 13.7299 0.355469 12.1305 0.355469 10.2726C0.355469 8.40891 0.696378 6.80948 1.3782 5.47425C2.06001 4.13335 2.99183 3.10494 4.17365 2.38903C5.36115 1.66744 6.71058 1.30664 8.22195 1.30664C9.72763 1.30664 11.0714 1.66744 12.2532 2.38903C13.4407 3.10494 14.3754 4.13335 15.0572 5.47425C15.739 6.80948 16.0799 8.40891 16.0799 10.2726ZM13.4719 10.2726C13.4719 8.8521 13.2418 7.65607 12.7816 6.68448C12.3271 5.70721 11.7021 4.96857 10.9066 4.46857C10.1168 3.96289 9.22195 3.71005 8.22195 3.71005C7.21626 3.71005 6.31854 3.96289 5.52876 4.46857C4.73899 4.96857 4.11399 5.70721 3.65376 6.68448C3.19922 7.65607 2.97195 8.8521 2.97195 10.2726C2.97195 11.693 3.19922 12.8919 3.65376 13.8691C4.11399 14.8407 4.73899 15.5794 5.52876 16.0851C6.31854 16.5851 7.21626 16.8351 8.22195 16.8351C9.22195 16.8351 10.1168 16.5851 10.9066 16.0851C11.7021 15.5794 12.3271 14.8407 12.7816 13.8691C13.2418 12.8919 13.4719 11.693 13.4719 10.2726Z" fill="white"/>
</svg>
