<svg width="28" height="28" viewBox="0 0 28 28" fill="none" xmlns="http://www.w3.org/2000/svg">
<g clip-path="url(#clip0_3388_11626)">
<path d="M0 14C0 6.26801 6.26801 0 14 0C21.732 0 28 6.26801 28 14C28 21.732 21.732 28 14 28C6.26801 28 0 21.732 0 14Z" fill="#121416"/>
<path d="M6.50001 15.5C7.32845 15.5 8.00002 14.8285 8.00002 14C8.00002 13.1716 7.32845 12.5 6.50001 12.5C5.67158 12.5 5 13.1716 5 14C5 14.8285 5.67158 15.5 6.50001 15.5Z" fill="#374957"/>
<path d="M14 15.5C14.8285 15.5 15.5 14.8285 15.5 14C15.5 13.1716 14.8285 12.5 14 12.5C13.1716 12.5 12.5 13.1716 12.5 14C12.5 14.8285 13.1716 15.5 14 15.5Z" fill="#374957"/>
<path d="M21.5 15.5C22.3285 15.5 23 14.8285 23 14C23 13.1716 22.3285 12.5 21.5 12.5C20.6716 12.5 20 13.1716 20 14C20 14.8285 20.6716 15.5 21.5 15.5Z" fill="#374957"/>
</g>
<defs>
<clipPath id="clip0_3388_11626">
<rect width="28" height="28" fill="white"/>
</clipPath>
</defs>
</svg>
