<svg width="37" height="12" viewBox="0 0 37 12" fill="none" xmlns="http://www.w3.org/2000/svg">
<path d="M32.5723 10.9471V3.31072H33.7058V4.46413H33.7853C33.9245 4.08629 34.1764 3.77971 34.541 3.54439C34.9056 3.30907 35.3166 3.19141 35.774 3.19141C35.8601 3.19141 35.9679 3.19306 36.0971 3.19638C36.2264 3.19969 36.3242 3.20466 36.3904 3.21129V4.40447C36.3507 4.39453 36.2595 4.37962 36.117 4.35973C35.9778 4.33653 35.8303 4.32493 35.6745 4.32493C35.3033 4.32493 34.9719 4.40282 34.6802 4.55859C34.3919 4.71106 34.1632 4.92318 33.9941 5.19496C33.8284 5.46342 33.7456 5.77 33.7456 6.1147V10.9471H32.5723Z" fill="white"/>
<path d="M27.6261 11.1058C26.8903 11.1058 26.2556 10.9434 25.7219 10.6186C25.1916 10.2905 24.7823 9.8331 24.494 9.24645C24.2089 8.65649 24.0664 7.97041 24.0664 7.18821C24.0664 6.40601 24.2089 5.71662 24.494 5.12003C24.7823 4.52012 25.1834 4.05279 25.6971 3.71804C26.2141 3.37997 26.8174 3.21094 27.5067 3.21094C27.9045 3.21094 28.2972 3.27723 28.685 3.4098C29.0728 3.54238 29.4258 3.75781 29.744 4.05611C30.0621 4.35109 30.3157 4.74219 30.5046 5.2294C30.6935 5.71662 30.788 6.31652 30.788 7.02912V7.52628H24.9016V6.51207H29.5948C29.5948 6.0812 29.5086 5.69673 29.3363 5.35866C29.1673 5.0206 28.9253 4.75379 28.6104 4.55824C28.2989 4.36269 27.931 4.26491 27.5067 4.26491C27.0394 4.26491 26.6351 4.38092 26.2937 4.61293C25.9556 4.84162 25.6954 5.13991 25.5131 5.50781C25.3308 5.87571 25.2397 6.27012 25.2397 6.69105V7.36719C25.2397 7.94389 25.3391 8.43277 25.538 8.83381C25.7402 9.23153 26.0202 9.5348 26.3782 9.74361C26.7361 9.9491 27.1521 10.0518 27.6261 10.0518C27.9343 10.0518 28.2127 10.0088 28.4613 9.92259C28.7132 9.8331 28.9303 9.70052 29.1126 9.52486C29.2949 9.34588 29.4357 9.12382 29.5352 8.85866L30.6687 9.17685C30.5494 9.56132 30.3488 9.89938 30.0671 10.1911C29.7854 10.4794 29.4374 10.7048 29.0231 10.8672C28.6088 11.0263 28.1431 11.1058 27.6261 11.1058Z" fill="white"/>
<path d="M17.3256 6.35369V10.9474H16.1523V0.765625H17.3256V4.50426H17.4251C17.604 4.10985 17.8725 3.79664 18.2305 3.56463C18.5917 3.32931 19.0723 3.21165 19.6722 3.21165C20.1926 3.21165 20.6483 3.31605 21.0394 3.52486C21.4305 3.73035 21.7338 4.04687 21.9492 4.47443C22.168 4.89867 22.2773 5.43892 22.2773 6.09517V10.9474H21.104V6.17472C21.104 5.56818 20.9466 5.0992 20.6317 4.76776C20.3202 4.433 19.8877 4.26563 19.3342 4.26563C18.9497 4.26563 18.605 4.34683 18.3001 4.50923C17.9985 4.67164 17.7598 4.90862 17.5842 5.22017C17.4118 5.53172 17.3256 5.90956 17.3256 6.35369Z" fill="white"/>
<path d="M14.224 3.31099V4.30531H10.2666V3.31099H14.224ZM11.42 1.48145H12.5933V8.75985C12.5933 9.09129 12.6414 9.33987 12.7375 9.50559C12.8369 9.668 12.9629 9.77737 13.1153 9.83372C13.2711 9.88675 13.4352 9.91326 13.6075 9.91326C13.7368 9.91326 13.8428 9.90664 13.9257 9.89338C14.0086 9.87681 14.0748 9.86355 14.1246 9.8536L14.3632 10.9076C14.2836 10.9374 14.1726 10.9672 14.0301 10.9971C13.8876 11.0302 13.7069 11.0468 13.4882 11.0468C13.1568 11.0468 12.8319 10.9755 12.5138 10.833C12.1989 10.6905 11.9371 10.4734 11.7282 10.1817C11.5228 9.89006 11.42 9.52217 11.42 9.07804V1.48145Z" fill="white"/>
<path d="M8.98864 5.85609C8.98864 6.92995 8.79474 7.85798 8.40696 8.64018C8.01918 9.42238 7.48722 10.0256 6.81108 10.4498C6.13494 10.8741 5.36269 11.0862 4.49432 11.0862C3.62595 11.0862 2.85369 10.8741 2.17756 10.4498C1.50142 10.0256 0.96946 9.42238 0.581676 8.64018C0.193892 7.85798 0 6.92995 0 5.85609C0 4.78223 0.193892 3.8542 0.581676 3.072C0.96946 2.2898 1.50142 1.68658 2.17756 1.26234C2.85369 0.838098 3.62595 0.625977 4.49432 0.625977C5.36269 0.625977 6.13494 0.838098 6.81108 1.26234C7.48722 1.68658 8.01918 2.2898 8.40696 3.072C8.79474 3.8542 8.98864 4.78223 8.98864 5.85609ZM7.79545 5.85609C7.79545 4.97446 7.64796 4.23038 7.35298 3.62385C7.06132 3.01731 6.66525 2.55827 6.16477 2.24672C5.66761 1.93516 5.1108 1.77939 4.49432 1.77939C3.87784 1.77939 3.31937 1.93516 2.81889 2.24672C2.32173 2.55827 1.92566 3.01731 1.63068 3.62385C1.33902 4.23038 1.19318 4.97446 1.19318 5.85609C1.19318 6.73772 1.33902 7.4818 1.63068 8.08834C1.92566 8.69487 2.32173 9.15391 2.81889 9.46547C3.31937 9.77702 3.87784 9.93279 4.49432 9.93279C5.1108 9.93279 5.66761 9.77702 6.16477 9.46547C6.66525 9.15391 7.06132 8.69487 7.35298 8.08834C7.64796 7.4818 7.79545 6.73772 7.79545 5.85609Z" fill="white"/>
</svg>
