<svg width="160" height="80" viewBox="0 0 160 80" fill="none" xmlns="http://www.w3.org/2000/svg">
<path d="M0 80H160C160 35.8172 124.183 0 80 0C35.8172 0 0 35.8172 0 80Z" fill="black" fill-opacity="0.34"/>
<path fill-rule="evenodd" clip-rule="evenodd" d="M79.9999 3.58203C37.7955 3.58203 3.58203 37.7955 3.58203 79.9999H79.9999V3.58203Z" fill="#FBE5B5"/>
<path fill-rule="evenodd" clip-rule="evenodd" d="M80.3252 80.0005H156.418C156.418 53.8609 143.294 30.7866 123.275 17.0078L80.3252 80.0005Z" fill="#EF8325"/>
<path fill-rule="evenodd" clip-rule="evenodd" d="M123.168 16.9343C110.886 8.51075 96.0185 3.5821 80 3.58203V79.9999H80.406L108.179 39.164L123.168 16.9343Z" fill="#F2B325"/>
<path fill-rule="evenodd" clip-rule="evenodd" d="M125.244 16.539L109.419 40.0076L81.1998 81.4999H78.5V2.08203L80 2.08204C96.3309 2.0821 111.492 7.1079 124.017 15.6973L125.244 16.539ZM80 3.58204V79.9999H80.406L108.179 39.164L123.168 16.9343C122.836 16.7067 122.503 16.4816 122.167 16.2591C122.086 16.2052 122.004 16.1516 121.923 16.0981C110.276 8.44164 96.4111 3.88361 81.5 3.59647C81.0012 3.58687 80.5011 3.58204 80 3.58204Z" fill="black"/>
</svg>
