<svg width="160" height="80" viewBox="0 0 160 80" fill="none" xmlns="http://www.w3.org/2000/svg">
<path d="M0 80H160C160 35.8172 124.183 0 80 0C35.8172 0 0 35.8172 0 80Z" fill="black" fill-opacity="0.34"/>
<path fill-rule="evenodd" clip-rule="evenodd" d="M43.3177 13.125C19.7333 26.0914 3.75 51.1731 3.75 79.9879H79.4844L43.3177 13.125Z" fill="#DCEEFD"/>
<path fill-rule="evenodd" clip-rule="evenodd" d="M80.3252 79.9996H156.25C156.25 53.9175 143.155 30.894 123.18 17.1455L80.3252 79.9996Z" fill="#2693F5"/>
<path fill-rule="evenodd" clip-rule="evenodd" d="M122.996 17.0197C110.755 8.6471 95.9494 3.75 79.9998 3.75C66.8889 3.75 54.5509 7.059 43.7754 12.8874L79.5688 80H80.2916L108.004 39.2539L122.996 17.0197Z" fill="#7EE1FF"/>
<path fill-rule="evenodd" clip-rule="evenodd" d="M125.072 16.6229L109.244 40.0975L81.0854 81.5H78.6687L41.75 12.2775L43.0616 11.5681C54.0509 5.62403 66.6335 2.25 79.9996 2.25C96.261 2.25 111.361 7.24382 123.843 15.7817L125.072 16.6229ZM43.7753 12.8874C44.0369 12.7459 44.2994 12.6059 44.5628 12.4674C44.742 12.3732 44.9216 12.2797 45.1016 12.1868C55.5586 6.79456 67.4236 3.75 79.9996 3.75C95.4118 3.75 109.756 8.32256 121.749 16.1851C121.884 16.2734 122.019 16.3622 122.153 16.4514C122.435 16.639 122.716 16.8285 122.996 17.0197L108.004 39.2539L80.2915 80H79.5687L43.7753 12.8874Z" fill="#7EE1FF"/>
</svg>
