<svg width="199" height="17" viewBox="0 0 199 17" fill="none" xmlns="http://www.w3.org/2000/svg">
<path d="M186.298 13.0001V4.27282H187.929V5.69327H188.036C188.218 5.21221 188.516 4.83721 188.929 4.56827C189.341 4.29554 189.836 4.15918 190.411 4.15918C190.995 4.15918 191.483 4.29554 191.877 4.56827C192.275 4.841 192.569 5.216 192.758 5.69327H192.849C193.057 5.22736 193.389 4.85615 193.843 4.57963C194.298 4.29933 194.84 4.15918 195.468 4.15918C196.26 4.15918 196.906 4.40729 197.406 4.9035C197.91 5.39971 198.161 6.14782 198.161 7.14782V13.0001H196.463V7.30691C196.463 6.716 196.302 6.28797 195.98 6.02282C195.658 5.75766 195.273 5.62509 194.826 5.62509C194.273 5.62509 193.843 5.79554 193.536 6.13645C193.23 6.47357 193.076 6.90729 193.076 7.43759V13.0001H191.383V7.19895C191.383 6.72547 191.235 6.34479 190.94 6.05691C190.644 5.76903 190.26 5.62509 189.786 5.62509C189.465 5.62509 189.167 5.71032 188.894 5.88077C188.626 6.04744 188.408 6.28039 188.241 6.57963C188.078 6.87888 187.997 7.22547 187.997 7.61941V13.0001H186.298Z" fill="#818798"/>
<path d="M180.669 13.1762C179.809 13.1762 179.069 12.9925 178.447 12.6251C177.83 12.2539 177.353 11.733 177.016 11.0626C176.682 10.3883 176.516 9.59857 176.516 8.69327C176.516 7.79933 176.682 7.01145 177.016 6.32963C177.353 5.64782 177.822 5.11562 178.425 4.73304C179.031 4.35047 179.739 4.15918 180.55 4.15918C181.042 4.15918 181.519 4.24062 181.982 4.4035C182.444 4.56638 182.858 4.82206 183.226 5.17054C183.593 5.51903 183.883 5.97168 184.095 6.5285C184.307 7.08153 184.413 7.75388 184.413 8.54554V9.14782H177.476V7.87509H182.749C182.749 7.42812 182.658 7.03229 182.476 6.68759C182.294 6.3391 182.038 6.06448 181.709 5.86372C181.383 5.66297 181 5.56259 180.561 5.56259C180.084 5.56259 179.667 5.68001 179.311 5.91486C178.959 6.14592 178.686 6.44895 178.493 6.82395C178.304 7.19516 178.209 7.59857 178.209 8.03418V9.0285C178.209 9.61183 178.311 10.108 178.516 10.5171C178.724 10.9262 179.014 11.2387 179.385 11.4546C179.756 11.6668 180.19 11.7728 180.686 11.7728C181.008 11.7728 181.302 11.7274 181.567 11.6365C181.832 11.5418 182.061 11.4016 182.254 11.216C182.447 11.0304 182.595 10.8012 182.697 10.5285L184.305 10.8183C184.177 11.2918 183.946 11.7065 183.612 12.0626C183.283 12.4149 182.868 12.6895 182.368 12.8865C181.872 13.0796 181.305 13.1762 180.669 13.1762Z" fill="#818798"/>
<path d="M175.123 4.27255V5.63619H170.355V4.27255H175.123ZM171.634 2.18164H173.333V10.4373C173.333 10.7669 173.382 11.015 173.48 11.1816C173.579 11.3445 173.706 11.4563 173.861 11.5169C174.02 11.5737 174.193 11.6021 174.378 11.6021C174.515 11.6021 174.634 11.5926 174.736 11.5737C174.838 11.5547 174.918 11.5396 174.975 11.5282L175.282 12.9316C175.183 12.9695 175.043 13.0074 174.861 13.0453C174.679 13.0869 174.452 13.1097 174.179 13.1135C173.732 13.121 173.316 13.0415 172.929 12.8748C172.543 12.7082 172.23 12.4506 171.992 12.1021C171.753 11.7536 171.634 11.3161 171.634 10.7896V2.18164Z" fill="#818798"/>
<path d="M169.01 6.4035L167.47 6.67622C167.406 6.47925 167.304 6.29175 167.164 6.11372C167.027 5.93569 166.842 5.78986 166.607 5.67622C166.372 5.56259 166.078 5.50577 165.726 5.50577C165.245 5.50577 164.843 5.61372 164.521 5.82963C164.2 6.04176 164.039 6.31638 164.039 6.6535C164.039 6.94516 164.146 7.18001 164.362 7.35804C164.578 7.53607 164.927 7.68191 165.408 7.79554L166.794 8.11372C167.597 8.29933 168.196 8.58532 168.59 8.97168C168.984 9.35804 169.181 9.85994 169.181 10.4774C169.181 11.0001 169.029 11.466 168.726 11.8751C168.427 12.2804 168.008 12.5986 167.47 12.8296C166.936 13.0607 166.317 13.1762 165.612 13.1762C164.635 13.1762 163.838 12.9679 163.22 12.5512C162.603 12.1308 162.224 11.5342 162.084 10.7615L163.726 10.5115C163.828 10.9395 164.039 11.2633 164.357 11.483C164.675 11.699 165.09 11.8069 165.601 11.8069C166.158 11.8069 166.603 11.6914 166.936 11.4603C167.27 11.2255 167.436 10.9395 167.436 10.6024C167.436 10.3296 167.334 10.1005 167.129 9.91486C166.929 9.72926 166.62 9.5891 166.203 9.49441L164.726 9.17054C163.912 8.98494 163.309 8.68948 162.919 8.28418C162.533 7.87888 162.34 7.36562 162.34 6.74441C162.34 6.22925 162.484 5.7785 162.771 5.39213C163.059 5.00577 163.457 4.70463 163.965 4.48872C164.472 4.26903 165.054 4.15918 165.709 4.15918C166.652 4.15918 167.395 4.36373 167.936 4.77282C168.478 5.17812 168.836 5.72168 169.01 6.4035Z" fill="#818798"/>
<path d="M154.481 16.2725C154.227 16.2725 153.996 16.2516 153.788 16.21C153.58 16.1721 153.424 16.1304 153.322 16.085L153.731 14.6929C154.042 14.7762 154.318 14.8122 154.561 14.8009C154.803 14.7895 155.017 14.6986 155.203 14.5281C155.392 14.3577 155.559 14.0793 155.703 13.6929L155.913 13.1134L152.72 4.27246H154.538L156.748 11.0452H156.839L159.049 4.27246H160.873L157.277 14.1645C157.11 14.6191 156.898 15.0035 156.64 15.3179C156.383 15.6361 156.076 15.8747 155.72 16.0338C155.364 16.1929 154.951 16.2725 154.481 16.2725Z" fill="#818798"/>
<path d="M149.594 4.42001C149.533 3.88213 149.283 3.46547 148.844 3.17001C148.405 2.87077 147.852 2.72115 147.185 2.72115C146.708 2.72115 146.295 2.7969 145.946 2.94842C145.598 3.09615 145.327 3.30069 145.134 3.56206C144.944 3.81963 144.85 4.11319 144.85 4.44274C144.85 4.71925 144.914 4.95789 145.043 5.15865C145.175 5.3594 145.348 5.52797 145.56 5.66433C145.776 5.7969 146.007 5.90865 146.253 5.99956C146.499 6.08668 146.736 6.15865 146.963 6.21547L148.1 6.51092C148.471 6.60183 148.852 6.72494 149.242 6.88024C149.632 7.03554 149.994 7.24009 150.327 7.49387C150.66 7.74766 150.929 8.06206 151.134 8.43706C151.342 8.81206 151.446 9.26092 151.446 9.78365C151.446 10.4427 151.276 11.028 150.935 11.5393C150.598 12.0507 150.107 12.4541 149.463 12.7496C148.823 13.045 148.048 13.1927 147.139 13.1927C146.268 13.1927 145.514 13.0545 144.878 12.778C144.242 12.5015 143.744 12.1094 143.384 11.6018C143.024 11.0905 142.825 10.4844 142.787 9.78365H144.548C144.583 10.2041 144.719 10.5545 144.958 10.8348C145.2 11.1113 145.509 11.3177 145.884 11.4541C146.263 11.5867 146.677 11.653 147.128 11.653C147.624 11.653 148.066 11.5753 148.452 11.42C148.842 11.2609 149.149 11.0412 149.372 10.7609C149.596 10.4768 149.708 10.1454 149.708 9.7666C149.708 9.4219 149.609 9.13971 149.412 8.92001C149.219 8.70031 148.956 8.5185 148.622 8.37456C148.293 8.23062 147.92 8.10372 147.503 7.99387L146.128 7.61887C145.196 7.36509 144.458 6.99198 143.912 6.49956C143.37 6.00713 143.1 5.35562 143.1 4.54501C143.1 3.87456 143.281 3.28933 143.645 2.78933C144.009 2.28933 144.501 1.90107 145.122 1.62456C145.744 1.34425 146.444 1.2041 147.225 1.2041C148.012 1.2041 148.708 1.34236 149.31 1.61887C149.916 1.89539 150.393 2.27607 150.742 2.76092C151.09 3.24198 151.272 3.79501 151.287 4.42001H149.594Z" fill="#818798"/>
<path d="M132.661 16.4546C131.968 16.4546 131.371 16.3637 130.871 16.1819C130.375 16.0001 129.97 15.7596 129.655 15.4603C129.341 15.1611 129.106 14.8334 128.951 14.4774L130.411 13.8751C130.513 14.0418 130.649 14.2179 130.82 14.4035C130.994 14.5929 131.229 14.7539 131.525 14.8865C131.824 15.019 132.208 15.0853 132.678 15.0853C133.322 15.0853 133.854 14.9281 134.275 14.6137C134.695 14.3031 134.905 13.8069 134.905 13.1251V11.4092H134.797C134.695 11.5948 134.547 11.8012 134.354 12.0285C134.165 12.2558 133.903 12.4527 133.57 12.6194C133.237 12.7861 132.803 12.8694 132.269 12.8694C131.579 12.8694 130.958 12.7084 130.405 12.3865C129.856 12.0607 129.42 11.5815 129.098 10.949C128.78 10.3126 128.621 9.53039 128.621 8.60236C128.621 7.67433 128.778 6.87888 129.093 6.216C129.411 5.55312 129.846 5.04554 130.4 4.69327C130.953 4.33721 131.579 4.15918 132.28 4.15918C132.822 4.15918 133.259 4.25009 133.593 4.43191C133.926 4.60994 134.185 4.81827 134.371 5.05691C134.56 5.29554 134.706 5.50577 134.809 5.68759H134.934V4.27282H136.598V13.1933C136.598 13.9433 136.424 14.5588 136.076 15.0399C135.727 15.5209 135.256 15.877 134.661 16.108C134.07 16.3391 133.403 16.4546 132.661 16.4546ZM132.644 11.4603C133.132 11.4603 133.545 11.3467 133.882 11.1194C134.223 10.8883 134.481 10.5588 134.655 10.1308C134.833 9.69895 134.922 9.18191 134.922 8.57963C134.922 7.99251 134.835 7.47547 134.661 7.0285C134.487 6.58153 134.231 6.23304 133.894 5.98304C133.557 5.72925 133.14 5.60236 132.644 5.60236C132.132 5.60236 131.706 5.73494 131.365 6.00009C131.024 6.26145 130.767 6.61751 130.593 7.06827C130.422 7.51903 130.337 8.02282 130.337 8.57963C130.337 9.1516 130.424 9.6535 130.598 10.0853C130.773 10.5171 131.03 10.8543 131.371 11.0967C131.716 11.3391 132.14 11.4603 132.644 11.4603Z" fill="#818798"/>
<path d="M121.137 7.81827V13.0001H119.438V4.27282H121.069V5.69327H121.177C121.378 5.23115 121.692 4.85994 122.12 4.57963C122.552 4.29933 123.096 4.15918 123.751 4.15918C124.346 4.15918 124.867 4.28418 125.313 4.53418C125.76 4.78039 126.107 5.14782 126.353 5.63645C126.599 6.12509 126.723 6.72926 126.723 7.44895V13.0001H125.024V7.6535C125.024 7.02092 124.859 6.5266 124.529 6.17054C124.2 5.81069 123.747 5.63077 123.171 5.63077C122.777 5.63077 122.427 5.716 122.12 5.88645C121.817 6.05691 121.577 6.30691 121.399 6.63645C121.224 6.96221 121.137 7.35615 121.137 7.81827Z" fill="#818798"/>
<path d="M115.454 12.9997V4.27246H117.153V12.9997H115.454ZM116.312 2.92587C116.017 2.92587 115.763 2.82738 115.551 2.63041C115.342 2.42966 115.238 2.19102 115.238 1.91451C115.238 1.6342 115.342 1.39557 115.551 1.1986C115.763 0.99784 116.017 0.897461 116.312 0.897461C116.608 0.897461 116.859 0.99784 117.068 1.1986C117.28 1.39557 117.386 1.6342 117.386 1.91451C117.386 2.19102 117.28 2.42966 117.068 2.63041C116.859 2.82738 116.608 2.92587 116.312 2.92587Z" fill="#818798"/>
<path d="M113.576 4.27255V5.63619H108.809V4.27255H113.576ZM110.087 2.18164H111.786V10.4373C111.786 10.7669 111.835 11.015 111.934 11.1816C112.032 11.3445 112.159 11.4563 112.314 11.5169C112.473 11.5737 112.646 11.6021 112.831 11.6021C112.968 11.6021 113.087 11.5926 113.189 11.5737C113.292 11.5547 113.371 11.5396 113.428 11.5282L113.735 12.9316C113.636 12.9695 113.496 13.0074 113.314 13.0453C113.132 13.0869 112.905 13.1097 112.632 13.1135C112.185 13.121 111.769 13.0415 111.382 12.8748C110.996 12.7082 110.684 12.4506 110.445 12.1021C110.206 11.7536 110.087 11.3161 110.087 10.7896V2.18164Z" fill="#818798"/>
<path d="M102.931 13.1933C102.378 13.1933 101.878 13.091 101.431 12.8865C100.984 12.6781 100.63 12.377 100.369 11.983C100.111 11.5891 99.9824 11.1061 99.9824 10.5342C99.9824 10.0418 100.077 9.63645 100.267 9.31827C100.456 9.00009 100.712 8.74819 101.034 8.56259C101.356 8.37698 101.715 8.23683 102.113 8.14213C102.511 8.04744 102.916 7.97547 103.329 7.92622C103.852 7.86562 104.276 7.81638 104.602 7.7785C104.927 7.73683 105.164 7.67054 105.312 7.57963C105.46 7.48873 105.534 7.341 105.534 7.13645V7.09668C105.534 6.60047 105.393 6.216 105.113 5.94327C104.837 5.67054 104.424 5.53418 103.874 5.53418C103.302 5.53418 102.852 5.66107 102.522 5.91486C102.196 6.16486 101.971 6.44327 101.846 6.75009L100.249 6.38645C100.439 5.85615 100.715 5.42812 101.079 5.10236C101.446 4.77282 101.869 4.53418 102.346 4.38645C102.823 4.23494 103.325 4.15918 103.852 4.15918C104.2 4.15918 104.57 4.20085 104.96 4.28418C105.354 4.36373 105.721 4.51145 106.062 4.72736C106.407 4.94327 106.689 5.25198 106.909 5.6535C107.128 6.05123 107.238 6.56827 107.238 7.20463V13.0001H105.579V11.8069H105.511C105.401 12.0266 105.236 12.2425 105.017 12.4546C104.797 12.6668 104.515 12.8429 104.17 12.983C103.825 13.1232 103.412 13.1933 102.931 13.1933ZM103.301 11.8296C103.77 11.8296 104.172 11.7368 104.505 11.5512C104.842 11.3656 105.098 11.1232 105.272 10.824C105.45 10.5209 105.539 10.1971 105.539 9.85236V8.72736C105.479 8.78797 105.361 8.84479 105.187 8.89782C105.017 8.94706 104.821 8.99062 104.602 9.0285C104.382 9.06259 104.168 9.09479 103.96 9.12509C103.751 9.1516 103.577 9.17433 103.437 9.19327C103.107 9.23494 102.806 9.30501 102.534 9.4035C102.265 9.50198 102.049 9.64403 101.886 9.82963C101.727 10.0115 101.647 10.2539 101.647 10.5569C101.647 10.9774 101.802 11.2955 102.113 11.5115C102.424 11.7236 102.82 11.8296 103.301 11.8296Z" fill="#818798"/>
<path d="M94.3291 12.9996V4.27228H95.9711V5.65865H96.0621C96.2211 5.18895 96.5015 4.81963 96.903 4.55069C97.3083 4.27797 97.7666 4.1416 98.278 4.1416C98.384 4.1416 98.509 4.14539 98.653 4.15297C98.8007 4.16054 98.9162 4.17001 98.9996 4.18137V5.80637C98.9314 5.78744 98.8102 5.7666 98.6359 5.74387C98.4617 5.71736 98.2874 5.7041 98.1132 5.7041C97.7117 5.7041 97.3537 5.78933 97.0393 5.95978C96.7287 6.12645 96.4825 6.3594 96.3007 6.65865C96.1189 6.9541 96.028 7.29122 96.028 7.67001V12.9996H94.3291Z" fill="#818798"/>
<path d="M88.7003 13.1762C87.8404 13.1762 87.0999 12.9925 86.4787 12.6251C85.8613 12.2539 85.384 11.733 85.0469 11.0626C84.7135 10.3883 84.5469 9.59857 84.5469 8.69327C84.5469 7.79933 84.7135 7.01145 85.0469 6.32963C85.384 5.64782 85.8537 5.11562 86.456 4.73304C87.062 4.35047 87.7704 4.15918 88.581 4.15918C89.0734 4.15918 89.5507 4.24062 90.0128 4.4035C90.4749 4.56638 90.8897 4.82206 91.2571 5.17054C91.6245 5.51903 91.9143 5.97168 92.1264 6.5285C92.3385 7.08153 92.4446 7.75388 92.4446 8.54554V9.14782H85.5071V7.87509H90.7798C90.7798 7.42812 90.6889 7.03229 90.5071 6.68759C90.3253 6.3391 90.0696 6.06448 89.7401 5.86372C89.4143 5.66297 89.0317 5.56259 88.5923 5.56259C88.1151 5.56259 87.6984 5.68001 87.3423 5.91486C86.9901 6.14592 86.7173 6.44895 86.5241 6.82395C86.3348 7.19516 86.2401 7.59857 86.2401 8.03418V9.0285C86.2401 9.61183 86.3423 10.108 86.5469 10.5171C86.7552 10.9262 87.045 11.2387 87.4162 11.4546C87.7874 11.6668 88.2211 11.7728 88.7173 11.7728C89.0393 11.7728 89.3329 11.7274 89.598 11.6365C89.8632 11.5418 90.0923 11.4016 90.2855 11.216C90.4787 11.0304 90.6264 10.8012 90.7287 10.5285L92.3366 10.8183C92.2079 11.2918 91.9768 11.7065 91.6435 12.0626C91.3139 12.4149 90.8991 12.6895 90.3991 12.8865C89.9029 13.0796 89.3367 13.1762 88.7003 13.1762Z" fill="#818798"/>
<path d="M75.0635 16.2728V4.27282H76.7226V5.68759H76.8646C76.9631 5.50577 77.1051 5.29554 77.2907 5.05691C77.4764 4.81827 77.7339 4.60994 78.0635 4.43191C78.393 4.25009 78.8286 4.15918 79.3703 4.15918C80.0748 4.15918 80.7036 4.33721 81.2567 4.69327C81.8097 5.04933 82.2434 5.56259 82.5578 6.23304C82.876 6.9035 83.0351 7.71032 83.0351 8.6535C83.0351 9.59668 82.8779 10.4054 82.5635 11.0796C82.2491 11.7501 81.8173 12.2671 81.268 12.6308C80.7188 12.9906 80.0919 13.1705 79.3873 13.1705C78.857 13.1705 78.4233 13.0815 78.0862 12.9035C77.7529 12.7255 77.4915 12.5171 77.3021 12.2785C77.1127 12.0399 76.9669 11.8277 76.8646 11.6421H76.7623V16.2728H75.0635ZM76.7282 8.63645C76.7282 9.25009 76.8173 9.78797 76.9953 10.2501C77.1733 10.7122 77.4309 11.074 77.768 11.3353C78.1051 11.5929 78.518 11.7217 79.0067 11.7217C79.5142 11.7217 79.9385 11.5872 80.2794 11.3183C80.6203 11.0455 80.8779 10.6762 81.0521 10.2103C81.2301 9.74441 81.3192 9.21979 81.3192 8.63645C81.3192 8.06069 81.232 7.54365 81.0578 7.08532C80.8873 6.62698 80.6298 6.26524 80.2851 6.00009C79.9442 5.73494 79.518 5.60236 79.0067 5.60236C78.5142 5.60236 78.0976 5.72925 77.7567 5.98304C77.4195 6.23683 77.1639 6.591 76.9896 7.04554C76.8154 7.50009 76.7282 8.03039 76.7282 8.63645Z" fill="#818798"/>
<path d="M73.0113 7.18137C73.0113 8.4238 72.784 9.49198 72.3295 10.3859C71.8749 11.2761 71.2518 11.9617 70.4601 12.4427C69.6723 12.92 68.7764 13.1586 67.7726 13.1586C66.7651 13.1586 65.8654 12.92 65.0738 12.4427C64.2859 11.9617 63.6647 11.2742 63.2101 10.3802C62.7556 9.4863 62.5283 8.42001 62.5283 7.18137C62.5283 5.93895 62.7556 4.87266 63.2101 3.98251C63.6647 3.08857 64.2859 2.40297 65.0738 1.92569C65.8654 1.44463 66.7651 1.2041 67.7726 1.2041C68.7764 1.2041 69.6723 1.44463 70.4601 1.92569C71.2518 2.40297 71.8749 3.08857 72.3295 3.98251C72.784 4.87266 73.0113 5.93895 73.0113 7.18137ZM71.2726 7.18137C71.2726 6.23441 71.1192 5.43706 70.8124 4.78933C70.5094 4.13781 70.0927 3.64539 69.5624 3.31206C69.0359 2.97494 68.4393 2.80637 67.7726 2.80637C67.1022 2.80637 66.5037 2.97494 65.9772 3.31206C65.4507 3.64539 65.034 4.13781 64.7272 4.78933C64.4242 5.43706 64.2726 6.23441 64.2726 7.18137C64.2726 8.12834 64.4242 8.92759 64.7272 9.5791C65.034 10.2268 65.4507 10.7193 65.9772 11.0564C66.5037 11.3897 67.1022 11.5564 67.7726 11.5564C68.4393 11.5564 69.0359 11.3897 69.5624 11.0564C70.0927 10.7193 70.5094 10.2268 70.8124 9.5791C71.1192 8.92759 71.2726 8.12834 71.2726 7.18137Z" fill="#818798"/>
<path d="M52.3916 12.9996V4.27228H54.0336V5.65865H54.1246C54.2836 5.18895 54.564 4.81963 54.9655 4.55069C55.3708 4.27797 55.8291 4.1416 56.3405 4.1416C56.4465 4.1416 56.5715 4.14539 56.7155 4.15297C56.8632 4.16054 56.9787 4.17001 57.0621 4.18137V5.80637C56.9939 5.78744 56.8727 5.7666 56.6984 5.74387C56.5242 5.71736 56.3499 5.7041 56.1757 5.7041C55.7742 5.7041 55.4162 5.78933 55.1018 5.95978C54.7912 6.12645 54.545 6.3594 54.3632 6.65865C54.1814 6.9541 54.0905 7.29122 54.0905 7.67001V12.9996H52.3916Z" fill="#818798"/>
<path d="M45.8219 13.1933C45.2689 13.1933 44.7689 13.091 44.3219 12.8865C43.8749 12.6781 43.5208 12.377 43.2594 11.983C43.0018 11.5891 42.873 11.1061 42.873 10.5342C42.873 10.0418 42.9677 9.63645 43.1571 9.31827C43.3465 9.00009 43.6022 8.74819 43.9242 8.56259C44.2462 8.37698 44.606 8.23683 45.0037 8.14213C45.4015 8.04744 45.8068 7.97547 46.2196 7.92622C46.7424 7.86562 47.1666 7.81638 47.4924 7.7785C47.8181 7.73683 48.0549 7.67054 48.2026 7.57963C48.3503 7.48873 48.4242 7.341 48.4242 7.13645V7.09668C48.4242 6.60047 48.284 6.216 48.0037 5.94327C47.7272 5.67054 47.3143 5.53418 46.7651 5.53418C46.1931 5.53418 45.7424 5.66107 45.4128 5.91486C45.0871 6.16486 44.8617 6.44327 44.7367 6.75009L43.1401 6.38645C43.3295 5.85615 43.606 5.42812 43.9696 5.10236C44.3371 4.77282 44.7594 4.53418 45.2367 4.38645C45.714 4.23494 46.2158 4.15918 46.7424 4.15918C47.0908 4.15918 47.4602 4.20085 47.8503 4.28418C48.2443 4.36373 48.6117 4.51145 48.9526 4.72736C49.2973 4.94327 49.5795 5.25198 49.7992 5.6535C50.0189 6.05123 50.1287 6.56827 50.1287 7.20463V13.0001H48.4696V11.8069H48.4015C48.2916 12.0266 48.1268 12.2425 47.9071 12.4546C47.6874 12.6668 47.4052 12.8429 47.0605 12.983C46.7158 13.1232 46.303 13.1933 45.8219 13.1933ZM46.1912 11.8296C46.6609 11.8296 47.0624 11.7368 47.3958 11.5512C47.7329 11.3656 47.9886 11.1232 48.1628 10.824C48.3408 10.5209 48.4299 10.1971 48.4299 9.85236V8.72736C48.3693 8.78797 48.2518 8.84479 48.0776 8.89782C47.9071 8.94706 47.7121 8.99062 47.4924 9.0285C47.2727 9.06259 47.0587 9.09479 46.8503 9.12509C46.642 9.1516 46.4677 9.17433 46.3276 9.19327C45.998 9.23494 45.6969 9.30501 45.4242 9.4035C45.1552 9.50198 44.9393 9.64403 44.7765 9.82963C44.6174 10.0115 44.5378 10.2539 44.5378 10.5569C44.5378 10.9774 44.6931 11.2955 45.0037 11.5115C45.3143 11.7236 45.7102 11.8296 46.1912 11.8296Z" fill="#818798"/>
<path d="M40.9967 1.36328V12.9996H39.2979V1.36328H40.9967Z" fill="#818798"/>
<path d="M35.3106 9.38042V4.27246H37.0152V12.9997H35.3447V11.4884H35.2538C35.0531 11.9543 34.7311 12.3425 34.2879 12.6531C33.8485 12.96 33.3012 13.1134 32.6459 13.1134C32.0853 13.1134 31.589 12.9903 31.1572 12.7441C30.7292 12.4941 30.3921 12.1247 30.1459 11.6361C29.9034 11.1475 29.7822 10.5433 29.7822 9.8236V4.27246H31.4811V9.61905C31.4811 10.2137 31.6459 10.6872 31.9754 11.0395C32.305 11.3918 32.733 11.5679 33.2595 11.5679C33.5777 11.5679 33.894 11.4884 34.2084 11.3293C34.5265 11.1702 34.7898 10.9297 34.9981 10.6077C35.2103 10.2857 35.3144 9.87663 35.3106 9.38042Z" fill="#818798"/>
<path d="M19.9072 16.2728V4.27282H21.5663V5.68759H21.7084C21.8068 5.50577 21.9489 5.29554 22.1345 5.05691C22.3201 4.81827 22.5777 4.60994 22.9072 4.43191C23.2368 4.25009 23.6724 4.15918 24.214 4.15918C24.9186 4.15918 25.5474 4.33721 26.1004 4.69327C26.6534 5.04933 27.0872 5.56259 27.4015 6.23304C27.7197 6.9035 27.8788 7.71032 27.8788 8.6535C27.8788 9.59668 27.7216 10.4054 27.4072 11.0796C27.0928 11.7501 26.661 12.2671 26.1118 12.6308C25.5625 12.9906 24.9356 13.1705 24.2311 13.1705C23.7008 13.1705 23.2671 13.0815 22.93 12.9035C22.5966 12.7255 22.3353 12.5171 22.1459 12.2785C21.9565 12.0399 21.8106 11.8277 21.7084 11.6421H21.6061V16.2728H19.9072ZM21.572 8.63645C21.572 9.25009 21.661 9.78797 21.839 10.2501C22.0171 10.7122 22.2747 11.074 22.6118 11.3353C22.9489 11.5929 23.3618 11.7217 23.8504 11.7217C24.358 11.7217 24.7822 11.5872 25.1231 11.3183C25.464 11.0455 25.7216 10.6762 25.8959 10.2103C26.0739 9.74441 26.1629 9.21979 26.1629 8.63645C26.1629 8.06069 26.0758 7.54365 25.9015 7.08532C25.7311 6.62698 25.4735 6.26524 25.1288 6.00009C24.7879 5.73494 24.3618 5.60236 23.8504 5.60236C23.358 5.60236 22.9413 5.72925 22.6004 5.98304C22.2633 6.23683 22.0076 6.591 21.8334 7.04554C21.6591 7.50009 21.572 8.03039 21.572 8.63645Z" fill="#818798"/>
<path d="M13.9432 13.1762C13.125 13.1762 12.411 12.9887 11.8011 12.6137C11.1913 12.2387 10.7178 11.7141 10.3807 11.0399C10.0436 10.3656 9.875 9.57774 9.875 8.67622C9.875 7.77092 10.0436 6.97925 10.3807 6.30122C10.7178 5.62319 11.1913 5.09668 11.8011 4.72168C12.411 4.34668 13.125 4.15918 13.9432 4.15918C14.7614 4.15918 15.4754 4.34668 16.0852 4.72168C16.6951 5.09668 17.1686 5.62319 17.5057 6.30122C17.8428 6.97925 18.0114 7.77092 18.0114 8.67622C18.0114 9.57774 17.8428 10.3656 17.5057 11.0399C17.1686 11.7141 16.6951 12.2387 16.0852 12.6137C15.4754 12.9887 14.7614 13.1762 13.9432 13.1762ZM13.9489 11.7501C14.4792 11.7501 14.9186 11.6099 15.267 11.3296C15.6155 11.0493 15.8731 10.6762 16.0398 10.2103C16.2102 9.74441 16.2955 9.23115 16.2955 8.67054C16.2955 8.11372 16.2102 7.60236 16.0398 7.13645C15.8731 6.66676 15.6155 6.28986 15.267 6.00577C14.9186 5.72168 14.4792 5.57963 13.9489 5.57963C13.4148 5.57963 12.9716 5.72168 12.6193 6.00577C12.2708 6.28986 12.0114 6.66676 11.8409 7.13645C11.6742 7.60236 11.5909 8.11372 11.5909 8.67054C11.5909 9.23115 11.6742 9.74441 11.8409 10.2103C12.0114 10.6762 12.2708 11.0493 12.6193 11.3296C12.9716 11.6099 13.4148 11.7501 13.9489 11.7501Z" fill="#818798"/>
<path d="M0.27832 12.9996V1.36328H4.42605C5.33135 1.36328 6.08135 1.52805 6.67605 1.8576C7.27074 2.18714 7.71582 2.6379 8.01128 3.20987C8.30673 3.77805 8.45446 4.41821 8.45446 5.13033C8.45446 5.84624 8.30484 6.49018 8.00559 7.06215C7.71014 7.63033 7.26317 8.08108 6.66468 8.41442C6.06999 8.74396 5.32188 8.90874 4.42037 8.90874H1.56809V7.4201H4.26128C4.83324 7.4201 5.29726 7.32161 5.65332 7.12465C6.00938 6.92389 6.27074 6.65116 6.43741 6.30646C6.60408 5.96177 6.68741 5.56972 6.68741 5.13033C6.68741 4.69093 6.60408 4.30078 6.43741 3.95987C6.27074 3.61896 6.00749 3.35192 5.64764 3.15874C5.29158 2.96555 4.82188 2.86896 4.23855 2.86896H2.034V12.9996H0.27832Z" fill="#818798"/>
</svg>
