<svg width="22" height="11" viewBox="0 0 22 11" fill="none" xmlns="http://www.w3.org/2000/svg">
<path d="M21.0892 2.68501V3.67933H17.1318V2.68501H21.0892ZM18.2852 0.855469H19.4585V8.13388C19.4585 8.46532 19.5066 8.7139 19.6027 8.87962C19.7021 9.04202 19.8281 9.1514 19.9806 9.20774C20.1363 9.26077 20.3004 9.28729 20.4727 9.28729C20.602 9.28729 20.7081 9.28066 20.7909 9.2674C20.8738 9.25083 20.9401 9.23757 20.9898 9.22763L21.2284 10.2816C21.1489 10.3114 21.0378 10.3413 20.8953 10.3711C20.7528 10.4042 20.5722 10.4208 20.3534 10.4208C20.022 10.4208 19.6972 10.3496 19.379 10.207C19.0641 10.0645 18.8023 9.84742 18.5935 9.55575C18.388 9.26409 18.2852 8.89619 18.2852 8.45206V0.855469Z" fill="#818798"/>
<path d="M12.1266 10.4997C11.6427 10.4997 11.2035 10.4086 10.8091 10.2263C10.4147 10.0407 10.1015 9.77388 9.8695 9.42587C9.63749 9.07454 9.52148 8.6503 9.52148 8.15314C9.52148 7.71564 9.60766 7.361 9.78001 7.08922C9.95236 6.81413 10.1827 6.59869 10.4711 6.44292C10.7594 6.28714 11.0776 6.17114 11.4256 6.0949C11.7769 6.01536 12.1299 5.95238 12.4846 5.90598C12.9486 5.84632 13.3248 5.80158 13.6131 5.77175C13.9048 5.73861 14.1169 5.68392 14.2495 5.60769C14.3854 5.53146 14.4533 5.39888 14.4533 5.20996V5.17019C14.4533 4.67966 14.3191 4.2985 14.0506 4.02672C13.7855 3.75494 13.3828 3.61905 12.8425 3.61905C12.2824 3.61905 11.8432 3.74168 11.525 3.98695C11.2069 4.23221 10.9831 4.49405 10.8539 4.77246L9.74023 4.37473C9.9391 3.91072 10.2042 3.54945 10.5357 3.29093C10.8704 3.02909 11.235 2.8468 11.6294 2.74405C12.0272 2.63799 12.4183 2.58496 12.8027 2.58496C13.048 2.58496 13.3297 2.61479 13.6479 2.67445C13.9694 2.73079 14.2793 2.84845 14.5776 3.02743C14.8792 3.20641 15.1294 3.47653 15.3283 3.8378C15.5272 4.19907 15.6266 4.68297 15.6266 5.28951V10.3208H14.4533V9.28667H14.3936C14.3141 9.45238 14.1815 9.62971 13.9959 9.81863C13.8103 10.0075 13.5634 10.1683 13.2551 10.3009C12.9469 10.4334 12.5707 10.4997 12.1266 10.4997ZM12.3056 9.44576C12.7696 9.44576 13.1607 9.35461 13.4789 9.17232C13.8004 8.99003 14.0423 8.75471 14.2047 8.46635C14.3704 8.178 14.4533 7.87473 14.4533 7.55655V6.48269C14.4036 6.54235 14.2942 6.59704 14.1252 6.64675C13.9595 6.69315 13.7672 6.73458 13.5485 6.77104C13.333 6.80418 13.1226 6.83401 12.9171 6.86053C12.7149 6.88373 12.5508 6.90362 12.4249 6.92019C12.12 6.95996 11.8349 7.02459 11.5698 7.11408C11.3079 7.20025 11.0958 7.33117 10.9334 7.50684C10.7743 7.67918 10.6948 7.91451 10.6948 8.2128C10.6948 8.62047 10.8456 8.92871 11.1472 9.13752C11.4521 9.34301 11.8382 9.44576 12.3056 9.44576Z" fill="#818798"/>
<path d="M6.67951 2.68466C6.61985 2.18087 6.3779 1.78977 5.95366 1.51136C5.52942 1.23295 5.00906 1.09375 4.39258 1.09375C3.94182 1.09375 3.54741 1.16667 3.20934 1.3125C2.87459 1.45833 2.61275 1.65885 2.42383 1.91406C2.23822 2.16927 2.14542 2.45928 2.14542 2.78409C2.14542 3.05587 2.21005 3.28954 2.33931 3.48509C2.47189 3.67732 2.64092 3.83807 2.84641 3.96733C3.05191 4.09328 3.26734 4.19768 3.49272 4.28054C3.7181 4.36009 3.92525 4.42472 4.11417 4.47443L5.14826 4.75284C5.41341 4.82244 5.70839 4.91856 6.0332 5.04119C6.36133 5.16383 6.67454 5.3312 6.97283 5.54332C7.27444 5.75213 7.52302 6.0206 7.71857 6.34872C7.91412 6.67685 8.0119 7.07955 8.0119 7.55682C8.0119 8.10701 7.86772 8.60417 7.57937 9.0483C7.29433 9.49242 6.87672 9.84541 6.32653 10.1072C5.77965 10.3691 5.11512 10.5 4.33292 10.5C3.60375 10.5 2.97236 10.3823 2.43874 10.147C1.90844 9.9117 1.49083 9.58357 1.1859 9.16264C0.884292 8.74171 0.713601 8.25284 0.673828 7.69602H1.94656C1.9797 8.08049 2.10896 8.39867 2.33434 8.65057C2.56303 8.89915 2.85139 9.08475 3.1994 9.20739C3.55072 9.3267 3.92856 9.38636 4.33292 9.38636C4.80356 9.38636 5.22615 9.31013 5.60068 9.15767C5.9752 9.00189 6.27184 8.78646 6.49059 8.51136C6.70934 8.23295 6.81871 7.90814 6.81871 7.53693C6.81871 7.19886 6.72425 6.92377 6.53533 6.71165C6.34641 6.49953 6.09783 6.32718 5.7896 6.1946C5.48136 6.06203 5.14826 5.94602 4.79031 5.84659L3.53746 5.48864C2.74201 5.25994 2.11228 4.93348 1.64826 4.50923C1.18424 4.08499 0.952237 3.52983 0.952237 2.84375C0.952237 2.27367 1.10636 1.77652 1.4146 1.35227C1.72615 0.924716 2.14376 0.593276 2.66744 0.357955C3.19442 0.119318 3.78273 0 4.43235 0C5.0886 0 5.67193 0.117661 6.18235 0.352983C6.69277 0.58499 7.09712 0.903172 7.39542 1.30753C7.69703 1.71188 7.85612 2.17093 7.87269 2.68466H6.67951Z" fill="#818798"/>
</svg>
