<svg width="93" height="20" viewBox="0 0 93 20" fill="none" xmlns="http://www.w3.org/2000/svg">
<path d="M86.946 19.2638C85.679 19.2638 84.5881 18.9769 83.6733 18.4031C82.7642 17.8235 82.0653 17.0252 81.5767 16.0082C81.0881 14.9911 80.8438 13.8263 80.8438 12.5138C80.8438 11.1843 81.0938 10.011 81.5938 8.99396C82.0938 7.97124 82.7983 7.17294 83.7074 6.59908C84.6165 6.02521 85.6875 5.73828 86.9205 5.73828C87.9148 5.73828 88.8011 5.92294 89.5795 6.29226C90.358 6.6559 90.9858 7.16726 91.4631 7.82635C91.946 8.48544 92.233 9.25533 92.3239 10.136H89.8438C89.7074 9.52237 89.3949 8.99396 88.9062 8.55078C88.4233 8.1076 87.7756 7.88601 86.9631 7.88601C86.2528 7.88601 85.6307 8.07351 85.0966 8.44851C84.5682 8.81783 84.1562 9.34624 83.8608 10.0337C83.5653 10.7156 83.4176 11.5224 83.4176 12.4542C83.4176 13.4087 83.5625 14.2326 83.8523 14.9258C84.142 15.619 84.5511 16.1559 85.0795 16.5366C85.6136 16.9173 86.2415 17.1076 86.9631 17.1076C87.446 17.1076 87.8835 17.0195 88.2756 16.8434C88.6733 16.6616 89.0057 16.4031 89.2727 16.0678C89.5455 15.7326 89.7358 15.3292 89.8438 14.8576H92.3239C92.233 15.7042 91.9574 16.4599 91.4972 17.1246C91.0369 17.7894 90.4205 18.3121 89.6477 18.6928C88.8807 19.0735 87.9801 19.2638 86.946 19.2638Z" fill="white"/>
<path d="M75.4557 19.0001V5.90918H78.004V19.0001H75.4557ZM76.7426 3.88929C76.2994 3.88929 75.9188 3.74157 75.6006 3.44611C75.2881 3.14498 75.1318 2.78702 75.1318 2.37225C75.1318 1.95179 75.2881 1.59384 75.6006 1.29838C75.9188 0.997248 76.2994 0.84668 76.7426 0.84668C77.1858 0.84668 77.5637 0.997248 77.8762 1.29838C78.1943 1.59384 78.3534 1.95179 78.3534 2.37225C78.3534 2.78702 78.1943 3.14498 77.8762 3.44611C77.5637 3.74157 77.1858 3.88929 76.7426 3.88929Z" fill="white"/>
<path d="M72.6369 5.90882V7.95428H65.4863V5.90882H72.6369ZM67.4039 2.77246H69.9522V15.156C69.9522 15.6503 70.0261 16.0225 70.1738 16.2725C70.3216 16.5168 70.5119 16.6844 70.7449 16.7753C70.9835 16.8605 71.242 16.9031 71.5204 16.9031C71.725 16.9031 71.9039 16.8889 72.0574 16.8605C72.2108 16.8321 72.3301 16.8094 72.4153 16.7923L72.8755 18.8975C72.7278 18.9543 72.5176 19.0111 72.2449 19.0679C71.9721 19.1304 71.6312 19.1645 71.2221 19.1702C70.5517 19.1816 69.9267 19.0622 69.3471 18.8122C68.7676 18.5622 68.2988 18.1759 67.9409 17.6531C67.5829 17.1304 67.4039 16.4742 67.4039 15.6844V2.77246Z" fill="white"/>
<path d="M63.4683 9.10476L61.1586 9.51385C61.0621 9.21839 60.9086 8.93714 60.6984 8.6701C60.4939 8.40305 60.2155 8.1843 59.8632 8.01385C59.5109 7.84339 59.0706 7.75817 58.5422 7.75817C57.8206 7.75817 57.2183 7.9201 56.7354 8.24396C56.2524 8.56215 56.0109 8.97408 56.0109 9.47976C56.0109 9.91726 56.1729 10.2695 56.4967 10.5366C56.8206 10.8036 57.3433 11.0224 58.0649 11.1928L60.1444 11.6701C61.349 11.9485 62.2467 12.3775 62.8376 12.957C63.4285 13.5366 63.724 14.2894 63.724 15.2156C63.724 15.9996 63.4967 16.6985 63.0422 17.3121C62.5933 17.9201 61.9655 18.3974 61.1586 18.744C60.3575 19.0906 59.4285 19.2638 58.3717 19.2638C56.9058 19.2638 55.7098 18.9513 54.7836 18.3263C53.8575 17.6957 53.2893 16.8008 53.0791 15.6417L55.5422 15.2667C55.6956 15.9087 56.0109 16.3945 56.4882 16.7241C56.9655 17.0479 57.5876 17.2099 58.3547 17.2099C59.1899 17.2099 59.8575 17.0366 60.3575 16.69C60.8575 16.3377 61.1075 15.9087 61.1075 15.4031C61.1075 14.994 60.9541 14.6502 60.6473 14.3718C60.3461 14.0934 59.8831 13.8832 59.2581 13.7411L57.0422 13.2553C55.8206 12.9769 54.9172 12.5337 54.3319 11.9258C53.7524 11.3178 53.4626 10.5479 53.4626 9.61612C53.4626 8.84339 53.6785 8.16726 54.1104 7.58771C54.5422 7.00817 55.1388 6.55646 55.9001 6.2326C56.6615 5.90305 57.5336 5.73828 58.5166 5.73828C59.9314 5.73828 61.045 6.0451 61.8575 6.65874C62.67 7.26669 63.2069 8.08203 63.4683 9.10476Z" fill="white"/>
<path d="M47.6823 19.0001V5.90918H50.2306V19.0001H47.6823ZM48.9692 3.88929C48.526 3.88929 48.1453 3.74157 47.8271 3.44611C47.5146 3.14498 47.3584 2.78702 47.3584 2.37225C47.3584 1.95179 47.5146 1.59384 47.8271 1.29838C48.1453 0.997248 48.526 0.84668 48.9692 0.84668C49.4124 0.84668 49.7902 0.997248 50.1027 1.29838C50.4209 1.59384 50.58 1.95179 50.58 2.37225C50.58 2.78702 50.4209 3.14498 50.1027 3.44611C49.7902 3.74157 49.4124 3.88929 48.9692 3.88929Z" fill="white"/>
<path d="M44.8635 5.90882V7.95428H37.7129V5.90882H44.8635ZM39.6305 2.77246H42.1788V15.156C42.1788 15.6503 42.2527 16.0225 42.4004 16.2725C42.5481 16.5168 42.7385 16.6844 42.9714 16.7753C43.2101 16.8605 43.4686 16.9031 43.747 16.9031C43.9515 16.9031 44.1305 16.8889 44.2839 16.8605C44.4373 16.8321 44.5566 16.8094 44.6419 16.7923L45.1021 18.8975C44.9544 18.9543 44.7441 19.0111 44.4714 19.0679C44.1987 19.1304 43.8578 19.1645 43.4487 19.1702C42.7782 19.1816 42.1532 19.0622 41.5737 18.8122C40.9941 18.5622 40.5254 18.1759 40.1674 17.6531C39.8095 17.1304 39.6305 16.4742 39.6305 15.6844V2.77246Z" fill="white"/>
<path d="M28.8979 19.2894C28.0684 19.2894 27.3184 19.136 26.6479 18.8292C25.9775 18.5167 25.4462 18.065 25.0542 17.4741C24.6678 16.8832 24.4746 16.1587 24.4746 15.3008C24.4746 14.5621 24.6167 13.9542 24.9007 13.4769C25.1848 12.9996 25.5684 12.6218 26.0513 12.3434C26.5343 12.065 27.074 11.8548 27.6706 11.7127C28.2672 11.5707 28.8752 11.4627 29.4945 11.3888C30.2786 11.2979 30.9149 11.2241 31.4036 11.1673C31.8922 11.1048 32.2473 11.0053 32.4689 10.869C32.6905 10.7326 32.8013 10.511 32.8013 10.2042V10.1445C32.8013 9.40021 32.5911 8.82351 32.1706 8.41442C31.7559 8.00533 31.1365 7.80078 30.3127 7.80078C29.4547 7.80078 28.7786 7.99112 28.2843 8.3718C27.7956 8.7468 27.4576 9.16442 27.2701 9.62465L24.8752 9.07919C25.1593 8.28374 25.574 7.64169 26.1195 7.15305C26.6706 6.65874 27.3042 6.30078 28.0201 6.07919C28.736 5.85192 29.4888 5.73828 30.2786 5.73828C30.8013 5.73828 31.3553 5.80078 31.9405 5.92578C32.5314 6.0451 33.0826 6.26669 33.5939 6.59055C34.111 6.91442 34.5343 7.37749 34.8638 7.97976C35.1934 8.57635 35.3581 9.35192 35.3581 10.3065V18.9996H32.8695V17.2099H32.7672C32.6024 17.5394 32.3553 17.8633 32.0257 18.1815C31.6962 18.4996 31.2729 18.7639 30.7559 18.9741C30.2388 19.1843 29.6195 19.2894 28.8979 19.2894ZM29.4519 17.244C30.1564 17.244 30.7587 17.1048 31.2587 16.8263C31.7644 16.5479 32.1479 16.1843 32.4093 15.7354C32.6763 15.2809 32.8098 14.7951 32.8098 14.2781V12.5906C32.7189 12.6815 32.5428 12.7667 32.2814 12.8462C32.0257 12.9201 31.7331 12.9854 31.4036 13.0423C31.074 13.0934 30.753 13.1417 30.4405 13.1871C30.128 13.2269 29.8667 13.261 29.6564 13.2894C29.1621 13.3519 28.7104 13.457 28.3013 13.6048C27.8979 13.7525 27.574 13.9656 27.3297 14.244C27.0911 14.5167 26.9718 14.8803 26.9718 15.3349C26.9718 15.9656 27.2047 16.4428 27.6706 16.7667C28.1365 17.0849 28.7303 17.244 29.4519 17.244Z" fill="white"/>
<path d="M22.2697 5.90882V7.95428H15.1191V5.90882H22.2697ZM17.0368 2.77246H19.585V15.156C19.585 15.6503 19.6589 16.0225 19.8066 16.2725C19.9544 16.5168 20.1447 16.6844 20.3777 16.7753C20.6163 16.8605 20.8748 16.9031 21.1532 16.9031C21.3578 16.9031 21.5368 16.8889 21.6902 16.8605C21.8436 16.8321 21.9629 16.8094 22.0481 16.7923L22.5083 18.8975C22.3606 18.9543 22.1504 19.0111 21.8777 19.0679C21.6049 19.1304 21.264 19.1645 20.8549 19.1702C20.1845 19.1816 19.5595 19.0622 18.9799 18.8122C18.4004 18.5622 17.9316 18.1759 17.5737 17.6531C17.2157 17.1304 17.0368 16.4742 17.0368 15.6844V2.77246Z" fill="white"/>
<path d="M10.4378 6.1305C10.3469 5.32369 9.97186 4.69869 9.31277 4.2555C8.65368 3.80664 7.82413 3.58221 6.82413 3.58221C6.10822 3.58221 5.4889 3.69585 4.96618 3.92312C4.44345 4.14471 4.0372 4.45153 3.74743 4.84357C3.46333 5.22994 3.32129 5.67028 3.32129 6.1646C3.32129 6.57937 3.41788 6.93732 3.61106 7.23846C3.80993 7.5396 4.06845 7.79244 4.38663 7.99698C4.71049 8.19585 5.05709 8.36346 5.4264 8.49982C5.79572 8.6305 6.15083 8.73846 6.49174 8.82369L8.19629 9.26687C8.75311 9.40323 9.32413 9.58789 9.90936 9.82084C10.4946 10.0538 11.0372 10.3606 11.5372 10.7413C12.0372 11.122 12.4406 11.5936 12.7474 12.1561C13.0599 12.7186 13.2162 13.3919 13.2162 14.176C13.2162 15.1646 12.9605 16.0424 12.4491 16.8095C11.9434 17.5765 11.2077 18.1816 10.2417 18.6248C9.28152 19.068 8.11958 19.2896 6.75595 19.2896C5.44913 19.2896 4.31845 19.0822 3.3639 18.6674C2.40936 18.2527 1.6622 17.6646 1.12243 16.9032C0.582653 16.1362 0.284357 15.2271 0.227539 14.176H2.86958C2.92072 14.8066 3.12527 15.3322 3.48322 15.7527C3.84686 16.1674 4.30993 16.4771 4.87243 16.6816C5.44061 16.8805 6.06277 16.9799 6.7389 16.9799C7.48322 16.9799 8.14515 16.8635 8.7247 16.6305C9.30993 16.3919 9.77015 16.0623 10.1054 15.6419C10.4406 15.2157 10.6082 14.7186 10.6082 14.1504C10.6082 13.6333 10.4605 13.2101 10.165 12.8805C9.87527 12.551 9.48038 12.2782 8.98038 12.0623C8.48606 11.8464 7.9264 11.6561 7.3014 11.4913L5.2389 10.9288C3.84118 10.5481 2.73322 9.98846 1.91504 9.24982C1.10254 8.51119 0.696289 7.53391 0.696289 6.318C0.696289 5.31232 0.969016 4.43448 1.51447 3.68448C2.05993 2.93448 2.79856 2.3521 3.73038 1.93732C4.6622 1.51687 5.71333 1.30664 6.88379 1.30664C8.06561 1.30664 9.10822 1.51403 10.0116 1.9288C10.9207 2.34357 11.6366 2.9146 12.1594 3.64187C12.6821 4.36346 12.9548 5.193 12.9775 6.1305H10.4378Z" fill="white"/>
</svg>
