<svg width="24" height="11" viewBox="0 0 24 11" fill="none" xmlns="http://www.w3.org/2000/svg">
<path d="M18.7426 5.72701V10.3208H17.5693V2.68439H18.7029V3.87757H18.8023C18.9813 3.48979 19.253 3.17824 19.6176 2.94292C19.9822 2.70428 20.4529 2.58496 21.0296 2.58496C21.5466 2.58496 21.999 2.69102 22.3868 2.90314C22.7746 3.11195 23.0762 3.43013 23.2916 3.85769C23.5071 4.28193 23.6148 4.81886 23.6148 5.46848V10.3208H22.4415V5.54803C22.4415 4.94812 22.2857 4.48079 21.9742 4.14604C21.6626 3.80797 21.2351 3.63894 20.6915 3.63894C20.317 3.63894 19.9822 3.72014 19.6872 3.88255C19.3956 4.04495 19.1652 4.28193 18.9962 4.59348C18.8271 4.90504 18.7426 5.28288 18.7426 5.72701Z" fill="#818798"/>
<path d="M14.2471 7.19878V2.68457H15.4204V10.3209H14.2471V9.02832H14.1675C13.9885 9.4161 13.7101 9.74589 13.3323 10.0177C12.9545 10.2861 12.4772 10.4204 11.9005 10.4204C11.4232 10.4204 10.999 10.316 10.6278 10.1072C10.2565 9.89503 9.96487 9.57685 9.75275 9.15261C9.54063 8.72505 9.43457 8.18646 9.43457 7.53684V2.68457H10.6079V7.4573C10.6079 8.01412 10.7636 8.45824 11.0752 8.78968C11.3901 9.12112 11.7911 9.28684 12.2783 9.28684C12.57 9.28684 12.8666 9.21227 13.1682 9.06312C13.4732 8.91397 13.7284 8.68528 13.9339 8.37704C14.1427 8.0688 14.2471 7.67605 14.2471 7.19878Z" fill="#818798"/>
<path d="M6.2342 2.68466C6.17454 2.18087 5.93259 1.78977 5.50835 1.51136C5.0841 1.23295 4.56374 1.09375 3.94727 1.09375C3.49651 1.09375 3.1021 1.16667 2.76403 1.3125C2.42927 1.45833 2.16744 1.65885 1.97852 1.91406C1.79291 2.16927 1.70011 2.45928 1.70011 2.78409C1.70011 3.05587 1.76474 3.28954 1.894 3.48509C2.02657 3.67732 2.19561 3.83807 2.4011 3.96733C2.60659 4.09328 2.82203 4.19768 3.04741 4.28054C3.27279 4.36009 3.47994 4.42472 3.66886 4.47443L4.70295 4.75284C4.9681 4.82244 5.26308 4.91856 5.58789 5.04119C5.91602 5.16383 6.22923 5.3312 6.52752 5.54332C6.82913 5.75213 7.07771 6.0206 7.27326 6.34872C7.46881 6.67685 7.56658 7.07955 7.56658 7.55682C7.56658 8.10701 7.42241 8.60417 7.13406 9.0483C6.84902 9.49242 6.4314 9.84541 5.88121 10.1072C5.33434 10.3691 4.6698 10.5 3.88761 10.5C3.15844 10.5 2.52705 10.3823 1.99343 10.147C1.46313 9.9117 1.04551 9.58357 0.74059 9.16264C0.43898 8.74171 0.268288 8.25284 0.228516 7.69602H1.50124C1.53439 8.08049 1.66365 8.39867 1.88903 8.65057C2.11772 8.89915 2.40607 9.08475 2.75408 9.20739C3.10541 9.3267 3.48325 9.38636 3.88761 9.38636C4.35825 9.38636 4.78084 9.31013 5.15536 9.15767C5.52989 9.00189 5.82653 8.78646 6.04528 8.51136C6.26403 8.23295 6.3734 7.90814 6.3734 7.53693C6.3734 7.19886 6.27894 6.92377 6.09002 6.71165C5.9011 6.49953 5.65252 6.32718 5.34428 6.1946C5.03604 6.06203 4.70295 5.94602 4.34499 5.84659L3.09215 5.48864C2.2967 5.25994 1.66696 4.93348 1.20295 4.50923C0.738932 4.08499 0.506925 3.52983 0.506925 2.84375C0.506925 2.27367 0.661044 1.77652 0.969283 1.35227C1.28084 0.924716 1.69845 0.593276 2.22212 0.357955C2.74911 0.119318 3.33742 0 3.98704 0C4.64329 0 5.22662 0.117661 5.73704 0.352983C6.24746 0.58499 6.65181 0.903172 6.95011 1.30753C7.25172 1.71188 7.41081 2.17093 7.42738 2.68466H6.2342Z" fill="#818798"/>
</svg>
