<svg width="25" height="11" viewBox="0 0 25 11" fill="none" xmlns="http://www.w3.org/2000/svg">
<path d="M22.8838 7.0601V2.5459H24.0571V10.1823H22.8838V8.88965H22.8042C22.6253 9.27743 22.3469 9.60721 21.969 9.87899C21.5912 10.1475 21.1139 10.2817 20.5372 10.2817C20.0599 10.2817 19.6357 10.1773 19.2645 9.96848C18.8933 9.75636 18.6016 9.43818 18.3895 9.01394C18.1773 8.58638 18.0713 8.04779 18.0713 7.39817V2.5459H19.2446V7.31863C19.2446 7.87544 19.4004 8.31957 19.7119 8.65101C20.0268 8.98245 20.4278 9.14817 20.915 9.14817C21.2067 9.14817 21.5033 9.0736 21.805 8.92445C22.1099 8.7753 22.3651 8.54661 22.5706 8.23837C22.7794 7.93013 22.8838 7.53738 22.8838 7.0601Z" fill="#818798"/>
<path d="M10.9731 5.58807V10.1818H9.7998V0H10.9731V3.73864H11.0725C11.2515 3.34422 11.52 3.03101 11.8779 2.79901C12.2392 2.56368 12.7198 2.44602 13.3197 2.44602C13.8401 2.44602 14.2958 2.55043 14.6869 2.75923C15.078 2.96473 15.3812 3.28125 15.5967 3.70881C15.8154 4.13305 15.9248 4.6733 15.9248 5.32955V10.1818H14.7515V5.40909C14.7515 4.80256 14.5941 4.33357 14.2792 4.00213C13.9677 3.66738 13.5351 3.5 12.9816 3.5C12.5972 3.5 12.2525 3.5812 11.9475 3.74361C11.6459 3.90601 11.4073 4.14299 11.2316 4.45455C11.0593 4.7661 10.9731 5.14394 10.9731 5.58807Z" fill="#818798"/>
<path d="M0.419922 1.09375V0H8.05629V1.09375H4.85458V10.1818H3.62163V1.09375H0.419922Z" fill="#818798"/>
</svg>
