<svg width="76" height="12" viewBox="0 0 76 12" fill="none" xmlns="http://www.w3.org/2000/svg">
<path d="M75.3397 5.23429L73.9924 5.47292C73.936 5.30057 73.8465 5.13651 73.7239 4.98074C73.6046 4.82496 73.4422 4.69735 73.2367 4.59792C73.0312 4.49849 72.7743 4.44877 72.4661 4.44877C72.0452 4.44877 71.6938 4.54323 71.4121 4.73216C71.1304 4.91776 70.9895 5.15805 70.9895 5.45304C70.9895 5.70824 71.084 5.91374 71.2729 6.06951C71.4618 6.22529 71.7667 6.35289 72.1877 6.45233L73.4007 6.73074C74.1034 6.89314 74.6271 7.14338 74.9718 7.48145C75.3165 7.81951 75.4888 8.25867 75.4888 8.79892C75.4888 9.2563 75.3562 9.66397 75.0911 10.0219C74.8293 10.3766 74.463 10.655 73.9924 10.8572C73.525 11.0593 72.9831 11.1604 72.3667 11.1604C71.5115 11.1604 70.8139 10.9781 70.2736 10.6135C69.7334 10.2457 69.4019 9.72363 69.2793 9.0475L70.7161 8.82875C70.8056 9.20327 70.9895 9.48665 71.2679 9.67889C71.5463 9.86781 71.9093 9.96227 72.3567 9.96227C72.8439 9.96227 73.2334 9.86118 73.525 9.659C73.8167 9.45351 73.9625 9.20327 73.9625 8.90829C73.9625 8.66966 73.873 8.46914 73.6941 8.30673C73.5184 8.14432 73.2483 8.02169 72.8837 7.93883L71.5911 7.65545C70.8785 7.49305 70.3515 7.23452 70.0101 6.87988C69.672 6.52524 69.503 6.07614 69.503 5.53258C69.503 5.08182 69.629 4.68741 69.8809 4.34934C70.1328 4.01127 70.4808 3.74778 70.9249 3.55886C71.369 3.36663 71.8778 3.27051 72.4512 3.27051C73.2765 3.27051 73.9261 3.44948 74.4 3.80744C74.874 4.16208 75.1872 4.63769 75.3397 5.23429Z" fill="#818798"/>
<path d="M68.096 3.36958V4.56277H63.9248V3.36958H68.096ZM65.0434 1.54004H66.5299V8.76376C66.5299 9.05211 66.573 9.26921 66.6592 9.41504C66.7454 9.55756 66.8564 9.65533 66.9923 9.70836C67.1315 9.75808 67.2823 9.78294 67.4447 9.78294C67.564 9.78294 67.6684 9.77465 67.7579 9.75808C67.8474 9.74151 67.917 9.72825 67.9667 9.71831L68.2352 10.9463C68.149 10.9794 68.0264 11.0126 67.8673 11.0457C67.7082 11.0822 67.5093 11.1021 67.2707 11.1054C66.8796 11.112 66.515 11.0424 66.1769 10.8966C65.8389 10.7507 65.5654 10.5254 65.3566 10.2204C65.1478 9.91551 65.0434 9.5327 65.0434 9.072V1.54004Z" fill="#818798"/>
<path d="M58.707 11.0056V3.36923H60.1438V4.5823H60.2234C60.3626 4.17131 60.6078 3.84816 60.9592 3.61284C61.3138 3.3742 61.7148 3.25488 62.1623 3.25488C62.2551 3.25488 62.3645 3.2582 62.4904 3.26483C62.6197 3.27145 62.7208 3.27974 62.7937 3.28968V4.71156C62.734 4.69499 62.628 4.67676 62.4755 4.65687C62.323 4.63367 62.1706 4.62207 62.0181 4.62207C61.6668 4.62207 61.3536 4.69664 61.0785 4.84579C60.8067 4.99163 60.5913 5.19546 60.4322 5.4573C60.2731 5.71582 60.1935 6.0108 60.1935 6.34224V11.0056H58.707Z" fill="#818798"/>
<path d="M53.7817 11.1604C53.0293 11.1604 52.3814 10.9997 51.8378 10.6782C51.2976 10.3534 50.8799 9.89764 50.585 9.31099C50.2933 8.72103 50.1475 8.02998 50.1475 7.23784C50.1475 6.45564 50.2933 5.76625 50.585 5.16966C50.8799 4.57306 51.2909 4.10739 51.8179 3.77264C52.3482 3.43788 52.968 3.27051 53.6773 3.27051C54.1082 3.27051 54.5258 3.34177 54.9301 3.48429C55.3345 3.62681 55.6974 3.85053 56.0189 4.15545C56.3404 4.46038 56.594 4.85644 56.7796 5.34366C56.9652 5.82756 57.058 6.41587 57.058 7.10858V7.63556H50.9877V6.52193H55.6013C55.6013 6.13083 55.5218 5.78448 55.3627 5.48287C55.2036 5.17794 54.9798 4.93765 54.6915 4.76199C54.4065 4.58632 54.0717 4.49849 53.6872 4.49849C53.2696 4.49849 52.905 4.60124 52.5935 4.80673C52.2852 5.00891 52.0466 5.27406 51.8776 5.60218C51.7119 5.92699 51.629 6.27998 51.629 6.66113V7.53116C51.629 8.04158 51.7185 8.47576 51.8975 8.83372C52.0798 9.19167 52.3333 9.46511 52.6581 9.65403C52.9829 9.83964 53.3624 9.93244 53.7966 9.93244C54.0783 9.93244 54.3352 9.89267 54.5672 9.81312C54.7992 9.73026 54.9997 9.60763 55.1688 9.44522C55.3378 9.28282 55.4671 9.0823 55.5566 8.84366L56.9635 9.09721C56.8508 9.51151 56.6486 9.87444 56.357 10.186C56.0686 10.4942 55.7057 10.7345 55.2682 10.9069C54.834 11.0759 54.3385 11.1604 53.7817 11.1604Z" fill="#818798"/>
<path d="M48.4904 0.824219V11.006H47.0039V0.824219H48.4904Z" fill="#818798"/>
<path d="M38.1805 11.006H36.5498L40.2139 0.824219H41.9887L45.6528 11.006H44.0221L41.1436 2.67365H41.064L38.1805 11.006ZM38.4539 7.01882H43.7437V8.31144H38.4539V7.01882Z" fill="#818798"/>
<path d="M31.4963 0.824219V11.006H30.0098V0.824219H31.4963Z" fill="#818798"/>
<path d="M24.2609 11.1753C23.777 11.1753 23.3395 11.0858 22.9484 10.9069C22.5573 10.7246 22.2474 10.4611 22.0187 10.1164C21.7934 9.77169 21.6807 9.34911 21.6807 8.84863C21.6807 8.41776 21.7635 8.06312 21.9292 7.78471C22.095 7.5063 22.3187 7.2859 22.6004 7.12349C22.8821 6.96109 23.197 6.83845 23.545 6.75559C23.893 6.67273 24.2477 6.60976 24.6089 6.56667C25.0663 6.51364 25.4375 6.47055 25.7226 6.43741C26.0076 6.40095 26.2148 6.34295 26.344 6.26341C26.4733 6.18386 26.5379 6.0546 26.5379 5.87562V5.84082C26.5379 5.40663 26.4153 5.07022 26.17 4.83159C25.9281 4.59295 25.5668 4.47363 25.0862 4.47363C24.5857 4.47363 24.1913 4.58466 23.903 4.80673C23.6179 5.02548 23.4207 5.26909 23.3113 5.53755L21.9143 5.21937C22.08 4.75536 22.322 4.38083 22.6402 4.09579C22.9617 3.80744 23.3312 3.59863 23.7488 3.46937C24.1665 3.3368 24.6056 3.27051 25.0663 3.27051C25.3712 3.27051 25.6944 3.30697 26.0358 3.37988C26.3805 3.44948 26.702 3.57875 27.0003 3.76767C27.3019 3.95659 27.5488 4.22671 27.741 4.57804C27.9333 4.92605 28.0294 5.37846 28.0294 5.93528V11.0063H26.5777V9.96227H26.518C26.4219 10.1545 26.2777 10.3434 26.0855 10.529C25.8933 10.7146 25.6463 10.8688 25.3447 10.9914C25.0431 11.114 24.6818 11.1753 24.2609 11.1753ZM24.5841 9.98216C24.9951 9.98216 25.3464 9.90095 25.6381 9.73855C25.933 9.57614 26.1568 9.36402 26.3092 9.10218C26.465 8.83703 26.5429 8.55365 26.5429 8.25204V7.26767C26.4899 7.3207 26.3871 7.37041 26.2346 7.41681C26.0855 7.4599 25.9148 7.49802 25.7226 7.53116C25.5303 7.56099 25.3431 7.58916 25.1608 7.61568C24.9785 7.63888 24.826 7.65877 24.7034 7.67534C24.415 7.7118 24.1515 7.77311 23.9129 7.85929C23.6776 7.94546 23.4887 8.06975 23.3461 8.23216C23.2069 8.39125 23.1373 8.60337 23.1373 8.86852C23.1373 9.23642 23.2732 9.51483 23.545 9.70375C23.8168 9.88935 24.1631 9.98216 24.5841 9.98216Z" fill="#818798"/>
<path d="M20.3948 3.36958V4.56277H16.2236V3.36958H20.3948ZM17.3422 1.54004H18.8287V8.76376C18.8287 9.05211 18.8718 9.26921 18.958 9.41504C19.0442 9.55756 19.1552 9.65533 19.2911 9.70836C19.4303 9.75808 19.5811 9.78294 19.7435 9.78294C19.8628 9.78294 19.9672 9.77465 20.0567 9.75808C20.1462 9.74151 20.2158 9.72825 20.2655 9.71831L20.534 10.9463C20.4478 10.9794 20.3252 11.0126 20.1661 11.0457C20.007 11.0822 19.8081 11.1021 19.5695 11.1054C19.1784 11.112 18.8138 11.0424 18.4758 10.8966C18.1377 10.7507 17.8643 10.5254 17.6555 10.2204C17.4466 9.91551 17.3422 9.5327 17.3422 9.072V1.54004Z" fill="#818798"/>
<path d="M11.6114 11.1604C10.8955 11.1604 10.2707 10.9964 9.73713 10.6682C9.20351 10.3401 8.78921 9.88107 8.49423 9.2911C8.19925 8.70114 8.05176 8.01175 8.05176 7.22292C8.05176 6.43078 8.19925 5.73807 8.49423 5.1448C8.78921 4.55152 9.20351 4.09082 9.73713 3.7627C10.2707 3.43457 10.8955 3.27051 11.6114 3.27051C12.3273 3.27051 12.9521 3.43457 13.4857 3.7627C14.0193 4.09082 14.4336 4.55152 14.7286 5.1448C15.0236 5.73807 15.1711 6.43078 15.1711 7.22292C15.1711 8.01175 15.0236 8.70114 14.7286 9.2911C14.4336 9.88107 14.0193 10.3401 13.4857 10.6682C12.9521 10.9964 12.3273 11.1604 11.6114 11.1604ZM11.6164 9.91255C12.0804 9.91255 12.4649 9.78992 12.7698 9.54466C13.0747 9.29939 13.3001 8.97292 13.4459 8.56525C13.5951 8.15758 13.6697 7.70848 13.6697 7.21795C13.6697 6.73074 13.5951 6.28329 13.4459 5.87562C13.3001 5.46464 13.0747 5.13485 12.7698 4.88627C12.4649 4.6377 12.0804 4.51341 11.6164 4.51341C11.1491 4.51341 10.7613 4.6377 10.453 4.88627C10.1481 5.13485 9.92108 5.46464 9.77193 5.87562C9.6261 6.28329 9.55318 6.73074 9.55318 7.21795C9.55318 7.70848 9.6261 8.15758 9.77193 8.56525C9.92108 8.97292 10.1481 9.29939 10.453 9.54466C10.7613 9.78992 11.1491 9.91255 11.6164 9.91255Z" fill="#818798"/>
<path d="M0 2.14666V0.824219H7.87997V2.14666H4.70312V11.006H3.17188V2.14666H0Z" fill="#818798"/>
</svg>
