<svg width="82" height="12" viewBox="0 0 82 12" fill="none" xmlns="http://www.w3.org/2000/svg">
<path d="M81.1873 5.23429L79.84 5.47292C79.7837 5.30057 79.6942 5.13651 79.5716 4.98074C79.4522 4.82496 79.2898 4.69735 79.0843 4.59792C78.8788 4.49849 78.622 4.44877 78.3137 4.44877C77.8928 4.44877 77.5415 4.54323 77.2598 4.73216C76.978 4.91776 76.8372 5.15805 76.8372 5.45304C76.8372 5.70824 76.9316 5.91374 77.1206 6.06951C77.3095 6.22529 77.6144 6.35289 78.0353 6.45233L79.2484 6.73074C79.951 6.89314 80.4747 7.14338 80.8194 7.48145C81.1641 7.81951 81.3365 8.25867 81.3365 8.79892C81.3365 9.2563 81.2039 9.66397 80.9387 10.0219C80.6769 10.3766 80.3107 10.655 79.84 10.8572C79.3727 11.0593 78.8308 11.1604 78.2143 11.1604C77.3592 11.1604 76.6615 10.9781 76.1213 10.6135C75.581 10.2457 75.2496 9.72363 75.127 9.0475L76.5637 8.82875C76.6532 9.20327 76.8372 9.48665 77.1156 9.67889C77.394 9.86781 77.7569 9.96227 78.2044 9.96227C78.6916 9.96227 79.081 9.86118 79.3727 9.659C79.6644 9.45351 79.8102 9.20327 79.8102 8.90829C79.8102 8.66966 79.7207 8.46914 79.5417 8.30673C79.3661 8.14432 79.0959 8.02169 78.7314 7.93883L77.4387 7.65545C76.7261 7.49305 76.1992 7.23452 75.8578 6.87988C75.5197 6.52524 75.3507 6.07614 75.3507 5.53258C75.3507 5.08182 75.4766 4.68741 75.7285 4.34934C75.9804 4.01127 76.3284 3.74778 76.7725 3.55886C77.2167 3.36663 77.7254 3.27051 78.2988 3.27051C79.1241 3.27051 79.7737 3.44948 80.2477 3.80744C80.7216 4.16208 81.0349 4.63769 81.1873 5.23429Z" fill="#818798"/>
<path d="M73.9436 3.36958V4.56277H69.7725V3.36958H73.9436ZM70.8911 1.54004H72.3776V8.76376C72.3776 9.05211 72.4207 9.26921 72.5068 9.41504C72.593 9.55756 72.704 9.65533 72.8399 9.70836C72.9791 9.75808 73.1299 9.78294 73.2924 9.78294C73.4117 9.78294 73.5161 9.77465 73.6056 9.75808C73.695 9.74151 73.7647 9.72825 73.8144 9.71831L74.0828 10.9463C73.9967 10.9794 73.874 11.0126 73.7149 11.0457C73.5558 11.0822 73.357 11.1021 73.1183 11.1054C72.7272 11.112 72.3627 11.0424 72.0246 10.8966C71.6865 10.7507 71.4131 10.5254 71.2043 10.2204C70.9955 9.91551 70.8911 9.5327 70.8911 9.072V1.54004Z" fill="#818798"/>
<path d="M63.4982 6.47221V11.0063H62.0117V3.36994H63.4386V4.61284H63.533C63.7087 4.20848 63.9838 3.88367 64.3583 3.63841C64.7361 3.39314 65.2118 3.27051 65.7852 3.27051C66.3055 3.27051 66.7612 3.37988 67.1523 3.59863C67.5434 3.81407 67.8467 4.13556 68.0621 4.56312C68.2776 4.99068 68.3853 5.51932 68.3853 6.14906V11.0063H66.8988V6.32804C66.8988 5.77453 66.7546 5.342 66.4663 5.03045C66.1779 4.71558 65.7818 4.55815 65.2781 4.55815C64.9334 4.55815 64.6268 4.63272 64.3583 4.78187C64.0932 4.93102 63.8827 5.14977 63.7269 5.43812C63.5745 5.72316 63.4982 6.06786 63.4982 6.47221Z" fill="#818798"/>
<path d="M57.0864 11.1604C56.334 11.1604 55.6861 10.9997 55.1425 10.6782C54.6022 10.3534 54.1846 9.89764 53.8896 9.31099C53.598 8.72103 53.4521 8.02998 53.4521 7.23784C53.4521 6.45564 53.598 5.76625 53.8896 5.16966C54.1846 4.57306 54.5956 4.10739 55.1226 3.77264C55.6529 3.43788 56.2727 3.27051 56.982 3.27051C57.4129 3.27051 57.8305 3.34177 58.2348 3.48429C58.6392 3.62681 59.0021 3.85053 59.3236 4.15545C59.6451 4.46038 59.8986 4.85644 60.0843 5.34366C60.2699 5.82756 60.3627 6.41587 60.3627 7.10858V7.63556H54.2923V6.52193H58.906C58.906 6.13083 58.8264 5.78448 58.6673 5.48287C58.5083 5.17794 58.2845 4.93765 57.9962 4.76199C57.7111 4.58632 57.3764 4.49849 56.9919 4.49849C56.5743 4.49849 56.2097 4.60124 55.8982 4.80673C55.5899 5.00891 55.3513 5.27406 55.1823 5.60218C55.0165 5.92699 54.9337 6.27998 54.9337 6.66113V7.53116C54.9337 8.04158 55.0232 8.47576 55.2021 8.83372C55.3844 9.19167 55.638 9.46511 55.9628 9.65403C56.2876 9.83964 56.6671 9.93244 57.1013 9.93244C57.383 9.93244 57.6399 9.89267 57.8719 9.81312C58.1039 9.73026 58.3044 9.60763 58.4735 9.44522C58.6425 9.28282 58.7718 9.0823 58.8612 8.84366L60.2682 9.09721C60.1555 9.51151 59.9533 9.87444 59.6617 10.186C59.3733 10.4942 59.0104 10.7345 58.5729 10.9069C58.1387 11.0759 57.6432 11.1604 57.0864 11.1604Z" fill="#818798"/>
<path d="M52.6577 3.37012L49.8885 11.0065H48.2976L45.5234 3.37012H47.1193L49.0533 9.24654H49.1328L51.0618 3.37012H52.6577Z" fill="#818798"/>
<path d="M37.8086 11.006V0.824219H44.1921V2.14666H39.3448V5.24894H43.859V6.56641H39.3448V9.68359H44.2518V11.006H37.8086Z" fill="#818798"/>
<path d="M31.9846 0.824219V11.006H30.498V0.824219H31.9846Z" fill="#818798"/>
<path d="M24.7492 11.1753C24.2653 11.1753 23.8278 11.0858 23.4367 10.9069C23.0456 10.7246 22.7357 10.4611 22.507 10.1164C22.2816 9.77169 22.1689 9.34911 22.1689 8.84863C22.1689 8.41776 22.2518 8.06312 22.4175 7.78471C22.5832 7.5063 22.807 7.2859 23.0887 7.12349C23.3704 6.96109 23.6853 6.83845 24.0333 6.75559C24.3813 6.67273 24.7359 6.60976 25.0972 6.56667C25.5546 6.51364 25.9258 6.47055 26.2108 6.43741C26.4959 6.40095 26.703 6.34295 26.8323 6.26341C26.9616 6.18386 27.0262 6.0546 27.0262 5.87562V5.84082C27.0262 5.40663 26.9036 5.07022 26.6583 4.83159C26.4163 4.59295 26.0551 4.47363 25.5745 4.47363C25.074 4.47363 24.6796 4.58466 24.3912 4.80673C24.1062 5.02548 23.909 5.26909 23.7996 5.53755L22.4026 5.21937C22.5683 4.75536 22.8103 4.38083 23.1285 4.09579C23.45 3.80744 23.8195 3.59863 24.2371 3.46937C24.6547 3.3368 25.0939 3.27051 25.5546 3.27051C25.8595 3.27051 26.1827 3.30697 26.5241 3.37988C26.8688 3.44948 27.1903 3.57875 27.4885 3.76767C27.7902 3.95659 28.0371 4.22671 28.2293 4.57804C28.4215 4.92605 28.5177 5.37846 28.5177 5.93528V11.0063H27.066V9.96227H27.0063C26.9102 10.1545 26.766 10.3434 26.5738 10.529C26.3815 10.7146 26.1346 10.8688 25.833 10.9914C25.5314 11.114 25.1701 11.1753 24.7492 11.1753ZM25.0724 9.98216C25.4833 9.98216 25.8347 9.90095 26.1263 9.73855C26.4213 9.57614 26.645 9.36402 26.7975 9.10218C26.9533 8.83703 27.0312 8.55365 27.0312 8.25204V7.26767C26.9781 7.3207 26.8754 7.37041 26.7229 7.41681C26.5738 7.4599 26.4031 7.49802 26.2108 7.53116C26.0186 7.56099 25.8314 7.58916 25.6491 7.61568C25.4668 7.63888 25.3143 7.65877 25.1917 7.67534C24.9033 7.7118 24.6398 7.77311 24.4012 7.85929C24.1659 7.94546 23.9769 8.06975 23.8344 8.23216C23.6952 8.39125 23.6256 8.60337 23.6256 8.86852C23.6256 9.23642 23.7615 9.51483 24.0333 9.70375C24.3051 9.88935 24.6514 9.98216 25.0724 9.98216Z" fill="#818798"/>
<path d="M20.8831 3.36958V4.56277H16.7119V3.36958H20.8831ZM17.8305 1.54004H19.317V8.76376C19.317 9.05211 19.3601 9.26921 19.4463 9.41504C19.5325 9.55756 19.6435 9.65533 19.7794 9.70836C19.9186 9.75808 20.0694 9.78294 20.2318 9.78294C20.3511 9.78294 20.4555 9.77465 20.545 9.75808C20.6345 9.74151 20.7041 9.72825 20.7538 9.71831L21.0223 10.9463C20.9361 10.9794 20.8135 11.0126 20.6544 11.0457C20.4953 11.0822 20.2964 11.1021 20.0578 11.1054C19.6667 11.112 19.3021 11.0424 18.964 10.8966C18.626 10.7507 18.3525 10.5254 18.1437 10.2204C17.9349 9.91551 17.8305 9.5327 17.8305 9.072V1.54004Z" fill="#818798"/>
<path d="M12.0997 11.1604C11.3838 11.1604 10.759 10.9964 10.2254 10.6682C9.69179 10.3401 9.27749 9.88107 8.98251 9.2911C8.68753 8.70114 8.54004 8.01175 8.54004 7.22292C8.54004 6.43078 8.68753 5.73807 8.98251 5.1448C9.27749 4.55152 9.69179 4.09082 10.2254 3.7627C10.759 3.43457 11.3838 3.27051 12.0997 3.27051C12.8156 3.27051 13.4404 3.43457 13.974 3.7627C14.5076 4.09082 14.9219 4.55152 15.2169 5.1448C15.5119 5.73807 15.6594 6.43078 15.6594 7.22292C15.6594 8.01175 15.5119 8.70114 15.2169 9.2911C14.9219 9.88107 14.5076 10.3401 13.974 10.6682C13.4404 10.9964 12.8156 11.1604 12.0997 11.1604ZM12.1047 9.91255C12.5687 9.91255 12.9532 9.78992 13.2581 9.54466C13.563 9.29939 13.7884 8.97292 13.9342 8.56525C14.0834 8.15758 14.1579 7.70848 14.1579 7.21795C14.1579 6.73074 14.0834 6.28329 13.9342 5.87562C13.7884 5.46464 13.563 5.13485 13.2581 4.88627C12.9532 4.6377 12.5687 4.51341 12.1047 4.51341C11.6373 4.51341 11.2496 4.6377 10.9413 4.88627C10.6364 5.13485 10.4094 5.46464 10.2602 5.87562C10.1144 6.28329 10.0415 6.73074 10.0415 7.21795C10.0415 7.70848 10.1144 8.15758 10.2602 8.56525C10.4094 8.97292 10.6364 9.29939 10.9413 9.54466C11.2496 9.78992 11.6373 9.91255 12.1047 9.91255Z" fill="#818798"/>
<path d="M0.488281 2.14666V0.824219H8.36825V2.14666H5.19141V11.006H3.66016V2.14666H0.488281Z" fill="#818798"/>
</svg>
