<svg width="24" height="11" viewBox="0 0 24 11" fill="none" xmlns="http://www.w3.org/2000/svg">
<path d="M20.3731 10.3412C19.6373 10.3412 19.0026 10.1788 18.469 9.85396C17.9387 9.52583 17.5294 9.06845 17.241 8.4818C16.956 7.89184 16.8135 7.20576 16.8135 6.42356C16.8135 5.64136 16.956 4.95197 17.241 4.35538C17.5294 3.75547 17.9304 3.28815 18.4442 2.95339C18.9612 2.61532 19.5644 2.44629 20.2538 2.44629C20.6515 2.44629 21.0443 2.51258 21.4321 2.64515C21.8199 2.77773 22.1729 2.99316 22.491 3.29146C22.8092 3.58644 23.0628 3.97754 23.2517 4.46475C23.4406 4.95197 23.5351 5.55188 23.5351 6.26447V6.76163H17.6487V5.74743H22.3419C22.3419 5.31655 22.2557 4.93208 22.0834 4.59402C21.9143 4.25595 21.6724 3.98914 21.3575 3.79359C21.046 3.59804 20.6781 3.50027 20.2538 3.50027C19.7865 3.50027 19.3821 3.61627 19.0407 3.84828C18.7027 4.07697 18.4425 4.37527 18.2602 4.74316C18.0779 5.11106 17.9868 5.50547 17.9868 5.9264V6.60254C17.9868 7.17924 18.0862 7.66812 18.2851 8.06916C18.4872 8.46689 18.7673 8.77015 19.1253 8.97896C19.4832 9.18445 19.8992 9.2872 20.3731 9.2872C20.6814 9.2872 20.9598 9.24411 21.2084 9.15794C21.4603 9.06845 21.6773 8.93587 21.8596 8.76021C22.0419 8.58123 22.1828 8.35917 22.2822 8.09402L23.4157 8.4122C23.2964 8.79667 23.0959 9.13474 22.8142 9.4264C22.5325 9.71476 22.1845 9.94013 21.7702 10.1025C21.3559 10.2616 20.8902 10.3412 20.3731 10.3412Z" fill="#818798"/>
<path d="M13.8486 7.0601V2.5459H15.0219V10.1823H13.8486V8.88965H13.7691C13.5901 9.27743 13.3117 9.60721 12.9339 9.87899C12.556 10.1475 12.0787 10.2817 11.502 10.2817C11.0248 10.2817 10.6005 10.1773 10.2293 9.96848C9.8581 9.75636 9.56644 9.43818 9.35431 9.01394C9.14219 8.58638 9.03613 8.04779 9.03613 7.39817V2.5459H10.2094V7.31863C10.2094 7.87544 10.3652 8.31957 10.6768 8.65101C10.9916 8.98245 11.3927 9.14817 11.8799 9.14817C12.1715 9.14817 12.4682 9.0736 12.7698 8.92445C13.0747 8.7753 13.3299 8.54661 13.5354 8.23837C13.7442 7.93013 13.8486 7.53738 13.8486 7.0601Z" fill="#818798"/>
<path d="M0.695312 1.09375V0H8.33168V1.09375H5.12997V10.1818H3.89702V1.09375H0.695312Z" fill="#818798"/>
</svg>
