<svg width="29" height="11" viewBox="0 0 29 11" fill="none" xmlns="http://www.w3.org/2000/svg">
<path d="M24.9202 10.3409C24.2838 10.3409 23.722 10.1802 23.2348 9.85867C22.7476 9.53385 22.3664 9.07647 22.0914 8.48651C21.8163 7.89323 21.6787 7.19224 21.6787 6.38352C21.6787 5.58144 21.8163 4.88542 22.0914 4.29545C22.3664 3.70549 22.7493 3.24976 23.2398 2.92827C23.7303 2.60677 24.2971 2.44602 24.9401 2.44602C25.4372 2.44602 25.83 2.52888 26.1183 2.6946C26.41 2.85701 26.6321 3.04261 26.7845 3.25142C26.9403 3.45691 27.0613 3.62595 27.1475 3.75852H27.2469V0H28.4202V10.1818H27.2867V9.00852H27.1475C27.0613 9.14773 26.9387 9.32339 26.7796 9.53551C26.6205 9.74432 26.3934 9.93158 26.0985 10.0973C25.8035 10.2597 25.4107 10.3409 24.9202 10.3409ZM25.0793 9.28693C25.5499 9.28693 25.9477 9.1643 26.2725 8.91903C26.5973 8.67045 26.8442 8.32742 27.0132 7.88991C27.1823 7.4491 27.2668 6.94034 27.2668 6.36364C27.2668 5.79356 27.1839 5.29474 27.0182 4.86719C26.8525 4.43632 26.6072 4.10156 26.2824 3.86293C25.9576 3.62098 25.5566 3.5 25.0793 3.5C24.5821 3.5 24.1678 3.6276 23.8364 3.88281C23.5083 4.13471 23.2613 4.47775 23.0956 4.91193C22.9332 5.3428 22.852 5.8267 22.852 6.36364C22.852 6.9072 22.9349 7.40104 23.1006 7.84517C23.2696 8.28598 23.5182 8.63731 23.8463 8.89915C24.1778 9.15767 24.5887 9.28693 25.0793 9.28693Z" fill="#818798"/>
<path d="M17.0899 10.3412C16.3541 10.3412 15.7194 10.1788 15.1858 9.85396C14.6555 9.52583 14.2462 9.06845 13.9578 8.4818C13.6728 7.89184 13.5303 7.20576 13.5303 6.42356C13.5303 5.64136 13.6728 4.95197 13.9578 4.35538C14.2462 3.75547 14.6472 3.28815 15.161 2.95339C15.678 2.61532 16.2812 2.44629 16.9706 2.44629C17.3683 2.44629 17.7611 2.51258 18.1489 2.64515C18.5367 2.77773 18.8896 2.99316 19.2078 3.29146C19.526 3.58644 19.7796 3.97754 19.9685 4.46475C20.1574 4.95197 20.2519 5.55188 20.2519 6.26447V6.76163H14.3655V5.74743H19.0587C19.0587 5.31655 18.9725 4.93208 18.8002 4.59402C18.6311 4.25595 18.3892 3.98914 18.0743 3.79359C17.7628 3.59804 17.3949 3.50027 16.9706 3.50027C16.5033 3.50027 16.0989 3.61627 15.7575 3.84828C15.4195 4.07697 15.1593 4.37527 14.977 4.74316C14.7947 5.11106 14.7036 5.50547 14.7036 5.9264V6.60254C14.7036 7.17924 14.803 7.66812 15.0019 8.06916C15.204 8.46689 15.4841 8.77015 15.8421 8.97896C16.2 9.18445 16.616 9.2872 17.0899 9.2872C17.3982 9.2872 17.6766 9.24411 17.9252 9.15794C18.1771 9.06845 18.3941 8.93587 18.5764 8.76021C18.7587 8.58123 18.8996 8.35917 18.999 8.09402L20.1325 8.4122C20.0132 8.79667 19.8127 9.13474 19.531 9.4264C19.2493 9.71476 18.9012 9.94013 18.4869 10.1025C18.0726 10.2616 17.607 10.3412 17.0899 10.3412Z" fill="#818798"/>
<path d="M3.31827 10.1818L0.53418 0H1.78702L3.91486 8.29261H4.01429L6.18191 0H7.57395L9.74157 8.29261H9.841L11.9688 0H13.2217L10.4376 10.1818H9.16486L6.9177 2.06818H6.83816L4.591 10.1818H3.31827Z" fill="#818798"/>
</svg>
