<svg width="28" height="28" viewBox="0 0 28 28" fill="none" xmlns="http://www.w3.org/2000/svg">
<g clip-path="url(#clip0_3388_11501)">
<path d="M0 14C0 6.26801 6.26801 0 14 0C21.732 0 28 6.26801 28 14C28 21.732 21.732 28 14 28C6.26801 28 0 21.732 0 14Z" fill="#121416"/>
<path opacity="0.2" d="M10.1975 13.3983C9.90616 13.4055 9.59881 13.4356 9.28372 13.4879C8.93215 13.5476 8.58444 13.628 8.24239 13.7288C7.86674 13.8377 7.46733 13.977 7.05646 14.1421L7.05353 14.1427C7.04666 14.1456 7.04054 14.1501 7.0356 14.1557C7.03067 14.1614 7.02704 14.168 7.02498 14.1752L5.38735 19.7236C5.37828 19.753 5.39455 19.7831 5.41323 19.7991L5.52289 19.8805C5.52289 19.8805 5.52475 19.8816 5.52635 19.8832C5.54513 19.8956 5.56773 19.901 5.59012 19.8984L5.59359 19.8973C6.20697 19.667 6.75364 19.5019 7.26537 19.3914C7.76402 19.2845 8.21304 19.2335 8.63832 19.2356C8.99397 19.238 9.32827 19.2746 9.66097 19.3469C9.96113 19.4128 10.253 19.5067 10.5529 19.6345C10.9734 19.8175 11.3589 20.0478 11.6478 20.2276L11.6505 20.2292V20.23C11.6596 20.2345 11.6863 20.2468 11.7119 20.2356C11.7119 20.2356 11.7842 20.1942 11.8058 20.1814L11.8133 20.1764C11.8279 20.1665 11.8479 20.1529 11.8538 20.1275L11.8549 20.1219L11.8557 20.1233L13.4856 14.72L13.5416 14.5349C13.5426 14.5298 13.5431 14.5248 13.5432 14.5196C13.5434 14.5096 13.5412 14.4997 13.5369 14.4906C13.5325 14.4816 13.5261 14.4737 13.5181 14.4676L13.5163 14.4674C12.8223 14.0122 12.0382 13.5725 11.0046 13.4391C10.737 13.4049 10.4672 13.3912 10.1975 13.3983Z" fill="url(#paint0_radial_3388_11501)"/>
<path opacity="0.2" d="M14.269 15.041C14.2444 15.0441 14.221 15.0533 14.201 15.068H14.2002L14.1999 15.0688C14.1924 15.0738 14.1735 15.0864 14.1519 15.1029C14.1079 15.1363 14.0809 15.1635 14.0734 15.1819C14.0731 15.1835 14.0723 15.1852 14.0716 15.1867L14.0718 15.1854L14.0716 15.1872V15.1878L12.4321 20.6855C12.4038 20.7679 12.4793 20.813 12.4878 20.8175C12.9086 21.0907 13.3096 21.306 13.7141 21.4744C13.9489 21.5731 14.1896 21.6568 14.435 21.7252C14.6967 21.7986 14.9656 21.8554 15.2354 21.8933C15.5246 21.933 15.8229 21.9536 16.1219 21.9528C16.4495 21.9505 16.7764 21.9258 17.1006 21.8789C17.4643 21.8255 17.8241 21.7483 18.1777 21.6478C18.5793 21.5338 18.9738 21.3961 19.359 21.2353L19.3615 21.234C19.3727 21.2271 19.3993 21.2108 19.4127 21.1838L21.0143 15.7739L21.0138 15.7729V15.7723C21.0156 15.7646 21.0164 15.7567 21.0162 15.7488C21.0162 15.7043 20.9876 15.6773 20.9873 15.6768C20.9873 15.6773 20.8531 15.5738 20.8531 15.5738L20.8529 15.5728C20.8441 15.5634 20.8206 15.5485 20.7632 15.5567C20.3747 15.6849 19.9809 15.7962 19.5829 15.8905C19.2409 15.971 18.8949 16.0332 18.5464 16.077C17.9271 16.1528 17.3668 16.1528 16.834 16.077C16.3665 16.0107 15.9102 15.8811 15.4776 15.6917C15.1193 15.5365 14.7543 15.3353 14.329 15.0576L14.3277 15.057H14.3282C14.3098 15.0478 14.2896 15.0423 14.269 15.041Z" fill="url(#paint1_radial_3388_11501)"/>
<path opacity="0.2" d="M16.143 8.34607C16.1337 8.3525 16.1243 8.359 16.115 8.36555C16.0587 8.40637 16.0251 8.43785 16.0158 8.45946L16.0155 8.46L16.0152 8.46027L16.0096 8.47894C16.0096 8.48001 14.3648 13.9895 14.3648 13.9895C14.3607 14.0011 14.3585 14.0134 14.3584 14.0257C14.3584 14.086 14.4142 14.117 14.4152 14.1173C14.5457 14.2018 14.6804 14.2832 14.8157 14.3582C15.4469 14.7394 16.0707 14.9926 16.7228 15.1319C17.1006 15.2138 17.4933 15.2568 17.8903 15.2602C18.338 15.2626 18.7848 15.221 19.2243 15.1362C19.9007 15.0324 20.5879 14.8283 21.2662 14.5311C21.2662 14.5305 21.268 14.53 21.268 14.53C21.2908 14.5186 21.3098 14.5011 21.323 14.4793C21.323 14.478 22.9956 8.91836 22.9956 8.91836C22.9986 8.90916 23.0003 8.89952 23.0004 8.88982C23.0004 8.84206 22.9585 8.80204 22.9179 8.76735C22.8957 8.74511 22.8705 8.72615 22.8429 8.71106C22.7976 8.69025 22.7512 8.69692 22.7373 8.70519L22.7362 8.70626L22.736 8.70652C22.3488 8.86225 21.954 8.99858 21.5532 9.115C21.2116 9.21378 20.8643 9.29165 20.5132 9.34818C20.1984 9.3978 19.8905 9.42475 19.5976 9.42902C19.3273 9.43331 19.057 9.41699 18.7892 9.3802C18.3168 9.31326 17.8565 9.17913 17.4221 8.98186C16.9731 8.78096 16.5704 8.53043 16.2695 8.3346C16.218 8.31192 16.1953 8.31352 16.143 8.34607Z" fill="url(#paint2_radial_3388_11501)"/>
<path opacity="0.2" d="M10.8188 6.80432C10.2513 6.92332 9.63127 7.11702 8.97627 7.37928C8.9704 7.38168 8.95199 7.38862 8.94586 7.41236L8.86075 7.69597L7.28368 12.9786C7.28188 12.9847 7.28107 12.991 7.28128 12.9973C7.28128 13.0229 7.29275 13.0547 7.30556 13.064C7.30796 13.0659 7.31116 13.0672 7.31303 13.0683L7.3133 13.0688L7.32424 13.0768L7.42135 13.1505L7.42429 13.1521C7.42714 13.1542 7.43008 13.1563 7.43309 13.1582C7.4531 13.1662 7.45817 13.1662 7.46324 13.1657H7.46511C7.46511 13.1651 7.46591 13.1651 7.46591 13.1651L7.46884 13.1641C7.48555 13.1606 7.50176 13.1552 7.51713 13.1478C8.95359 12.5963 10.1024 12.3957 11.1326 12.5179C11.572 12.5699 11.997 12.6825 12.4324 12.8612C12.779 13.004 13.137 13.1907 13.5575 13.4487L13.5634 13.4514H13.5647L13.5698 13.4541H13.5706L13.5719 13.4549L13.5735 13.4559H13.573C13.5733 13.4559 13.6063 13.472 13.6338 13.4648L13.7373 13.4194L13.7421 13.4162C13.7558 13.4066 13.7771 13.3919 13.7832 13.3655L14.8206 9.89682L15.3779 8.03294L15.4153 7.90995L15.4155 7.90728L15.4425 7.81684C15.4433 7.81417 15.4435 7.81097 15.4441 7.8075V7.80003C15.4445 7.79043 15.4424 7.78088 15.4382 7.77226C15.434 7.76364 15.4276 7.75622 15.4198 7.75067C15.0903 7.53456 14.8288 7.37848 14.5719 7.24561L14.5546 7.23681C13.8131 6.85422 13.0994 6.66852 12.3089 6.65251C11.8457 6.64291 11.3441 6.6936 10.8188 6.80432Z" fill="url(#paint3_radial_3388_11501)"/>
<path d="M6.67139 13.5639C10.0149 12.1867 11.6334 12.9215 13.0826 13.9054L11.4087 19.6585C9.95412 18.6804 8.37252 17.8749 5.01562 19.2628L6.65165 13.5722L6.67139 13.5639Z" fill="url(#paint4_radial_3388_11501)"/>
<path d="M5.13867 19.4319C5.14961 19.4333 5.16882 19.4229 5.16882 19.4229C5.19283 19.4397 5.21204 19.4506 5.21204 19.4506C5.21204 19.4506 5.17416 19.4594 5.13867 19.4319Z" fill="url(#paint5_radial_3388_11501)"/>
<path d="M11.3504 19.7236C11.3504 19.7236 11.3722 19.7447 11.3983 19.7384L11.2983 19.7981C11.2663 19.8125 11.2324 19.7893 11.2324 19.7893L11.3504 19.7236Z" fill="#152469"/>
<path d="M5.17061 19.4241C5.17061 19.4241 5.15061 19.4353 5.13967 19.4337L5.02921 19.3488L5.02734 19.3467C5.04057 19.3497 5.05426 19.35 5.06763 19.3477L5.17061 19.4241Z" fill="url(#paint6_radial_3388_11501)"/>
<path d="M11.4072 19.6436C11.4185 19.6502 11.4302 19.6604 11.4411 19.683C11.4353 19.7135 11.4113 19.7281 11.3955 19.7388C11.3752 19.7431 11.3467 19.7249 11.3467 19.7249C11.3632 19.7113 11.3899 19.6919 11.4072 19.6436Z" fill="#152469"/>
<path d="M5.02955 19.3483C5.00822 19.3301 4.99382 19.2981 5.00263 19.2696L5.02208 19.2607C5.01435 19.3037 5.04427 19.3339 5.06722 19.3483C5.06749 19.3483 5.05147 19.3552 5.02961 19.3483L5.02955 19.3483Z" fill="#172E65"/>
<path d="M5.16406 19.4184C8.35767 18.1711 9.78773 18.851 11.2429 19.7858C10.3715 19.2247 9.4761 18.7786 8.23948 18.7696C7.41133 18.7653 6.43324 18.9747 5.20888 19.4505C5.20888 19.4505 5.18461 19.4406 5.16406 19.4184Z" fill="url(#paint7_radial_3388_11501)"/>
<path d="M11.3492 19.7282C9.89437 18.7491 8.3872 18.0023 5.06951 19.3502C5.04737 19.3366 5.01191 19.3027 5.02099 19.2613C8.38855 17.8283 9.95385 18.6653 11.4085 19.6439C11.3933 19.6962 11.3657 19.7154 11.3492 19.7282Z" fill="#094B8F"/>
<path d="M11.3521 19.7279L11.2339 19.7888C9.78016 18.8539 8.30824 18.2064 5.17141 19.4238L5.06738 19.3485C8.38583 18.0004 9.89649 18.7488 11.3521 19.7279Z" fill="#094B8F"/>
<path d="M11.4062 19.645L13.0823 13.9053C13.0965 13.9141 13.1092 13.925 13.1202 13.9376L11.4409 19.6861C11.4313 19.6602 11.4062 19.645 11.4062 19.645Z" fill="url(#paint8_linear_3388_11501)"/>
<path d="M13.0932 13.8662L13.0959 13.8667C13.1172 13.882 13.1258 13.9113 13.1204 13.938L13.1194 13.9414C13.1098 13.9316 13.1002 13.9209 13.082 13.9086L13.0932 13.8662Z" fill="url(#paint9_radial_3388_11501)"/>
<path opacity="0.66" d="M5.00293 19.2696L6.63255 13.5664L6.65205 13.5712L5.02233 19.2605L5.00293 19.2696Z" fill="#063367"/>
<path opacity="0.42" d="M6.63215 13.5674L6.55478 13.8406L5.00253 19.2705C4.99399 19.2988 5.00813 19.3311 5.02947 19.3492L5.13993 19.4338C5.15196 19.4419 5.16574 19.4475 5.17995 19.4504L6.83145 13.7269L6.82771 13.7224L6.65162 13.5725L6.63215 13.5674ZM5.02494 19.2604V19.2593L5.04788 19.251C5.03988 19.254 5.03294 19.2569 5.02494 19.2604ZM5.06709 19.349C5.05424 19.3406 5.04302 19.3299 5.03401 19.3175C5.04361 19.3308 5.05642 19.3418 5.06709 19.3479V19.349Z" fill="url(#paint10_linear_3388_11501)"/>
<path opacity="0.42" d="M13.1135 13.8906L13.0818 13.9096L12.9428 14.0464C12.9433 14.0464 12.9433 14.0464 12.9433 14.0475C12.7173 14.8194 11.4489 19.1503 11.2568 19.7989C11.2688 19.8024 11.2835 19.8035 11.2977 19.7976L11.3977 19.7378H11.3966C11.4116 19.7266 11.434 19.7125 11.4407 19.6837V19.6858L13.0644 14.1281L13.1199 13.9373C13.1215 13.9269 13.1199 13.9176 13.1183 13.908C13.1175 13.9018 13.1156 13.897 13.1135 13.8906Z" fill="url(#paint11_linear_3388_11501)"/>
<path d="M13.0818 13.9083L12.9428 14.0471C12.4604 13.7266 11.1315 12.9017 9.63074 13.0242C8.41252 13.1234 7.33998 13.5151 6.83119 13.7266L6.65137 13.5724L6.66417 13.5327C10.0219 12.1437 11.6408 12.8822 13.0941 13.8665L13.093 13.867H13.0954L13.0818 13.9083Z" fill="url(#paint12_linear_3388_11501)"/>
<path opacity="0.33" d="M6.80762 13.7051C10.1658 12.3164 11.6655 13.2342 12.9686 14.021L12.943 14.0463C11.6015 13.2152 10.1749 12.3625 6.8319 13.7272L6.80762 13.7051Z" fill="url(#paint13_linear_3388_11501)"/>
<path opacity="0.33" d="M6.66602 13.5266C10.0237 12.1379 11.5752 12.8513 13.0954 13.8657L13.0823 13.9049C11.4858 12.8716 10.0333 12.1843 6.6903 13.5485L6.66602 13.5266Z" fill="url(#paint14_linear_3388_11501)"/>
<path d="M6.65131 13.572L6.63184 13.5672C6.63904 13.5437 6.65638 13.5344 6.66172 13.533L6.66412 13.5322C6.66412 13.5322 6.66092 13.5437 6.65131 13.572Z" fill="url(#paint15_radial_3388_11501)"/>
<path opacity="0.5" d="M11.3533 19.727C9.89873 18.7489 8.3913 18.0019 5.0739 19.349C5.05175 19.3359 5.016 19.3025 5.0248 19.2606C8.3929 17.8268 9.95796 18.6649 11.4126 19.6427C11.3976 19.6958 11.3701 19.7137 11.3533 19.727Z" fill="url(#paint16_radial_3388_11501)"/>
<path d="M13.959 14.4619C15.4126 15.4397 16.8992 16.1569 20.3156 14.9888L18.7209 20.5359C15.3677 21.9227 13.7576 21.1375 12.3057 20.1531L13.959 14.4619Z" fill="url(#paint17_radial_3388_11501)"/>
<path d="M19.0041 20.7332C18.9915 20.756 18.9726 20.7747 18.9497 20.7871C18.947 20.7871 18.9451 20.7884 18.9451 20.7884C18.9451 20.7884 18.9174 20.7911 18.8926 20.7721C18.9333 20.7479 18.9635 20.7094 18.9772 20.6641C18.9772 20.6641 19.0156 20.6963 19.0041 20.7332Z" fill="url(#paint18_linear_3388_11501)"/>
<path d="M19.0042 20.7331C19.0101 20.7016 18.9746 20.6722 18.9746 20.6722L20.5645 15.1318C20.5645 15.1318 20.5901 15.1545 20.5978 15.1724L19.0042 20.7331Z" fill="url(#paint19_linear_3388_11501)"/>
<path d="M20.5978 15.175C20.5978 15.175 20.593 15.1579 20.5645 15.1352C20.5773 15.0813 20.5677 15.0693 20.5677 15.0693L20.5717 15.072C20.5717 15.0717 20.6125 15.1104 20.5978 15.175Z" fill="url(#paint20_linear_3388_11501)"/>
<path d="M20.4388 15.041C20.4388 15.041 20.3956 14.9882 20.3057 15.0036C20.3102 14.9836 20.3177 14.9593 20.3465 14.9479C20.4004 14.9396 20.426 14.9529 20.4377 14.9652C20.4414 14.9682 20.4443 14.9721 20.4463 14.9764C20.4502 14.9982 20.4476 15.0207 20.4388 15.041Z" fill="url(#paint21_linear_3388_11501)"/>
<path d="M20.4377 14.9648L20.5714 15.0713C20.578 15.1065 20.5642 15.1428 20.5642 15.1428L20.4326 15.0374C20.4326 15.0374 20.4454 14.9966 20.4377 14.9648Z" fill="url(#paint22_linear_3388_11501)"/>
<path opacity="0.66" d="M18.9789 20.6778L18.972 20.6917L18.833 20.5717L20.4319 15.0283L20.5662 15.1361L18.9789 20.6778Z" fill="#B37E00"/>
<path d="M20.3111 15.009C16.9438 16.1573 15.4022 15.4748 13.9492 14.4957C13.9522 14.4847 13.9588 14.4599 13.9434 14.4346C15.3966 15.4132 17.0041 16.0799 20.3466 14.9479C20.3204 14.9652 20.3178 14.989 20.3111 15.009Z" fill="url(#paint23_linear_3388_11501)"/>
<path d="M12.0557 20.2325V20.2192L13.689 14.564L13.8008 14.4883L12.1819 20.1322L12.0557 20.2325Z" fill="#D9A200"/>
<path opacity="0.66" d="M18.7051 20.5409L20.3059 15.0021C20.3086 15.0021 20.3115 14.9973 20.3155 14.9971C20.399 14.9891 20.439 15.0326 20.439 15.0326L18.8441 20.5642C18.8441 20.5642 18.7771 20.5113 18.7051 20.5409Z" fill="url(#paint24_linear_3388_11501)"/>
<path d="M18.9505 20.7871C15.6622 22.1924 13.5536 21.3277 12.1006 20.3499L12.1158 20.3359C13.5678 21.3141 15.8051 22.1291 18.8929 20.7653C18.9179 20.7863 18.9505 20.7871 18.9505 20.7871H18.9505Z" fill="#A85D10"/>
<path opacity="0.66" d="M18.8424 20.5615L18.9785 20.6773C18.9785 20.6773 18.9603 20.7419 18.8872 20.7731L18.749 20.6597C18.8219 20.6285 18.8424 20.5615 18.8424 20.5615Z" fill="url(#paint25_linear_3388_11501)"/>
<path d="M18.7078 20.533C18.695 20.6186 18.7769 20.6714 18.7769 20.6714C15.2922 21.9321 13.799 21.1792 12.251 20.2464C12.2758 20.2267 12.2897 20.212 12.3046 20.1522C12.3075 20.1533 12.3273 20.1498 12.3308 20.1522C13.8275 21.0735 15.5572 21.8368 18.7078 20.533Z" fill="url(#paint26_linear_3388_11501)"/>
<path d="M12.1162 20.3429L12.2507 20.2461C13.5823 21.0761 15.4472 21.9843 18.7577 20.6556L18.8938 20.7706C15.8178 22.1345 13.5685 21.3202 12.1162 20.3429Z" fill="#C67C0C"/>
<path d="M12.1276 20.3473L12.1121 20.3582C12.1121 20.3582 12.0249 20.3097 12.0553 20.2197C12.0628 20.3078 12.1276 20.3473 12.1276 20.3473Z" fill="#DE980D"/>
<path d="M12.0551 20.2197L12.1813 20.1162C12.1744 20.2085 12.2638 20.2429 12.2638 20.2429L12.1253 20.3489C12.1023 20.3365 12.0834 20.3177 12.0709 20.2948C12.0585 20.2718 12.053 20.2458 12.0551 20.2197Z" fill="url(#paint27_linear_3388_11501)"/>
<path d="M12.1725 20.1197C12.2176 20.1024 12.2592 20.1226 12.3072 20.1504C12.2912 20.2099 12.28 20.2307 12.2555 20.248C12.2248 20.231 12.165 20.1955 12.1725 20.1197Z" fill="url(#paint28_linear_3388_11501)"/>
<path d="M13.8224 14.4404L13.7978 14.4885L13.6855 14.5691C13.6935 14.5315 13.7858 14.4647 13.8144 14.4453C13.8184 14.442 13.8224 14.4404 13.8224 14.4404Z" fill="#DE980D"/>
<path d="M13.9481 14.4952C13.9255 14.4817 13.8999 14.4741 13.8737 14.4731C13.8475 14.4721 13.8214 14.4777 13.7979 14.4893C13.8019 14.4768 13.8157 14.4448 13.8157 14.4448C13.8699 14.4109 13.8939 14.4109 13.9435 14.4349C13.9486 14.444 13.9516 14.4541 13.9524 14.4646C13.9532 14.475 13.9517 14.4854 13.9481 14.4952Z" fill="url(#paint29_radial_3388_11501)"/>
<path d="M12.3192 20.1601C12.2715 20.1321 12.2171 20.111 12.1709 20.1294L13.8 14.4884C13.8234 14.4769 13.8494 14.4716 13.8755 14.4728C13.9016 14.4741 13.9269 14.4819 13.9491 14.4956L12.3192 20.1601Z" fill="url(#paint30_linear_3388_11501)"/>
<path opacity="0.33" d="M13.7168 14.5262C14.2141 14.9576 16.3736 16.7231 20.5712 15.0713L20.4375 14.9648C20.426 14.9526 20.4004 14.939 20.3465 14.9475C17.0041 16.0795 15.3966 15.4128 13.9433 14.4342V14.4355C13.8945 14.4107 13.8702 14.4107 13.8166 14.4454C13.7493 14.4918 13.7493 14.4913 13.7168 14.5262Z" fill="url(#paint31_linear_3388_11501)"/>
<path opacity="0.33" d="M20.5713 15.0714C16.3737 16.7232 14.214 14.9578 13.7169 14.5264C13.7053 14.5365 13.6958 14.5489 13.6889 14.5627V14.564L13.6873 14.5683L13.6868 14.5693H13.6873L13.6865 14.572C14.1201 14.9514 16.2892 16.8419 20.5988 15.1325C20.594 15.0947 20.5713 15.0714 20.5713 15.0714Z" fill="url(#paint32_linear_3388_11501)"/>
<path d="M18.7577 20.6565C18.7577 20.6565 18.6958 20.6189 18.7075 20.5333C18.7311 20.5263 18.756 20.5255 18.78 20.5308C18.8039 20.5362 18.8261 20.5476 18.8444 20.564C18.8444 20.564 18.8308 20.6251 18.7577 20.6565Z" fill="url(#paint33_linear_3388_11501)"/>
<path d="M13.3617 12.8691C12.4869 12.2798 11.5453 11.7288 10.2079 11.719C9.32581 11.712 8.27515 11.9631 6.94141 12.5138L8.59371 6.78767C11.9485 5.4003 13.5605 6.18683 15.0137 7.16973L13.3617 12.8691Z" fill="url(#paint34_radial_3388_11501)"/>
<path d="M13.3593 12.8675L15.0126 7.16992C15.0308 7.18142 15.0383 7.19098 15.0473 7.20221L13.395 12.9081C13.3857 12.884 13.3593 12.8675 13.3593 12.8675ZM7.09961 12.6799C7.62892 12.463 8.11798 12.3021 8.57233 12.1914C8.68302 12.1642 8.78097 12.1413 8.89784 12.1186C9.00455 12.0967 9.11045 12.0761 9.21345 12.0607C9.37486 12.0369 9.53203 12.0161 9.68624 12.0039C9.81643 11.9934 9.94372 11.9862 10.0683 11.9852C10.1886 11.9841 10.3074 11.9852 10.4226 11.9913C10.5245 11.9972 10.6245 12.0051 10.7235 12.0166C10.8071 12.026 10.8885 12.0369 10.9696 12.0505C11.136 12.0785 11.3008 12.1153 11.4633 12.1607C12.1064 12.3427 12.6774 12.6527 13.2024 13.0019C13.1981 13.0043 13.1856 12.9985 13.1808 12.9958C13.1757 12.9934 13.1733 12.9934 13.1682 12.9904C12.4588 12.5409 11.6974 12.1487 10.7563 12.0332C9.79456 11.9155 8.6713 12.0812 7.15957 12.6802C7.15957 12.6802 7.12572 12.6959 7.11132 12.6975C7.09961 12.701 7.10224 12.6916 7.09961 12.6799Z" fill="#BC1B00"/>
<path d="M13.303 12.9512C13.303 12.9512 13.3246 12.9664 13.35 12.9611L13.2465 13.0078C13.2182 13.0152 13.1846 12.9981 13.1846 12.9981L13.303 12.9512Z" fill="#BC1B00"/>
<path d="M7.1006 12.6805L7.11183 12.6989C7.10275 12.7002 7.10038 12.7027 7.07556 12.6914C7.0718 12.6903 7.0675 12.6864 7.06298 12.6827L6.95552 12.5988L6.94531 12.5909C6.95977 12.5901 6.97041 12.5965 6.97787 12.5957L7.1006 12.6805Z" fill="#B81A00"/>
<path d="M13.3613 12.8682C13.3725 12.8754 13.3864 12.8796 13.3962 12.9031C13.389 12.9346 13.3634 12.9501 13.3493 12.9605C13.3234 12.9677 13.2988 12.9484 13.2988 12.9484C13.3151 12.9365 13.3445 12.9159 13.3613 12.8682Z" fill="#E82E00"/>
<path d="M15.0228 7.12988L15.0247 7.13042C15.046 7.14536 15.0537 7.17314 15.0474 7.20086L15.046 7.20328C15.0375 7.19312 15.0311 7.18243 15.0127 7.16857L15.0228 7.12988Z" fill="#F83603"/>
<path d="M6.947 12.5941C6.93072 12.5824 6.91552 12.5335 6.9246 12.5047L6.94593 12.498C6.93744 12.5394 6.96275 12.5874 6.98569 12.6007C6.98596 12.6007 6.96995 12.6101 6.947 12.5941Z" fill="#E32E00"/>
<path d="M8.59387 6.78851L8.57812 6.78451C8.58453 6.75916 8.60187 6.75142 8.60827 6.74956L8.61041 6.74902C8.60323 6.76142 8.59767 6.77469 8.59387 6.78851Z" fill="url(#paint35_linear_3388_11501)"/>
<path d="M13.3056 12.9522C11.7419 11.8673 9.8268 11.1865 6.98242 12.5997L7.09875 12.6819C10.2072 11.4119 11.8273 12.0981 13.1917 12.9978L13.3056 12.9522Z" fill="#E82E00"/>
<path d="M13.3023 12.9505C12.4069 12.3662 11.5702 11.8817 10.2431 11.8438C9.27463 11.8633 8.5305 11.9871 6.98519 12.6004C6.96225 12.5879 6.93318 12.5553 6.94065 12.5132C8.27974 11.9433 9.34212 11.6965 10.2239 11.7053C11.5606 11.7184 12.4861 12.2781 13.361 12.8664C13.346 12.9187 13.3174 12.9382 13.3023 12.9505Z" fill="#E82E00"/>
<path d="M8.57844 6.7832L8.59365 6.78772L6.94512 12.5104C6.94135 12.5077 6.9248 12.5039 6.9248 12.5039L8.57844 6.7832Z" fill="#E32E00"/>
<path opacity="0.66" d="M15.013 7.16947C13.5587 6.18551 11.9328 5.42432 8.59375 6.78821C8.60069 6.75913 8.60789 6.74926 8.60789 6.74926C11.9632 5.36189 13.5696 6.14628 15.0223 7.13025L15.013 7.16947Z" fill="url(#paint36_linear_3388_11501)"/>
<path opacity="0.33" d="M14.8209 7.3586C13.6364 6.58939 12.0705 5.62598 8.73145 6.98958C8.73897 6.9611 8.74746 6.94611 8.74746 6.94611C12.1022 5.55903 13.6836 6.61582 14.833 7.31696L14.8209 7.3586Z" fill="#FE8411"/>
<path opacity="0.36" d="M8.64858 6.826C8.63924 6.82973 8.60696 6.8252 8.60696 6.8252L6.93945 12.6001L7.06272 12.6828C7.06639 12.6864 7.07062 12.6894 7.07526 12.6916C7.09633 12.701 7.1006 12.701 7.10727 12.6996L8.7409 6.9642L8.74596 6.94712L8.64858 6.826Z" fill="url(#paint37_linear_3388_11501)"/>
<path opacity="0.5" d="M14.8291 7.32147L14.8316 7.32432L14.8319 7.31934L14.8291 7.32147Z" fill="url(#paint38_linear_3388_11501)"/>
<path opacity="0.5" d="M14.87 7.18985C14.3185 6.82033 13.4004 6.22056 12.0576 6.12665C10.6332 6.0266 8.82826 6.7515 8.64844 6.8262L8.74555 6.94706L8.74048 6.96414C8.74555 6.96307 8.75035 6.96013 8.75516 6.95827C12.0811 5.52795 14.1296 6.81953 14.8294 7.32112L14.8318 7.31952L14.9364 7.23387L14.87 7.18985Z" fill="url(#paint39_linear_3388_11501)"/>
<path opacity="0.5" d="M8.64877 6.82631C8.82888 6.75162 10.6335 6.02668 12.058 6.12672C13.4008 6.22065 14.3188 6.82066 14.8703 7.18996C14.893 7.20517 14.9151 7.21983 14.9362 7.23397L15.0395 7.151C15.035 7.14402 15.032 7.13601 15.0245 7.13123C13.6036 6.16863 12.0334 5.39786 8.827 6.6614C8.75521 6.69047 8.68348 6.71825 8.61035 6.74893L8.64877 6.82631Z" fill="#FFF4C5"/>
<path opacity="0.6" d="M15.0223 7.13281L15.013 7.1699L14.9356 7.2342L14.8313 7.31984L14.831 7.32358C14.4847 8.51137 13.4023 12.2196 13.1729 12.9926C13.1755 12.9936 13.1774 12.9942 13.1803 12.9963L13.1838 12.9982C13.1838 12.9982 13.2174 13.0152 13.2457 13.0078L13.3492 12.9611C13.3489 12.9616 13.3481 12.9611 13.3463 12.9616C13.3473 12.9611 13.3481 12.9616 13.3487 12.9611C13.3617 12.9504 13.3871 12.9352 13.3943 12.9077L13.3946 12.9059C13.3946 12.9051 13.3954 12.9051 13.3954 12.904L14.9796 7.43243L15.0188 7.2977L15.0202 7.29209L15.0466 7.20245C15.0519 7.18324 15.0485 7.14455 15.0223 7.13281Z" fill="url(#paint40_linear_3388_11501)"/>
<path opacity="0.5" d="M13.3057 12.9485C12.4108 12.3642 11.5736 11.8795 10.2473 11.8413C9.27829 11.861 8.53445 11.9846 6.98914 12.5979C6.96539 12.5859 6.93711 12.5534 6.94458 12.5115C8.28366 11.9411 9.34606 11.6943 10.2284 11.7034C11.5645 11.7172 12.4903 12.2757 13.3649 12.8645C13.3497 12.9165 13.3211 12.9365 13.3057 12.9485Z" fill="url(#paint41_linear_3388_11501)"/>
<path d="M15.0228 7.12988L15.0247 7.13096C15.046 7.14536 15.0537 7.17314 15.0474 7.20086L15.046 7.20328C15.0375 7.19312 15.0311 7.18297 15.0127 7.16857L15.0228 7.12988Z" fill="#F83603"/>
<path d="M8.5936 6.78851L8.57812 6.78451C8.57985 6.77668 8.58348 6.76939 8.58869 6.7633C8.59391 6.7572 8.60054 6.75248 8.60801 6.74956L8.61041 6.74902C8.61041 6.74902 8.6024 6.76076 8.5936 6.78851Z" fill="url(#paint42_linear_3388_11501)"/>
<path opacity="0.66" d="M15.0133 7.1692C13.5597 6.18524 11.933 5.42459 8.59375 6.78821C8.60095 6.75993 8.60816 6.74926 8.60816 6.74926C11.9635 5.36189 13.5699 6.14629 15.0226 7.13025L15.0133 7.1692Z" fill="url(#paint43_linear_3388_11501)"/>
<path d="M22.2954 8.14065C18.9452 9.52508 17.3356 8.74656 15.8853 7.76953L14.2324 13.5007C15.6817 14.4833 17.433 15.2891 20.645 13.8521L22.2954 8.14065Z" fill="url(#paint44_radial_3388_11501)"/>
<path d="M22.2885 8.14511C18.9386 9.52927 17.3351 8.75048 15.8848 7.77452C15.891 7.75445 15.891 7.73296 15.8848 7.71289C17.3351 8.68938 18.9783 9.47591 22.3264 8.09095C22.2989 8.10669 22.2968 8.1259 22.2885 8.14511Z" fill="url(#paint45_linear_3388_11501)"/>
<path d="M13.9863 13.5389V13.5261L15.6283 7.84346L15.7486 7.75781L14.1123 13.4386L13.9863 13.5389Z" fill="#8CAC42"/>
<path d="M14.2357 13.5035C14.1855 13.4744 14.1479 13.4168 14.1025 13.4349L15.7423 7.76087C15.7659 7.74913 15.7924 7.74423 15.8186 7.74673C15.8449 7.74923 15.8699 7.75902 15.8909 7.77501L14.2357 13.5035Z" fill="url(#paint46_linear_3388_11501)"/>
<path d="M15.764 7.7207L15.7475 7.761L15.6279 7.84713C15.6386 7.80818 15.7307 7.74392 15.7573 7.7236C15.7596 7.72268 15.7618 7.72171 15.764 7.7207Z" fill="#5F821C"/>
<path d="M15.886 7.76928C15.8645 7.75624 15.8402 7.74868 15.8151 7.74729C15.79 7.74589 15.765 7.7507 15.7422 7.76128C15.7457 7.74874 15.7569 7.72366 15.7569 7.72366C15.811 7.69004 15.8334 7.68871 15.8849 7.71246C15.8926 7.73055 15.893 7.75092 15.886 7.76928Z" fill="url(#paint47_linear_3388_11501)"/>
<path opacity="0.81" d="M20.8811 13.9881L20.7549 13.8784L22.4117 8.17285L22.547 8.28011L20.8811 13.9881Z" fill="url(#paint48_linear_3388_11501)"/>
<path d="M20.9137 14.0296C20.9176 13.9965 20.8838 13.9704 20.8838 13.9704L22.5446 8.27441C22.5446 8.27441 22.5715 8.29789 22.5783 8.31444L20.9137 14.0296Z" fill="#476E32"/>
<path d="M20.8581 14.083C19.963 14.4899 19.1167 14.6999 18.3302 14.7679C16.9716 14.9207 15.8727 14.6265 14.976 14.1854C14.6472 14.0345 14.3313 13.8571 14.0312 13.6551L14.0467 13.6436C14.3306 13.8332 14.6387 14.0201 14.976 14.1854C15.8879 14.6041 17.0258 14.8805 18.3302 14.7682C19.0728 14.6833 19.8937 14.4637 20.8005 14.0624C20.8261 14.0817 20.8581 14.083 20.8581 14.083Z" fill="#1D3419"/>
<path d="M20.6768 13.9763C20.6768 13.9763 20.6136 13.9192 20.6243 13.836C20.6488 13.829 20.6747 13.8282 20.6997 13.8336C20.7246 13.8391 20.7479 13.8506 20.7673 13.8672C20.7673 13.8672 20.7499 13.9449 20.6768 13.9763Z" fill="url(#paint49_linear_3388_11501)"/>
<path d="M20.7674 13.8672L20.8858 13.9731C20.8858 13.9731 20.868 14.0387 20.7959 14.0702L20.6719 13.9648C20.6935 13.9558 20.7131 13.9425 20.7295 13.9257C20.7459 13.9089 20.7588 13.889 20.7674 13.8672Z" fill="url(#paint50_linear_3388_11501)"/>
<path d="M20.6451 13.8327C20.6334 13.9165 20.6953 13.9781 20.6953 13.9781C17.3469 15.3631 15.6218 14.5491 14.1709 13.5659C14.1965 13.5483 14.2 13.5483 14.2168 13.4883C15.6666 14.4706 17.8581 15.1587 20.6451 13.8327Z" fill="url(#paint51_linear_3388_11501)"/>
<path d="M14.0469 13.6484L14.1717 13.5654C15.6223 14.4995 17.3357 15.3069 20.6819 13.962L20.802 14.0671C17.59 15.4843 15.5356 14.6959 14.0469 13.6484Z" fill="#26551B"/>
<path d="M20.9136 14.0299C20.8981 14.0606 20.8683 14.0785 20.8581 14.0828C20.856 14.0841 20.8547 14.0841 20.8547 14.0841C20.8547 14.0841 20.8325 14.0884 20.8008 14.0673C20.8674 14.0324 20.8859 13.959 20.8859 13.959C20.8859 13.959 20.9238 13.9926 20.9136 14.0299Z" fill="#5F821C"/>
<path d="M14.0524 13.6473L14.0378 13.659C14.0378 13.659 13.9569 13.6145 13.9873 13.5254C13.9948 13.6142 14.0524 13.6473 14.0524 13.6473Z" fill="#26551B"/>
<path d="M13.9867 13.5259L14.1076 13.4307C14.1054 13.4569 14.111 13.4831 14.1237 13.5061C14.1363 13.5291 14.1555 13.5479 14.1788 13.5601L14.0566 13.6548C14.0338 13.6423 14.015 13.6236 14.0026 13.6007C13.9902 13.5778 13.9847 13.5518 13.9867 13.5259Z" fill="url(#paint52_linear_3388_11501)"/>
<path d="M14.1043 13.4303C14.1459 13.4166 14.1825 13.4607 14.2326 13.5007C14.2158 13.5594 14.2022 13.549 14.1766 13.5669C14.1523 13.5539 14.1325 13.5339 14.1196 13.5096C14.1067 13.4853 14.1014 13.4576 14.1043 13.4303Z" fill="url(#paint53_linear_3388_11501)"/>
<path opacity="0.72" d="M22.5578 8.221C22.5594 8.24208 22.5436 8.27757 22.5436 8.27757L22.415 8.17405C22.415 8.17405 22.4337 8.13163 22.4244 8.09961C22.4676 8.11775 22.5506 8.20846 22.5578 8.221Z" fill="url(#paint54_linear_3388_11501)"/>
<path opacity="0.33" d="M22.5557 8.21553C22.5306 8.18165 22.4922 8.1515 22.462 8.12402C22.4054 8.07226 22.335 8.08347 22.3185 8.09334L22.3177 8.09521C18.9765 9.47457 17.3349 8.68804 15.8854 7.71235C15.8341 7.68887 15.8114 7.68993 15.7573 7.72355C15.7194 7.74991 15.6839 7.77965 15.6514 7.8124C16.2087 8.28197 18.5784 10.1386 22.5557 8.21553ZM15.8859 7.76944L15.8851 7.77051C15.8851 7.76944 15.8848 7.76944 15.8843 7.76917L15.8859 7.76944C15.8894 7.7617 15.8894 7.7545 15.8899 7.74703C15.8898 7.75467 15.8884 7.76224 15.8859 7.76944Z" fill="url(#paint55_linear_3388_11501)"/>
<path opacity="0.72" d="M20.6299 13.8459L22.2862 8.14302C22.3766 8.12621 22.4199 8.1777 22.4199 8.1777L20.7678 13.8664C20.7678 13.867 20.7001 13.816 20.6299 13.8459Z" fill="url(#paint56_linear_3388_11501)"/>
<path opacity="0.6" d="M22.2891 8.14484C22.2917 8.12448 22.3022 8.10597 22.3184 8.09335C22.3352 8.08347 22.4054 8.07227 22.4619 8.12403C22.5185 8.17499 22.6055 8.23422 22.5788 8.31452C22.5719 8.29798 22.5465 8.27717 22.5465 8.27717L22.4201 8.17765C22.4201 8.17765 22.3792 8.12883 22.2891 8.14484Z" fill="url(#paint57_linear_3388_11501)"/>
<path opacity="0.3" d="M15.6511 7.8125C15.6425 7.82291 15.6343 7.83198 15.6303 7.84105L15.6289 7.84265L15.623 7.86213C16.1276 8.28901 18.5197 10.2535 22.582 8.27593C22.5791 8.25363 22.5701 8.23257 22.5559 8.2151C18.5784 10.1385 16.2087 8.2818 15.6511 7.8125Z" fill="url(#paint58_linear_3388_11501)"/>
<path opacity="0.72" d="M22.5585 8.22154C22.5601 8.24235 22.5443 8.27757 22.5443 8.27757L22.416 8.17405C22.416 8.17405 22.4347 8.13189 22.4262 8.09961C22.4683 8.11829 22.5513 8.20926 22.5585 8.22154Z" fill="url(#paint59_linear_3388_11501)"/>
<path opacity="0.6" d="M22.2891 8.1448C22.2904 8.13466 22.2937 8.12487 22.2988 8.11603C22.3039 8.10719 22.3108 8.09946 22.3189 8.09331C22.3355 8.08344 22.4059 8.07223 22.4619 8.12452C22.5185 8.17522 22.6058 8.23391 22.5791 8.31475C22.5705 8.30049 22.5595 8.28784 22.5465 8.2774L22.4201 8.17735C22.4203 8.17762 22.3792 8.12879 22.2891 8.1448Z" fill="url(#paint60_linear_3388_11501)"/>
</g>
<defs>
<radialGradient id="paint0_radial_3388_11501" cx="0" cy="0" r="1" gradientUnits="userSpaceOnUse" gradientTransform="translate(14.1516 15.1032) scale(8.01517 8.06705)">
<stop offset="0.25" stop-color="white"/>
<stop offset="1"/>
</radialGradient>
<radialGradient id="paint1_radial_3388_11501" cx="0" cy="0" r="1" gradientUnits="userSpaceOnUse" gradientTransform="translate(14.152 15.1027) scale(8.01465 8.06653)">
<stop offset="0.25" stop-color="white"/>
<stop offset="1"/>
</radialGradient>
<radialGradient id="paint2_radial_3388_11501" cx="0" cy="0" r="1" gradientUnits="userSpaceOnUse" gradientTransform="translate(14.1525 15.1037) scale(8.01517 8.06705)">
<stop offset="0.25" stop-color="white"/>
<stop offset="1"/>
</radialGradient>
<radialGradient id="paint3_radial_3388_11501" cx="0" cy="0" r="1" gradientUnits="userSpaceOnUse" gradientTransform="translate(14.1518 15.1035) scale(8.01569 8.06758)">
<stop offset="0.25" stop-color="white"/>
<stop offset="1"/>
</radialGradient>
<radialGradient id="paint4_radial_3388_11501" cx="0" cy="0" r="1" gradientUnits="userSpaceOnUse" gradientTransform="translate(13.5263 13.7912) scale(8.81992 8.81992)">
<stop offset="0.001" stop-color="#D1E7EE"/>
<stop offset="0.098" stop-color="#CDE4EC"/>
<stop offset="0.203" stop-color="#C0DCE8"/>
<stop offset="0.298" stop-color="#ADD0E1"/>
<stop offset="0.65" stop-color="#3982B1"/>
<stop offset="0.72" stop-color="#3474AA"/>
<stop offset="0.899" stop-color="#285699"/>
<stop offset="1" stop-color="#244B93"/>
</radialGradient>
<radialGradient id="paint5_radial_3388_11501" cx="0" cy="0" r="1" gradientUnits="userSpaceOnUse" gradientTransform="translate(13.5213 13.7303) scale(8.87386 8.87352)">
<stop offset="0.004" stop-color="#D8EEED"/>
<stop offset="0.173" stop-color="#98D8D7"/>
<stop offset="0.224" stop-color="#8ED3D3"/>
<stop offset="0.309" stop-color="#74C6CA"/>
<stop offset="0.418" stop-color="#49B1BA"/>
<stop offset="0.448" stop-color="#3CAAB5"/>
<stop offset="0.56" stop-color="#2E81A4"/>
<stop offset="0.684" stop-color="#215B94"/>
<stop offset="0.783" stop-color="#19448B"/>
<stop offset="0.845" stop-color="#163B87"/>
<stop offset="1" stop-color="#0B317D"/>
</radialGradient>
<radialGradient id="paint6_radial_3388_11501" cx="0" cy="0" r="1" gradientUnits="userSpaceOnUse" gradientTransform="translate(13.5201 13.775) scale(8.85185 8.85204)">
<stop offset="0.004" stop-color="#D8EEED"/>
<stop offset="0.173" stop-color="#98D8D7"/>
<stop offset="0.224" stop-color="#8ED3D3"/>
<stop offset="0.309" stop-color="#74C6CA"/>
<stop offset="0.418" stop-color="#49B1BA"/>
<stop offset="0.448" stop-color="#3CAAB5"/>
<stop offset="0.56" stop-color="#2E81A4"/>
<stop offset="0.684" stop-color="#215B94"/>
<stop offset="0.783" stop-color="#19448B"/>
<stop offset="0.845" stop-color="#163B87"/>
<stop offset="1" stop-color="#152469"/>
</radialGradient>
<radialGradient id="paint7_radial_3388_11501" cx="0" cy="0" r="1" gradientUnits="userSpaceOnUse" gradientTransform="translate(13.5269 13.7673) scale(8.85567)">
<stop offset="0.004" stop-color="#D8EEED"/>
<stop offset="0.173" stop-color="#98D8D7"/>
<stop offset="0.224" stop-color="#8ED3D3"/>
<stop offset="0.309" stop-color="#74C6CA"/>
<stop offset="0.418" stop-color="#49B1BA"/>
<stop offset="0.448" stop-color="#3CAAB5"/>
<stop offset="0.56" stop-color="#2E81A4"/>
<stop offset="0.684" stop-color="#215B94"/>
<stop offset="0.783" stop-color="#19448B"/>
<stop offset="0.845" stop-color="#163B87"/>
<stop offset="1" stop-color="#0B317D"/>
</radialGradient>
<linearGradient id="paint8_linear_3388_11501" x1="13.0375" y1="14.0678" x2="11.6581" y2="18.9203" gradientUnits="userSpaceOnUse">
<stop stop-color="#98D8D7"/>
<stop offset="1" stop-color="#152469"/>
</linearGradient>
<radialGradient id="paint9_radial_3388_11501" cx="0" cy="0" r="1" gradientUnits="userSpaceOnUse" gradientTransform="translate(13.5292 13.7648) scale(8.88699 8.8872)">
<stop offset="0.004" stop-color="#D8EEED"/>
<stop offset="0.173" stop-color="#98D8D7"/>
<stop offset="0.224" stop-color="#8ED3D3"/>
<stop offset="0.309" stop-color="#74C6CA"/>
<stop offset="0.418" stop-color="#49B1BA"/>
<stop offset="0.448" stop-color="#3CAAB5"/>
<stop offset="0.56" stop-color="#2E81A4"/>
<stop offset="0.684" stop-color="#215B94"/>
<stop offset="0.783" stop-color="#19448B"/>
<stop offset="0.845" stop-color="#163B87"/>
<stop offset="1" stop-color="#152469"/>
</radialGradient>
<linearGradient id="paint10_linear_3388_11501" x1="4.99986" y1="16.5086" x2="6.83145" y2="16.5086" gradientUnits="userSpaceOnUse">
<stop stop-color="#DEF3F1"/>
<stop offset="1" stop-color="#5085BC"/>
</linearGradient>
<linearGradient id="paint11_linear_3388_11501" x1="11.2571" y1="16.846" x2="13.1212" y2="16.846" gradientUnits="userSpaceOnUse">
<stop stop-color="#DEF3F1"/>
<stop offset="1" stop-color="#5085BC"/>
</linearGradient>
<linearGradient id="paint12_linear_3388_11501" x1="6.65163" y1="13.4065" x2="13.096" y2="13.4065" gradientUnits="userSpaceOnUse">
<stop stop-color="#094992"/>
<stop offset="0.668" stop-color="#8BCDE2"/>
<stop offset="1" stop-color="#E6F6F9"/>
</linearGradient>
<linearGradient id="paint13_linear_3388_11501" x1="6.80762" y1="13.5167" x2="12.9686" y2="13.5167" gradientUnits="userSpaceOnUse">
<stop offset="0.006" stop-color="#BBC7E1"/>
<stop offset="0.225" stop-color="#7090C3"/>
<stop offset="0.545" stop-color="#C8EAEF"/>
<stop offset="1" stop-color="white"/>
</linearGradient>
<linearGradient id="paint14_linear_3388_11501" x1="6.66602" y1="13.3294" x2="13.0957" y2="13.3294" gradientUnits="userSpaceOnUse">
<stop offset="0.006" stop-color="#7090C3"/>
<stop offset="0.545" stop-color="#C1E7ED"/>
<stop offset="1" stop-color="white"/>
</linearGradient>
<radialGradient id="paint15_radial_3388_11501" cx="0" cy="0" r="1" gradientUnits="userSpaceOnUse" gradientTransform="translate(6.64651 13.5498) scale(0.0218767)">
<stop stop-color="#7E9EC4"/>
<stop offset="1" stop-color="#0A50A1"/>
</radialGradient>
<radialGradient id="paint16_radial_3388_11501" cx="0" cy="0" r="1" gradientUnits="userSpaceOnUse" gradientTransform="translate(2.40348 19.0373) scale(10.8794 10.8794)">
<stop offset="0.004" stop-color="#D8EEED"/>
<stop offset="0.173" stop-color="#98D8D7"/>
<stop offset="0.224" stop-color="#8ED3D3"/>
<stop offset="0.309" stop-color="#74C6CA"/>
<stop offset="0.418" stop-color="#49B1BA"/>
<stop offset="0.448" stop-color="#3CAAB5"/>
<stop offset="0.499" stop-color="#369FB5"/>
<stop offset="0.631" stop-color="#2A88B4"/>
<stop offset="0.713" stop-color="#257FB4"/>
<stop offset="1" stop-color="#4161AB"/>
</radialGradient>
<radialGradient id="paint17_radial_3388_11501" cx="0" cy="0" r="1" gradientUnits="userSpaceOnUse" gradientTransform="translate(13.5183 13.9851) scale(8.21134)">
<stop stop-color="#FCF5B0"/>
<stop offset="0.166" stop-color="#F7EDA0"/>
<stop offset="0.285" stop-color="#F3E591"/>
<stop offset="0.65" stop-color="#FCD118"/>
<stop offset="0.802" stop-color="#F7A50C"/>
<stop offset="0.929" stop-color="#F38603"/>
<stop offset="1" stop-color="#F27B00"/>
</radialGradient>
<linearGradient id="paint18_linear_3388_11501" x1="18.9724" y1="20.6627" x2="18.9382" y2="20.7903" gradientUnits="userSpaceOnUse">
<stop stop-color="#DE980D"/>
<stop offset="1" stop-color="#A85D10"/>
</linearGradient>
<linearGradient id="paint19_linear_3388_11501" x1="18.9746" y1="17.9324" x2="20.5981" y2="17.9324" gradientUnits="userSpaceOnUse">
<stop stop-color="#DEB150"/>
<stop offset="1" stop-color="#FFF8B3"/>
</linearGradient>
<linearGradient id="paint20_linear_3388_11501" x1="20.5823" y1="15.0693" x2="20.5823" y2="15.175" gradientUnits="userSpaceOnUse">
<stop offset="0.006" stop-color="#C67C0C"/>
<stop offset="1" stop-color="#DE980D"/>
</linearGradient>
<linearGradient id="paint21_linear_3388_11501" x1="20.3494" y1="14.9455" x2="20.4153" y2="15.0551" gradientUnits="userSpaceOnUse">
<stop offset="0.006" stop-color="#FED40F"/>
<stop offset="1" stop-color="#A85D10"/>
</linearGradient>
<linearGradient id="paint22_linear_3388_11501" x1="20.5215" y1="15.0291" x2="20.4806" y2="15.0777" gradientUnits="userSpaceOnUse">
<stop offset="0.006" stop-color="#FED40F"/>
<stop offset="1" stop-color="#A85D10"/>
</linearGradient>
<linearGradient id="paint23_linear_3388_11501" x1="13.9434" y1="15.0221" x2="20.3466" y2="15.0221" gradientUnits="userSpaceOnUse">
<stop stop-color="#FFF8FB"/>
<stop offset="1" stop-color="#FEC236"/>
</linearGradient>
<linearGradient id="paint24_linear_3388_11501" x1="19.6456" y1="17.8006" x2="19.5028" y2="17.7598" gradientUnits="userSpaceOnUse">
<stop stop-color="#B37E00"/>
<stop offset="1" stop-color="#FF9E00"/>
</linearGradient>
<linearGradient id="paint25_linear_3388_11501" x1="18.9003" y1="20.5874" x2="18.8291" y2="20.7472" gradientUnits="userSpaceOnUse">
<stop offset="0.006" stop-color="#FFD100"/>
<stop offset="1" stop-color="#A8710A"/>
</linearGradient>
<linearGradient id="paint26_linear_3388_11501" x1="12.251" y1="20.744" x2="18.7769" y2="20.744" gradientUnits="userSpaceOnUse">
<stop stop-color="#DE980D"/>
<stop offset="0.4" stop-color="#FDDA10"/>
<stop offset="1" stop-color="#DE980D"/>
</linearGradient>
<linearGradient id="paint27_linear_3388_11501" x1="12.2051" y1="20.2958" x2="12.1002" y2="20.1792" gradientUnits="userSpaceOnUse">
<stop stop-color="#DE980D"/>
<stop offset="0.1" stop-color="#DE980D"/>
<stop offset="0.7" stop-color="#FDDA10"/>
<stop offset="1" stop-color="#DE980D"/>
</linearGradient>
<linearGradient id="paint28_linear_3388_11501" x1="12.2085" y1="20.1" x2="12.2824" y2="20.2334" gradientUnits="userSpaceOnUse">
<stop stop-color="#DE980D"/>
<stop offset="0.4" stop-color="#FEBF0F"/>
<stop offset="0.8" stop-color="#FED40F"/>
<stop offset="1" stop-color="#DE980D"/>
</linearGradient>
<radialGradient id="paint29_radial_3388_11501" cx="0" cy="0" r="1" gradientUnits="userSpaceOnUse" gradientTransform="translate(13.8605 14.4176) scale(0.0805737)">
<stop stop-color="#FEEB71"/>
<stop offset="1" stop-color="#DE980D"/>
</radialGradient>
<linearGradient id="paint30_linear_3388_11501" x1="13.1362" y1="17.3312" x2="12.986" y2="17.288" gradientUnits="userSpaceOnUse">
<stop offset="0.006" stop-color="#FFEFBB"/>
<stop offset="1" stop-color="#FFBF00"/>
</linearGradient>
<linearGradient id="paint31_linear_3388_11501" x1="13.6296" y1="15.0908" x2="20.5856" y2="15.0908" gradientUnits="userSpaceOnUse">
<stop offset="0.006" stop-color="#FCA859"/>
<stop offset="0.213" stop-color="#FDC30F"/>
<stop offset="1" stop-color="#B51C00"/>
</linearGradient>
<linearGradient id="paint32_linear_3388_11501" x1="13.686" y1="15.1816" x2="20.5983" y2="15.1816" gradientUnits="userSpaceOnUse">
<stop offset="0.006" stop-color="#FFF6D8"/>
<stop offset="0.525" stop-color="#FDDA10"/>
<stop offset="1" stop-color="#F9BD0C"/>
</linearGradient>
<linearGradient id="paint33_linear_3388_11501" x1="18.7868" y1="20.5984" x2="18.6902" y2="20.5149" gradientUnits="userSpaceOnUse">
<stop stop-color="#EAB949"/>
<stop offset="0.072" stop-color="#EDC25A"/>
<stop offset="0.278" stop-color="#F3D883"/>
<stop offset="0.478" stop-color="#F8E9A4"/>
<stop offset="0.67" stop-color="#FCF5BC"/>
<stop offset="0.848" stop-color="#FEFCCA"/>
<stop offset="1" stop-color="#FFFFCF"/>
</linearGradient>
<radialGradient id="paint34_radial_3388_11501" cx="0" cy="0" r="1" gradientUnits="userSpaceOnUse" gradientTransform="translate(13.2686 12.8561) scale(7.7946)">
<stop offset="0.004" stop-color="#EFD916"/>
<stop offset="0.105" stop-color="#EFD516"/>
<stop offset="0.216" stop-color="#EDC715"/>
<stop offset="0.331" stop-color="#EBB213"/>
<stop offset="0.449" stop-color="#E89312"/>
<stop offset="0.567" stop-color="#E36D0F"/>
<stop offset="0.65" stop-color="#E04D0D"/>
<stop offset="0.785" stop-color="#CE2907"/>
<stop offset="0.922" stop-color="#BF0B02"/>
<stop offset="1" stop-color="#B90000"/>
</radialGradient>
<linearGradient id="paint35_linear_3388_11501" x1="8.57839" y1="6.76877" x2="8.61041" y2="6.76877" gradientUnits="userSpaceOnUse">
<stop stop-color="#FD7E36"/>
<stop offset="1" stop-color="#BD6F4F"/>
</linearGradient>
<linearGradient id="paint36_linear_3388_11501" x1="8.59375" y1="6.58464" x2="15.0223" y2="6.58464" gradientUnits="userSpaceOnUse">
<stop stop-color="#FC2B21"/>
<stop offset="0.236" stop-color="#FF590A"/>
<stop offset="0.248" stop-color="#FB570B"/>
<stop offset="0.327" stop-color="#E74C0E"/>
<stop offset="0.417" stop-color="#D84511"/>
<stop offset="0.525" stop-color="#D04013"/>
<stop offset="0.697" stop-color="#CD3F13"/>
<stop offset="0.796" stop-color="#D04213"/>
<stop offset="0.869" stop-color="#D84B14"/>
<stop offset="0.933" stop-color="#E65B16"/>
<stop offset="0.993" stop-color="#F97219"/>
<stop offset="1" stop-color="#FC7519"/>
</linearGradient>
<linearGradient id="paint37_linear_3388_11501" x1="6.93919" y1="9.76268" x2="8.7457" y2="9.76268" gradientUnits="userSpaceOnUse">
<stop stop-color="#FD7E36"/>
<stop offset="1" stop-color="#BD6F4F"/>
</linearGradient>
<linearGradient id="paint38_linear_3388_11501" x1="15.5875" y1="7.49044" x2="7.01909" y2="5.58076" gradientUnits="userSpaceOnUse">
<stop stop-color="#FE560D"/>
<stop offset="1" stop-color="#8C1501"/>
</linearGradient>
<linearGradient id="paint39_linear_3388_11501" x1="11.8047" y1="7.36914" x2="11.7316" y2="5.37373" gradientUnits="userSpaceOnUse">
<stop stop-color="#FE560D"/>
<stop offset="1" stop-color="#8C1501"/>
</linearGradient>
<linearGradient id="paint40_linear_3388_11501" x1="13.1729" y1="10.0711" x2="15.0487" y2="10.0711" gradientUnits="userSpaceOnUse">
<stop stop-color="#FD7E36"/>
<stop offset="1" stop-color="#FC895B"/>
</linearGradient>
<linearGradient id="paint41_linear_3388_11501" x1="6.94325" y1="12.3258" x2="13.3649" y2="12.3258" gradientUnits="userSpaceOnUse">
<stop stop-color="#FD9B20"/>
<stop offset="0.25" stop-color="#FD9B20"/>
<stop offset="0.337" stop-color="#FDB830"/>
<stop offset="0.429" stop-color="#FED23E"/>
<stop offset="0.485" stop-color="#FEDB43"/>
<stop offset="0.75" stop-color="#FE8411"/>
<stop offset="1" stop-color="#FE560D"/>
</linearGradient>
<linearGradient id="paint42_linear_3388_11501" x1="8.57813" y1="6.76877" x2="8.61041" y2="6.76877" gradientUnits="userSpaceOnUse">
<stop stop-color="#FD7E36"/>
<stop offset="1" stop-color="#BD6F4F"/>
</linearGradient>
<linearGradient id="paint43_linear_3388_11501" x1="8.59375" y1="6.58437" x2="15.0226" y2="6.58437" gradientUnits="userSpaceOnUse">
<stop stop-color="#FC2B21"/>
<stop offset="0.236" stop-color="#FF590A"/>
<stop offset="0.248" stop-color="#FB570B"/>
<stop offset="0.327" stop-color="#E74C0E"/>
<stop offset="0.417" stop-color="#D84511"/>
<stop offset="0.525" stop-color="#D04013"/>
<stop offset="0.697" stop-color="#CD3F13"/>
<stop offset="0.796" stop-color="#D04213"/>
<stop offset="0.869" stop-color="#D84B14"/>
<stop offset="0.933" stop-color="#E65B16"/>
<stop offset="0.993" stop-color="#F97219"/>
<stop offset="1" stop-color="#FC7519"/>
</linearGradient>
<radialGradient id="paint44_radial_3388_11501" cx="0" cy="0" r="1" gradientUnits="userSpaceOnUse" gradientTransform="translate(13.4827 13.7208) scale(8.91917 8.91917)">
<stop offset="0.005" stop-color="#D1E787"/>
<stop offset="0.123" stop-color="#CEE583"/>
<stop offset="0.247" stop-color="#C4DE76"/>
<stop offset="0.375" stop-color="#B3D361"/>
<stop offset="0.505" stop-color="#9CC443"/>
<stop offset="0.636" stop-color="#7FB01D"/>
<stop offset="0.649" stop-color="#7BAE19"/>
<stop offset="0.779" stop-color="#578D19"/>
<stop offset="0.922" stop-color="#366E1A"/>
<stop offset="1" stop-color="#29621A"/>
</radialGradient>
<linearGradient id="paint45_linear_3388_11501" x1="15.8848" y1="8.30359" x2="22.3267" y2="8.30359" gradientUnits="userSpaceOnUse">
<stop stop-color="#D3ED89"/>
<stop offset="1" stop-color="#5F821C"/>
</linearGradient>
<linearGradient id="paint46_linear_3388_11501" x1="15.0702" y1="10.6359" x2="14.9174" y2="10.5922" gradientUnits="userSpaceOnUse">
<stop offset="0.282" stop-color="#D3ED89"/>
<stop offset="0.405" stop-color="#D3ED89"/>
<stop offset="1" stop-color="#5F821C"/>
</linearGradient>
<linearGradient id="paint47_linear_3388_11501" x1="15.8919" y1="7.7362" x2="15.7446" y2="7.7258" gradientUnits="userSpaceOnUse">
<stop stop-color="#7AA922"/>
<stop offset="0.2" stop-color="#D3ED89"/>
<stop offset="0.525" stop-color="#D3ED89"/>
<stop offset="1" stop-color="#7AA922"/>
</linearGradient>
<linearGradient id="paint48_linear_3388_11501" x1="20.7549" y1="11.0805" x2="22.547" y2="11.0805" gradientUnits="userSpaceOnUse">
<stop offset="0.006" stop-color="#7AA922"/>
<stop offset="0.169" stop-color="#1D4A20"/>
<stop offset="0.382" stop-color="#26551B"/>
<stop offset="1" stop-color="#7AA922"/>
</linearGradient>
<linearGradient id="paint49_linear_3388_11501" x1="20.7646" y1="13.9091" x2="20.6197" y2="13.8992" gradientUnits="userSpaceOnUse">
<stop stop-color="#7AA922"/>
<stop offset="1" stop-color="#D3ED89"/>
</linearGradient>
<linearGradient id="paint50_linear_3388_11501" x1="20.8296" y1="13.9224" x2="20.738" y2="14.0243" gradientUnits="userSpaceOnUse">
<stop stop-color="#5F821C"/>
<stop offset="1" stop-color="#26551B"/>
</linearGradient>
<linearGradient id="paint51_linear_3388_11501" x1="14.1709" y1="14.1019" x2="20.695" y2="14.1019" gradientUnits="userSpaceOnUse">
<stop stop-color="#7AA922"/>
<stop offset="0.4" stop-color="#D3ED89"/>
<stop offset="1" stop-color="#7AA922"/>
</linearGradient>
<linearGradient id="paint52_linear_3388_11501" x1="14.1313" y1="13.603" x2="14.0281" y2="13.4886" gradientUnits="userSpaceOnUse">
<stop stop-color="#1D3A19"/>
<stop offset="0.1" stop-color="#26551B"/>
<stop offset="0.65" stop-color="#7AA922"/>
<stop offset="1" stop-color="#D3ED89"/>
</linearGradient>
<linearGradient id="paint53_linear_3388_11501" x1="14.1272" y1="13.4177" x2="14.2022" y2="13.553" gradientUnits="userSpaceOnUse">
<stop stop-color="#5F821C"/>
<stop offset="0.405" stop-color="#7AA922"/>
<stop offset="0.8" stop-color="#5F821C"/>
<stop offset="1" stop-color="#5F821C"/>
</linearGradient>
<linearGradient id="paint54_linear_3388_11501" x1="22.4732" y1="8.22794" x2="22.4945" y2="8.15537" gradientUnits="userSpaceOnUse">
<stop stop-color="#5B7F30"/>
<stop offset="1" stop-color="#D3ED89"/>
</linearGradient>
<linearGradient id="paint55_linear_3388_11501" x1="22.3417" y1="9.14267" x2="15.7826" y2="7.26172" gradientUnits="userSpaceOnUse">
<stop stop-color="#1D3419"/>
<stop offset="0.228" stop-color="#26551B"/>
<stop offset="1" stop-color="#7AA922"/>
</linearGradient>
<linearGradient id="paint56_linear_3388_11501" x1="21.6029" y1="11.0261" x2="21.4511" y2="10.9826" gradientUnits="userSpaceOnUse">
<stop stop-color="#5F821C"/>
<stop offset="1" stop-color="#75C146"/>
</linearGradient>
<linearGradient id="paint57_linear_3388_11501" x1="22.2891" y1="8.1998" x2="22.5836" y2="8.1998" gradientUnits="userSpaceOnUse">
<stop stop-color="#D3ED89"/>
<stop offset="1" stop-color="#5F821C"/>
</linearGradient>
<linearGradient id="paint58_linear_3388_11501" x1="22.3136" y1="9.21134" x2="15.7738" y2="7.33599" gradientUnits="userSpaceOnUse">
<stop stop-color="#93BF81"/>
<stop offset="0.228" stop-color="#26551B"/>
<stop offset="1" stop-color="#BDE256"/>
</linearGradient>
<linearGradient id="paint59_linear_3388_11501" x1="22.4744" y1="8.22874" x2="22.4961" y2="8.1559" gradientUnits="userSpaceOnUse">
<stop stop-color="#5B7F30"/>
<stop offset="1" stop-color="#D3ED89"/>
</linearGradient>
<linearGradient id="paint60_linear_3388_11501" x1="22.2891" y1="8.20003" x2="22.5841" y2="8.20003" gradientUnits="userSpaceOnUse">
<stop stop-color="#D3ED89"/>
<stop offset="1" stop-color="#5F821C"/>
</linearGradient>
<clipPath id="clip0_3388_11501">
<rect width="28" height="28" fill="white"/>
</clipPath>
</defs>
</svg>
