<svg width="65" height="12" viewBox="0 0 65 12" fill="none" xmlns="http://www.w3.org/2000/svg">
<path d="M60.9193 11.2649C60.2365 11.2649 59.6333 11.1439 59.1096 10.902C58.5893 10.6567 58.1833 10.3203 57.8916 9.89276C57.5999 9.46188 57.4558 8.97135 57.4591 8.42116C57.4558 7.99029 57.5403 7.59257 57.7126 7.22798C57.885 6.86009 58.1203 6.5535 58.4186 6.30824C58.7202 6.05966 59.0566 5.90223 59.4278 5.83594V5.77628C58.9406 5.65033 58.5528 5.37689 58.2645 4.95597C57.9761 4.53172 57.8336 4.04948 57.8369 3.50923C57.8336 2.99219 57.9645 2.52983 58.2297 2.12216C58.4948 1.71449 58.8594 1.39299 59.3234 1.15767C59.7908 0.922348 60.3227 0.804688 60.9193 0.804688C61.5093 0.804688 62.0363 0.922348 62.5003 1.15767C62.9643 1.39299 63.3289 1.71449 63.594 2.12216C63.8625 2.52983 63.9984 2.99219 64.0017 3.50923C63.9984 4.04948 63.8509 4.53172 63.5592 4.95597C63.2709 5.37689 62.8881 5.65033 62.4108 5.77628V5.83594C62.7787 5.90223 63.1101 6.05966 63.4051 6.30824C63.7001 6.5535 63.9354 6.86009 64.1111 7.22798C64.2867 7.59257 64.3762 7.99029 64.3795 8.42116C64.3762 8.97135 64.2271 9.46188 63.9321 9.89276C63.6404 10.3203 63.2344 10.6567 62.714 10.902C62.197 11.1439 61.5988 11.2649 60.9193 11.2649ZM60.9193 10.1712C61.38 10.1712 61.7777 10.0966 62.1125 9.94744C62.4472 9.7983 62.7058 9.58783 62.8881 9.31605C63.0703 9.04427 63.1632 8.72609 63.1665 8.36151C63.1632 7.97704 63.0637 7.63731 62.8682 7.34233C62.6726 7.04735 62.4058 6.81534 62.0677 6.64631C61.733 6.47727 61.3502 6.39276 60.9193 6.39276C60.4851 6.39276 60.0973 6.47727 59.756 6.64631C59.4179 6.81534 59.1511 7.04735 58.9555 7.34233C58.7633 7.63731 58.6688 7.97704 58.6721 8.36151C58.6688 8.72609 58.7567 9.04427 58.9356 9.31605C59.1179 9.58783 59.3781 9.7983 59.7162 9.94744C60.0542 10.0966 60.4553 10.1712 60.9193 10.1712ZM60.9193 5.33878C61.2839 5.33878 61.607 5.26586 61.8888 5.12003C62.1738 4.9742 62.3975 4.77036 62.5599 4.50852C62.7223 4.24669 62.8052 3.9401 62.8085 3.58878C62.8052 3.24408 62.724 2.94413 62.5649 2.68892C62.4058 2.4304 62.1854 2.23153 61.9037 2.09233C61.622 1.94981 61.2938 1.87855 60.9193 1.87855C60.5382 1.87855 60.2051 1.94981 59.92 2.09233C59.635 2.23153 59.4146 2.4304 59.2588 2.68892C59.103 2.94413 59.0268 3.24408 59.0301 3.58878C59.0268 3.9401 59.1047 4.24669 59.2638 4.50852C59.4262 4.77036 59.6499 4.9742 59.9349 5.12003C60.22 5.26586 60.5481 5.33878 60.9193 5.33878Z" fill="white"/>
<path d="M44.0953 11.1256L41.7686 3.48926H43.0015L44.6521 9.33585H44.7316L46.3623 3.48926H47.6151L49.2259 9.31596H49.3055L50.9561 3.48926H52.189L49.8623 11.1256H48.7089L47.0384 5.25914H46.9191L45.2487 11.1256H44.0953Z" fill="white"/>
<path d="M37.3743 11.2855C36.6849 11.2855 36.08 11.1214 35.5597 10.7933C35.0426 10.4652 34.6383 10.0062 34.3466 9.41619C34.0582 8.82623 33.9141 8.13684 33.9141 7.34801C33.9141 6.55256 34.0582 5.85819 34.3466 5.26491C34.6383 4.67164 35.0426 4.21094 35.5597 3.88281C36.08 3.55469 36.6849 3.39062 37.3743 3.39062C38.0637 3.39062 38.6669 3.55469 39.1839 3.88281C39.7043 4.21094 40.1087 4.67164 40.397 5.26491C40.6887 5.85819 40.8345 6.55256 40.8345 7.34801C40.8345 8.13684 40.6887 8.82623 40.397 9.41619C40.1087 10.0062 39.7043 10.4652 39.1839 10.7933C38.6669 11.1214 38.0637 11.2855 37.3743 11.2855ZM37.3743 10.2315C37.898 10.2315 38.3288 10.0973 38.6669 9.82884C39.005 9.56037 39.2552 9.20739 39.4176 8.76989C39.58 8.33239 39.6612 7.85843 39.6612 7.34801C39.6612 6.83759 39.58 6.36198 39.4176 5.92116C39.2552 5.48035 39.005 5.12405 38.6669 4.85227C38.3288 4.58049 37.898 4.4446 37.3743 4.4446C36.8506 4.4446 36.4197 4.58049 36.0817 4.85227C35.7436 5.12405 35.4934 5.48035 35.331 5.92116C35.1686 6.36198 35.0874 6.83759 35.0874 7.34801C35.0874 7.85843 35.1686 8.33239 35.331 8.76989C35.4934 9.20739 35.7436 9.56037 36.0817 9.82884C36.4197 10.0973 36.8506 10.2315 37.3743 10.2315Z" fill="white"/>
<path d="M28.4602 11.2852C27.8239 11.2852 27.2621 11.1245 26.7749 10.803C26.2876 10.4782 25.9065 10.0208 25.6314 9.43084C25.3563 8.83756 25.2188 8.13657 25.2188 7.32786C25.2188 6.52578 25.3563 5.82975 25.6314 5.23979C25.9065 4.64983 26.2893 4.1941 26.7798 3.8726C27.2704 3.55111 27.8371 3.39036 28.4801 3.39036C28.9773 3.39036 29.37 3.47322 29.6584 3.63894C29.95 3.80134 30.1721 3.98695 30.3246 4.19576C30.4804 4.40125 30.6013 4.57028 30.6875 4.70286H30.7869V0.944336H31.9602V11.1262H30.8267V9.95286H30.6875C30.6013 10.0921 30.4787 10.2677 30.3196 10.4798C30.1605 10.6887 29.9335 10.8759 29.6385 11.0416C29.3435 11.204 28.9508 11.2852 28.4602 11.2852ZM28.6193 10.2313C29.09 10.2313 29.4877 10.1086 29.8125 9.86337C30.1373 9.61479 30.3842 9.27175 30.5533 8.83425C30.7223 8.39344 30.8068 7.88468 30.8068 7.30797C30.8068 6.7379 30.724 6.23908 30.5582 5.81152C30.3925 5.38065 30.1473 5.0459 29.8224 4.80726C29.4976 4.56531 29.0966 4.44434 28.6193 4.44434C28.1222 4.44434 27.7079 4.57194 27.3764 4.82715C27.0483 5.07904 26.8014 5.42208 26.6357 5.85627C26.4732 6.28714 26.392 6.77104 26.392 7.30797C26.392 7.85153 26.4749 8.34538 26.6406 8.78951C26.8097 9.23032 27.0582 9.58165 27.3864 9.84348C27.7178 10.102 28.1288 10.2313 28.6193 10.2313Z" fill="white"/>
<path d="M18.56 6.53267V11.1264H17.3867V3.49006H18.5202V4.68324H18.6197C18.7987 4.29545 19.0704 3.9839 19.435 3.74858C19.7996 3.50994 20.2702 3.39062 20.8469 3.39062C21.364 3.39062 21.8164 3.49669 22.2042 3.70881C22.592 3.91761 22.8936 4.2358 23.109 4.66335C23.3245 5.0876 23.4322 5.62453 23.4322 6.27415V11.1264H22.2589V6.35369C22.2589 5.75379 22.1031 5.28646 21.7915 4.9517C21.48 4.61364 21.0524 4.4446 20.5089 4.4446C20.1344 4.4446 19.7996 4.5258 19.5046 4.68821C19.2129 4.85062 18.9826 5.08759 18.8136 5.39915C18.6445 5.7107 18.56 6.08854 18.56 6.53267Z" fill="white"/>
<path d="M14.0648 11.126V3.48961H15.2381V11.126H14.0648ZM14.6614 2.21689C14.4327 2.21689 14.2355 2.139 14.0698 1.98322C13.9074 1.82744 13.8262 1.64018 13.8262 1.42143C13.8262 1.20268 13.9074 1.01542 14.0698 0.859641C14.2355 0.703865 14.4327 0.625977 14.6614 0.625977C14.8901 0.625977 15.0856 0.703865 15.248 0.859641C15.4138 1.01542 15.4966 1.20268 15.4966 1.42143C15.4966 1.64018 15.4138 1.82744 15.248 1.98322C15.0856 2.139 14.8901 2.21689 14.6614 2.21689Z" fill="white"/>
<path d="M2.78409 11.1262L0 0.944336H1.25284L3.38068 9.23695H3.48011L5.64773 0.944336H7.03977L9.20739 9.23695H9.30682L11.4347 0.944336H12.6875L9.90341 11.1262H8.63068L6.38352 3.01252H6.30398L4.05682 11.1262H2.78409Z" fill="white"/>
</svg>
