<svg width="72" height="12" viewBox="0 0 72 12" fill="none" xmlns="http://www.w3.org/2000/svg">
<path d="M67.487 11.2649C66.738 11.2649 66.1 11.0611 65.573 10.6534C65.046 10.2424 64.6433 9.64749 64.3649 8.86861C64.0865 8.08641 63.9473 7.14181 63.9473 6.0348C63.9473 4.93442 64.0865 3.99479 64.3649 3.21591C64.6466 2.43371 65.051 1.83712 65.5779 1.42614C66.1083 1.01184 66.7446 0.804688 67.487 0.804688C68.2295 0.804688 68.8642 1.01184 69.3912 1.42614C69.9215 1.83712 70.3258 2.43371 70.6042 3.21591C70.8859 3.99479 71.0268 4.93442 71.0268 6.0348C71.0268 7.14181 70.8876 8.08641 70.6092 8.86861C70.3308 9.64749 69.9281 10.2424 69.4011 10.6534C68.8741 11.0611 68.2361 11.2649 67.487 11.2649ZM67.487 10.1712C68.2295 10.1712 68.8062 9.81321 69.2171 9.0973C69.6281 8.38139 69.8336 7.36056 69.8336 6.0348C69.8336 5.15317 69.7392 4.40246 69.5502 3.78267C69.3646 3.16288 69.0962 2.69058 68.7449 2.36577C68.3968 2.04096 67.9776 1.87855 67.487 1.87855C66.7512 1.87855 66.1762 2.24148 65.7619 2.96733C65.3476 3.68987 65.1404 4.71236 65.1404 6.0348C65.1404 6.91643 65.2332 7.66548 65.4189 8.28196C65.6045 8.89844 65.8713 9.36742 66.2193 9.68892C66.5706 10.0104 66.9932 10.1712 67.487 10.1712Z" fill="white"/>
<path d="M61.2374 0.944336V11.1262H60.0044V2.23695H59.9448L57.459 3.88752V2.63468L60.0044 0.944336H61.2374Z" fill="white"/>
<path d="M44.0953 11.1256L41.7686 3.48926H43.0015L44.6521 9.33585H44.7316L46.3623 3.48926H47.6151L49.2259 9.31596H49.3055L50.9561 3.48926H52.189L49.8623 11.1256H48.7089L47.0384 5.25914H46.9191L45.2487 11.1256H44.0953Z" fill="white"/>
<path d="M37.3743 11.2855C36.6849 11.2855 36.08 11.1214 35.5597 10.7933C35.0426 10.4652 34.6383 10.0062 34.3466 9.41619C34.0582 8.82623 33.9141 8.13684 33.9141 7.34801C33.9141 6.55256 34.0582 5.85819 34.3466 5.26491C34.6383 4.67164 35.0426 4.21094 35.5597 3.88281C36.08 3.55469 36.6849 3.39062 37.3743 3.39062C38.0637 3.39062 38.6669 3.55469 39.1839 3.88281C39.7043 4.21094 40.1087 4.67164 40.397 5.26491C40.6887 5.85819 40.8345 6.55256 40.8345 7.34801C40.8345 8.13684 40.6887 8.82623 40.397 9.41619C40.1087 10.0062 39.7043 10.4652 39.1839 10.7933C38.6669 11.1214 38.0637 11.2855 37.3743 11.2855ZM37.3743 10.2315C37.898 10.2315 38.3288 10.0973 38.6669 9.82884C39.005 9.56037 39.2552 9.20739 39.4176 8.76989C39.58 8.33239 39.6612 7.85843 39.6612 7.34801C39.6612 6.83759 39.58 6.36198 39.4176 5.92116C39.2552 5.48035 39.005 5.12405 38.6669 4.85227C38.3288 4.58049 37.898 4.4446 37.3743 4.4446C36.8506 4.4446 36.4197 4.58049 36.0817 4.85227C35.7436 5.12405 35.4934 5.48035 35.331 5.92116C35.1686 6.36198 35.0874 6.83759 35.0874 7.34801C35.0874 7.85843 35.1686 8.33239 35.331 8.76989C35.4934 9.20739 35.7436 9.56037 36.0817 9.82884C36.4197 10.0973 36.8506 10.2315 37.3743 10.2315Z" fill="white"/>
<path d="M28.4602 11.2852C27.8239 11.2852 27.2621 11.1245 26.7749 10.803C26.2876 10.4782 25.9065 10.0208 25.6314 9.43084C25.3563 8.83756 25.2188 8.13657 25.2188 7.32786C25.2188 6.52578 25.3563 5.82975 25.6314 5.23979C25.9065 4.64983 26.2893 4.1941 26.7798 3.8726C27.2704 3.55111 27.8371 3.39036 28.4801 3.39036C28.9773 3.39036 29.37 3.47322 29.6584 3.63894C29.95 3.80134 30.1721 3.98695 30.3246 4.19576C30.4804 4.40125 30.6013 4.57028 30.6875 4.70286H30.7869V0.944336H31.9602V11.1262H30.8267V9.95286H30.6875C30.6013 10.0921 30.4787 10.2677 30.3196 10.4798C30.1605 10.6887 29.9335 10.8759 29.6385 11.0416C29.3435 11.204 28.9508 11.2852 28.4602 11.2852ZM28.6193 10.2313C29.09 10.2313 29.4877 10.1086 29.8125 9.86337C30.1373 9.61479 30.3842 9.27175 30.5533 8.83425C30.7223 8.39344 30.8068 7.88468 30.8068 7.30797C30.8068 6.7379 30.724 6.23908 30.5582 5.81152C30.3925 5.38065 30.1473 5.0459 29.8224 4.80726C29.4976 4.56531 29.0966 4.44434 28.6193 4.44434C28.1222 4.44434 27.7079 4.57194 27.3764 4.82715C27.0483 5.07904 26.8014 5.42208 26.6357 5.85627C26.4732 6.28714 26.392 6.77104 26.392 7.30797C26.392 7.85153 26.4749 8.34538 26.6406 8.78951C26.8097 9.23032 27.0582 9.58165 27.3864 9.84348C27.7178 10.102 28.1288 10.2313 28.6193 10.2313Z" fill="white"/>
<path d="M18.56 6.53267V11.1264H17.3867V3.49006H18.5202V4.68324H18.6197C18.7987 4.29545 19.0704 3.9839 19.435 3.74858C19.7996 3.50994 20.2702 3.39062 20.8469 3.39062C21.364 3.39062 21.8164 3.49669 22.2042 3.70881C22.592 3.91761 22.8936 4.2358 23.109 4.66335C23.3245 5.0876 23.4322 5.62453 23.4322 6.27415V11.1264H22.2589V6.35369C22.2589 5.75379 22.1031 5.28646 21.7915 4.9517C21.48 4.61364 21.0524 4.4446 20.5089 4.4446C20.1344 4.4446 19.7996 4.5258 19.5046 4.68821C19.2129 4.85062 18.9826 5.08759 18.8136 5.39915C18.6445 5.7107 18.56 6.08854 18.56 6.53267Z" fill="white"/>
<path d="M14.0648 11.126V3.48961H15.2381V11.126H14.0648ZM14.6614 2.21689C14.4327 2.21689 14.2355 2.139 14.0698 1.98322C13.9074 1.82744 13.8262 1.64018 13.8262 1.42143C13.8262 1.20268 13.9074 1.01542 14.0698 0.859641C14.2355 0.703865 14.4327 0.625977 14.6614 0.625977C14.8901 0.625977 15.0856 0.703865 15.248 0.859641C15.4138 1.01542 15.4966 1.20268 15.4966 1.42143C15.4966 1.64018 15.4138 1.82744 15.248 1.98322C15.0856 2.139 14.8901 2.21689 14.6614 2.21689Z" fill="white"/>
<path d="M2.78409 11.1262L0 0.944336H1.25284L3.38068 9.23695H3.48011L5.64773 0.944336H7.03977L9.20739 9.23695H9.30682L11.4347 0.944336H12.6875L9.90341 11.1262H8.63068L6.38352 3.01252H6.30398L4.05682 11.1262H2.78409Z" fill="white"/>
</svg>
