<svg width="64" height="12" viewBox="0 0 64 12" fill="none" xmlns="http://www.w3.org/2000/svg">
<path d="M57.9763 11.1711L62.5303 2.16255V2.08301H57.2803V0.989258H63.803V2.14267L59.2689 11.1711H57.9763Z" fill="white"/>
<path d="M44.0953 11.1705L41.7686 3.53418H43.0015L44.6521 9.38077H44.7316L46.3623 3.53418H47.6151L49.2259 9.36088H49.3055L50.9561 3.53418H52.189L49.8623 11.1705H48.7089L47.0384 5.30407H46.9191L45.2487 11.1705H44.0953Z" fill="white"/>
<path d="M37.3743 11.3304C36.6849 11.3304 36.08 11.1664 35.5597 10.8382C35.0426 10.5101 34.6383 10.0511 34.3466 9.46112C34.0582 8.87115 33.9141 8.18176 33.9141 7.39293C33.9141 6.59748 34.0582 5.90311 34.3466 5.30984C34.6383 4.71656 35.0426 4.25586 35.5597 3.92773C36.08 3.59961 36.6849 3.43555 37.3743 3.43555C38.0637 3.43555 38.6669 3.59961 39.1839 3.92773C39.7043 4.25586 40.1087 4.71656 40.397 5.30984C40.6887 5.90311 40.8345 6.59748 40.8345 7.39293C40.8345 8.18176 40.6887 8.87115 40.397 9.46112C40.1087 10.0511 39.7043 10.5101 39.1839 10.8382C38.6669 11.1664 38.0637 11.3304 37.3743 11.3304ZM37.3743 10.2765C37.898 10.2765 38.3288 10.1422 38.6669 9.87376C39.005 9.60529 39.2552 9.25231 39.4176 8.81481C39.58 8.37731 39.6612 7.90335 39.6612 7.39293C39.6612 6.88252 39.58 6.4069 39.4176 5.96609C39.2552 5.52527 39.005 5.16897 38.6669 4.89719C38.3288 4.62541 37.898 4.48952 37.3743 4.48952C36.8506 4.48952 36.4197 4.62541 36.0817 4.89719C35.7436 5.16897 35.4934 5.52527 35.331 5.96609C35.1686 6.4069 35.0874 6.88252 35.0874 7.39293C35.0874 7.90335 35.1686 8.37731 35.331 8.81481C35.4934 9.25231 35.7436 9.60529 36.0817 9.87376C36.4197 10.1422 36.8506 10.2765 37.3743 10.2765Z" fill="white"/>
<path d="M28.4602 11.3302C27.8239 11.3302 27.2621 11.1694 26.7749 10.8479C26.2876 10.5231 25.9065 10.0657 25.6314 9.47576C25.3563 8.88249 25.2188 8.18149 25.2188 7.37278C25.2188 6.5707 25.3563 5.87467 25.6314 5.28471C25.9065 4.69475 26.2893 4.23902 26.7798 3.91752C27.2704 3.59603 27.8371 3.43528 28.4801 3.43528C28.9773 3.43528 29.37 3.51814 29.6584 3.68386C29.95 3.84627 30.1721 4.03187 30.3246 4.24068C30.4804 4.44617 30.6013 4.6152 30.6875 4.74778H30.7869V0.989258H31.9602V11.1711H30.8267V9.99778H30.6875C30.6013 10.137 30.4787 10.3126 30.3196 10.5248C30.1605 10.7336 29.9335 10.9208 29.6385 11.0866C29.3435 11.249 28.9508 11.3302 28.4602 11.3302ZM28.6193 10.2762C29.09 10.2762 29.4877 10.1536 29.8125 9.90829C30.1373 9.65971 30.3842 9.31667 30.5533 8.87917C30.7223 8.43836 30.8068 7.9296 30.8068 7.35289C30.8068 6.78282 30.724 6.284 30.5582 5.85645C30.3925 5.42557 30.1473 5.09082 29.8224 4.85218C29.4976 4.61023 29.0966 4.48926 28.6193 4.48926C28.1222 4.48926 27.7079 4.61686 27.3764 4.87207C27.0483 5.12396 26.8014 5.467 26.6357 5.90119C26.4732 6.33206 26.392 6.81596 26.392 7.35289C26.392 7.89645 26.4749 8.3903 26.6406 8.83443C26.8097 9.27524 27.0582 9.62657 27.3864 9.88841C27.7178 10.1469 28.1288 10.2762 28.6193 10.2762Z" fill="white"/>
<path d="M18.56 6.57759V11.1713H17.3867V3.53498H18.5202V4.72816H18.6197C18.7987 4.34038 19.0704 4.02882 19.435 3.7935C19.7996 3.55486 20.2702 3.43555 20.8469 3.43555C21.364 3.43555 21.8164 3.54161 22.2042 3.75373C22.592 3.96254 22.8936 4.28072 23.109 4.70827C23.3245 5.13252 23.4322 5.66945 23.4322 6.31907V11.1713H22.2589V6.39862C22.2589 5.79871 22.1031 5.33138 21.7915 4.99663C21.48 4.65856 21.0524 4.48952 20.5089 4.48952C20.1344 4.48952 19.7996 4.57073 19.5046 4.73313C19.2129 4.89554 18.9826 5.13252 18.8136 5.44407C18.6445 5.75562 18.56 6.13346 18.56 6.57759Z" fill="white"/>
<path d="M14.0648 11.1709V3.53453H15.2381V11.1709H14.0648ZM14.6614 2.26181C14.4327 2.26181 14.2355 2.18392 14.0698 2.02814C13.9074 1.87237 13.8262 1.6851 13.8262 1.46635C13.8262 1.2476 13.9074 1.06034 14.0698 0.904563C14.2355 0.748787 14.4327 0.670898 14.6614 0.670898C14.8901 0.670898 15.0856 0.748787 15.248 0.904563C15.4138 1.06034 15.4966 1.2476 15.4966 1.46635C15.4966 1.6851 15.4138 1.87237 15.248 2.02814C15.0856 2.18392 14.8901 2.26181 14.6614 2.26181Z" fill="white"/>
<path d="M2.78409 11.1711L0 0.989258H1.25284L3.38068 9.28187H3.48011L5.64773 0.989258H7.03977L9.20739 9.28187H9.30682L11.4347 0.989258H12.6875L9.90341 11.1711H8.63068L6.38352 3.05744H6.30398L4.05682 11.1711H2.78409Z" fill="white"/>
</svg>
