<svg width="399" height="21" viewBox="0 0 399 21" fill="none" xmlns="http://www.w3.org/2000/svg">
<path d="M398.334 0H203.644V1H398.334V0Z" fill="#24A2EE" fill-opacity="0.2"/>
<g opacity="0.3">
<path d="M388.015 1.46973H188.171V2.46973H388.015V1.46973Z" fill="#24A2EE" fill-opacity="0.2"/>
</g>
<g opacity="0.3">
<path d="M377.135 3.01953H171.852V4.01953H377.135V3.01953Z" fill="#24A2EE" fill-opacity="0.2"/>
</g>
<g opacity="0.3">
<path d="M365.659 4.65039H154.625V5.65039H365.659V4.65039Z" fill="#24A2EE" fill-opacity="0.2"/>
</g>
<g opacity="0.3">
<path d="M353.514 6.37988H136.408V7.37988H353.514V6.37988Z" fill="#24A2EE" fill-opacity="0.2"/>
</g>
<g opacity="0.3">
<path d="M340.642 8.20996H117.106V9.20996H340.642V8.20996Z" fill="#24A2EE" fill-opacity="0.2"/>
</g>
<g opacity="0.3">
<path d="M326.995 10.1504H96.6357V11.1504H326.995V10.1504Z" fill="#24A2EE" fill-opacity="0.2"/>
</g>
<g opacity="0.3">
<path d="M312.477 12.2197H74.8643V13.2197H312.477V12.2197Z" fill="#24A2EE" fill-opacity="0.2"/>
</g>
<g opacity="0.3">
<path d="M297.028 14.4199H51.6846V15.4199H297.028V14.4199Z" fill="#24A2EE" fill-opacity="0.2"/>
</g>
<g opacity="0.3">
<path d="M280.53 16.7598H26.9434V17.7598H280.53V16.7598Z" fill="#24A2EE" fill-opacity="0.2"/>
</g>
<path d="M262.898 19.2695H0.483398V20.2695H262.898V19.2695Z" fill="#24A2EE" fill-opacity="0.2"/>
</svg>
