<svg width="864" height="191" viewBox="0 0 864 191" fill="none" xmlns="http://www.w3.org/2000/svg">
<g opacity="0.3">
<path d="M20.7576 0.38253L19.6133 0.665039L86.3669 190.667L87.5112 190.384L20.7576 0.38253Z" fill="#24A2EE" fill-opacity="0.2"/>
</g>
<g opacity="0.3">
<path d="M40.1822 0.277618L39.1543 0.785156L172.673 190.792L173.7 190.284L40.1822 0.277618Z" fill="#24A2EE" fill-opacity="0.2"/>
</g>
<g opacity="0.3">
<path d="M59.4994 0.106327L58.6055 0.768555L258.912 190.754L259.806 190.092L59.4994 0.106327Z" fill="#24A2EE" fill-opacity="0.2"/>
</g>
<g opacity="0.3">
<path d="M78.9262 0.0852137L78.1543 0.847656L345.219 190.836L345.991 190.074L78.9262 0.0852137Z" fill="#24A2EE" fill-opacity="0.2"/>
</g>
<g opacity="0.3">
<path d="M98.4505 0.115106L97.7803 0.942383L431.581 190.958L432.251 190.131L98.4505 0.115106Z" fill="#24A2EE" fill-opacity="0.2"/>
</g>
<g opacity="0.3">
<path d="M117.757 0.0407771L117.17 0.911133L517.754 190.893L518.342 190.023L117.757 0.0407771Z" fill="#24A2EE" fill-opacity="0.2"/>
</g>
<g opacity="0.3">
<path d="M604.074 190.95L136.734 0.949805L137.259 0.0498047L604.599 190.05L604.074 190.95Z" fill="#24A2EE" fill-opacity="0.2"/>
</g>
<g opacity="0.3">
<path d="M156.81 0.0638702L156.344 0.984375L690.425 191.02L690.892 190.1L156.81 0.0638702Z" fill="#24A2EE" fill-opacity="0.2"/>
</g>
<g opacity="0.3">
<path d="M176.205 0.0458163L175.784 0.981445L776.637 191L777.058 190.065L176.205 0.0458163Z" fill="#24A2EE" fill-opacity="0.2"/>
</g>
<path d="M195.525 0.0140074L195.142 0.960938L862.784 190.938L863.167 189.991L195.525 0.0140074Z" fill="#24A2EE" fill-opacity="0.2"/>
<path d="M195.404 0H0.713867V1H195.404V0Z" fill="#24A2EE" fill-opacity="0.2"/>
<g opacity="0.3">
<path d="M200.558 1.46973H0.713867V2.46973H200.558V1.46973Z" fill="#24A2EE" fill-opacity="0.2"/>
</g>
<g opacity="0.3">
<path d="M205.997 3.01953H0.713867V4.01953H205.997V3.01953Z" fill="#24A2EE" fill-opacity="0.2"/>
</g>
<g opacity="0.3">
<path d="M211.747 4.65039H0.713867V5.65039H211.747V4.65039Z" fill="#24A2EE" fill-opacity="0.2"/>
</g>
<g opacity="0.3">
<path d="M217.82 6.37988H0.713867V7.37988H217.82V6.37988Z" fill="#24A2EE" fill-opacity="0.2"/>
</g>
<g opacity="0.3">
<path d="M224.25 8.20996H0.713867V9.20996H224.25V8.20996Z" fill="#24A2EE" fill-opacity="0.2"/>
</g>
<g opacity="0.3">
<path d="M231.073 10.1504H0.713867V11.1504H231.073V10.1504Z" fill="#24A2EE" fill-opacity="0.2"/>
</g>
<g opacity="0.3">
<path d="M238.326 12.2197H0.713867V13.2197H238.326V12.2197Z" fill="#24A2EE" fill-opacity="0.2"/>
</g>
<g opacity="0.3">
<path d="M246.057 14.4199H0.713867V15.4199H246.057V14.4199Z" fill="#24A2EE" fill-opacity="0.2"/>
</g>
<g opacity="0.3">
<path d="M254.3 16.7598H0.713867V17.7598H254.3V16.7598Z" fill="#24A2EE" fill-opacity="0.2"/>
</g>
<path d="M263.128 19.2695H0.713867V20.2695H263.128V19.2695Z" fill="#24A2EE" fill-opacity="0.2"/>
<g opacity="0.3">
<path d="M272.588 21.96H0.713867V22.96H272.588V21.96Z" fill="#24A2EE" fill-opacity="0.2"/>
</g>
<g opacity="0.3">
<path d="M282.752 24.8604H0.713867V25.8604H282.752V24.8604Z" fill="#24A2EE" fill-opacity="0.2"/>
</g>
<g opacity="0.3">
<path d="M293.703 27.9697H0.713867V28.9697H293.703V27.9697Z" fill="#24A2EE" fill-opacity="0.2"/>
</g>
<g opacity="0.3">
<path d="M305.538 31.3398H0.713867V32.3398H305.538V31.3398Z" fill="#24A2EE" fill-opacity="0.2"/>
</g>
<g opacity="0.3">
<path d="M318.374 35H0.713867V36H318.374V35Z" fill="#24A2EE" fill-opacity="0.2"/>
</g>
<g opacity="0.3">
<path d="M332.343 38.9697H0.713867V39.9697H332.343V38.9697Z" fill="#24A2EE" fill-opacity="0.2"/>
</g>
<g opacity="0.3">
<path d="M347.589 43.3096H0.713867V44.3096H347.589V43.3096Z" fill="#24A2EE" fill-opacity="0.2"/>
</g>
<g opacity="0.3">
<path d="M364.302 48.0703H0.713867V49.0703H364.302V48.0703Z" fill="#24A2EE" fill-opacity="0.2"/>
</g>
<g opacity="0.3">
<path d="M382.71 53.3096H0.713867V54.3096H382.71V53.3096Z" fill="#24A2EE" fill-opacity="0.2"/>
</g>
<path d="M403.085 59.1104H0.713867V60.1104H403.085V59.1104Z" fill="#24A2EE" fill-opacity="0.2"/>
<g opacity="0.3">
<path d="M425.763 65.5596H0.713867V66.5596H425.763V65.5596Z" fill="#24A2EE" fill-opacity="0.2"/>
</g>
<g opacity="0.3">
<path d="M451.137 72.7793H0.713867V73.7793H451.137V72.7793Z" fill="#24A2EE" fill-opacity="0.2"/>
</g>
<g opacity="0.3">
<path d="M479.745 80.9199H0.713867V81.9199H479.745V80.9199Z" fill="#24A2EE" fill-opacity="0.2"/>
</g>
<g opacity="0.3">
<path d="M512.217 90.1592H0.713867V91.1592H512.217V90.1592Z" fill="#24A2EE" fill-opacity="0.2"/>
</g>
<g opacity="0.3">
<path d="M549.425 100.75H0.713867V101.75H549.425V100.75Z" fill="#24A2EE" fill-opacity="0.2"/>
</g>
<g opacity="0.3">
<path d="M592.467 113H0.713867V114H592.467V113Z" fill="#24A2EE" fill-opacity="0.2"/>
</g>
<g opacity="0.3">
<path d="M642.833 127.329H0.713867V128.329H642.833V127.329Z" fill="#24A2EE" fill-opacity="0.2"/>
</g>
<g opacity="0.3">
<path d="M702.576 144.34H0.713867V145.34H702.576V144.34Z" fill="#24A2EE" fill-opacity="0.2"/>
</g>
<g opacity="0.3">
<path d="M774.571 164.829H0.713867V165.829H774.571V164.829Z" fill="#24A2EE" fill-opacity="0.2"/>
</g>
<path d="M863.029 190H0.713867V191H863.029V190Z" fill="#24A2EE" fill-opacity="0.2"/>
</svg>
