<svg width="574" height="83" viewBox="0 0 574 83" fill="none" xmlns="http://www.w3.org/2000/svg">
<g opacity="0.3">
<path d="M0 40.07L398.184 1L398.041 0L0 39.06V40.07Z" fill="#24A2EE" fill-opacity="0.2"/>
</g>
<g opacity="0.3">
<path d="M0 43.45L417.653 1L417.51 0L0 42.44V43.45Z" fill="#24A2EE" fill-opacity="0.2"/>
</g>
<g opacity="0.3">
<path d="M0 47.07L437.122 1L436.979 0L0 46.06V47.07Z" fill="#24A2EE" fill-opacity="0.2"/>
</g>
<g opacity="0.3">
<path d="M0 50.97L456.603 1L456.448 0L0 49.97V50.97Z" fill="#24A2EE" fill-opacity="0.2"/>
</g>
<g opacity="0.3">
<path d="M0 55.19L476.072 1L475.905 0L0 54.18V55.19Z" fill="#24A2EE" fill-opacity="0.2"/>
</g>
<g opacity="0.3">
<path d="M0 59.76L495.541 1L495.374 0L0 58.75V59.76Z" fill="#24A2EE" fill-opacity="0.2"/>
</g>
<g opacity="0.3">
<path d="M0 64.72L515.01 1L514.843 0L0 63.71V64.72Z" fill="#24A2EE" fill-opacity="0.2"/>
</g>
<g opacity="0.3">
<path d="M0 70.13L534.491 0.99L534.3 0L0 69.12V70.13Z" fill="#24A2EE" fill-opacity="0.2"/>
</g>
<g opacity="0.3">
<path d="M0 76.07L553.96 0.99L553.769 0L0 75.05V76.07Z" fill="#24A2EE" fill-opacity="0.2"/>
</g>
<path d="M0 82.59L573.429 0.99L573.238 0L0 81.58V82.59Z" fill="#24A2EE" fill-opacity="0.2"/>
</svg>
