<svg width="184" height="15" viewBox="0 0 184 15" fill="none" xmlns="http://www.w3.org/2000/svg">
<g opacity="0.3">
<path d="M0 1.51L8.76821 1L8.69664 0L0 0.51V1.51Z" fill="#24A2EE" fill-opacity="0.2"/>
</g>
<g opacity="0.3">
<path d="M0 2.67L28.2492 1L28.1537 0L0 1.67V2.67Z" fill="#24A2EE" fill-opacity="0.2"/>
</g>
<g opacity="0.3">
<path d="M0 3.89L47.7182 1L47.6227 0L0 2.88V3.89Z" fill="#24A2EE" fill-opacity="0.2"/>
</g>
<g opacity="0.3">
<path d="M0 5.16L67.1872 1L67.0917 0L0 4.15V5.16Z" fill="#24A2EE" fill-opacity="0.2"/>
</g>
<g opacity="0.3">
<path d="M0 6.48L86.6562 1L86.5608 0L0 5.48V6.48Z" fill="#24A2EE" fill-opacity="0.2"/>
</g>
<g opacity="0.3">
<path d="M0 7.86L106.125 1L106.03 0L0 6.86V7.86Z" fill="#24A2EE" fill-opacity="0.2"/>
</g>
<g opacity="0.3">
<path d="M0 9.31L125.594 1L125.499 0L0 8.31V9.31Z" fill="#24A2EE" fill-opacity="0.2"/>
</g>
<g opacity="0.3">
<path d="M0 10.83L145.063 1L144.968 0L0 9.82V10.83Z" fill="#24A2EE" fill-opacity="0.2"/>
</g>
<g opacity="0.3">
<path d="M0 12.42L164.532 1L164.437 0L0 11.42V12.42Z" fill="#24A2EE" fill-opacity="0.2"/>
</g>
<path d="M0 14.09L184.001 1L183.906 0L0 13.09V14.09Z" fill="#24A2EE" fill-opacity="0.2"/>
<path d="M183.954 0H0V1H183.954V0Z" fill="#24A2EE" fill-opacity="0.2"/>
<g opacity="0.3">
<path d="M163.327 1.46973H0V2.46973H163.327V1.46973Z" fill="#24A2EE" fill-opacity="0.2"/>
</g>
<g opacity="0.3">
<path d="M141.568 3.01953H0V4.01953H141.568V3.01953Z" fill="#24A2EE" fill-opacity="0.2"/>
</g>
<g opacity="0.3">
<path d="M118.603 4.65039H0V5.65039H118.603V4.65039Z" fill="#24A2EE" fill-opacity="0.2"/>
</g>
<g opacity="0.3">
<path d="M94.303 6.37988H0V7.37988H94.303V6.37988Z" fill="#24A2EE" fill-opacity="0.2"/>
</g>
<g opacity="0.3">
<path d="M68.571 8.20996H0V9.20996H68.571V8.20996Z" fill="#24A2EE" fill-opacity="0.2"/>
</g>
<g opacity="0.3">
<path d="M41.2762 10.1504H0V11.1504H41.2762V10.1504Z" fill="#24A2EE" fill-opacity="0.2"/>
</g>
<g opacity="0.3">
<path d="M12.2516 12.2197H0V13.2197H12.2516V12.2197Z" fill="#24A2EE" fill-opacity="0.2"/>
</g>
</svg>
