<svg width="179" height="14" viewBox="0 0 179 14" fill="none" xmlns="http://www.w3.org/2000/svg">
<g opacity="0.3">
<path d="M179 11.04L19.991 0L19.8955 1L179 12.04V11.04Z" fill="#24A2EE" fill-opacity="0.2"/>
</g>
<g opacity="0.3">
<path d="M178.999 9.46L39.4596 0L39.3643 1L178.999 10.46V9.46Z" fill="#24A2EE" fill-opacity="0.2"/>
</g>
<g opacity="0.3">
<path d="M179 7.95L58.9295 0L58.834 1L179 8.95V7.95Z" fill="#24A2EE" fill-opacity="0.2"/>
</g>
<g opacity="0.3">
<path d="M179 6.51L78.3981 0L78.3027 1L179 7.51V6.51Z" fill="#24A2EE" fill-opacity="0.2"/>
</g>
<g opacity="0.3">
<path d="M179 5.13L97.8669 0L97.7715 1L179 6.13V5.13Z" fill="#24A2EE" fill-opacity="0.2"/>
</g>
<g opacity="0.3">
<path d="M178.999 3.82L117.336 0L117.24 1L178.999 4.82V3.82Z" fill="#24A2EE" fill-opacity="0.2"/>
</g>
<g opacity="0.3">
<path d="M179 2.56L136.805 0L136.71 1L179 3.56V2.56Z" fill="#24A2EE" fill-opacity="0.2"/>
</g>
<g opacity="0.3">
<path d="M179 1.35L156.274 0L156.19 1L179 2.35V1.35Z" fill="#24A2EE" fill-opacity="0.2"/>
</g>
<path d="M179 0H0.474609V1H179V0Z" fill="#24A2EE" fill-opacity="0.2"/>
<g opacity="0.3">
<path d="M178.988 1.46973H21.1006V2.46973H178.988V1.46973Z" fill="#24A2EE" fill-opacity="0.2"/>
</g>
<g opacity="0.3">
<path d="M179 3.01953H42.8604V4.01953H179V3.01953Z" fill="#24A2EE" fill-opacity="0.2"/>
</g>
<g opacity="0.3">
<path d="M178.988 4.65039H65.8242V5.65039H178.988V4.65039Z" fill="#24A2EE" fill-opacity="0.2"/>
</g>
<g opacity="0.3">
<path d="M179 6.37988H90.125V7.37988H179V6.37988Z" fill="#24A2EE" fill-opacity="0.2"/>
</g>
<g opacity="0.3">
<path d="M179 8.20996H115.857V9.20996H179V8.20996Z" fill="#24A2EE" fill-opacity="0.2"/>
</g>
<g opacity="0.3">
<path d="M178.989 10.1504H143.152V11.1504H178.989V10.1504Z" fill="#24A2EE" fill-opacity="0.2"/>
</g>
<g opacity="0.3">
<path d="M178.988 12.2207H172.177V13.2207H178.988V12.2207Z" fill="#24A2EE" fill-opacity="0.2"/>
</g>
</svg>
