<svg width="549" height="76" viewBox="0 0 549 76" fill="none" xmlns="http://www.w3.org/2000/svg">
<g opacity="0.3">
<path d="M549 74.32L0.658687 0L0.467773 0.99L549 75.33V74.32Z" fill="#24A2EE" fill-opacity="0.2"/>
</g>
<g opacity="0.3">
<path d="M549 68.42L20.1274 0L19.9365 0.99L549 69.43V68.42Z" fill="#24A2EE" fill-opacity="0.2"/>
</g>
<g opacity="0.3">
<path d="M549 63.04L39.585 0L39.418 1L549 64.05V63.04Z" fill="#24A2EE" fill-opacity="0.2"/>
</g>
<g opacity="0.3">
<path d="M549 58.1L59.0537 0L58.8867 1L549 59.11V58.1Z" fill="#24A2EE" fill-opacity="0.2"/>
</g>
<g opacity="0.3">
<path d="M549 53.56L78.5224 0L78.3555 1L549 54.57V53.56Z" fill="#24A2EE" fill-opacity="0.2"/>
</g>
<g opacity="0.3">
<path d="M549 49.37L97.9801 0L97.8369 1L549 50.38V49.37Z" fill="#24A2EE" fill-opacity="0.2"/>
</g>
<g opacity="0.3">
<path d="M549 45.49L117.449 0L117.306 1L549 46.5V45.49Z" fill="#24A2EE" fill-opacity="0.2"/>
</g>
<g opacity="0.3">
<path d="M549 41.89L136.918 0L136.774 1L549 42.89V41.89Z" fill="#24A2EE" fill-opacity="0.2"/>
</g>
<g opacity="0.3">
<path d="M549 38.53L156.387 0L156.244 1L549 39.54V38.53Z" fill="#24A2EE" fill-opacity="0.2"/>
</g>
<path d="M549 35.4L175.856 0L175.713 1L549 36.41V35.4Z" fill="#24A2EE" fill-opacity="0.2"/>
</svg>
