<svg width="414" height="40" viewBox="0 0 414 40" fill="none" xmlns="http://www.w3.org/2000/svg">
<g opacity="0.3">
<path d="M272.324 0.959961H0.450195V1.95996H272.324V0.959961Z" fill="#24A2EE" fill-opacity="0.2"/>
</g>
<g opacity="0.3">
<path d="M302.817 3.85938H20.7783V4.85938H302.817V3.85938Z" fill="#24A2EE" fill-opacity="0.2"/>
</g>
<g opacity="0.3">
<path d="M335.67 6.96973H42.6807V7.96973H335.67V6.96973Z" fill="#24A2EE" fill-opacity="0.2"/>
</g>
<g opacity="0.3">
<path d="M371.185 10.3398H66.3613V11.3398H371.185V10.3398Z" fill="#24A2EE" fill-opacity="0.2"/>
</g>
<g opacity="0.3">
<path d="M409.693 14H92.0332V15H409.693V14Z" fill="#24A2EE" fill-opacity="0.2"/>
</g>
<g opacity="0.3">
<path d="M413.987 17.9697H119.96V18.9697H413.987V17.9697Z" fill="#24A2EE" fill-opacity="0.2"/>
</g>
<g opacity="0.3">
<path d="M413.999 22.3105H150.464V23.3105H413.999V22.3105Z" fill="#24A2EE" fill-opacity="0.2"/>
</g>
<g opacity="0.3">
<path d="M413.987 27.0703H183.891V28.0703H413.987V27.0703Z" fill="#24A2EE" fill-opacity="0.2"/>
</g>
<g opacity="0.3">
<path d="M413.999 32.3105H220.717V33.3105H413.999V32.3105Z" fill="#24A2EE" fill-opacity="0.2"/>
</g>
<path d="M414 38.1094H261.469V39.1094H414V38.1094Z" fill="#24A2EE" fill-opacity="0.2"/>
</svg>
