<svg width="419" height="40" viewBox="0 0 419 40" fill="none" xmlns="http://www.w3.org/2000/svg">
<g opacity="0.3">
<path d="M418.978 0.959961H147.104V1.95996H418.978V0.959961Z" fill="#24A2EE" fill-opacity="0.2"/>
</g>
<g opacity="0.3">
<path d="M398.65 3.86035H116.611V4.86035H398.65V3.86035Z" fill="#24A2EE" fill-opacity="0.2"/>
</g>
<g opacity="0.3">
<path d="M376.746 6.96973H83.7568V7.96973H376.746V6.96973Z" fill="#24A2EE" fill-opacity="0.2"/>
</g>
<g opacity="0.3">
<path d="M353.067 10.3398H48.2432V11.3398H353.067V10.3398Z" fill="#24A2EE" fill-opacity="0.2"/>
</g>
<g opacity="0.3">
<path d="M327.394 14H9.73438V15H327.394V14Z" fill="#24A2EE" fill-opacity="0.2"/>
</g>
<g opacity="0.3">
<path d="M299.467 17.9697H0V18.9697H299.467V17.9697Z" fill="#24A2EE" fill-opacity="0.2"/>
</g>
<g opacity="0.3">
<path d="M268.963 22.3096H0V23.3096H268.963V22.3096Z" fill="#24A2EE" fill-opacity="0.2"/>
</g>
<g opacity="0.3">
<path d="M235.537 27.0703H0V28.0703H235.537V27.0703Z" fill="#24A2EE" fill-opacity="0.2"/>
</g>
<g opacity="0.3">
<path d="M198.71 32.3096H0V33.3096H198.71V32.3096Z" fill="#24A2EE" fill-opacity="0.2"/>
</g>
<path d="M157.959 38.1104H0V39.1104H157.959V38.1104Z" fill="#24A2EE" fill-opacity="0.2"/>
</svg>
