<svg width="379" height="37" viewBox="0 0 379 37" fill="none" xmlns="http://www.w3.org/2000/svg">
<g opacity="0.3">
<path d="M0 15.85L203.47 1L203.375 0L0 14.84V15.85Z" fill="#24A2EE" fill-opacity="0.2"/>
</g>
<g opacity="0.3">
<path d="M0 17.69L222.939 1L222.844 0L0 16.69V17.69Z" fill="#24A2EE" fill-opacity="0.2"/>
</g>
<g opacity="0.3">
<path d="M0 19.64L242.42 1L242.301 0L0 18.64V19.64Z" fill="#24A2EE" fill-opacity="0.2"/>
</g>
<g opacity="0.3">
<path d="M0 21.7L261.889 1L261.77 0L0 20.7V21.7Z" fill="#24A2EE" fill-opacity="0.2"/>
</g>
<g opacity="0.3">
<path d="M0 23.88L281.358 1L281.239 0L0 22.87V23.88Z" fill="#24A2EE" fill-opacity="0.2"/>
</g>
<g opacity="0.3">
<path d="M0 26.18L300.827 1L300.708 0L0 25.17V26.18Z" fill="#24A2EE" fill-opacity="0.2"/>
</g>
<g opacity="0.3">
<path d="M0 28.62L320.296 1L320.177 0L0 27.61V28.62Z" fill="#24A2EE" fill-opacity="0.2"/>
</g>
<g opacity="0.3">
<path d="M0 31.21L339.765 1L339.646 0L0 30.21V31.21Z" fill="#24A2EE" fill-opacity="0.2"/>
</g>
<g opacity="0.3">
<path d="M0 33.98L359.234 1L359.115 0L0 32.97V33.98Z" fill="#24A2EE" fill-opacity="0.2"/>
</g>
<path d="M0 36.92L378.715 1L378.572 0L0 35.92V36.92Z" fill="#24A2EE" fill-opacity="0.2"/>
<path d="M378.643 0H183.953V1H378.643V0Z" fill="#24A2EE" fill-opacity="0.2"/>
<g opacity="0.3">
<path d="M363.171 1.46973H163.327V2.46973H363.171V1.46973Z" fill="#24A2EE" fill-opacity="0.2"/>
</g>
<g opacity="0.3">
<path d="M346.852 3.01953H141.568V4.01953H346.852V3.01953Z" fill="#24A2EE" fill-opacity="0.2"/>
</g>
<g opacity="0.3">
<path d="M329.637 4.65039H118.604V5.65039H329.637V4.65039Z" fill="#24A2EE" fill-opacity="0.2"/>
</g>
<g opacity="0.3">
<path d="M311.408 6.37988H94.3027V7.37988H311.408V6.37988Z" fill="#24A2EE" fill-opacity="0.2"/>
</g>
<g opacity="0.3">
<path d="M292.107 8.20996H68.5713V9.20996H292.107V8.20996Z" fill="#24A2EE" fill-opacity="0.2"/>
</g>
<g opacity="0.3">
<path d="M271.636 10.1504H41.2764V11.1504H271.636V10.1504Z" fill="#24A2EE" fill-opacity="0.2"/>
</g>
<g opacity="0.3">
<path d="M249.865 12.2207H12.252V13.2207H249.865V12.2207Z" fill="#24A2EE" fill-opacity="0.2"/>
</g>
<g opacity="0.3">
<path d="M226.685 14.4199H0V15.4199H226.685V14.4199Z" fill="#24A2EE" fill-opacity="0.2"/>
</g>
<g opacity="0.3">
<path d="M201.943 16.7598H0V17.7598H201.943V16.7598Z" fill="#24A2EE" fill-opacity="0.2"/>
</g>
<path d="M175.484 19.2695H0V20.2695H175.484V19.2695Z" fill="#24A2EE" fill-opacity="0.2"/>
<g opacity="0.3">
<path d="M147.103 21.96H0V22.96H147.103V21.96Z" fill="#24A2EE" fill-opacity="0.2"/>
</g>
<g opacity="0.3">
<path d="M116.611 24.8604H0V25.8604H116.611V24.8604Z" fill="#24A2EE" fill-opacity="0.2"/>
</g>
<g opacity="0.3">
<path d="M83.7573 27.9697H0V28.9697H83.7573V27.9697Z" fill="#24A2EE" fill-opacity="0.2"/>
</g>
<g opacity="0.3">
<path d="M48.2431 31.3398H0V32.3398H48.2431V31.3398Z" fill="#24A2EE" fill-opacity="0.2"/>
</g>
<g opacity="0.3">
<path d="M9.73451 35H0V36H9.73451V35Z" fill="#24A2EE" fill-opacity="0.2"/>
</g>
</svg>
