<svg width="769" height="191" viewBox="0 0 769 191" fill="none" xmlns="http://www.w3.org/2000/svg">
<g opacity="0.3">
<path d="M0 89.8L592.91 0.99L592.695 0L0 88.78V89.8Z" fill="#24A2EE" fill-opacity="0.2"/>
</g>
<g opacity="0.3">
<path d="M0 97.81L612.379 0.99L612.164 0L0 96.79V97.81Z" fill="#24A2EE" fill-opacity="0.2"/>
</g>
<g opacity="0.3">
<path d="M0 106.77L631.86 0.99L631.622 0L0 105.75V106.77Z" fill="#24A2EE" fill-opacity="0.2"/>
</g>
<g opacity="0.3">
<path d="M0 116.841L651.329 0.990742L651.091 0.0107422L0 115.821V116.841Z" fill="#24A2EE" fill-opacity="0.2"/>
</g>
<g opacity="0.3">
<path d="M0 128.261L670.81 0.990742L670.548 0.0107422L0 127.231V128.261Z" fill="#24A2EE" fill-opacity="0.2"/>
</g>
<g opacity="0.3">
<path d="M0 141.311L690.291 0.990742L690.005 0.0107422L0 140.281V141.311Z" fill="#24A2EE" fill-opacity="0.2"/>
</g>
<g opacity="0.3">
<path d="M0 156.361L709.772 0.980508L709.462 0.0205078L0 155.331V156.361Z" fill="#24A2EE" fill-opacity="0.2"/>
</g>
<g opacity="0.3">
<path d="M0 173.93L729.253 0.980508L728.919 0.0205078L0 172.891V173.93Z" fill="#24A2EE" fill-opacity="0.2"/>
</g>
<g opacity="0.3">
<path d="M748.362 -0.0089474L14.0029 190.074L14.3549 191.03L748.714 0.946537L748.362 -0.0089474Z" fill="#24A2EE" fill-opacity="0.2"/>
</g>
<path d="M767.856 0.0668152L100.174 189.946L100.557 190.893L768.239 1.0138L767.856 0.0668152Z" fill="#24A2EE" fill-opacity="0.2"/>
<path d="M768.024 0H573.334V1H768.024V0Z" fill="#24A2EE" fill-opacity="0.2"/>
<g opacity="0.3">
<path d="M762.858 1.46973H563.015V2.46973H762.858V1.46973Z" fill="#24A2EE" fill-opacity="0.2"/>
</g>
<g opacity="0.3">
<path d="M757.43 3.01953H552.146V4.01953H757.43V3.01953Z" fill="#24A2EE" fill-opacity="0.2"/>
</g>
<g opacity="0.3">
<path d="M751.693 4.65039H540.659V5.65039H751.693V4.65039Z" fill="#24A2EE" fill-opacity="0.2"/>
</g>
<g opacity="0.3">
<path d="M745.62 6.37988H528.515V7.37988H745.62V6.37988Z" fill="#24A2EE" fill-opacity="0.2"/>
</g>
<g opacity="0.3">
<path d="M739.178 8.20996H515.643V9.20996H739.178V8.20996Z" fill="#24A2EE" fill-opacity="0.2"/>
</g>
<g opacity="0.3">
<path d="M732.355 10.1504H501.995V11.1504H732.355V10.1504Z" fill="#24A2EE" fill-opacity="0.2"/>
</g>
<g opacity="0.3">
<path d="M725.089 12.2207H487.477V13.2207H725.089V12.2207Z" fill="#24A2EE" fill-opacity="0.2"/>
</g>
<g opacity="0.3">
<path d="M717.371 14.4199H472.028V15.4199H717.371V14.4199Z" fill="#24A2EE" fill-opacity="0.2"/>
</g>
<g opacity="0.3">
<path d="M709.116 16.7598H455.529V17.7598H709.116V16.7598Z" fill="#24A2EE" fill-opacity="0.2"/>
</g>
<path d="M700.3 19.2695H437.886V20.2695H700.3V19.2695Z" fill="#24A2EE" fill-opacity="0.2"/>
<g opacity="0.3">
<path d="M690.852 21.9609H418.978V22.9609H690.852V21.9609Z" fill="#24A2EE" fill-opacity="0.2"/>
</g>
<g opacity="0.3">
<path d="M680.688 24.8613H398.649V25.8613H680.688V24.8613Z" fill="#24A2EE" fill-opacity="0.2"/>
</g>
<g opacity="0.3">
<path d="M669.737 27.9707H376.747V28.9707H669.737V27.9707Z" fill="#24A2EE" fill-opacity="0.2"/>
</g>
<g opacity="0.3">
<path d="M657.89 31.3408H353.066V32.3408H657.89V31.3408Z" fill="#24A2EE" fill-opacity="0.2"/>
</g>
<g opacity="0.3">
<path d="M645.054 35.001H327.395V36.001H645.054V35.001Z" fill="#24A2EE" fill-opacity="0.2"/>
</g>
<g opacity="0.3">
<path d="M631.096 38.9707H299.467V39.9707H631.096V38.9707Z" fill="#24A2EE" fill-opacity="0.2"/>
</g>
<g opacity="0.3">
<path d="M615.838 43.3105H268.963V44.3105H615.838V43.3105Z" fill="#24A2EE" fill-opacity="0.2"/>
</g>
<g opacity="0.3">
<path d="M599.126 48.0703H235.537V49.0703H599.126V48.0703Z" fill="#24A2EE" fill-opacity="0.2"/>
</g>
<g opacity="0.3">
<path d="M580.706 53.3105H198.71V54.3105H580.706V53.3105Z" fill="#24A2EE" fill-opacity="0.2"/>
</g>
<path d="M560.331 59.1113H157.959V60.1113H560.331V59.1113Z" fill="#24A2EE" fill-opacity="0.2"/>
<g opacity="0.3">
<path d="M537.665 65.5605H112.615V66.5605H537.665V65.5605Z" fill="#24A2EE" fill-opacity="0.2"/>
</g>
<g opacity="0.3">
<path d="M512.29 72.7812H61.8662V73.7812H512.29V72.7812Z" fill="#24A2EE" fill-opacity="0.2"/>
</g>
<g opacity="0.3">
<path d="M483.695 80.9199H4.66406V81.9199H483.695V80.9199Z" fill="#24A2EE" fill-opacity="0.2"/>
</g>
<g opacity="0.3">
<path d="M451.211 90.1602H0V91.1602H451.211V90.1602Z" fill="#24A2EE" fill-opacity="0.2"/>
</g>
<g opacity="0.3">
<path d="M414.003 100.751H0V101.751H414.003V100.751Z" fill="#24A2EE" fill-opacity="0.2"/>
</g>
<g opacity="0.3">
<path d="M370.961 113.001H0V114.001H370.961V113.001Z" fill="#24A2EE" fill-opacity="0.2"/>
</g>
<g opacity="0.3">
<path d="M320.595 127.33H0V128.33H320.595V127.33Z" fill="#24A2EE" fill-opacity="0.2"/>
</g>
<g opacity="0.3">
<path d="M260.851 144.341H0V145.341H260.851V144.341Z" fill="#24A2EE" fill-opacity="0.2"/>
</g>
<g opacity="0.3">
<path d="M188.857 164.83H0V165.83H188.857V164.83Z" fill="#24A2EE" fill-opacity="0.2"/>
</g>
<path d="M100.399 190.001H0V191.001H100.399V190.001Z" fill="#24A2EE" fill-opacity="0.2"/>
</svg>
