<svg width="398" height="21" viewBox="0 0 398 21" fill="none" xmlns="http://www.w3.org/2000/svg">
<path d="M194.784 0H0.09375V1H194.784V0Z" fill="#24A2EE" fill-opacity="0.2"/>
<g opacity="0.3">
<path d="M210.257 1.46973H10.4131V2.46973H210.257V1.46973Z" fill="#24A2EE" fill-opacity="0.2"/>
</g>
<g opacity="0.3">
<path d="M226.564 3.01953H21.2803V4.01953H226.564V3.01953Z" fill="#24A2EE" fill-opacity="0.2"/>
</g>
<g opacity="0.3">
<path d="M243.802 4.65039H32.7686V5.65039H243.802V4.65039Z" fill="#24A2EE" fill-opacity="0.2"/>
</g>
<g opacity="0.3">
<path d="M262.019 6.37988H44.9131V7.37988H262.019V6.37988Z" fill="#24A2EE" fill-opacity="0.2"/>
</g>
<g opacity="0.3">
<path d="M281.321 8.20996H57.7852V9.20996H281.321V8.20996Z" fill="#24A2EE" fill-opacity="0.2"/>
</g>
<g opacity="0.3">
<path d="M301.792 10.1504H71.4326V11.1504H301.792V10.1504Z" fill="#24A2EE" fill-opacity="0.2"/>
</g>
<g opacity="0.3">
<path d="M323.563 12.2207H85.9502V13.2207H323.563V12.2207Z" fill="#24A2EE" fill-opacity="0.2"/>
</g>
<g opacity="0.3">
<path d="M346.742 14.4199H101.399V15.4199H346.742V14.4199Z" fill="#24A2EE" fill-opacity="0.2"/>
</g>
<g opacity="0.3">
<path d="M371.485 16.7598H117.898V17.7598H371.485V16.7598Z" fill="#24A2EE" fill-opacity="0.2"/>
</g>
<path d="M397.956 19.2695H135.542V20.2695H397.956V19.2695Z" fill="#24A2EE" fill-opacity="0.2"/>
</svg>
