<svg width="763" height="191" viewBox="0 0 763 191" fill="none" xmlns="http://www.w3.org/2000/svg">
<g opacity="0.3">
<path d="M19.9875 0.0151671L19.6357 0.970703L754.035 190.946L754.386 189.991L19.9875 0.0151671Z" fill="#24A2EE" fill-opacity="0.2"/>
</g>
<g opacity="0.3">
<path d="M763 171.6L39.5088 0.0195312L39.1748 0.979531L763 172.64V171.6Z" fill="#24A2EE" fill-opacity="0.2"/>
</g>
<g opacity="0.3">
<path d="M763 154.14L58.9664 0.0195312L58.6562 0.979531L763 155.17V154.14Z" fill="#24A2EE" fill-opacity="0.2"/>
</g>
<g opacity="0.3">
<path d="M763 139.17L78.423 0.00976562L78.1367 0.989766L763 140.2V139.17Z" fill="#24A2EE" fill-opacity="0.2"/>
</g>
<g opacity="0.3">
<path d="M763 126.2L97.8807 0.00976562L97.6182 0.989766L763 127.23V126.2Z" fill="#24A2EE" fill-opacity="0.2"/>
</g>
<g opacity="0.3">
<path d="M763 114.85L117.337 0.00976562L117.099 0.989766L763 115.87V114.85Z" fill="#24A2EE" fill-opacity="0.2"/>
</g>
<g opacity="0.3">
<path d="M763 104.84L136.806 0L136.567 0.99L763 105.86V104.84Z" fill="#24A2EE" fill-opacity="0.2"/>
</g>
<g opacity="0.3">
<path d="M763 95.94L156.263 0L156.049 0.99L763 96.95V95.94Z" fill="#24A2EE" fill-opacity="0.2"/>
</g>
<g opacity="0.3">
<path d="M763 87.97L175.732 0L175.518 0.99L763 88.99V87.97Z" fill="#24A2EE" fill-opacity="0.2"/>
</g>
<path d="M763 80.8L195.19 0L194.999 0.99L763 81.82V80.8Z" fill="#24A2EE" fill-opacity="0.2"/>
<path d="M195.094 0H0.404297V1H195.094V0Z" fill="#24A2EE" fill-opacity="0.2"/>
<g opacity="0.3">
<path d="M205.401 1.46973H5.55762V2.46973H205.401V1.46973Z" fill="#24A2EE" fill-opacity="0.2"/>
</g>
<g opacity="0.3">
<path d="M216.282 3.01953H10.998V4.01953H216.282V3.01953Z" fill="#24A2EE" fill-opacity="0.2"/>
</g>
<g opacity="0.3">
<path d="M227.782 4.65039H16.748V5.65039H227.782V4.65039Z" fill="#24A2EE" fill-opacity="0.2"/>
</g>
<g opacity="0.3">
<path d="M239.926 6.37988H22.8203V7.37988H239.926V6.37988Z" fill="#24A2EE" fill-opacity="0.2"/>
</g>
<g opacity="0.3">
<path d="M252.786 8.20996H29.25V9.20996H252.786V8.20996Z" fill="#24A2EE" fill-opacity="0.2"/>
</g>
<g opacity="0.3">
<path d="M266.433 10.1504H36.0732V11.1504H266.433V10.1504Z" fill="#24A2EE" fill-opacity="0.2"/>
</g>
<g opacity="0.3">
<path d="M280.94 12.2207H43.3271V13.2207H280.94V12.2207Z" fill="#24A2EE" fill-opacity="0.2"/>
</g>
<g opacity="0.3">
<path d="M296.4 14.4199H51.0566V15.4199H296.4V14.4199Z" fill="#24A2EE" fill-opacity="0.2"/>
</g>
<g opacity="0.3">
<path d="M312.887 16.7598H59.3008V17.7598H312.887V16.7598Z" fill="#24A2EE" fill-opacity="0.2"/>
</g>
<path d="M330.542 19.2695H68.1279V20.2695H330.542V19.2695Z" fill="#24A2EE" fill-opacity="0.2"/>
<g opacity="0.3">
<path d="M349.463 21.96H77.5889V22.96H349.463V21.96Z" fill="#24A2EE" fill-opacity="0.2"/>
</g>
<g opacity="0.3">
<path d="M369.779 24.8594H87.7412V25.8594H369.779V24.8594Z" fill="#24A2EE" fill-opacity="0.2"/>
</g>
<g opacity="0.3">
<path d="M391.694 27.9697H98.7041V28.9697H391.694V27.9697Z" fill="#24A2EE" fill-opacity="0.2"/>
</g>
<g opacity="0.3">
<path d="M415.362 31.3398H110.538V32.3398H415.362V31.3398Z" fill="#24A2EE" fill-opacity="0.2"/>
</g>
<g opacity="0.3">
<path d="M441.034 35H123.374V36H441.034V35Z" fill="#24A2EE" fill-opacity="0.2"/>
</g>
<g opacity="0.3">
<path d="M468.973 38.9697H137.344V39.9697H468.973V38.9697Z" fill="#24A2EE" fill-opacity="0.2"/>
</g>
<g opacity="0.3">
<path d="M499.465 43.3096H152.59V44.3096H499.465V43.3096Z" fill="#24A2EE" fill-opacity="0.2"/>
</g>
<g opacity="0.3">
<path d="M532.891 48.0703H169.303V49.0703H532.891V48.0703Z" fill="#24A2EE" fill-opacity="0.2"/>
</g>
<g opacity="0.3">
<path d="M569.706 53.3105H187.71V54.3105H569.706V53.3105Z" fill="#24A2EE" fill-opacity="0.2"/>
</g>
<path d="M610.469 59.1104H208.086V60.1104H610.469V59.1104Z" fill="#24A2EE" fill-opacity="0.2"/>
<g opacity="0.3">
<path d="M655.813 65.5596H230.764V66.5596H655.813V65.5596Z" fill="#24A2EE" fill-opacity="0.2"/>
</g>
<g opacity="0.3">
<path d="M706.561 72.7793H256.138V73.7793H706.561V72.7793Z" fill="#24A2EE" fill-opacity="0.2"/>
</g>
<g opacity="0.3">
<path d="M763 80.9199H284.745V81.9199H763V80.9199Z" fill="#24A2EE" fill-opacity="0.2"/>
</g>
<g opacity="0.3">
<path d="M762.988 90.1592H317.217V91.1592H762.988V90.1592Z" fill="#24A2EE" fill-opacity="0.2"/>
</g>
<g opacity="0.3">
<path d="M762.988 100.75H354.425V101.75H762.988V100.75Z" fill="#24A2EE" fill-opacity="0.2"/>
</g>
<g opacity="0.3">
<path d="M763 113H397.467V114H763V113Z" fill="#24A2EE" fill-opacity="0.2"/>
</g>
<g opacity="0.3">
<path d="M762.989 127.33H447.834V128.33H762.989V127.33Z" fill="#24A2EE" fill-opacity="0.2"/>
</g>
<g opacity="0.3">
<path d="M762.988 144.34H507.576V145.34H762.988V144.34Z" fill="#24A2EE" fill-opacity="0.2"/>
</g>
<g opacity="0.3">
<path d="M762.988 164.829H579.571V165.829H762.988V164.829Z" fill="#24A2EE" fill-opacity="0.2"/>
</g>
<path d="M762.988 190H668.029V191H762.988V190Z" fill="#24A2EE" fill-opacity="0.2"/>
</svg>
