<svg width="864" height="191" viewBox="0 0 864 191" fill="none" xmlns="http://www.w3.org/2000/svg">
<g opacity="0.3">
<path d="M687.313 0.111054L86.3809 189.954L86.8016 190.89L687.733 1.04681L687.313 0.111054Z" fill="#24A2EE" fill-opacity="0.2"/>
</g>
<g opacity="0.3">
<path d="M706.723 0.0626209L172.642 190.099L173.108 191.019L707.189 0.983126L706.723 0.0626209Z" fill="#24A2EE" fill-opacity="0.2"/>
</g>
<g opacity="0.3">
<path d="M726.205 0.124605L258.816 190.03L259.337 190.93L726.726 1.02447L726.205 0.124605Z" fill="#24A2EE" fill-opacity="0.2"/>
</g>
<g opacity="0.3">
<path d="M745.669 0.169505L344.966 189.976L345.553 190.846L746.256 1.04012L745.669 0.169505Z" fill="#24A2EE" fill-opacity="0.2"/>
</g>
<g opacity="0.3">
<path d="M765.112 0.19327L431.153 190.014L431.823 190.841L765.781 1.02094L765.112 0.19327Z" fill="#24A2EE" fill-opacity="0.2"/>
</g>
<g opacity="0.3">
<path d="M784.401 0.0817785L517.494 190.227L518.267 190.989L785.173 0.843769L784.401 0.0817785Z" fill="#24A2EE" fill-opacity="0.2"/>
</g>
<g opacity="0.3">
<path d="M803.921 0.22235L603.575 190.179L604.469 190.841L804.815 0.884708L803.921 0.22235Z" fill="#24A2EE" fill-opacity="0.2"/>
</g>
<g opacity="0.3">
<path d="M823.268 0.243577L689.671 190.211L690.699 190.719L824.296 0.751416L823.268 0.243577Z" fill="#24A2EE" fill-opacity="0.2"/>
</g>
<g opacity="0.3">
<path d="M842.715 0.365669L775.803 190.328L776.947 190.611L843.859 0.648847L842.715 0.365669Z" fill="#24A2EE" fill-opacity="0.2"/>
</g>
<path d="M863.311 0.5H862.118V190.5H863.311V0.5Z" fill="#24A2EE" fill-opacity="0.2"/>
<path d="M862.715 0H668.024V1H862.715V0Z" fill="#24A2EE" fill-opacity="0.2"/>
<g opacity="0.3">
<path d="M862.715 1.46973H662.871V2.46973H862.715V1.46973Z" fill="#24A2EE" fill-opacity="0.2"/>
</g>
<g opacity="0.3">
<path d="M862.715 3.01953H657.432V4.01953H862.715V3.01953Z" fill="#24A2EE" fill-opacity="0.2"/>
</g>
<g opacity="0.3">
<path d="M862.715 4.65039H651.682V5.65039H862.715V4.65039Z" fill="#24A2EE" fill-opacity="0.2"/>
</g>
<g opacity="0.3">
<path d="M862.715 6.37988H645.609V7.37988H862.715V6.37988Z" fill="#24A2EE" fill-opacity="0.2"/>
</g>
<g opacity="0.3">
<path d="M862.714 8.20996H639.179V9.20996H862.714V8.20996Z" fill="#24A2EE" fill-opacity="0.2"/>
</g>
<g opacity="0.3">
<path d="M862.715 10.1504H632.355V11.1504H862.715V10.1504Z" fill="#24A2EE" fill-opacity="0.2"/>
</g>
<g opacity="0.3">
<path d="M862.715 12.2207H625.103V13.2207H862.715V12.2207Z" fill="#24A2EE" fill-opacity="0.2"/>
</g>
<g opacity="0.3">
<path d="M862.715 14.4199H617.372V15.4199H862.715V14.4199Z" fill="#24A2EE" fill-opacity="0.2"/>
</g>
<g opacity="0.3">
<path d="M862.715 16.7598H609.129V17.7598H862.715V16.7598Z" fill="#24A2EE" fill-opacity="0.2"/>
</g>
<path d="M862.715 19.2695H600.301V20.2695H862.715V19.2695Z" fill="#24A2EE" fill-opacity="0.2"/>
<g opacity="0.3">
<path d="M862.714 21.96H590.84V22.96H862.714V21.96Z" fill="#24A2EE" fill-opacity="0.2"/>
</g>
<g opacity="0.3">
<path d="M862.714 24.8594H580.676V25.8594H862.714V24.8594Z" fill="#24A2EE" fill-opacity="0.2"/>
</g>
<g opacity="0.3">
<path d="M862.714 27.9697H569.725V28.9697H862.714V27.9697Z" fill="#24A2EE" fill-opacity="0.2"/>
</g>
<g opacity="0.3">
<path d="M862.714 31.3398H557.891V32.3398H862.714V31.3398Z" fill="#24A2EE" fill-opacity="0.2"/>
</g>
<g opacity="0.3">
<path d="M862.715 35H545.055V36H862.715V35Z" fill="#24A2EE" fill-opacity="0.2"/>
</g>
<g opacity="0.3">
<path d="M862.714 38.9697H531.085V39.9697H862.714V38.9697Z" fill="#24A2EE" fill-opacity="0.2"/>
</g>
<g opacity="0.3">
<path d="M862.714 43.3096H515.839V44.3096H862.714V43.3096Z" fill="#24A2EE" fill-opacity="0.2"/>
</g>
<g opacity="0.3">
<path d="M862.715 48.0703H499.126V49.0703H862.715V48.0703Z" fill="#24A2EE" fill-opacity="0.2"/>
</g>
<g opacity="0.3">
<path d="M862.715 53.3105H480.719V54.3105H862.715V53.3105Z" fill="#24A2EE" fill-opacity="0.2"/>
</g>
<path d="M862.714 59.1104H460.343V60.1104H862.714V59.1104Z" fill="#24A2EE" fill-opacity="0.2"/>
<g opacity="0.3">
<path d="M862.715 65.5596H437.665V66.5596H862.715V65.5596Z" fill="#24A2EE" fill-opacity="0.2"/>
</g>
<g opacity="0.3">
<path d="M862.715 72.7793H412.291V73.7793H862.715V72.7793Z" fill="#24A2EE" fill-opacity="0.2"/>
</g>
<g opacity="0.3">
<path d="M862.714 80.9199H383.684V81.9199H862.714V80.9199Z" fill="#24A2EE" fill-opacity="0.2"/>
</g>
<g opacity="0.3">
<path d="M862.715 90.1602H351.212V91.1602H862.715V90.1602Z" fill="#24A2EE" fill-opacity="0.2"/>
</g>
<g opacity="0.3">
<path d="M862.714 100.75H314.003V101.75H862.714V100.75Z" fill="#24A2EE" fill-opacity="0.2"/>
</g>
<g opacity="0.3">
<path d="M862.714 113H270.961V114H862.714V113Z" fill="#24A2EE" fill-opacity="0.2"/>
</g>
<g opacity="0.3">
<path d="M862.714 127.329H220.595V128.329H862.714V127.329Z" fill="#24A2EE" fill-opacity="0.2"/>
</g>
<g opacity="0.3">
<path d="M862.714 144.34H160.852V145.34H862.714V144.34Z" fill="#24A2EE" fill-opacity="0.2"/>
</g>
<g opacity="0.3">
<path d="M862.715 164.83H88.8574V165.83H862.715V164.83Z" fill="#24A2EE" fill-opacity="0.2"/>
</g>
<path d="M862.714 190H0.399414V191H862.714V190Z" fill="#24A2EE" fill-opacity="0.2"/>
</svg>
