<svg width="374" height="36" viewBox="0 0 374 36" fill="none" xmlns="http://www.w3.org/2000/svg">
<g opacity="0.3">
<path d="M374 32.47L20.3126 0L20.1934 1L374 33.48V32.47Z" fill="#24A2EE" fill-opacity="0.2"/>
</g>
<g opacity="0.3">
<path d="M373.999 29.73L39.7815 0L39.6621 1L373.999 30.73V29.73Z" fill="#24A2EE" fill-opacity="0.2"/>
</g>
<g opacity="0.3">
<path d="M374 27.15L59.2511 0L59.1318 1L374 28.15V27.15Z" fill="#24A2EE" fill-opacity="0.2"/>
</g>
<g opacity="0.3">
<path d="M374 24.72L78.72 0L78.6006 1L374 25.72V24.72Z" fill="#24A2EE" fill-opacity="0.2"/>
</g>
<g opacity="0.3">
<path d="M374 22.43L98.1886 0L98.0693 1L374 23.43V22.43Z" fill="#24A2EE" fill-opacity="0.2"/>
</g>
<g opacity="0.3">
<path d="M373.999 20.27L117.657 0L117.538 1L373.999 21.27V20.27Z" fill="#24A2EE" fill-opacity="0.2"/>
</g>
<g opacity="0.3">
<path d="M374 18.22L137.127 0L137.008 1L374 19.23V18.22Z" fill="#24A2EE" fill-opacity="0.2"/>
</g>
<g opacity="0.3">
<path d="M374 16.28L156.596 0L156.488 1L374 17.29V16.28Z" fill="#24A2EE" fill-opacity="0.2"/>
</g>
<g opacity="0.3">
<path d="M373.999 14.45L176.053 0L175.957 1L373.999 15.45V14.45Z" fill="#24A2EE" fill-opacity="0.2"/>
</g>
<path d="M374 12.7L195.522 0L195.427 1L374 13.7V12.7Z" fill="#24A2EE" fill-opacity="0.2"/>
<path d="M195.474 0H0.78418V1H195.474V0Z" fill="#24A2EE" fill-opacity="0.2"/>
<g opacity="0.3">
<path d="M216.101 1.46973H16.2568V2.46973H216.101V1.46973Z" fill="#24A2EE" fill-opacity="0.2"/>
</g>
<g opacity="0.3">
<path d="M237.86 3.01953H32.5762V4.01953H237.86V3.01953Z" fill="#24A2EE" fill-opacity="0.2"/>
</g>
<g opacity="0.3">
<path d="M260.836 4.65039H49.8027V5.65039H260.836V4.65039Z" fill="#24A2EE" fill-opacity="0.2"/>
</g>
<g opacity="0.3">
<path d="M285.125 6.37988H68.0195V7.37988H285.125V6.37988Z" fill="#24A2EE" fill-opacity="0.2"/>
</g>
<g opacity="0.3">
<path d="M310.857 8.20996H87.3213V9.20996H310.857V8.20996Z" fill="#24A2EE" fill-opacity="0.2"/>
</g>
<g opacity="0.3">
<path d="M338.151 10.1504H107.792V11.1504H338.151V10.1504Z" fill="#24A2EE" fill-opacity="0.2"/>
</g>
<g opacity="0.3">
<path d="M367.176 12.2197H129.563V13.2197H367.176V12.2197Z" fill="#24A2EE" fill-opacity="0.2"/>
</g>
<g opacity="0.3">
<path d="M373.988 14.4199H152.743V15.4199H373.988V14.4199Z" fill="#24A2EE" fill-opacity="0.2"/>
</g>
<g opacity="0.3">
<path d="M373.988 16.7598H177.484V17.7598H373.988V16.7598Z" fill="#24A2EE" fill-opacity="0.2"/>
</g>
<path d="M373.988 19.2695H203.944V20.2695H373.988V19.2695Z" fill="#24A2EE" fill-opacity="0.2"/>
<g opacity="0.3">
<path d="M373.999 21.96H232.324V22.96H373.999V21.96Z" fill="#24A2EE" fill-opacity="0.2"/>
</g>
<g opacity="0.3">
<path d="M374 24.8604H262.816V25.8604H374V24.8604Z" fill="#24A2EE" fill-opacity="0.2"/>
</g>
<g opacity="0.3">
<path d="M373.987 27.9697H295.67V28.9697H373.987V27.9697Z" fill="#24A2EE" fill-opacity="0.2"/>
</g>
<g opacity="0.3">
<path d="M373.988 31.3398H331.185V32.3398H373.988V31.3398Z" fill="#24A2EE" fill-opacity="0.2"/>
</g>
<g opacity="0.3">
<path d="M373.988 35H369.693V36H373.988V35Z" fill="#24A2EE" fill-opacity="0.2"/>
</g>
</svg>
